G04 #@! TF.FileFunction,Other,Comment*
%FSLAX46Y46*%
G04 Gerber Fmt 4.6, Leading zero omitted, Abs format (unit mm)*
G04 Created by KiCad (PCBNEW 4.0.7-e2-6376~58~ubuntu16.04.1) date Fri Sep 22 12:12:09 2017*
%MOMM*%
%LPD*%
G01*
G04 APERTURE LIST*
%ADD10C,0.100000*%
%ADD11C,0.300000*%
%ADD12C,0.150000*%
G04 APERTURE END LIST*
D10*
D11*
X93321428Y-152178571D02*
X93321428Y-153250000D01*
X93250000Y-153464286D01*
X93107143Y-153607143D01*
X92892857Y-153678571D01*
X92750000Y-153678571D01*
X94035714Y-152178571D02*
X94035714Y-153392857D01*
X94107142Y-153535714D01*
X94178571Y-153607143D01*
X94321428Y-153678571D01*
X94607142Y-153678571D01*
X94750000Y-153607143D01*
X94821428Y-153535714D01*
X94892857Y-153392857D01*
X94892857Y-152178571D01*
X95535714Y-153607143D02*
X95750000Y-153678571D01*
X96107143Y-153678571D01*
X96250000Y-153607143D01*
X96321429Y-153535714D01*
X96392857Y-153392857D01*
X96392857Y-153250000D01*
X96321429Y-153107143D01*
X96250000Y-153035714D01*
X96107143Y-152964286D01*
X95821429Y-152892857D01*
X95678571Y-152821429D01*
X95607143Y-152750000D01*
X95535714Y-152607143D01*
X95535714Y-152464286D01*
X95607143Y-152321429D01*
X95678571Y-152250000D01*
X95821429Y-152178571D01*
X96178571Y-152178571D01*
X96392857Y-152250000D01*
X96821428Y-152178571D02*
X97678571Y-152178571D01*
X97250000Y-153678571D02*
X97250000Y-152178571D01*
X98464285Y-152178571D02*
X98749999Y-152178571D01*
X98892857Y-152250000D01*
X99035714Y-152392857D01*
X99107142Y-152678571D01*
X99107142Y-153178571D01*
X99035714Y-153464286D01*
X98892857Y-153607143D01*
X98749999Y-153678571D01*
X98464285Y-153678571D01*
X98321428Y-153607143D01*
X98178571Y-153464286D01*
X98107142Y-153178571D01*
X98107142Y-152678571D01*
X98178571Y-152392857D01*
X98321428Y-152250000D01*
X98464285Y-152178571D01*
X101750000Y-153535714D02*
X101678571Y-153607143D01*
X101464285Y-153678571D01*
X101321428Y-153678571D01*
X101107143Y-153607143D01*
X100964285Y-153464286D01*
X100892857Y-153321429D01*
X100821428Y-153035714D01*
X100821428Y-152821429D01*
X100892857Y-152535714D01*
X100964285Y-152392857D01*
X101107143Y-152250000D01*
X101321428Y-152178571D01*
X101464285Y-152178571D01*
X101678571Y-152250000D01*
X101750000Y-152321429D01*
X102321428Y-153250000D02*
X103035714Y-153250000D01*
X102178571Y-153678571D02*
X102678571Y-152178571D01*
X103178571Y-153678571D01*
X104178571Y-152892857D02*
X104392857Y-152964286D01*
X104464285Y-153035714D01*
X104535714Y-153178571D01*
X104535714Y-153392857D01*
X104464285Y-153535714D01*
X104392857Y-153607143D01*
X104249999Y-153678571D01*
X103678571Y-153678571D01*
X103678571Y-152178571D01*
X104178571Y-152178571D01*
X104321428Y-152250000D01*
X104392857Y-152321429D01*
X104464285Y-152464286D01*
X104464285Y-152607143D01*
X104392857Y-152750000D01*
X104321428Y-152821429D01*
X104178571Y-152892857D01*
X103678571Y-152892857D01*
X106035714Y-153678571D02*
X105535714Y-152964286D01*
X105178571Y-153678571D02*
X105178571Y-152178571D01*
X105749999Y-152178571D01*
X105892857Y-152250000D01*
X105964285Y-152321429D01*
X106035714Y-152464286D01*
X106035714Y-152678571D01*
X105964285Y-152821429D01*
X105892857Y-152892857D01*
X105749999Y-152964286D01*
X105178571Y-152964286D01*
X106964285Y-152178571D02*
X107249999Y-152178571D01*
X107392857Y-152250000D01*
X107535714Y-152392857D01*
X107607142Y-152678571D01*
X107607142Y-153178571D01*
X107535714Y-153464286D01*
X107392857Y-153607143D01*
X107249999Y-153678571D01*
X106964285Y-153678571D01*
X106821428Y-153607143D01*
X106678571Y-153464286D01*
X106607142Y-153178571D01*
X106607142Y-152678571D01*
X106678571Y-152392857D01*
X106821428Y-152250000D01*
X106964285Y-152178571D01*
X108250000Y-153678571D02*
X108250000Y-152178571D01*
X109107143Y-153678571D01*
X109107143Y-152178571D01*
D12*
X92800000Y-143000000D02*
G75*
G03X92800000Y-143000000I-2800000J0D01*
G01*
X133800000Y-143000000D02*
G75*
G03X133800000Y-143000000I-2800000J0D01*
G01*
M02*
