G04 #@! TF.FileFunction,Legend,Bot*
%FSLAX46Y46*%
G04 Gerber Fmt 4.6, Leading zero omitted, Abs format (unit mm)*
G04 Created by KiCad (PCBNEW 4.0.7-e2-6376~58~ubuntu16.04.1) date Thu Sep 14 12:30:46 2017*
%MOMM*%
%LPD*%
G01*
G04 APERTURE LIST*
%ADD10C,0.100000*%
%ADD11C,0.300000*%
%ADD12C,0.150000*%
G04 APERTURE END LIST*
D10*
D11*
X149142857Y-136178571D02*
X148571428Y-136178571D01*
X148928571Y-137178571D02*
X148928571Y-135892857D01*
X148857143Y-135750000D01*
X148714285Y-135678571D01*
X148571428Y-135678571D01*
X147428571Y-136178571D02*
X147428571Y-137178571D01*
X148071428Y-136178571D02*
X148071428Y-136964286D01*
X148000000Y-137107143D01*
X147857142Y-137178571D01*
X147642857Y-137178571D01*
X147500000Y-137107143D01*
X147428571Y-137035714D01*
X146714285Y-137178571D02*
X146714285Y-136178571D01*
X146714285Y-136321429D02*
X146642857Y-136250000D01*
X146499999Y-136178571D01*
X146285714Y-136178571D01*
X146142857Y-136250000D01*
X146071428Y-136392857D01*
X146071428Y-137178571D01*
X146071428Y-136392857D02*
X145999999Y-136250000D01*
X145857142Y-136178571D01*
X145642857Y-136178571D01*
X145499999Y-136250000D01*
X145428571Y-136392857D01*
X145428571Y-137178571D01*
X144714285Y-137178571D02*
X144714285Y-135678571D01*
X144714285Y-136250000D02*
X144571428Y-136178571D01*
X144285714Y-136178571D01*
X144142857Y-136250000D01*
X144071428Y-136321429D01*
X143999999Y-136464286D01*
X143999999Y-136892857D01*
X144071428Y-137035714D01*
X144142857Y-137107143D01*
X144285714Y-137178571D01*
X144571428Y-137178571D01*
X144714285Y-137107143D01*
X143142856Y-137178571D02*
X143285714Y-137107143D01*
X143357142Y-136964286D01*
X143357142Y-135678571D01*
X141928571Y-137178571D02*
X141928571Y-136392857D01*
X142000000Y-136250000D01*
X142142857Y-136178571D01*
X142428571Y-136178571D01*
X142571428Y-136250000D01*
X141928571Y-137107143D02*
X142071428Y-137178571D01*
X142428571Y-137178571D01*
X142571428Y-137107143D01*
X142642857Y-136964286D01*
X142642857Y-136821429D01*
X142571428Y-136678571D01*
X142428571Y-136607143D01*
X142071428Y-136607143D01*
X141928571Y-136535714D01*
X140571428Y-136178571D02*
X140571428Y-137178571D01*
X141214285Y-136178571D02*
X141214285Y-136964286D01*
X141142857Y-137107143D01*
X140999999Y-137178571D01*
X140785714Y-137178571D01*
X140642857Y-137107143D01*
X140571428Y-137035714D01*
X139857142Y-137035714D02*
X139785714Y-137107143D01*
X139857142Y-137178571D01*
X139928571Y-137107143D01*
X139857142Y-137035714D01*
X139857142Y-137178571D01*
X139357142Y-136178571D02*
X138785713Y-136178571D01*
X139142856Y-135678571D02*
X139142856Y-136964286D01*
X139071428Y-137107143D01*
X138928570Y-137178571D01*
X138785713Y-137178571D01*
X137714285Y-137107143D02*
X137857142Y-137178571D01*
X138142856Y-137178571D01*
X138285713Y-137107143D01*
X138357142Y-136964286D01*
X138357142Y-136392857D01*
X138285713Y-136250000D01*
X138142856Y-136178571D01*
X137857142Y-136178571D01*
X137714285Y-136250000D01*
X137642856Y-136392857D01*
X137642856Y-136535714D01*
X138357142Y-136678571D01*
X136357142Y-137107143D02*
X136499999Y-137178571D01*
X136785713Y-137178571D01*
X136928571Y-137107143D01*
X136999999Y-137035714D01*
X137071428Y-136892857D01*
X137071428Y-136464286D01*
X136999999Y-136321429D01*
X136928571Y-136250000D01*
X136785713Y-136178571D01*
X136499999Y-136178571D01*
X136357142Y-136250000D01*
X135714285Y-137178571D02*
X135714285Y-135678571D01*
X135071428Y-137178571D02*
X135071428Y-136392857D01*
X135142857Y-136250000D01*
X135285714Y-136178571D01*
X135499999Y-136178571D01*
X135642857Y-136250000D01*
X135714285Y-136321429D01*
X116214285Y-139617857D02*
X116714285Y-139617857D01*
X116714285Y-140403571D02*
X116714285Y-138903571D01*
X115999999Y-138903571D01*
X114785714Y-139403571D02*
X114785714Y-140403571D01*
X115428571Y-139403571D02*
X115428571Y-140189286D01*
X115357143Y-140332143D01*
X115214285Y-140403571D01*
X115000000Y-140403571D01*
X114857143Y-140332143D01*
X114785714Y-140260714D01*
X114071428Y-140403571D02*
X114071428Y-139403571D01*
X114071428Y-139546429D02*
X114000000Y-139475000D01*
X113857142Y-139403571D01*
X113642857Y-139403571D01*
X113500000Y-139475000D01*
X113428571Y-139617857D01*
X113428571Y-140403571D01*
X113428571Y-139617857D02*
X113357142Y-139475000D01*
X113214285Y-139403571D01*
X113000000Y-139403571D01*
X112857142Y-139475000D01*
X112785714Y-139617857D01*
X112785714Y-140403571D01*
X110428571Y-139617857D02*
X110214285Y-139689286D01*
X110142857Y-139760714D01*
X110071428Y-139903571D01*
X110071428Y-140117857D01*
X110142857Y-140260714D01*
X110214285Y-140332143D01*
X110357143Y-140403571D01*
X110928571Y-140403571D01*
X110928571Y-138903571D01*
X110428571Y-138903571D01*
X110285714Y-138975000D01*
X110214285Y-139046429D01*
X110142857Y-139189286D01*
X110142857Y-139332143D01*
X110214285Y-139475000D01*
X110285714Y-139546429D01*
X110428571Y-139617857D01*
X110928571Y-139617857D01*
X109214285Y-140403571D02*
X109357143Y-140332143D01*
X109428571Y-140189286D01*
X109428571Y-138903571D01*
X108000000Y-140403571D02*
X108000000Y-139617857D01*
X108071429Y-139475000D01*
X108214286Y-139403571D01*
X108500000Y-139403571D01*
X108642857Y-139475000D01*
X108000000Y-140332143D02*
X108142857Y-140403571D01*
X108500000Y-140403571D01*
X108642857Y-140332143D01*
X108714286Y-140189286D01*
X108714286Y-140046429D01*
X108642857Y-139903571D01*
X108500000Y-139832143D01*
X108142857Y-139832143D01*
X108000000Y-139760714D01*
X106642857Y-139403571D02*
X106642857Y-140403571D01*
X107285714Y-139403571D02*
X107285714Y-140189286D01*
X107214286Y-140332143D01*
X107071428Y-140403571D01*
X106857143Y-140403571D01*
X106714286Y-140332143D01*
X106642857Y-140260714D01*
X104857143Y-140332143D02*
X104642857Y-140403571D01*
X104285714Y-140403571D01*
X104142857Y-140332143D01*
X104071428Y-140260714D01*
X104000000Y-140117857D01*
X104000000Y-139975000D01*
X104071428Y-139832143D01*
X104142857Y-139760714D01*
X104285714Y-139689286D01*
X104571428Y-139617857D01*
X104714286Y-139546429D01*
X104785714Y-139475000D01*
X104857143Y-139332143D01*
X104857143Y-139189286D01*
X104785714Y-139046429D01*
X104714286Y-138975000D01*
X104571428Y-138903571D01*
X104214286Y-138903571D01*
X104000000Y-138975000D01*
X102500000Y-140260714D02*
X102571429Y-140332143D01*
X102785715Y-140403571D01*
X102928572Y-140403571D01*
X103142857Y-140332143D01*
X103285715Y-140189286D01*
X103357143Y-140046429D01*
X103428572Y-139760714D01*
X103428572Y-139546429D01*
X103357143Y-139260714D01*
X103285715Y-139117857D01*
X103142857Y-138975000D01*
X102928572Y-138903571D01*
X102785715Y-138903571D01*
X102571429Y-138975000D01*
X102500000Y-139046429D01*
X102071429Y-138903571D02*
X101571429Y-140403571D01*
X101071429Y-138903571D01*
X119214285Y-141453571D02*
X119214285Y-142667857D01*
X119142857Y-142810714D01*
X119071428Y-142882143D01*
X118928571Y-142953571D01*
X118642857Y-142953571D01*
X118499999Y-142882143D01*
X118428571Y-142810714D01*
X118357142Y-142667857D01*
X118357142Y-141453571D01*
X117642856Y-141953571D02*
X117642856Y-142953571D01*
X117642856Y-142096429D02*
X117571428Y-142025000D01*
X117428570Y-141953571D01*
X117214285Y-141953571D01*
X117071428Y-142025000D01*
X116999999Y-142167857D01*
X116999999Y-142953571D01*
X116285713Y-142953571D02*
X116285713Y-141953571D01*
X116285713Y-141453571D02*
X116357142Y-141525000D01*
X116285713Y-141596429D01*
X116214285Y-141525000D01*
X116285713Y-141453571D01*
X116285713Y-141596429D01*
X115714284Y-141953571D02*
X115357141Y-142953571D01*
X114999999Y-141953571D01*
X113857142Y-142882143D02*
X113999999Y-142953571D01*
X114285713Y-142953571D01*
X114428570Y-142882143D01*
X114499999Y-142739286D01*
X114499999Y-142167857D01*
X114428570Y-142025000D01*
X114285713Y-141953571D01*
X113999999Y-141953571D01*
X113857142Y-142025000D01*
X113785713Y-142167857D01*
X113785713Y-142310714D01*
X114499999Y-142453571D01*
X113142856Y-142953571D02*
X113142856Y-141953571D01*
X113142856Y-142239286D02*
X113071428Y-142096429D01*
X112999999Y-142025000D01*
X112857142Y-141953571D01*
X112714285Y-141953571D01*
X112285714Y-142882143D02*
X112142857Y-142953571D01*
X111857142Y-142953571D01*
X111714285Y-142882143D01*
X111642857Y-142739286D01*
X111642857Y-142667857D01*
X111714285Y-142525000D01*
X111857142Y-142453571D01*
X112071428Y-142453571D01*
X112214285Y-142382143D01*
X112285714Y-142239286D01*
X112285714Y-142167857D01*
X112214285Y-142025000D01*
X112071428Y-141953571D01*
X111857142Y-141953571D01*
X111714285Y-142025000D01*
X110357142Y-142953571D02*
X110357142Y-142167857D01*
X110428571Y-142025000D01*
X110571428Y-141953571D01*
X110857142Y-141953571D01*
X110999999Y-142025000D01*
X110357142Y-142882143D02*
X110499999Y-142953571D01*
X110857142Y-142953571D01*
X110999999Y-142882143D01*
X111071428Y-142739286D01*
X111071428Y-142596429D01*
X110999999Y-142453571D01*
X110857142Y-142382143D01*
X110499999Y-142382143D01*
X110357142Y-142310714D01*
X109428570Y-142953571D02*
X109571428Y-142882143D01*
X109642856Y-142739286D01*
X109642856Y-141453571D01*
X106999999Y-142953571D02*
X107714285Y-142953571D01*
X107714285Y-141453571D01*
X105857142Y-142953571D02*
X105857142Y-142167857D01*
X105928571Y-142025000D01*
X106071428Y-141953571D01*
X106357142Y-141953571D01*
X106499999Y-142025000D01*
X105857142Y-142882143D02*
X105999999Y-142953571D01*
X106357142Y-142953571D01*
X106499999Y-142882143D01*
X106571428Y-142739286D01*
X106571428Y-142596429D01*
X106499999Y-142453571D01*
X106357142Y-142382143D01*
X105999999Y-142382143D01*
X105857142Y-142310714D01*
X105142856Y-142953571D02*
X105142856Y-141953571D01*
X105142856Y-142096429D02*
X105071428Y-142025000D01*
X104928570Y-141953571D01*
X104714285Y-141953571D01*
X104571428Y-142025000D01*
X104499999Y-142167857D01*
X104499999Y-142953571D01*
X104499999Y-142167857D02*
X104428570Y-142025000D01*
X104285713Y-141953571D01*
X104071428Y-141953571D01*
X103928570Y-142025000D01*
X103857142Y-142167857D01*
X103857142Y-142953571D01*
X103142856Y-141953571D02*
X103142856Y-143453571D01*
X103142856Y-142025000D02*
X102999999Y-141953571D01*
X102714285Y-141953571D01*
X102571428Y-142025000D01*
X102499999Y-142096429D01*
X102428570Y-142239286D01*
X102428570Y-142667857D01*
X102499999Y-142810714D01*
X102571428Y-142882143D01*
X102714285Y-142953571D01*
X102999999Y-142953571D01*
X103142856Y-142882143D01*
X100785713Y-141953571D02*
X100428570Y-142953571D01*
X100071428Y-141953571D01*
X99571428Y-141596429D02*
X99499999Y-141525000D01*
X99357142Y-141453571D01*
X98999999Y-141453571D01*
X98857142Y-141525000D01*
X98785713Y-141596429D01*
X98714285Y-141739286D01*
X98714285Y-141882143D01*
X98785713Y-142096429D01*
X99642856Y-142953571D01*
X98714285Y-142953571D01*
X114249999Y-145821429D02*
X114178570Y-145750000D01*
X114035713Y-145678571D01*
X113678570Y-145678571D01*
X113535713Y-145750000D01*
X113464284Y-145821429D01*
X113392856Y-145964286D01*
X113392856Y-146107143D01*
X113464284Y-146321429D01*
X114321427Y-147178571D01*
X113392856Y-147178571D01*
X112464285Y-145678571D02*
X112321428Y-145678571D01*
X112178571Y-145750000D01*
X112107142Y-145821429D01*
X112035713Y-145964286D01*
X111964285Y-146250000D01*
X111964285Y-146607143D01*
X112035713Y-146892857D01*
X112107142Y-147035714D01*
X112178571Y-147107143D01*
X112321428Y-147178571D01*
X112464285Y-147178571D01*
X112607142Y-147107143D01*
X112678571Y-147035714D01*
X112749999Y-146892857D01*
X112821428Y-146607143D01*
X112821428Y-146250000D01*
X112749999Y-145964286D01*
X112678571Y-145821429D01*
X112607142Y-145750000D01*
X112464285Y-145678571D01*
X110535714Y-147178571D02*
X111392857Y-147178571D01*
X110964285Y-147178571D02*
X110964285Y-145678571D01*
X111107142Y-145892857D01*
X111250000Y-146035714D01*
X111392857Y-146107143D01*
X110035714Y-145678571D02*
X109035714Y-145678571D01*
X109678571Y-147178571D01*
X107392858Y-146750000D02*
X106678572Y-146750000D01*
X107535715Y-147178571D02*
X107035715Y-145678571D01*
X106535715Y-147178571D01*
X106107144Y-147107143D02*
X105892858Y-147178571D01*
X105535715Y-147178571D01*
X105392858Y-147107143D01*
X105321429Y-147035714D01*
X105250001Y-146892857D01*
X105250001Y-146750000D01*
X105321429Y-146607143D01*
X105392858Y-146535714D01*
X105535715Y-146464286D01*
X105821429Y-146392857D01*
X105964287Y-146321429D01*
X106035715Y-146250000D01*
X106107144Y-146107143D01*
X106107144Y-145964286D01*
X106035715Y-145821429D01*
X105964287Y-145750000D01*
X105821429Y-145678571D01*
X105464287Y-145678571D01*
X105250001Y-145750000D01*
X103750001Y-147035714D02*
X103821430Y-147107143D01*
X104035716Y-147178571D01*
X104178573Y-147178571D01*
X104392858Y-147107143D01*
X104535716Y-146964286D01*
X104607144Y-146821429D01*
X104678573Y-146535714D01*
X104678573Y-146321429D01*
X104607144Y-146035714D01*
X104535716Y-145892857D01*
X104392858Y-145750000D01*
X104178573Y-145678571D01*
X104035716Y-145678571D01*
X103821430Y-145750000D01*
X103750001Y-145821429D01*
D12*
X58375000Y-146625000D02*
X58375000Y-146400000D01*
X65625000Y-146625000D02*
X65625000Y-146300000D01*
X65625000Y-139375000D02*
X65625000Y-139700000D01*
X58375000Y-139375000D02*
X58375000Y-139700000D01*
X58375000Y-146625000D02*
X58700000Y-146625000D01*
X58375000Y-139375000D02*
X58700000Y-139375000D01*
X65625000Y-139375000D02*
X65300000Y-139375000D01*
X65625000Y-146625000D02*
X65300000Y-146625000D01*
X58375000Y-146400000D02*
X56950000Y-146400000D01*
X62761905Y-148502381D02*
X62761905Y-149311905D01*
X62714286Y-149407143D01*
X62666667Y-149454762D01*
X62571429Y-149502381D01*
X62380952Y-149502381D01*
X62285714Y-149454762D01*
X62238095Y-149407143D01*
X62190476Y-149311905D01*
X62190476Y-148502381D01*
X61190476Y-149502381D02*
X61761905Y-149502381D01*
X61476191Y-149502381D02*
X61476191Y-148502381D01*
X61571429Y-148645238D01*
X61666667Y-148740476D01*
X61761905Y-148788095D01*
M02*
