G04 #@! TF.FileFunction,Soldermask,Bot*
%FSLAX46Y46*%
G04 Gerber Fmt 4.6, Leading zero omitted, Abs format (unit mm)*
G04 Created by KiCad (PCBNEW 4.0.7-e2-6376~58~ubuntu16.04.1) date Fri Sep 22 12:57:38 2017*
%MOMM*%
%LPD*%
G01*
G04 APERTURE LIST*
%ADD10C,0.100000*%
%ADD11R,2.000000X0.950000*%
%ADD12R,0.950000X2.000000*%
%ADD13R,2.051000X2.051000*%
%ADD14C,2.051000*%
%ADD15C,3.600000*%
G04 APERTURE END LIST*
D10*
D11*
X57750000Y-145800000D03*
X57750000Y-145000000D03*
X57750000Y-144200000D03*
X57750000Y-143400000D03*
X57750000Y-142600000D03*
X57750000Y-141800000D03*
X57750000Y-141000000D03*
X57750000Y-140200000D03*
D12*
X59200000Y-138750000D03*
X60000000Y-138750000D03*
X60800000Y-138750000D03*
X61600000Y-138750000D03*
X62400000Y-138750000D03*
X63200000Y-138750000D03*
X64000000Y-138750000D03*
X64800000Y-138750000D03*
D11*
X66250000Y-140200000D03*
X66250000Y-141000000D03*
X66250000Y-141800000D03*
X66250000Y-142600000D03*
X66250000Y-143400000D03*
X66250000Y-144200000D03*
X66250000Y-145000000D03*
X66250000Y-145800000D03*
D12*
X64800000Y-147250000D03*
X64000000Y-147250000D03*
X63200000Y-147250000D03*
X62400000Y-147250000D03*
X61600000Y-147250000D03*
X60800000Y-147250000D03*
X60000000Y-147250000D03*
X59200000Y-147250000D03*
D13*
X52000000Y-140460000D03*
D14*
X52000000Y-143000000D03*
X52000000Y-145540000D03*
D13*
X148000000Y-140460000D03*
D14*
X148000000Y-143000000D03*
X148000000Y-145540000D03*
D13*
X70460000Y-139270000D03*
D14*
X73000000Y-139270000D03*
X75540000Y-139270000D03*
X75540000Y-136730000D03*
X73000000Y-136730000D03*
X70460000Y-136730000D03*
D13*
X99920000Y-136500000D03*
D14*
X102460000Y-136500000D03*
X105000000Y-136500000D03*
X107540000Y-136500000D03*
X110080000Y-136500000D03*
X112620000Y-136500000D03*
X115160000Y-136500000D03*
X117700000Y-136500000D03*
D15*
X90000000Y-143000000D03*
X131000000Y-143000000D03*
D13*
X122770000Y-136500000D03*
D14*
X120230000Y-136500000D03*
M02*
