G04 #@! TF.FileFunction,Copper,L1,Top,Signal*
%FSLAX46Y46*%
G04 Gerber Fmt 4.6, Leading zero omitted, Abs format (unit mm)*
G04 Created by KiCad (PCBNEW 4.0.7-e2-6376~58~ubuntu16.04.1) date Thu Sep 14 12:30:46 2017*
%MOMM*%
%LPD*%
G01*
G04 APERTURE LIST*
%ADD10C,0.100000*%
%ADD11R,1.016000X1.143000*%
%ADD12R,0.889000X0.889000*%
%ADD13R,0.762000X0.889000*%
%ADD14R,1.651000X1.651000*%
%ADD15C,1.651000*%
%ADD16R,1.400000X1.800000*%
%ADD17C,0.600000*%
%ADD18C,0.600000*%
%ADD19C,0.800000*%
%ADD20C,0.250000*%
%ADD21C,0.200000*%
%ADD22C,0.150000*%
G04 APERTURE END LIST*
D10*
D11*
X94389000Y-136484000D03*
X92611000Y-136484000D03*
X93500000Y-138516000D03*
D12*
X68000000Y-137738000D03*
X68000000Y-139262000D03*
D13*
X59238000Y-143000000D03*
X60762000Y-143000000D03*
X79000000Y-143000000D03*
X80524000Y-143000000D03*
X99238000Y-143000000D03*
X100762000Y-143000000D03*
X119238000Y-143000000D03*
X120762000Y-143000000D03*
X139238000Y-143000000D03*
X140762000Y-143000000D03*
D14*
X52000000Y-140460000D03*
D15*
X52000000Y-143000000D03*
X52000000Y-145540000D03*
D14*
X148000000Y-140460000D03*
D15*
X148000000Y-143000000D03*
X148000000Y-145540000D03*
D14*
X70460000Y-139270000D03*
D15*
X73000000Y-139270000D03*
X75540000Y-139270000D03*
X75540000Y-136730000D03*
X73000000Y-136730000D03*
X70460000Y-136730000D03*
D12*
X56000000Y-145762000D03*
X56000000Y-144238000D03*
X76000000Y-145000000D03*
X76000000Y-143476000D03*
X96000000Y-145762000D03*
X96000000Y-144238000D03*
X116000000Y-145762000D03*
X116000000Y-144238000D03*
X136000000Y-145762000D03*
X136000000Y-144238000D03*
X89000000Y-136238000D03*
X89000000Y-137762000D03*
D16*
X58350000Y-145400000D03*
X61650000Y-145400000D03*
X61650000Y-140600000D03*
X58350000Y-140600000D03*
X78350000Y-145400000D03*
X81650000Y-145400000D03*
X81650000Y-140600000D03*
X78350000Y-140600000D03*
X98350000Y-145400000D03*
X101650000Y-145400000D03*
X101650000Y-140600000D03*
X98350000Y-140600000D03*
X118350000Y-145400000D03*
X121650000Y-145400000D03*
X121650000Y-140600000D03*
X118350000Y-140600000D03*
X138350000Y-145400000D03*
X141650000Y-145400000D03*
X141650000Y-140600000D03*
X138350000Y-140600000D03*
D14*
X99920000Y-136500000D03*
D15*
X102460000Y-136500000D03*
X105000000Y-136500000D03*
X107540000Y-136500000D03*
X110080000Y-136500000D03*
X112620000Y-136500000D03*
X115160000Y-136500000D03*
X117700000Y-136500000D03*
D14*
X122770000Y-136500000D03*
D15*
X120230000Y-136500000D03*
D12*
X143024000Y-138000000D03*
X141500000Y-138000000D03*
D17*
X72500000Y-143000000D03*
X90500000Y-139000016D03*
X82000000Y-143000000D03*
X102500000Y-143000000D03*
X122500000Y-143000000D03*
X142500000Y-143000000D03*
X54500000Y-145500000D03*
X61000000Y-136730000D03*
X72576927Y-146184625D03*
X55999992Y-140500000D03*
X143499998Y-145500000D03*
X60000000Y-141000000D03*
X65000000Y-135500000D03*
X74500000Y-141500006D03*
X64500000Y-141000000D03*
X103500000Y-144500000D03*
X104500000Y-144500000D03*
X105500000Y-144500000D03*
X106500000Y-144500000D03*
X107500000Y-144500000D03*
X108500000Y-148000000D03*
X57500000Y-147999988D03*
X108500000Y-144500000D03*
X109500000Y-148000000D03*
X109500000Y-144500000D03*
X56500000Y-147000000D03*
D18*
X56000000Y-144238000D02*
X57238000Y-143000000D01*
X57238000Y-143000000D02*
X59238000Y-143000000D01*
X60762000Y-143000000D02*
X72500000Y-143000000D01*
X93500000Y-138516000D02*
X90984016Y-138516000D01*
X90799999Y-138700017D02*
X90500000Y-139000016D01*
X90984016Y-138516000D02*
X90799999Y-138700017D01*
X80524000Y-143000000D02*
X82000000Y-143000000D01*
X100762000Y-143000000D02*
X102500000Y-143000000D01*
X120762000Y-143000000D02*
X122500000Y-143000000D01*
X142500000Y-143000000D02*
X140762000Y-143000000D01*
X76500000Y-143000000D02*
X79000000Y-143000000D01*
X76000000Y-143476000D02*
X76024000Y-143476000D01*
X76024000Y-143476000D02*
X76500000Y-143000000D01*
X96000000Y-144238000D02*
X97238000Y-143000000D01*
X97238000Y-143000000D02*
X99238000Y-143000000D01*
X116000000Y-144238000D02*
X117238000Y-143000000D01*
X117238000Y-143000000D02*
X119238000Y-143000000D01*
X136000000Y-144238000D02*
X137238000Y-143000000D01*
X137238000Y-143000000D02*
X139238000Y-143000000D01*
D19*
X144500000Y-136500000D02*
X143279500Y-136500000D01*
X143279500Y-136500000D02*
X143024000Y-136755500D01*
X143024000Y-136755500D02*
X143024000Y-138000000D01*
X96000000Y-147000000D02*
X98500000Y-147000000D01*
X79000000Y-147000000D02*
X96000000Y-147000000D01*
X96000000Y-147000000D02*
X96000000Y-145762000D01*
X98500000Y-147000000D02*
X98500000Y-145550000D01*
X98500000Y-145550000D02*
X98350000Y-145400000D01*
X116000000Y-147000000D02*
X118500000Y-147000000D01*
X98500000Y-147000000D02*
X116000000Y-147000000D01*
X116000000Y-147000000D02*
X116000000Y-145762000D01*
X118500000Y-147000000D02*
X118500000Y-145550000D01*
X118500000Y-145550000D02*
X118350000Y-145400000D01*
X144500000Y-136500000D02*
X145665500Y-136500000D01*
X122770000Y-136500000D02*
X144500000Y-136500000D01*
X145665500Y-136500000D02*
X148000000Y-138834500D01*
X148000000Y-138834500D02*
X148000000Y-140460000D01*
X148000000Y-140460000D02*
X147133996Y-140460000D01*
X147133996Y-140460000D02*
X144449999Y-143143997D01*
X144449999Y-143143997D02*
X144449999Y-145956005D01*
X144449999Y-145956005D02*
X143406004Y-147000000D01*
X143406004Y-147000000D02*
X138250000Y-147000000D01*
X73500000Y-147000000D02*
X59500000Y-147000000D01*
X59500000Y-147000000D02*
X58350000Y-145850000D01*
X58350000Y-145850000D02*
X58350000Y-145400000D01*
X76000000Y-147000000D02*
X73500000Y-147000000D01*
D20*
X73392302Y-147000000D02*
X73500000Y-147000000D01*
X72576927Y-146184625D02*
X73392302Y-147000000D01*
D19*
X54500000Y-145506500D02*
X54500000Y-145500000D01*
X56000000Y-145762000D02*
X54755500Y-145762000D01*
X54500000Y-141334500D02*
X54500000Y-145075736D01*
X52000000Y-140460000D02*
X53625500Y-140460000D01*
X54500000Y-144797002D02*
X54500000Y-145500000D01*
X54755500Y-145762000D02*
X54500000Y-145506500D01*
X54500000Y-145075736D02*
X54500000Y-145500000D01*
X53625500Y-140460000D02*
X54500000Y-141334500D01*
D18*
X68500000Y-136730000D02*
X61500000Y-136730000D01*
X61500000Y-136730000D02*
X61000000Y-136730000D01*
D19*
X78500000Y-147000000D02*
X76000000Y-147000000D01*
X79000000Y-147000000D02*
X78500000Y-147000000D01*
X78500000Y-147000000D02*
X78500000Y-145550000D01*
X78500000Y-145550000D02*
X78350000Y-145400000D01*
X76000000Y-147000000D02*
X76000000Y-145000000D01*
X118500000Y-147000000D02*
X135993500Y-147000000D01*
X138250000Y-147000000D02*
X138250000Y-145500000D01*
X138250000Y-145500000D02*
X138350000Y-145400000D01*
X135993500Y-147000000D02*
X138250000Y-147000000D01*
X135993500Y-147000000D02*
X136000000Y-147006500D01*
X58350000Y-145400000D02*
X58350000Y-145471027D01*
X56000000Y-145762000D02*
X57988000Y-145762000D01*
X57988000Y-145762000D02*
X58350000Y-145400000D01*
D18*
X68500000Y-136730000D02*
X70460000Y-136730000D01*
D20*
X68000000Y-137738000D02*
X68000000Y-137043500D01*
X68000000Y-137043500D02*
X68313500Y-136730000D01*
X68313500Y-136730000D02*
X68500000Y-136730000D01*
D19*
X136000000Y-145762000D02*
X136000000Y-147006500D01*
D20*
X77950000Y-145000000D02*
X78350000Y-145400000D01*
X117988000Y-145762000D02*
X118350000Y-145400000D01*
X137988000Y-145762000D02*
X138350000Y-145400000D01*
X58350000Y-140600000D02*
X56099992Y-140600000D01*
X56099992Y-140600000D02*
X55999992Y-140500000D01*
X56099996Y-140500000D02*
X55999992Y-140500000D01*
X143399998Y-145400000D02*
X143499998Y-145500000D01*
X141650000Y-145400000D02*
X143399998Y-145400000D01*
X147860000Y-145400000D02*
X148000000Y-145540000D01*
X60000000Y-140075736D02*
X60000000Y-141000000D01*
X68000000Y-139262000D02*
X65500000Y-139262000D01*
X65500000Y-139262000D02*
X65263002Y-139262000D01*
X60000000Y-140075736D02*
X60813736Y-139262000D01*
X60813736Y-139262000D02*
X65500000Y-139262000D01*
X60750737Y-139324999D02*
X60000000Y-140075736D01*
X68000000Y-139262000D02*
X69262000Y-138000000D01*
X69262000Y-138000000D02*
X74270000Y-138000000D01*
X74714501Y-138444501D02*
X75540000Y-139270000D01*
X74270000Y-138000000D02*
X74714501Y-138444501D01*
D21*
X77450000Y-140600000D02*
X72650000Y-145400000D01*
X78350000Y-140600000D02*
X77450000Y-140600000D01*
X72650000Y-145400000D02*
X62550000Y-145400000D01*
X62550000Y-145400000D02*
X61650000Y-145400000D01*
D20*
X61650000Y-145400000D02*
X61650000Y-145200000D01*
X81650000Y-145400000D02*
X82250000Y-146000000D01*
X92000000Y-146000000D02*
X97400000Y-140600000D01*
X82250000Y-146000000D02*
X92000000Y-146000000D01*
X97400000Y-140600000D02*
X97500000Y-140600000D01*
X97500000Y-140600000D02*
X98350000Y-140600000D01*
X118350000Y-140600000D02*
X117400000Y-140600000D01*
X117400000Y-140600000D02*
X112600000Y-145400000D01*
X112600000Y-145400000D02*
X111424999Y-145400000D01*
X101650000Y-145400000D02*
X111424999Y-145400000D01*
X138350000Y-140600000D02*
X137750000Y-140000000D01*
X137750000Y-140000000D02*
X126850000Y-140000000D01*
X126850000Y-140000000D02*
X121650000Y-145200000D01*
X121650000Y-145200000D02*
X121650000Y-145400000D01*
X93367001Y-137569499D02*
X94389000Y-136547500D01*
X94389000Y-136547500D02*
X94389000Y-136484000D01*
X93367001Y-137569499D02*
X89887001Y-137569499D01*
X89887001Y-137569499D02*
X89694500Y-137762000D01*
X89694500Y-137762000D02*
X89000000Y-137762000D01*
X89254000Y-138016000D02*
X89000000Y-137762000D01*
X89000000Y-136238000D02*
X89000000Y-136000000D01*
X89000000Y-136000000D02*
X88529499Y-135529499D01*
X88529499Y-135529499D02*
X65029499Y-135529499D01*
X65029499Y-135529499D02*
X65000000Y-135500000D01*
X74500006Y-141500000D02*
X74500000Y-141500006D01*
X74575732Y-141500000D02*
X74500006Y-141500000D01*
X65000000Y-141500000D02*
X74575732Y-141500000D01*
X64500000Y-141000000D02*
X65000000Y-141500000D01*
X70954608Y-141500000D02*
X74575732Y-141500000D01*
X102460000Y-136500000D02*
X102460000Y-137000000D01*
X102460000Y-137000000D02*
X103500000Y-138040000D01*
X103500000Y-138040000D02*
X103500000Y-144500000D01*
X105000000Y-136500000D02*
X105000000Y-137000000D01*
X105000000Y-137000000D02*
X104500000Y-137500000D01*
X104500000Y-144500000D02*
X104500000Y-137500000D01*
X107540000Y-136500000D02*
X107540000Y-137000000D01*
X107540000Y-137000000D02*
X105500000Y-139040000D01*
X105500000Y-139040000D02*
X105500000Y-144500000D01*
X106500000Y-140500000D02*
X109500000Y-137500000D01*
X109500000Y-137500000D02*
X110000000Y-137000000D01*
X110080000Y-136500000D02*
X110080000Y-136920000D01*
X110080000Y-136920000D02*
X109500000Y-137500000D01*
X106500000Y-144500000D02*
X106500000Y-140500000D01*
X110000000Y-137000000D02*
X110080000Y-137000000D01*
X107500000Y-142000000D02*
X112000000Y-137500000D01*
X112000000Y-137500000D02*
X112500000Y-137000000D01*
X112620000Y-136500000D02*
X112620000Y-136880000D01*
X112620000Y-136880000D02*
X112000000Y-137500000D01*
X107500000Y-144500000D02*
X107500000Y-142000000D01*
X112500000Y-137000000D02*
X112620000Y-137000000D01*
X108500000Y-144500000D02*
X108500000Y-143160000D01*
X108500000Y-143160000D02*
X115160000Y-136500000D01*
X57500000Y-147999988D02*
X108499988Y-147999988D01*
X108499988Y-147999988D02*
X108500000Y-148000000D01*
X115160000Y-137000000D02*
X115000000Y-137000000D01*
X117700000Y-136500000D02*
X109700000Y-144500000D01*
X109700000Y-144500000D02*
X109500000Y-144500000D01*
X109200001Y-148299999D02*
X109500000Y-148000000D01*
X108700001Y-148799999D02*
X109200001Y-148299999D01*
X56799999Y-148799999D02*
X108700001Y-148799999D01*
X56500000Y-148500000D02*
X56799999Y-148799999D01*
X56500000Y-147000000D02*
X56500000Y-148500000D01*
X117500000Y-137000000D02*
X117700000Y-137000000D01*
D22*
G36*
X64375109Y-135375134D02*
X64374892Y-135623775D01*
X64469842Y-135853571D01*
X64645504Y-136029540D01*
X64827231Y-136105000D01*
X61000000Y-136105000D01*
X60876225Y-136104892D01*
X60760824Y-136152575D01*
X60760823Y-136152575D01*
X60760822Y-136152576D01*
X60646429Y-136199842D01*
X60558061Y-136288056D01*
X60558058Y-136288058D01*
X60558056Y-136288060D01*
X60470460Y-136375504D01*
X60375109Y-136605134D01*
X60374892Y-136853775D01*
X60469842Y-137083571D01*
X60558056Y-137171939D01*
X60558058Y-137171942D01*
X60558060Y-137171944D01*
X60645504Y-137259540D01*
X60760822Y-137307424D01*
X60760823Y-137307425D01*
X60760824Y-137307425D01*
X60875134Y-137354891D01*
X61000000Y-137355000D01*
X61000027Y-137355000D01*
X61123775Y-137355108D01*
X61124036Y-137355000D01*
X67224133Y-137355000D01*
X67224133Y-138182500D01*
X67246795Y-138302938D01*
X67317974Y-138413553D01*
X67426580Y-138487760D01*
X67484509Y-138499491D01*
X67435062Y-138508795D01*
X67324447Y-138579974D01*
X67250240Y-138688580D01*
X67225247Y-138812000D01*
X60813736Y-138812000D01*
X60641528Y-138846254D01*
X60495538Y-138943802D01*
X59681802Y-139757538D01*
X59584254Y-139903528D01*
X59550000Y-140075736D01*
X59550000Y-140566103D01*
X59470460Y-140645504D01*
X59381367Y-140860063D01*
X59381367Y-139700000D01*
X59358705Y-139579562D01*
X59287526Y-139468947D01*
X59178920Y-139394740D01*
X59050000Y-139368633D01*
X57650000Y-139368633D01*
X57529562Y-139391295D01*
X57418947Y-139462474D01*
X57344740Y-139571080D01*
X57318633Y-139700000D01*
X57318633Y-140150000D01*
X56531626Y-140150000D01*
X56530150Y-140146429D01*
X56354488Y-139970460D01*
X56124858Y-139875109D01*
X55876217Y-139874892D01*
X55646421Y-139969842D01*
X55470452Y-140145504D01*
X55375101Y-140375134D01*
X55374884Y-140623775D01*
X55469834Y-140853571D01*
X55645496Y-141029540D01*
X55875126Y-141124891D01*
X56123767Y-141125108D01*
X56305542Y-141050000D01*
X57318633Y-141050000D01*
X57318633Y-141500000D01*
X57341295Y-141620438D01*
X57412474Y-141731053D01*
X57521080Y-141805260D01*
X57650000Y-141831367D01*
X59050000Y-141831367D01*
X59170438Y-141808705D01*
X59281053Y-141737526D01*
X59355260Y-141628920D01*
X59381367Y-141500000D01*
X59381367Y-141139446D01*
X59469842Y-141353571D01*
X59645504Y-141529540D01*
X59875134Y-141624891D01*
X60123775Y-141625108D01*
X60353571Y-141530158D01*
X60529540Y-141354496D01*
X60624891Y-141124866D01*
X60624891Y-141123775D01*
X63874892Y-141123775D01*
X63969842Y-141353571D01*
X64145504Y-141529540D01*
X64375134Y-141624891D01*
X64488594Y-141624990D01*
X64681802Y-141818198D01*
X64827792Y-141915746D01*
X65000000Y-141950000D01*
X74066097Y-141950000D01*
X74145504Y-142029546D01*
X74375134Y-142124897D01*
X74623775Y-142125114D01*
X74853571Y-142030164D01*
X75029540Y-141854502D01*
X75124891Y-141624872D01*
X75125108Y-141376231D01*
X75030158Y-141146435D01*
X74854496Y-140970466D01*
X74624866Y-140875115D01*
X74376225Y-140874898D01*
X74146429Y-140969848D01*
X74066137Y-141050000D01*
X65186396Y-141050000D01*
X65125010Y-140988614D01*
X65125108Y-140876225D01*
X65030158Y-140646429D01*
X64854496Y-140470460D01*
X64624866Y-140375109D01*
X64376225Y-140374892D01*
X64146429Y-140469842D01*
X63970460Y-140645504D01*
X63875109Y-140875134D01*
X63874892Y-141123775D01*
X60624891Y-141123775D01*
X60625108Y-140876225D01*
X60530158Y-140646429D01*
X60450000Y-140566131D01*
X60450000Y-140262132D01*
X61000132Y-139712000D01*
X67225168Y-139712000D01*
X67246795Y-139826938D01*
X67317974Y-139937553D01*
X67426580Y-140011760D01*
X67555500Y-140037867D01*
X68444500Y-140037867D01*
X68564938Y-140015205D01*
X68675553Y-139944026D01*
X68749760Y-139835420D01*
X68775867Y-139706500D01*
X68775867Y-139122529D01*
X69303133Y-138595263D01*
X69303133Y-140095500D01*
X69325795Y-140215938D01*
X69396974Y-140326553D01*
X69505580Y-140400760D01*
X69634500Y-140426867D01*
X71285500Y-140426867D01*
X71405938Y-140404205D01*
X71516553Y-140333026D01*
X71590760Y-140224420D01*
X71616867Y-140095500D01*
X71616867Y-138450000D01*
X72192958Y-138450000D01*
X72025222Y-138617443D01*
X71849700Y-139040147D01*
X71849300Y-139497845D01*
X72024085Y-139920855D01*
X72347443Y-140244778D01*
X72770147Y-140420300D01*
X73227845Y-140420700D01*
X73650855Y-140245915D01*
X73974778Y-139922557D01*
X74150300Y-139499853D01*
X74150700Y-139042155D01*
X73975915Y-138619145D01*
X73807065Y-138450000D01*
X74083604Y-138450000D01*
X74473042Y-138839438D01*
X74389700Y-139040147D01*
X74389300Y-139497845D01*
X74564085Y-139920855D01*
X74887443Y-140244778D01*
X75310147Y-140420300D01*
X75767845Y-140420700D01*
X76190855Y-140245915D01*
X76514778Y-139922557D01*
X76690300Y-139499853D01*
X76690700Y-139042155D01*
X76515915Y-138619145D01*
X76192557Y-138295222D01*
X75769853Y-138119700D01*
X75312155Y-138119300D01*
X75109452Y-138203056D01*
X74588198Y-137681802D01*
X74541052Y-137650300D01*
X74442208Y-137584254D01*
X74270000Y-137550000D01*
X73807042Y-137550000D01*
X73974778Y-137382557D01*
X74150300Y-136959853D01*
X74150700Y-136502155D01*
X73975915Y-136079145D01*
X73876443Y-135979499D01*
X88224133Y-135979499D01*
X88224133Y-136682500D01*
X88246795Y-136802938D01*
X88317974Y-136913553D01*
X88426580Y-136987760D01*
X88484509Y-136999491D01*
X88435062Y-137008795D01*
X88324447Y-137079974D01*
X88250240Y-137188580D01*
X88224133Y-137317500D01*
X88224133Y-138206500D01*
X88246795Y-138326938D01*
X88317974Y-138437553D01*
X88426580Y-138511760D01*
X88555500Y-138537867D01*
X89444500Y-138537867D01*
X89564938Y-138515205D01*
X89675553Y-138444026D01*
X89749760Y-138335420D01*
X89775867Y-138206500D01*
X89775867Y-138195815D01*
X89866708Y-138177746D01*
X90012698Y-138080198D01*
X90073397Y-138019499D01*
X90623727Y-138019499D01*
X90542074Y-138074058D01*
X90542072Y-138074061D01*
X90358057Y-138258075D01*
X90358055Y-138258078D01*
X90058058Y-138558074D01*
X90058056Y-138558076D01*
X89970460Y-138645520D01*
X89875109Y-138875150D01*
X89874892Y-139123791D01*
X89969842Y-139353587D01*
X90058056Y-139441955D01*
X90058058Y-139441958D01*
X90058060Y-139441960D01*
X90145504Y-139529556D01*
X90260822Y-139577440D01*
X90260823Y-139577441D01*
X90260824Y-139577441D01*
X90375134Y-139624907D01*
X90500000Y-139625016D01*
X90623775Y-139625124D01*
X90739176Y-139577441D01*
X90739177Y-139577441D01*
X90739178Y-139577440D01*
X90853571Y-139530174D01*
X90941939Y-139441960D01*
X90941942Y-139441958D01*
X90942414Y-139441486D01*
X91029540Y-139354512D01*
X91029648Y-139354252D01*
X91241938Y-139141961D01*
X91241941Y-139141959D01*
X91242900Y-139141000D01*
X92670700Y-139141000D01*
X92683295Y-139207938D01*
X92754474Y-139318553D01*
X92863080Y-139392760D01*
X92992000Y-139418867D01*
X94008000Y-139418867D01*
X94128438Y-139396205D01*
X94239053Y-139325026D01*
X94313260Y-139216420D01*
X94339367Y-139087500D01*
X94339367Y-137944500D01*
X94316705Y-137824062D01*
X94245526Y-137713447D01*
X94136920Y-137639240D01*
X94008000Y-137613133D01*
X93959763Y-137613133D01*
X94186029Y-137386867D01*
X94897000Y-137386867D01*
X95017438Y-137364205D01*
X95128053Y-137293026D01*
X95202260Y-137184420D01*
X95228367Y-137055500D01*
X95228367Y-135912500D01*
X95205705Y-135792062D01*
X95134526Y-135681447D01*
X95124359Y-135674500D01*
X98763133Y-135674500D01*
X98763133Y-137325500D01*
X98785795Y-137445938D01*
X98856974Y-137556553D01*
X98965580Y-137630760D01*
X99094500Y-137656867D01*
X100745500Y-137656867D01*
X100865938Y-137634205D01*
X100976553Y-137563026D01*
X101050760Y-137454420D01*
X101076867Y-137325500D01*
X101076867Y-135674500D01*
X101054205Y-135554062D01*
X100983026Y-135443447D01*
X100874420Y-135369240D01*
X100745500Y-135343133D01*
X99094500Y-135343133D01*
X98974062Y-135365795D01*
X98863447Y-135436974D01*
X98789240Y-135545580D01*
X98763133Y-135674500D01*
X95124359Y-135674500D01*
X95025920Y-135607240D01*
X94897000Y-135581133D01*
X93881000Y-135581133D01*
X93760562Y-135603795D01*
X93649947Y-135674974D01*
X93575740Y-135783580D01*
X93549633Y-135912500D01*
X93549633Y-136750471D01*
X93180605Y-137119499D01*
X89887001Y-137119499D01*
X89724140Y-137151893D01*
X89682026Y-137086447D01*
X89573420Y-137012240D01*
X89515491Y-137000509D01*
X89564938Y-136991205D01*
X89675553Y-136920026D01*
X89749760Y-136811420D01*
X89775867Y-136682500D01*
X89775867Y-135793500D01*
X89753205Y-135673062D01*
X89682026Y-135562447D01*
X89573420Y-135488240D01*
X89444500Y-135462133D01*
X89098529Y-135462133D01*
X88936396Y-135300000D01*
X149700000Y-135300000D01*
X149700000Y-149700000D01*
X50300000Y-149700000D01*
X50300000Y-145767845D01*
X50849300Y-145767845D01*
X51024085Y-146190855D01*
X51347443Y-146514778D01*
X51770147Y-146690300D01*
X52227845Y-146690700D01*
X52650855Y-146515915D01*
X52974778Y-146192557D01*
X53150300Y-145769853D01*
X53150700Y-145312155D01*
X52975915Y-144889145D01*
X52652557Y-144565222D01*
X52229853Y-144389700D01*
X51772155Y-144389300D01*
X51349145Y-144564085D01*
X51025222Y-144887443D01*
X50849700Y-145310147D01*
X50849300Y-145767845D01*
X50300000Y-145767845D01*
X50300000Y-139634500D01*
X50843133Y-139634500D01*
X50843133Y-141285500D01*
X50865795Y-141405938D01*
X50936974Y-141516553D01*
X51045580Y-141590760D01*
X51174500Y-141616867D01*
X52825500Y-141616867D01*
X52945938Y-141594205D01*
X53056553Y-141523026D01*
X53130760Y-141414420D01*
X53156867Y-141285500D01*
X53156867Y-141185000D01*
X53325196Y-141185000D01*
X53775000Y-141634805D01*
X53775000Y-145506500D01*
X53817109Y-145718198D01*
X53830187Y-145783946D01*
X53987348Y-146019152D01*
X54242848Y-146274653D01*
X54478054Y-146431813D01*
X54755500Y-146487000D01*
X55390342Y-146487000D01*
X55426580Y-146511760D01*
X55555500Y-146537867D01*
X56078285Y-146537867D01*
X55970460Y-146645504D01*
X55875109Y-146875134D01*
X55874892Y-147123775D01*
X55969842Y-147353571D01*
X56050000Y-147433869D01*
X56050000Y-148500000D01*
X56084254Y-148672208D01*
X56113345Y-148715745D01*
X56181802Y-148818198D01*
X56481801Y-149118197D01*
X56627792Y-149215746D01*
X56799999Y-149249999D01*
X108700001Y-149249999D01*
X108872209Y-149215745D01*
X109018199Y-149118197D01*
X109511386Y-148625010D01*
X109623775Y-148625108D01*
X109853571Y-148530158D01*
X110029540Y-148354496D01*
X110124891Y-148124866D01*
X110125108Y-147876225D01*
X110062623Y-147725000D01*
X135967322Y-147725000D01*
X136000000Y-147731500D01*
X136032678Y-147725000D01*
X143406004Y-147725000D01*
X143650776Y-147676312D01*
X143683450Y-147669813D01*
X143918656Y-147512652D01*
X144962651Y-146468657D01*
X145119812Y-146233451D01*
X145140897Y-146127446D01*
X145174999Y-145956005D01*
X145174999Y-145767845D01*
X146849300Y-145767845D01*
X147024085Y-146190855D01*
X147347443Y-146514778D01*
X147770147Y-146690300D01*
X148227845Y-146690700D01*
X148650855Y-146515915D01*
X148974778Y-146192557D01*
X149150300Y-145769853D01*
X149150700Y-145312155D01*
X148975915Y-144889145D01*
X148652557Y-144565222D01*
X148229853Y-144389700D01*
X147772155Y-144389300D01*
X147349145Y-144564085D01*
X147025222Y-144887443D01*
X146849700Y-145310147D01*
X146849300Y-145767845D01*
X145174999Y-145767845D01*
X145174999Y-143444301D01*
X147035457Y-141583843D01*
X147045580Y-141590760D01*
X147174500Y-141616867D01*
X148825500Y-141616867D01*
X148945938Y-141594205D01*
X149056553Y-141523026D01*
X149130760Y-141414420D01*
X149156867Y-141285500D01*
X149156867Y-139634500D01*
X149134205Y-139514062D01*
X149063026Y-139403447D01*
X148954420Y-139329240D01*
X148825500Y-139303133D01*
X148725000Y-139303133D01*
X148725000Y-138834500D01*
X148721619Y-138817500D01*
X148669813Y-138557054D01*
X148512653Y-138321848D01*
X146178152Y-135987348D01*
X145942946Y-135830187D01*
X145882672Y-135818198D01*
X145665500Y-135775000D01*
X123926867Y-135775000D01*
X123926867Y-135674500D01*
X123904205Y-135554062D01*
X123833026Y-135443447D01*
X123724420Y-135369240D01*
X123595500Y-135343133D01*
X121944500Y-135343133D01*
X121824062Y-135365795D01*
X121713447Y-135436974D01*
X121639240Y-135545580D01*
X121613133Y-135674500D01*
X121613133Y-137325500D01*
X121635795Y-137445938D01*
X121706974Y-137556553D01*
X121815580Y-137630760D01*
X121944500Y-137656867D01*
X123595500Y-137656867D01*
X123715938Y-137634205D01*
X123826553Y-137563026D01*
X123900760Y-137454420D01*
X123926867Y-137325500D01*
X123926867Y-137225000D01*
X142299000Y-137225000D01*
X142299000Y-137390342D01*
X142274240Y-137426580D01*
X142248133Y-137555500D01*
X142248133Y-138444500D01*
X142270795Y-138564938D01*
X142341974Y-138675553D01*
X142450580Y-138749760D01*
X142579500Y-138775867D01*
X143468500Y-138775867D01*
X143588938Y-138753205D01*
X143699553Y-138682026D01*
X143773760Y-138573420D01*
X143799867Y-138444500D01*
X143799867Y-137555500D01*
X143777205Y-137435062D01*
X143749000Y-137391230D01*
X143749000Y-137225000D01*
X145365196Y-137225000D01*
X147275000Y-139134805D01*
X147275000Y-139303133D01*
X147174500Y-139303133D01*
X147054062Y-139325795D01*
X146943447Y-139396974D01*
X146869240Y-139505580D01*
X146843133Y-139634500D01*
X146843133Y-139799152D01*
X146621344Y-139947348D01*
X143937347Y-142631345D01*
X143780186Y-142866551D01*
X143780186Y-142866552D01*
X143724999Y-143143997D01*
X143724999Y-144916689D01*
X143624864Y-144875109D01*
X143376223Y-144874892D01*
X143194448Y-144950000D01*
X142681367Y-144950000D01*
X142681367Y-144500000D01*
X142658705Y-144379562D01*
X142587526Y-144268947D01*
X142478920Y-144194740D01*
X142350000Y-144168633D01*
X140950000Y-144168633D01*
X140829562Y-144191295D01*
X140718947Y-144262474D01*
X140644740Y-144371080D01*
X140618633Y-144500000D01*
X140618633Y-146275000D01*
X139381367Y-146275000D01*
X139381367Y-144500000D01*
X139358705Y-144379562D01*
X139287526Y-144268947D01*
X139178920Y-144194740D01*
X139050000Y-144168633D01*
X137650000Y-144168633D01*
X137529562Y-144191295D01*
X137418947Y-144262474D01*
X137344740Y-144371080D01*
X137318633Y-144500000D01*
X137318633Y-146275000D01*
X136761995Y-146275000D01*
X136775867Y-146206500D01*
X136775867Y-145317500D01*
X136753205Y-145197062D01*
X136682026Y-145086447D01*
X136573420Y-145012240D01*
X136515491Y-145000509D01*
X136564938Y-144991205D01*
X136675553Y-144920026D01*
X136749760Y-144811420D01*
X136775867Y-144682500D01*
X136775867Y-144346017D01*
X137496883Y-143625000D01*
X138586944Y-143625000D01*
X138619474Y-143675553D01*
X138728080Y-143749760D01*
X138857000Y-143775867D01*
X139619000Y-143775867D01*
X139739438Y-143753205D01*
X139850053Y-143682026D01*
X139924260Y-143573420D01*
X139950367Y-143444500D01*
X139950367Y-142555500D01*
X140049633Y-142555500D01*
X140049633Y-143444500D01*
X140072295Y-143564938D01*
X140143474Y-143675553D01*
X140252080Y-143749760D01*
X140381000Y-143775867D01*
X141143000Y-143775867D01*
X141263438Y-143753205D01*
X141374053Y-143682026D01*
X141413017Y-143625000D01*
X142500000Y-143625000D01*
X142623775Y-143625108D01*
X142739176Y-143577425D01*
X142739177Y-143577425D01*
X142739178Y-143577424D01*
X142853571Y-143530158D01*
X142941939Y-143441944D01*
X142941942Y-143441942D01*
X142941944Y-143441940D01*
X143029540Y-143354496D01*
X143124891Y-143124866D01*
X143125108Y-142876225D01*
X143030158Y-142646429D01*
X142941944Y-142558061D01*
X142941942Y-142558058D01*
X142941940Y-142558056D01*
X142854496Y-142470460D01*
X142739178Y-142422576D01*
X142739177Y-142422575D01*
X142739176Y-142422575D01*
X142624866Y-142375109D01*
X142500000Y-142375000D01*
X142499973Y-142375000D01*
X142376225Y-142374892D01*
X142375964Y-142375000D01*
X141413056Y-142375000D01*
X141380526Y-142324447D01*
X141271920Y-142250240D01*
X141143000Y-142224133D01*
X140381000Y-142224133D01*
X140260562Y-142246795D01*
X140149947Y-142317974D01*
X140075740Y-142426580D01*
X140049633Y-142555500D01*
X139950367Y-142555500D01*
X139927705Y-142435062D01*
X139856526Y-142324447D01*
X139747920Y-142250240D01*
X139619000Y-142224133D01*
X138857000Y-142224133D01*
X138736562Y-142246795D01*
X138625947Y-142317974D01*
X138586983Y-142375000D01*
X137238000Y-142375000D01*
X136998822Y-142422575D01*
X136917606Y-142476842D01*
X136796058Y-142558058D01*
X136796056Y-142558061D01*
X135891983Y-143462133D01*
X135555500Y-143462133D01*
X135435062Y-143484795D01*
X135324447Y-143555974D01*
X135250240Y-143664580D01*
X135224133Y-143793500D01*
X135224133Y-144682500D01*
X135246795Y-144802938D01*
X135317974Y-144913553D01*
X135426580Y-144987760D01*
X135484509Y-144999491D01*
X135435062Y-145008795D01*
X135324447Y-145079974D01*
X135250240Y-145188580D01*
X135224133Y-145317500D01*
X135224133Y-146206500D01*
X135237022Y-146275000D01*
X122681367Y-146275000D01*
X122681367Y-144805029D01*
X124105170Y-143381226D01*
X129074667Y-143381226D01*
X129367113Y-144089000D01*
X129908151Y-144630984D01*
X130615414Y-144924665D01*
X131381226Y-144925333D01*
X132089000Y-144632887D01*
X132630984Y-144091849D01*
X132924665Y-143384586D01*
X132925333Y-142618774D01*
X132632887Y-141911000D01*
X132091849Y-141369016D01*
X131384586Y-141075335D01*
X130618774Y-141074667D01*
X129911000Y-141367113D01*
X129369016Y-141908151D01*
X129075335Y-142615414D01*
X129074667Y-143381226D01*
X124105170Y-143381226D01*
X127036396Y-140450000D01*
X137318633Y-140450000D01*
X137318633Y-141500000D01*
X137341295Y-141620438D01*
X137412474Y-141731053D01*
X137521080Y-141805260D01*
X137650000Y-141831367D01*
X139050000Y-141831367D01*
X139170438Y-141808705D01*
X139281053Y-141737526D01*
X139355260Y-141628920D01*
X139381367Y-141500000D01*
X139381367Y-139700000D01*
X139358705Y-139579562D01*
X139287526Y-139468947D01*
X139178920Y-139394740D01*
X139050000Y-139368633D01*
X137650000Y-139368633D01*
X137529562Y-139391295D01*
X137418947Y-139462474D01*
X137359143Y-139550000D01*
X126850000Y-139550000D01*
X126677793Y-139584253D01*
X126531802Y-139681802D01*
X123124923Y-143088681D01*
X123125108Y-142876225D01*
X123030158Y-142646429D01*
X122941944Y-142558061D01*
X122941942Y-142558058D01*
X122941940Y-142558056D01*
X122854496Y-142470460D01*
X122739178Y-142422576D01*
X122739177Y-142422575D01*
X122739176Y-142422575D01*
X122624866Y-142375109D01*
X122500000Y-142375000D01*
X122499973Y-142375000D01*
X122376225Y-142374892D01*
X122375964Y-142375000D01*
X121413056Y-142375000D01*
X121380526Y-142324447D01*
X121271920Y-142250240D01*
X121143000Y-142224133D01*
X120381000Y-142224133D01*
X120260562Y-142246795D01*
X120149947Y-142317974D01*
X120075740Y-142426580D01*
X120049633Y-142555500D01*
X120049633Y-143444500D01*
X120072295Y-143564938D01*
X120143474Y-143675553D01*
X120252080Y-143749760D01*
X120381000Y-143775867D01*
X121143000Y-143775867D01*
X121263438Y-143753205D01*
X121374053Y-143682026D01*
X121413017Y-143625000D01*
X122500000Y-143625000D01*
X122588527Y-143625077D01*
X122044971Y-144168633D01*
X120950000Y-144168633D01*
X120829562Y-144191295D01*
X120718947Y-144262474D01*
X120644740Y-144371080D01*
X120618633Y-144500000D01*
X120618633Y-146275000D01*
X119381367Y-146275000D01*
X119381367Y-144500000D01*
X119358705Y-144379562D01*
X119287526Y-144268947D01*
X119178920Y-144194740D01*
X119050000Y-144168633D01*
X117650000Y-144168633D01*
X117529562Y-144191295D01*
X117418947Y-144262474D01*
X117344740Y-144371080D01*
X117318633Y-144500000D01*
X117318633Y-146275000D01*
X116761995Y-146275000D01*
X116775867Y-146206500D01*
X116775867Y-145317500D01*
X116753205Y-145197062D01*
X116682026Y-145086447D01*
X116573420Y-145012240D01*
X116515491Y-145000509D01*
X116564938Y-144991205D01*
X116675553Y-144920026D01*
X116749760Y-144811420D01*
X116775867Y-144682500D01*
X116775867Y-144346017D01*
X117496883Y-143625000D01*
X118586944Y-143625000D01*
X118619474Y-143675553D01*
X118728080Y-143749760D01*
X118857000Y-143775867D01*
X119619000Y-143775867D01*
X119739438Y-143753205D01*
X119850053Y-143682026D01*
X119924260Y-143573420D01*
X119950367Y-143444500D01*
X119950367Y-142555500D01*
X119927705Y-142435062D01*
X119856526Y-142324447D01*
X119747920Y-142250240D01*
X119619000Y-142224133D01*
X118857000Y-142224133D01*
X118736562Y-142246795D01*
X118625947Y-142317974D01*
X118586983Y-142375000D01*
X117238000Y-142375000D01*
X116998822Y-142422575D01*
X116917606Y-142476842D01*
X116796058Y-142558058D01*
X116796056Y-142558061D01*
X115891983Y-143462133D01*
X115555500Y-143462133D01*
X115435062Y-143484795D01*
X115324447Y-143555974D01*
X115250240Y-143664580D01*
X115224133Y-143793500D01*
X115224133Y-144682500D01*
X115246795Y-144802938D01*
X115317974Y-144913553D01*
X115426580Y-144987760D01*
X115484509Y-144999491D01*
X115435062Y-145008795D01*
X115324447Y-145079974D01*
X115250240Y-145188580D01*
X115224133Y-145317500D01*
X115224133Y-146206500D01*
X115237022Y-146275000D01*
X102681367Y-146275000D01*
X102681367Y-145850000D01*
X112600000Y-145850000D01*
X112772208Y-145815746D01*
X112918198Y-145718198D01*
X117318633Y-141317763D01*
X117318633Y-141500000D01*
X117341295Y-141620438D01*
X117412474Y-141731053D01*
X117521080Y-141805260D01*
X117650000Y-141831367D01*
X119050000Y-141831367D01*
X119170438Y-141808705D01*
X119281053Y-141737526D01*
X119355260Y-141628920D01*
X119381367Y-141500000D01*
X119381367Y-139700000D01*
X119358705Y-139579562D01*
X119287526Y-139468947D01*
X119178920Y-139394740D01*
X119050000Y-139368633D01*
X117650000Y-139368633D01*
X117529562Y-139391295D01*
X117418947Y-139462474D01*
X117344740Y-139571080D01*
X117318633Y-139700000D01*
X117318633Y-140166185D01*
X117227792Y-140184254D01*
X117081802Y-140281802D01*
X112413604Y-144950000D01*
X109933869Y-144950000D01*
X110029540Y-144854496D01*
X110063369Y-144773027D01*
X117269438Y-137566958D01*
X117470147Y-137650300D01*
X117927845Y-137650700D01*
X118350855Y-137475915D01*
X118674778Y-137152557D01*
X118850300Y-136729853D01*
X118850700Y-136272155D01*
X118675915Y-135849145D01*
X118352557Y-135525222D01*
X117929853Y-135349700D01*
X117472155Y-135349300D01*
X117049145Y-135524085D01*
X116725222Y-135847443D01*
X116549700Y-136270147D01*
X116549300Y-136727845D01*
X116633056Y-136930548D01*
X109669826Y-143893778D01*
X109624866Y-143875109D01*
X109376225Y-143874892D01*
X109146429Y-143969842D01*
X108999899Y-144116117D01*
X108950000Y-144066131D01*
X108950000Y-143346396D01*
X114729438Y-137566958D01*
X114930147Y-137650300D01*
X115387845Y-137650700D01*
X115810855Y-137475915D01*
X116134778Y-137152557D01*
X116310300Y-136729853D01*
X116310700Y-136272155D01*
X116135915Y-135849145D01*
X115812557Y-135525222D01*
X115389853Y-135349700D01*
X114932155Y-135349300D01*
X114509145Y-135524085D01*
X114185222Y-135847443D01*
X114009700Y-136270147D01*
X114009300Y-136727845D01*
X114093056Y-136930548D01*
X108181802Y-142841802D01*
X108084254Y-142987792D01*
X108050000Y-143160000D01*
X108050000Y-144066103D01*
X107999899Y-144116117D01*
X107950000Y-144066131D01*
X107950000Y-142186396D01*
X112486012Y-137650384D01*
X112847845Y-137650700D01*
X113270855Y-137475915D01*
X113594778Y-137152557D01*
X113770300Y-136729853D01*
X113770700Y-136272155D01*
X113595915Y-135849145D01*
X113272557Y-135525222D01*
X112849853Y-135349700D01*
X112392155Y-135349300D01*
X111969145Y-135524085D01*
X111645222Y-135847443D01*
X111469700Y-136270147D01*
X111469300Y-136727845D01*
X111644085Y-137150855D01*
X111678387Y-137185217D01*
X107181802Y-141681802D01*
X107084254Y-141827792D01*
X107050000Y-142000000D01*
X107050000Y-144066103D01*
X106999899Y-144116117D01*
X106950000Y-144066131D01*
X106950000Y-140686396D01*
X109985977Y-137650419D01*
X110307845Y-137650700D01*
X110730855Y-137475915D01*
X111054778Y-137152557D01*
X111230300Y-136729853D01*
X111230700Y-136272155D01*
X111055915Y-135849145D01*
X110732557Y-135525222D01*
X110309853Y-135349700D01*
X109852155Y-135349300D01*
X109429145Y-135524085D01*
X109105222Y-135847443D01*
X108929700Y-136270147D01*
X108929300Y-136727845D01*
X109104085Y-137150855D01*
X109158370Y-137205234D01*
X106181802Y-140181802D01*
X106084254Y-140327792D01*
X106050000Y-140500000D01*
X106050000Y-144066103D01*
X105999899Y-144116117D01*
X105950000Y-144066131D01*
X105950000Y-139226396D01*
X107525907Y-137650489D01*
X107767845Y-137650700D01*
X108190855Y-137475915D01*
X108514778Y-137152557D01*
X108690300Y-136729853D01*
X108690700Y-136272155D01*
X108515915Y-135849145D01*
X108192557Y-135525222D01*
X107769853Y-135349700D01*
X107312155Y-135349300D01*
X106889145Y-135524085D01*
X106565222Y-135847443D01*
X106389700Y-136270147D01*
X106389300Y-136727845D01*
X106564085Y-137150855D01*
X106658335Y-137245269D01*
X105181802Y-138721802D01*
X105084254Y-138867792D01*
X105050000Y-139040000D01*
X105050000Y-144066103D01*
X104999899Y-144116117D01*
X104950000Y-144066131D01*
X104950000Y-137686396D01*
X104985907Y-137650489D01*
X105227845Y-137650700D01*
X105650855Y-137475915D01*
X105974778Y-137152557D01*
X106150300Y-136729853D01*
X106150700Y-136272155D01*
X105975915Y-135849145D01*
X105652557Y-135525222D01*
X105229853Y-135349700D01*
X104772155Y-135349300D01*
X104349145Y-135524085D01*
X104025222Y-135847443D01*
X103849700Y-136270147D01*
X103849300Y-136727845D01*
X104024085Y-137150855D01*
X104130950Y-137257907D01*
X104084254Y-137327792D01*
X104050000Y-137500000D01*
X104050000Y-144066103D01*
X103999899Y-144116117D01*
X103950000Y-144066131D01*
X103950000Y-138040000D01*
X103915746Y-137867792D01*
X103818198Y-137721802D01*
X103341784Y-137245388D01*
X103434778Y-137152557D01*
X103610300Y-136729853D01*
X103610700Y-136272155D01*
X103435915Y-135849145D01*
X103112557Y-135525222D01*
X102689853Y-135349700D01*
X102232155Y-135349300D01*
X101809145Y-135524085D01*
X101485222Y-135847443D01*
X101309700Y-136270147D01*
X101309300Y-136727845D01*
X101484085Y-137150855D01*
X101807443Y-137474778D01*
X102230147Y-137650300D01*
X102474117Y-137650513D01*
X103050000Y-138226396D01*
X103050000Y-142694450D01*
X103030158Y-142646429D01*
X102941944Y-142558061D01*
X102941942Y-142558058D01*
X102941940Y-142558056D01*
X102854496Y-142470460D01*
X102739178Y-142422576D01*
X102739177Y-142422575D01*
X102739176Y-142422575D01*
X102624866Y-142375109D01*
X102500000Y-142375000D01*
X102499973Y-142375000D01*
X102376225Y-142374892D01*
X102375964Y-142375000D01*
X101413056Y-142375000D01*
X101380526Y-142324447D01*
X101271920Y-142250240D01*
X101143000Y-142224133D01*
X100381000Y-142224133D01*
X100260562Y-142246795D01*
X100149947Y-142317974D01*
X100075740Y-142426580D01*
X100049633Y-142555500D01*
X100049633Y-143444500D01*
X100072295Y-143564938D01*
X100143474Y-143675553D01*
X100252080Y-143749760D01*
X100381000Y-143775867D01*
X101143000Y-143775867D01*
X101263438Y-143753205D01*
X101374053Y-143682026D01*
X101413017Y-143625000D01*
X102500000Y-143625000D01*
X102623775Y-143625108D01*
X102739176Y-143577425D01*
X102739177Y-143577425D01*
X102739178Y-143577424D01*
X102853571Y-143530158D01*
X102941939Y-143441944D01*
X102941942Y-143441942D01*
X102941944Y-143441940D01*
X103029540Y-143354496D01*
X103050000Y-143305223D01*
X103050000Y-144066103D01*
X102970460Y-144145504D01*
X102875109Y-144375134D01*
X102874892Y-144623775D01*
X102969842Y-144853571D01*
X103066103Y-144950000D01*
X102681367Y-144950000D01*
X102681367Y-144500000D01*
X102658705Y-144379562D01*
X102587526Y-144268947D01*
X102478920Y-144194740D01*
X102350000Y-144168633D01*
X100950000Y-144168633D01*
X100829562Y-144191295D01*
X100718947Y-144262474D01*
X100644740Y-144371080D01*
X100618633Y-144500000D01*
X100618633Y-146275000D01*
X99381367Y-146275000D01*
X99381367Y-144500000D01*
X99358705Y-144379562D01*
X99287526Y-144268947D01*
X99178920Y-144194740D01*
X99050000Y-144168633D01*
X97650000Y-144168633D01*
X97529562Y-144191295D01*
X97418947Y-144262474D01*
X97344740Y-144371080D01*
X97318633Y-144500000D01*
X97318633Y-146275000D01*
X96761995Y-146275000D01*
X96775867Y-146206500D01*
X96775867Y-145317500D01*
X96753205Y-145197062D01*
X96682026Y-145086447D01*
X96573420Y-145012240D01*
X96515491Y-145000509D01*
X96564938Y-144991205D01*
X96675553Y-144920026D01*
X96749760Y-144811420D01*
X96775867Y-144682500D01*
X96775867Y-144346017D01*
X97496883Y-143625000D01*
X98586944Y-143625000D01*
X98619474Y-143675553D01*
X98728080Y-143749760D01*
X98857000Y-143775867D01*
X99619000Y-143775867D01*
X99739438Y-143753205D01*
X99850053Y-143682026D01*
X99924260Y-143573420D01*
X99950367Y-143444500D01*
X99950367Y-142555500D01*
X99927705Y-142435062D01*
X99856526Y-142324447D01*
X99747920Y-142250240D01*
X99619000Y-142224133D01*
X98857000Y-142224133D01*
X98736562Y-142246795D01*
X98625947Y-142317974D01*
X98586983Y-142375000D01*
X97238000Y-142375000D01*
X96998822Y-142422575D01*
X96917606Y-142476842D01*
X96796058Y-142558058D01*
X96796056Y-142558061D01*
X95891983Y-143462133D01*
X95555500Y-143462133D01*
X95435062Y-143484795D01*
X95324447Y-143555974D01*
X95250240Y-143664580D01*
X95224133Y-143793500D01*
X95224133Y-144682500D01*
X95246795Y-144802938D01*
X95317974Y-144913553D01*
X95426580Y-144987760D01*
X95484509Y-144999491D01*
X95435062Y-145008795D01*
X95324447Y-145079974D01*
X95250240Y-145188580D01*
X95224133Y-145317500D01*
X95224133Y-146206500D01*
X95237022Y-146275000D01*
X92361396Y-146275000D01*
X97318633Y-141317763D01*
X97318633Y-141500000D01*
X97341295Y-141620438D01*
X97412474Y-141731053D01*
X97521080Y-141805260D01*
X97650000Y-141831367D01*
X99050000Y-141831367D01*
X99170438Y-141808705D01*
X99281053Y-141737526D01*
X99355260Y-141628920D01*
X99381367Y-141500000D01*
X99381367Y-139700000D01*
X99358705Y-139579562D01*
X99287526Y-139468947D01*
X99178920Y-139394740D01*
X99050000Y-139368633D01*
X97650000Y-139368633D01*
X97529562Y-139391295D01*
X97418947Y-139462474D01*
X97344740Y-139571080D01*
X97318633Y-139700000D01*
X97318633Y-140166185D01*
X97227792Y-140184254D01*
X97081802Y-140281802D01*
X91813604Y-145550000D01*
X82681367Y-145550000D01*
X82681367Y-144500000D01*
X82658705Y-144379562D01*
X82587526Y-144268947D01*
X82478920Y-144194740D01*
X82350000Y-144168633D01*
X80950000Y-144168633D01*
X80829562Y-144191295D01*
X80718947Y-144262474D01*
X80644740Y-144371080D01*
X80618633Y-144500000D01*
X80618633Y-146275000D01*
X79381367Y-146275000D01*
X79381367Y-144500000D01*
X79358705Y-144379562D01*
X79287526Y-144268947D01*
X79178920Y-144194740D01*
X79050000Y-144168633D01*
X77650000Y-144168633D01*
X77529562Y-144191295D01*
X77418947Y-144262474D01*
X77344740Y-144371080D01*
X77318633Y-144500000D01*
X77318633Y-146275000D01*
X76725000Y-146275000D01*
X76725000Y-145609658D01*
X76749760Y-145573420D01*
X76775867Y-145444500D01*
X76775867Y-144555500D01*
X76753205Y-144435062D01*
X76682026Y-144324447D01*
X76573420Y-144250240D01*
X76515491Y-144238509D01*
X76564938Y-144229205D01*
X76675553Y-144158026D01*
X76749760Y-144049420D01*
X76775867Y-143920500D01*
X76775867Y-143625000D01*
X78348944Y-143625000D01*
X78381474Y-143675553D01*
X78490080Y-143749760D01*
X78619000Y-143775867D01*
X79381000Y-143775867D01*
X79501438Y-143753205D01*
X79612053Y-143682026D01*
X79686260Y-143573420D01*
X79712367Y-143444500D01*
X79712367Y-142555500D01*
X79811633Y-142555500D01*
X79811633Y-143444500D01*
X79834295Y-143564938D01*
X79905474Y-143675553D01*
X80014080Y-143749760D01*
X80143000Y-143775867D01*
X80905000Y-143775867D01*
X81025438Y-143753205D01*
X81136053Y-143682026D01*
X81175017Y-143625000D01*
X82000000Y-143625000D01*
X82123775Y-143625108D01*
X82239176Y-143577425D01*
X82239177Y-143577425D01*
X82239178Y-143577424D01*
X82353571Y-143530158D01*
X82441939Y-143441944D01*
X82441942Y-143441942D01*
X82441944Y-143441940D01*
X82502763Y-143381226D01*
X88074667Y-143381226D01*
X88367113Y-144089000D01*
X88908151Y-144630984D01*
X89615414Y-144924665D01*
X90381226Y-144925333D01*
X91089000Y-144632887D01*
X91630984Y-144091849D01*
X91924665Y-143384586D01*
X91925333Y-142618774D01*
X91632887Y-141911000D01*
X91091849Y-141369016D01*
X90384586Y-141075335D01*
X89618774Y-141074667D01*
X88911000Y-141367113D01*
X88369016Y-141908151D01*
X88075335Y-142615414D01*
X88074667Y-143381226D01*
X82502763Y-143381226D01*
X82529540Y-143354496D01*
X82624891Y-143124866D01*
X82625108Y-142876225D01*
X82530158Y-142646429D01*
X82441944Y-142558061D01*
X82441942Y-142558058D01*
X82441940Y-142558056D01*
X82354496Y-142470460D01*
X82239178Y-142422576D01*
X82239177Y-142422575D01*
X82239176Y-142422575D01*
X82124866Y-142375109D01*
X82000000Y-142375000D01*
X81999973Y-142375000D01*
X81876225Y-142374892D01*
X81875964Y-142375000D01*
X81175056Y-142375000D01*
X81142526Y-142324447D01*
X81033920Y-142250240D01*
X80905000Y-142224133D01*
X80143000Y-142224133D01*
X80022562Y-142246795D01*
X79911947Y-142317974D01*
X79837740Y-142426580D01*
X79811633Y-142555500D01*
X79712367Y-142555500D01*
X79689705Y-142435062D01*
X79618526Y-142324447D01*
X79509920Y-142250240D01*
X79381000Y-142224133D01*
X78619000Y-142224133D01*
X78498562Y-142246795D01*
X78387947Y-142317974D01*
X78348983Y-142375000D01*
X76500005Y-142375000D01*
X76500000Y-142374999D01*
X76278811Y-142418997D01*
X76260823Y-142422575D01*
X76163307Y-142487733D01*
X77318633Y-141332407D01*
X77318633Y-141500000D01*
X77341295Y-141620438D01*
X77412474Y-141731053D01*
X77521080Y-141805260D01*
X77650000Y-141831367D01*
X79050000Y-141831367D01*
X79170438Y-141808705D01*
X79281053Y-141737526D01*
X79355260Y-141628920D01*
X79381367Y-141500000D01*
X79381367Y-139700000D01*
X79358705Y-139579562D01*
X79287526Y-139468947D01*
X79178920Y-139394740D01*
X79050000Y-139368633D01*
X77650000Y-139368633D01*
X77529562Y-139391295D01*
X77418947Y-139462474D01*
X77344740Y-139571080D01*
X77318633Y-139700000D01*
X77318633Y-140201130D01*
X77314343Y-140201984D01*
X77287359Y-140207351D01*
X77149480Y-140299480D01*
X72473960Y-144975000D01*
X62681367Y-144975000D01*
X62681367Y-144500000D01*
X62658705Y-144379562D01*
X62587526Y-144268947D01*
X62478920Y-144194740D01*
X62350000Y-144168633D01*
X60950000Y-144168633D01*
X60829562Y-144191295D01*
X60718947Y-144262474D01*
X60644740Y-144371080D01*
X60618633Y-144500000D01*
X60618633Y-146275000D01*
X59800305Y-146275000D01*
X59381367Y-145856063D01*
X59381367Y-144500000D01*
X59358705Y-144379562D01*
X59287526Y-144268947D01*
X59178920Y-144194740D01*
X59050000Y-144168633D01*
X57650000Y-144168633D01*
X57529562Y-144191295D01*
X57418947Y-144262474D01*
X57344740Y-144371080D01*
X57318633Y-144500000D01*
X57318633Y-145037000D01*
X56609658Y-145037000D01*
X56573420Y-145012240D01*
X56515491Y-145000509D01*
X56564938Y-144991205D01*
X56675553Y-144920026D01*
X56749760Y-144811420D01*
X56775867Y-144682500D01*
X56775867Y-144346017D01*
X57496883Y-143625000D01*
X58586944Y-143625000D01*
X58619474Y-143675553D01*
X58728080Y-143749760D01*
X58857000Y-143775867D01*
X59619000Y-143775867D01*
X59739438Y-143753205D01*
X59850053Y-143682026D01*
X59924260Y-143573420D01*
X59950367Y-143444500D01*
X59950367Y-142555500D01*
X60049633Y-142555500D01*
X60049633Y-143444500D01*
X60072295Y-143564938D01*
X60143474Y-143675553D01*
X60252080Y-143749760D01*
X60381000Y-143775867D01*
X61143000Y-143775867D01*
X61263438Y-143753205D01*
X61374053Y-143682026D01*
X61413017Y-143625000D01*
X72500000Y-143625000D01*
X72623775Y-143625108D01*
X72739176Y-143577425D01*
X72739177Y-143577425D01*
X72739178Y-143577424D01*
X72853571Y-143530158D01*
X72941939Y-143441944D01*
X72941942Y-143441942D01*
X72941944Y-143441940D01*
X73029540Y-143354496D01*
X73124891Y-143124866D01*
X73125108Y-142876225D01*
X73030158Y-142646429D01*
X72941944Y-142558061D01*
X72941942Y-142558058D01*
X72941940Y-142558056D01*
X72854496Y-142470460D01*
X72739178Y-142422576D01*
X72739177Y-142422575D01*
X72739176Y-142422575D01*
X72624866Y-142375109D01*
X72500000Y-142375000D01*
X72499973Y-142375000D01*
X72376225Y-142374892D01*
X72375964Y-142375000D01*
X61413056Y-142375000D01*
X61380526Y-142324447D01*
X61271920Y-142250240D01*
X61143000Y-142224133D01*
X60381000Y-142224133D01*
X60260562Y-142246795D01*
X60149947Y-142317974D01*
X60075740Y-142426580D01*
X60049633Y-142555500D01*
X59950367Y-142555500D01*
X59927705Y-142435062D01*
X59856526Y-142324447D01*
X59747920Y-142250240D01*
X59619000Y-142224133D01*
X58857000Y-142224133D01*
X58736562Y-142246795D01*
X58625947Y-142317974D01*
X58586983Y-142375000D01*
X57238000Y-142375000D01*
X56998822Y-142422575D01*
X56917606Y-142476842D01*
X56796058Y-142558058D01*
X56796056Y-142558061D01*
X55891983Y-143462133D01*
X55555500Y-143462133D01*
X55435062Y-143484795D01*
X55324447Y-143555974D01*
X55250240Y-143664580D01*
X55225000Y-143789219D01*
X55225000Y-141334500D01*
X55187408Y-141145510D01*
X55169813Y-141057054D01*
X55012653Y-140821848D01*
X54138152Y-139947348D01*
X53902946Y-139790187D01*
X53856915Y-139781031D01*
X53625500Y-139735000D01*
X53156867Y-139735000D01*
X53156867Y-139634500D01*
X53134205Y-139514062D01*
X53063026Y-139403447D01*
X52954420Y-139329240D01*
X52825500Y-139303133D01*
X51174500Y-139303133D01*
X51054062Y-139325795D01*
X50943447Y-139396974D01*
X50869240Y-139505580D01*
X50843133Y-139634500D01*
X50300000Y-139634500D01*
X50300000Y-135300000D01*
X64406307Y-135300000D01*
X64375109Y-135375134D01*
X64375109Y-135375134D01*
G37*
X64375109Y-135375134D02*
X64374892Y-135623775D01*
X64469842Y-135853571D01*
X64645504Y-136029540D01*
X64827231Y-136105000D01*
X61000000Y-136105000D01*
X60876225Y-136104892D01*
X60760824Y-136152575D01*
X60760823Y-136152575D01*
X60760822Y-136152576D01*
X60646429Y-136199842D01*
X60558061Y-136288056D01*
X60558058Y-136288058D01*
X60558056Y-136288060D01*
X60470460Y-136375504D01*
X60375109Y-136605134D01*
X60374892Y-136853775D01*
X60469842Y-137083571D01*
X60558056Y-137171939D01*
X60558058Y-137171942D01*
X60558060Y-137171944D01*
X60645504Y-137259540D01*
X60760822Y-137307424D01*
X60760823Y-137307425D01*
X60760824Y-137307425D01*
X60875134Y-137354891D01*
X61000000Y-137355000D01*
X61000027Y-137355000D01*
X61123775Y-137355108D01*
X61124036Y-137355000D01*
X67224133Y-137355000D01*
X67224133Y-138182500D01*
X67246795Y-138302938D01*
X67317974Y-138413553D01*
X67426580Y-138487760D01*
X67484509Y-138499491D01*
X67435062Y-138508795D01*
X67324447Y-138579974D01*
X67250240Y-138688580D01*
X67225247Y-138812000D01*
X60813736Y-138812000D01*
X60641528Y-138846254D01*
X60495538Y-138943802D01*
X59681802Y-139757538D01*
X59584254Y-139903528D01*
X59550000Y-140075736D01*
X59550000Y-140566103D01*
X59470460Y-140645504D01*
X59381367Y-140860063D01*
X59381367Y-139700000D01*
X59358705Y-139579562D01*
X59287526Y-139468947D01*
X59178920Y-139394740D01*
X59050000Y-139368633D01*
X57650000Y-139368633D01*
X57529562Y-139391295D01*
X57418947Y-139462474D01*
X57344740Y-139571080D01*
X57318633Y-139700000D01*
X57318633Y-140150000D01*
X56531626Y-140150000D01*
X56530150Y-140146429D01*
X56354488Y-139970460D01*
X56124858Y-139875109D01*
X55876217Y-139874892D01*
X55646421Y-139969842D01*
X55470452Y-140145504D01*
X55375101Y-140375134D01*
X55374884Y-140623775D01*
X55469834Y-140853571D01*
X55645496Y-141029540D01*
X55875126Y-141124891D01*
X56123767Y-141125108D01*
X56305542Y-141050000D01*
X57318633Y-141050000D01*
X57318633Y-141500000D01*
X57341295Y-141620438D01*
X57412474Y-141731053D01*
X57521080Y-141805260D01*
X57650000Y-141831367D01*
X59050000Y-141831367D01*
X59170438Y-141808705D01*
X59281053Y-141737526D01*
X59355260Y-141628920D01*
X59381367Y-141500000D01*
X59381367Y-141139446D01*
X59469842Y-141353571D01*
X59645504Y-141529540D01*
X59875134Y-141624891D01*
X60123775Y-141625108D01*
X60353571Y-141530158D01*
X60529540Y-141354496D01*
X60624891Y-141124866D01*
X60624891Y-141123775D01*
X63874892Y-141123775D01*
X63969842Y-141353571D01*
X64145504Y-141529540D01*
X64375134Y-141624891D01*
X64488594Y-141624990D01*
X64681802Y-141818198D01*
X64827792Y-141915746D01*
X65000000Y-141950000D01*
X74066097Y-141950000D01*
X74145504Y-142029546D01*
X74375134Y-142124897D01*
X74623775Y-142125114D01*
X74853571Y-142030164D01*
X75029540Y-141854502D01*
X75124891Y-141624872D01*
X75125108Y-141376231D01*
X75030158Y-141146435D01*
X74854496Y-140970466D01*
X74624866Y-140875115D01*
X74376225Y-140874898D01*
X74146429Y-140969848D01*
X74066137Y-141050000D01*
X65186396Y-141050000D01*
X65125010Y-140988614D01*
X65125108Y-140876225D01*
X65030158Y-140646429D01*
X64854496Y-140470460D01*
X64624866Y-140375109D01*
X64376225Y-140374892D01*
X64146429Y-140469842D01*
X63970460Y-140645504D01*
X63875109Y-140875134D01*
X63874892Y-141123775D01*
X60624891Y-141123775D01*
X60625108Y-140876225D01*
X60530158Y-140646429D01*
X60450000Y-140566131D01*
X60450000Y-140262132D01*
X61000132Y-139712000D01*
X67225168Y-139712000D01*
X67246795Y-139826938D01*
X67317974Y-139937553D01*
X67426580Y-140011760D01*
X67555500Y-140037867D01*
X68444500Y-140037867D01*
X68564938Y-140015205D01*
X68675553Y-139944026D01*
X68749760Y-139835420D01*
X68775867Y-139706500D01*
X68775867Y-139122529D01*
X69303133Y-138595263D01*
X69303133Y-140095500D01*
X69325795Y-140215938D01*
X69396974Y-140326553D01*
X69505580Y-140400760D01*
X69634500Y-140426867D01*
X71285500Y-140426867D01*
X71405938Y-140404205D01*
X71516553Y-140333026D01*
X71590760Y-140224420D01*
X71616867Y-140095500D01*
X71616867Y-138450000D01*
X72192958Y-138450000D01*
X72025222Y-138617443D01*
X71849700Y-139040147D01*
X71849300Y-139497845D01*
X72024085Y-139920855D01*
X72347443Y-140244778D01*
X72770147Y-140420300D01*
X73227845Y-140420700D01*
X73650855Y-140245915D01*
X73974778Y-139922557D01*
X74150300Y-139499853D01*
X74150700Y-139042155D01*
X73975915Y-138619145D01*
X73807065Y-138450000D01*
X74083604Y-138450000D01*
X74473042Y-138839438D01*
X74389700Y-139040147D01*
X74389300Y-139497845D01*
X74564085Y-139920855D01*
X74887443Y-140244778D01*
X75310147Y-140420300D01*
X75767845Y-140420700D01*
X76190855Y-140245915D01*
X76514778Y-139922557D01*
X76690300Y-139499853D01*
X76690700Y-139042155D01*
X76515915Y-138619145D01*
X76192557Y-138295222D01*
X75769853Y-138119700D01*
X75312155Y-138119300D01*
X75109452Y-138203056D01*
X74588198Y-137681802D01*
X74541052Y-137650300D01*
X74442208Y-137584254D01*
X74270000Y-137550000D01*
X73807042Y-137550000D01*
X73974778Y-137382557D01*
X74150300Y-136959853D01*
X74150700Y-136502155D01*
X73975915Y-136079145D01*
X73876443Y-135979499D01*
X88224133Y-135979499D01*
X88224133Y-136682500D01*
X88246795Y-136802938D01*
X88317974Y-136913553D01*
X88426580Y-136987760D01*
X88484509Y-136999491D01*
X88435062Y-137008795D01*
X88324447Y-137079974D01*
X88250240Y-137188580D01*
X88224133Y-137317500D01*
X88224133Y-138206500D01*
X88246795Y-138326938D01*
X88317974Y-138437553D01*
X88426580Y-138511760D01*
X88555500Y-138537867D01*
X89444500Y-138537867D01*
X89564938Y-138515205D01*
X89675553Y-138444026D01*
X89749760Y-138335420D01*
X89775867Y-138206500D01*
X89775867Y-138195815D01*
X89866708Y-138177746D01*
X90012698Y-138080198D01*
X90073397Y-138019499D01*
X90623727Y-138019499D01*
X90542074Y-138074058D01*
X90542072Y-138074061D01*
X90358057Y-138258075D01*
X90358055Y-138258078D01*
X90058058Y-138558074D01*
X90058056Y-138558076D01*
X89970460Y-138645520D01*
X89875109Y-138875150D01*
X89874892Y-139123791D01*
X89969842Y-139353587D01*
X90058056Y-139441955D01*
X90058058Y-139441958D01*
X90058060Y-139441960D01*
X90145504Y-139529556D01*
X90260822Y-139577440D01*
X90260823Y-139577441D01*
X90260824Y-139577441D01*
X90375134Y-139624907D01*
X90500000Y-139625016D01*
X90623775Y-139625124D01*
X90739176Y-139577441D01*
X90739177Y-139577441D01*
X90739178Y-139577440D01*
X90853571Y-139530174D01*
X90941939Y-139441960D01*
X90941942Y-139441958D01*
X90942414Y-139441486D01*
X91029540Y-139354512D01*
X91029648Y-139354252D01*
X91241938Y-139141961D01*
X91241941Y-139141959D01*
X91242900Y-139141000D01*
X92670700Y-139141000D01*
X92683295Y-139207938D01*
X92754474Y-139318553D01*
X92863080Y-139392760D01*
X92992000Y-139418867D01*
X94008000Y-139418867D01*
X94128438Y-139396205D01*
X94239053Y-139325026D01*
X94313260Y-139216420D01*
X94339367Y-139087500D01*
X94339367Y-137944500D01*
X94316705Y-137824062D01*
X94245526Y-137713447D01*
X94136920Y-137639240D01*
X94008000Y-137613133D01*
X93959763Y-137613133D01*
X94186029Y-137386867D01*
X94897000Y-137386867D01*
X95017438Y-137364205D01*
X95128053Y-137293026D01*
X95202260Y-137184420D01*
X95228367Y-137055500D01*
X95228367Y-135912500D01*
X95205705Y-135792062D01*
X95134526Y-135681447D01*
X95124359Y-135674500D01*
X98763133Y-135674500D01*
X98763133Y-137325500D01*
X98785795Y-137445938D01*
X98856974Y-137556553D01*
X98965580Y-137630760D01*
X99094500Y-137656867D01*
X100745500Y-137656867D01*
X100865938Y-137634205D01*
X100976553Y-137563026D01*
X101050760Y-137454420D01*
X101076867Y-137325500D01*
X101076867Y-135674500D01*
X101054205Y-135554062D01*
X100983026Y-135443447D01*
X100874420Y-135369240D01*
X100745500Y-135343133D01*
X99094500Y-135343133D01*
X98974062Y-135365795D01*
X98863447Y-135436974D01*
X98789240Y-135545580D01*
X98763133Y-135674500D01*
X95124359Y-135674500D01*
X95025920Y-135607240D01*
X94897000Y-135581133D01*
X93881000Y-135581133D01*
X93760562Y-135603795D01*
X93649947Y-135674974D01*
X93575740Y-135783580D01*
X93549633Y-135912500D01*
X93549633Y-136750471D01*
X93180605Y-137119499D01*
X89887001Y-137119499D01*
X89724140Y-137151893D01*
X89682026Y-137086447D01*
X89573420Y-137012240D01*
X89515491Y-137000509D01*
X89564938Y-136991205D01*
X89675553Y-136920026D01*
X89749760Y-136811420D01*
X89775867Y-136682500D01*
X89775867Y-135793500D01*
X89753205Y-135673062D01*
X89682026Y-135562447D01*
X89573420Y-135488240D01*
X89444500Y-135462133D01*
X89098529Y-135462133D01*
X88936396Y-135300000D01*
X149700000Y-135300000D01*
X149700000Y-149700000D01*
X50300000Y-149700000D01*
X50300000Y-145767845D01*
X50849300Y-145767845D01*
X51024085Y-146190855D01*
X51347443Y-146514778D01*
X51770147Y-146690300D01*
X52227845Y-146690700D01*
X52650855Y-146515915D01*
X52974778Y-146192557D01*
X53150300Y-145769853D01*
X53150700Y-145312155D01*
X52975915Y-144889145D01*
X52652557Y-144565222D01*
X52229853Y-144389700D01*
X51772155Y-144389300D01*
X51349145Y-144564085D01*
X51025222Y-144887443D01*
X50849700Y-145310147D01*
X50849300Y-145767845D01*
X50300000Y-145767845D01*
X50300000Y-139634500D01*
X50843133Y-139634500D01*
X50843133Y-141285500D01*
X50865795Y-141405938D01*
X50936974Y-141516553D01*
X51045580Y-141590760D01*
X51174500Y-141616867D01*
X52825500Y-141616867D01*
X52945938Y-141594205D01*
X53056553Y-141523026D01*
X53130760Y-141414420D01*
X53156867Y-141285500D01*
X53156867Y-141185000D01*
X53325196Y-141185000D01*
X53775000Y-141634805D01*
X53775000Y-145506500D01*
X53817109Y-145718198D01*
X53830187Y-145783946D01*
X53987348Y-146019152D01*
X54242848Y-146274653D01*
X54478054Y-146431813D01*
X54755500Y-146487000D01*
X55390342Y-146487000D01*
X55426580Y-146511760D01*
X55555500Y-146537867D01*
X56078285Y-146537867D01*
X55970460Y-146645504D01*
X55875109Y-146875134D01*
X55874892Y-147123775D01*
X55969842Y-147353571D01*
X56050000Y-147433869D01*
X56050000Y-148500000D01*
X56084254Y-148672208D01*
X56113345Y-148715745D01*
X56181802Y-148818198D01*
X56481801Y-149118197D01*
X56627792Y-149215746D01*
X56799999Y-149249999D01*
X108700001Y-149249999D01*
X108872209Y-149215745D01*
X109018199Y-149118197D01*
X109511386Y-148625010D01*
X109623775Y-148625108D01*
X109853571Y-148530158D01*
X110029540Y-148354496D01*
X110124891Y-148124866D01*
X110125108Y-147876225D01*
X110062623Y-147725000D01*
X135967322Y-147725000D01*
X136000000Y-147731500D01*
X136032678Y-147725000D01*
X143406004Y-147725000D01*
X143650776Y-147676312D01*
X143683450Y-147669813D01*
X143918656Y-147512652D01*
X144962651Y-146468657D01*
X145119812Y-146233451D01*
X145140897Y-146127446D01*
X145174999Y-145956005D01*
X145174999Y-145767845D01*
X146849300Y-145767845D01*
X147024085Y-146190855D01*
X147347443Y-146514778D01*
X147770147Y-146690300D01*
X148227845Y-146690700D01*
X148650855Y-146515915D01*
X148974778Y-146192557D01*
X149150300Y-145769853D01*
X149150700Y-145312155D01*
X148975915Y-144889145D01*
X148652557Y-144565222D01*
X148229853Y-144389700D01*
X147772155Y-144389300D01*
X147349145Y-144564085D01*
X147025222Y-144887443D01*
X146849700Y-145310147D01*
X146849300Y-145767845D01*
X145174999Y-145767845D01*
X145174999Y-143444301D01*
X147035457Y-141583843D01*
X147045580Y-141590760D01*
X147174500Y-141616867D01*
X148825500Y-141616867D01*
X148945938Y-141594205D01*
X149056553Y-141523026D01*
X149130760Y-141414420D01*
X149156867Y-141285500D01*
X149156867Y-139634500D01*
X149134205Y-139514062D01*
X149063026Y-139403447D01*
X148954420Y-139329240D01*
X148825500Y-139303133D01*
X148725000Y-139303133D01*
X148725000Y-138834500D01*
X148721619Y-138817500D01*
X148669813Y-138557054D01*
X148512653Y-138321848D01*
X146178152Y-135987348D01*
X145942946Y-135830187D01*
X145882672Y-135818198D01*
X145665500Y-135775000D01*
X123926867Y-135775000D01*
X123926867Y-135674500D01*
X123904205Y-135554062D01*
X123833026Y-135443447D01*
X123724420Y-135369240D01*
X123595500Y-135343133D01*
X121944500Y-135343133D01*
X121824062Y-135365795D01*
X121713447Y-135436974D01*
X121639240Y-135545580D01*
X121613133Y-135674500D01*
X121613133Y-137325500D01*
X121635795Y-137445938D01*
X121706974Y-137556553D01*
X121815580Y-137630760D01*
X121944500Y-137656867D01*
X123595500Y-137656867D01*
X123715938Y-137634205D01*
X123826553Y-137563026D01*
X123900760Y-137454420D01*
X123926867Y-137325500D01*
X123926867Y-137225000D01*
X142299000Y-137225000D01*
X142299000Y-137390342D01*
X142274240Y-137426580D01*
X142248133Y-137555500D01*
X142248133Y-138444500D01*
X142270795Y-138564938D01*
X142341974Y-138675553D01*
X142450580Y-138749760D01*
X142579500Y-138775867D01*
X143468500Y-138775867D01*
X143588938Y-138753205D01*
X143699553Y-138682026D01*
X143773760Y-138573420D01*
X143799867Y-138444500D01*
X143799867Y-137555500D01*
X143777205Y-137435062D01*
X143749000Y-137391230D01*
X143749000Y-137225000D01*
X145365196Y-137225000D01*
X147275000Y-139134805D01*
X147275000Y-139303133D01*
X147174500Y-139303133D01*
X147054062Y-139325795D01*
X146943447Y-139396974D01*
X146869240Y-139505580D01*
X146843133Y-139634500D01*
X146843133Y-139799152D01*
X146621344Y-139947348D01*
X143937347Y-142631345D01*
X143780186Y-142866551D01*
X143780186Y-142866552D01*
X143724999Y-143143997D01*
X143724999Y-144916689D01*
X143624864Y-144875109D01*
X143376223Y-144874892D01*
X143194448Y-144950000D01*
X142681367Y-144950000D01*
X142681367Y-144500000D01*
X142658705Y-144379562D01*
X142587526Y-144268947D01*
X142478920Y-144194740D01*
X142350000Y-144168633D01*
X140950000Y-144168633D01*
X140829562Y-144191295D01*
X140718947Y-144262474D01*
X140644740Y-144371080D01*
X140618633Y-144500000D01*
X140618633Y-146275000D01*
X139381367Y-146275000D01*
X139381367Y-144500000D01*
X139358705Y-144379562D01*
X139287526Y-144268947D01*
X139178920Y-144194740D01*
X139050000Y-144168633D01*
X137650000Y-144168633D01*
X137529562Y-144191295D01*
X137418947Y-144262474D01*
X137344740Y-144371080D01*
X137318633Y-144500000D01*
X137318633Y-146275000D01*
X136761995Y-146275000D01*
X136775867Y-146206500D01*
X136775867Y-145317500D01*
X136753205Y-145197062D01*
X136682026Y-145086447D01*
X136573420Y-145012240D01*
X136515491Y-145000509D01*
X136564938Y-144991205D01*
X136675553Y-144920026D01*
X136749760Y-144811420D01*
X136775867Y-144682500D01*
X136775867Y-144346017D01*
X137496883Y-143625000D01*
X138586944Y-143625000D01*
X138619474Y-143675553D01*
X138728080Y-143749760D01*
X138857000Y-143775867D01*
X139619000Y-143775867D01*
X139739438Y-143753205D01*
X139850053Y-143682026D01*
X139924260Y-143573420D01*
X139950367Y-143444500D01*
X139950367Y-142555500D01*
X140049633Y-142555500D01*
X140049633Y-143444500D01*
X140072295Y-143564938D01*
X140143474Y-143675553D01*
X140252080Y-143749760D01*
X140381000Y-143775867D01*
X141143000Y-143775867D01*
X141263438Y-143753205D01*
X141374053Y-143682026D01*
X141413017Y-143625000D01*
X142500000Y-143625000D01*
X142623775Y-143625108D01*
X142739176Y-143577425D01*
X142739177Y-143577425D01*
X142739178Y-143577424D01*
X142853571Y-143530158D01*
X142941939Y-143441944D01*
X142941942Y-143441942D01*
X142941944Y-143441940D01*
X143029540Y-143354496D01*
X143124891Y-143124866D01*
X143125108Y-142876225D01*
X143030158Y-142646429D01*
X142941944Y-142558061D01*
X142941942Y-142558058D01*
X142941940Y-142558056D01*
X142854496Y-142470460D01*
X142739178Y-142422576D01*
X142739177Y-142422575D01*
X142739176Y-142422575D01*
X142624866Y-142375109D01*
X142500000Y-142375000D01*
X142499973Y-142375000D01*
X142376225Y-142374892D01*
X142375964Y-142375000D01*
X141413056Y-142375000D01*
X141380526Y-142324447D01*
X141271920Y-142250240D01*
X141143000Y-142224133D01*
X140381000Y-142224133D01*
X140260562Y-142246795D01*
X140149947Y-142317974D01*
X140075740Y-142426580D01*
X140049633Y-142555500D01*
X139950367Y-142555500D01*
X139927705Y-142435062D01*
X139856526Y-142324447D01*
X139747920Y-142250240D01*
X139619000Y-142224133D01*
X138857000Y-142224133D01*
X138736562Y-142246795D01*
X138625947Y-142317974D01*
X138586983Y-142375000D01*
X137238000Y-142375000D01*
X136998822Y-142422575D01*
X136917606Y-142476842D01*
X136796058Y-142558058D01*
X136796056Y-142558061D01*
X135891983Y-143462133D01*
X135555500Y-143462133D01*
X135435062Y-143484795D01*
X135324447Y-143555974D01*
X135250240Y-143664580D01*
X135224133Y-143793500D01*
X135224133Y-144682500D01*
X135246795Y-144802938D01*
X135317974Y-144913553D01*
X135426580Y-144987760D01*
X135484509Y-144999491D01*
X135435062Y-145008795D01*
X135324447Y-145079974D01*
X135250240Y-145188580D01*
X135224133Y-145317500D01*
X135224133Y-146206500D01*
X135237022Y-146275000D01*
X122681367Y-146275000D01*
X122681367Y-144805029D01*
X124105170Y-143381226D01*
X129074667Y-143381226D01*
X129367113Y-144089000D01*
X129908151Y-144630984D01*
X130615414Y-144924665D01*
X131381226Y-144925333D01*
X132089000Y-144632887D01*
X132630984Y-144091849D01*
X132924665Y-143384586D01*
X132925333Y-142618774D01*
X132632887Y-141911000D01*
X132091849Y-141369016D01*
X131384586Y-141075335D01*
X130618774Y-141074667D01*
X129911000Y-141367113D01*
X129369016Y-141908151D01*
X129075335Y-142615414D01*
X129074667Y-143381226D01*
X124105170Y-143381226D01*
X127036396Y-140450000D01*
X137318633Y-140450000D01*
X137318633Y-141500000D01*
X137341295Y-141620438D01*
X137412474Y-141731053D01*
X137521080Y-141805260D01*
X137650000Y-141831367D01*
X139050000Y-141831367D01*
X139170438Y-141808705D01*
X139281053Y-141737526D01*
X139355260Y-141628920D01*
X139381367Y-141500000D01*
X139381367Y-139700000D01*
X139358705Y-139579562D01*
X139287526Y-139468947D01*
X139178920Y-139394740D01*
X139050000Y-139368633D01*
X137650000Y-139368633D01*
X137529562Y-139391295D01*
X137418947Y-139462474D01*
X137359143Y-139550000D01*
X126850000Y-139550000D01*
X126677793Y-139584253D01*
X126531802Y-139681802D01*
X123124923Y-143088681D01*
X123125108Y-142876225D01*
X123030158Y-142646429D01*
X122941944Y-142558061D01*
X122941942Y-142558058D01*
X122941940Y-142558056D01*
X122854496Y-142470460D01*
X122739178Y-142422576D01*
X122739177Y-142422575D01*
X122739176Y-142422575D01*
X122624866Y-142375109D01*
X122500000Y-142375000D01*
X122499973Y-142375000D01*
X122376225Y-142374892D01*
X122375964Y-142375000D01*
X121413056Y-142375000D01*
X121380526Y-142324447D01*
X121271920Y-142250240D01*
X121143000Y-142224133D01*
X120381000Y-142224133D01*
X120260562Y-142246795D01*
X120149947Y-142317974D01*
X120075740Y-142426580D01*
X120049633Y-142555500D01*
X120049633Y-143444500D01*
X120072295Y-143564938D01*
X120143474Y-143675553D01*
X120252080Y-143749760D01*
X120381000Y-143775867D01*
X121143000Y-143775867D01*
X121263438Y-143753205D01*
X121374053Y-143682026D01*
X121413017Y-143625000D01*
X122500000Y-143625000D01*
X122588527Y-143625077D01*
X122044971Y-144168633D01*
X120950000Y-144168633D01*
X120829562Y-144191295D01*
X120718947Y-144262474D01*
X120644740Y-144371080D01*
X120618633Y-144500000D01*
X120618633Y-146275000D01*
X119381367Y-146275000D01*
X119381367Y-144500000D01*
X119358705Y-144379562D01*
X119287526Y-144268947D01*
X119178920Y-144194740D01*
X119050000Y-144168633D01*
X117650000Y-144168633D01*
X117529562Y-144191295D01*
X117418947Y-144262474D01*
X117344740Y-144371080D01*
X117318633Y-144500000D01*
X117318633Y-146275000D01*
X116761995Y-146275000D01*
X116775867Y-146206500D01*
X116775867Y-145317500D01*
X116753205Y-145197062D01*
X116682026Y-145086447D01*
X116573420Y-145012240D01*
X116515491Y-145000509D01*
X116564938Y-144991205D01*
X116675553Y-144920026D01*
X116749760Y-144811420D01*
X116775867Y-144682500D01*
X116775867Y-144346017D01*
X117496883Y-143625000D01*
X118586944Y-143625000D01*
X118619474Y-143675553D01*
X118728080Y-143749760D01*
X118857000Y-143775867D01*
X119619000Y-143775867D01*
X119739438Y-143753205D01*
X119850053Y-143682026D01*
X119924260Y-143573420D01*
X119950367Y-143444500D01*
X119950367Y-142555500D01*
X119927705Y-142435062D01*
X119856526Y-142324447D01*
X119747920Y-142250240D01*
X119619000Y-142224133D01*
X118857000Y-142224133D01*
X118736562Y-142246795D01*
X118625947Y-142317974D01*
X118586983Y-142375000D01*
X117238000Y-142375000D01*
X116998822Y-142422575D01*
X116917606Y-142476842D01*
X116796058Y-142558058D01*
X116796056Y-142558061D01*
X115891983Y-143462133D01*
X115555500Y-143462133D01*
X115435062Y-143484795D01*
X115324447Y-143555974D01*
X115250240Y-143664580D01*
X115224133Y-143793500D01*
X115224133Y-144682500D01*
X115246795Y-144802938D01*
X115317974Y-144913553D01*
X115426580Y-144987760D01*
X115484509Y-144999491D01*
X115435062Y-145008795D01*
X115324447Y-145079974D01*
X115250240Y-145188580D01*
X115224133Y-145317500D01*
X115224133Y-146206500D01*
X115237022Y-146275000D01*
X102681367Y-146275000D01*
X102681367Y-145850000D01*
X112600000Y-145850000D01*
X112772208Y-145815746D01*
X112918198Y-145718198D01*
X117318633Y-141317763D01*
X117318633Y-141500000D01*
X117341295Y-141620438D01*
X117412474Y-141731053D01*
X117521080Y-141805260D01*
X117650000Y-141831367D01*
X119050000Y-141831367D01*
X119170438Y-141808705D01*
X119281053Y-141737526D01*
X119355260Y-141628920D01*
X119381367Y-141500000D01*
X119381367Y-139700000D01*
X119358705Y-139579562D01*
X119287526Y-139468947D01*
X119178920Y-139394740D01*
X119050000Y-139368633D01*
X117650000Y-139368633D01*
X117529562Y-139391295D01*
X117418947Y-139462474D01*
X117344740Y-139571080D01*
X117318633Y-139700000D01*
X117318633Y-140166185D01*
X117227792Y-140184254D01*
X117081802Y-140281802D01*
X112413604Y-144950000D01*
X109933869Y-144950000D01*
X110029540Y-144854496D01*
X110063369Y-144773027D01*
X117269438Y-137566958D01*
X117470147Y-137650300D01*
X117927845Y-137650700D01*
X118350855Y-137475915D01*
X118674778Y-137152557D01*
X118850300Y-136729853D01*
X118850700Y-136272155D01*
X118675915Y-135849145D01*
X118352557Y-135525222D01*
X117929853Y-135349700D01*
X117472155Y-135349300D01*
X117049145Y-135524085D01*
X116725222Y-135847443D01*
X116549700Y-136270147D01*
X116549300Y-136727845D01*
X116633056Y-136930548D01*
X109669826Y-143893778D01*
X109624866Y-143875109D01*
X109376225Y-143874892D01*
X109146429Y-143969842D01*
X108999899Y-144116117D01*
X108950000Y-144066131D01*
X108950000Y-143346396D01*
X114729438Y-137566958D01*
X114930147Y-137650300D01*
X115387845Y-137650700D01*
X115810855Y-137475915D01*
X116134778Y-137152557D01*
X116310300Y-136729853D01*
X116310700Y-136272155D01*
X116135915Y-135849145D01*
X115812557Y-135525222D01*
X115389853Y-135349700D01*
X114932155Y-135349300D01*
X114509145Y-135524085D01*
X114185222Y-135847443D01*
X114009700Y-136270147D01*
X114009300Y-136727845D01*
X114093056Y-136930548D01*
X108181802Y-142841802D01*
X108084254Y-142987792D01*
X108050000Y-143160000D01*
X108050000Y-144066103D01*
X107999899Y-144116117D01*
X107950000Y-144066131D01*
X107950000Y-142186396D01*
X112486012Y-137650384D01*
X112847845Y-137650700D01*
X113270855Y-137475915D01*
X113594778Y-137152557D01*
X113770300Y-136729853D01*
X113770700Y-136272155D01*
X113595915Y-135849145D01*
X113272557Y-135525222D01*
X112849853Y-135349700D01*
X112392155Y-135349300D01*
X111969145Y-135524085D01*
X111645222Y-135847443D01*
X111469700Y-136270147D01*
X111469300Y-136727845D01*
X111644085Y-137150855D01*
X111678387Y-137185217D01*
X107181802Y-141681802D01*
X107084254Y-141827792D01*
X107050000Y-142000000D01*
X107050000Y-144066103D01*
X106999899Y-144116117D01*
X106950000Y-144066131D01*
X106950000Y-140686396D01*
X109985977Y-137650419D01*
X110307845Y-137650700D01*
X110730855Y-137475915D01*
X111054778Y-137152557D01*
X111230300Y-136729853D01*
X111230700Y-136272155D01*
X111055915Y-135849145D01*
X110732557Y-135525222D01*
X110309853Y-135349700D01*
X109852155Y-135349300D01*
X109429145Y-135524085D01*
X109105222Y-135847443D01*
X108929700Y-136270147D01*
X108929300Y-136727845D01*
X109104085Y-137150855D01*
X109158370Y-137205234D01*
X106181802Y-140181802D01*
X106084254Y-140327792D01*
X106050000Y-140500000D01*
X106050000Y-144066103D01*
X105999899Y-144116117D01*
X105950000Y-144066131D01*
X105950000Y-139226396D01*
X107525907Y-137650489D01*
X107767845Y-137650700D01*
X108190855Y-137475915D01*
X108514778Y-137152557D01*
X108690300Y-136729853D01*
X108690700Y-136272155D01*
X108515915Y-135849145D01*
X108192557Y-135525222D01*
X107769853Y-135349700D01*
X107312155Y-135349300D01*
X106889145Y-135524085D01*
X106565222Y-135847443D01*
X106389700Y-136270147D01*
X106389300Y-136727845D01*
X106564085Y-137150855D01*
X106658335Y-137245269D01*
X105181802Y-138721802D01*
X105084254Y-138867792D01*
X105050000Y-139040000D01*
X105050000Y-144066103D01*
X104999899Y-144116117D01*
X104950000Y-144066131D01*
X104950000Y-137686396D01*
X104985907Y-137650489D01*
X105227845Y-137650700D01*
X105650855Y-137475915D01*
X105974778Y-137152557D01*
X106150300Y-136729853D01*
X106150700Y-136272155D01*
X105975915Y-135849145D01*
X105652557Y-135525222D01*
X105229853Y-135349700D01*
X104772155Y-135349300D01*
X104349145Y-135524085D01*
X104025222Y-135847443D01*
X103849700Y-136270147D01*
X103849300Y-136727845D01*
X104024085Y-137150855D01*
X104130950Y-137257907D01*
X104084254Y-137327792D01*
X104050000Y-137500000D01*
X104050000Y-144066103D01*
X103999899Y-144116117D01*
X103950000Y-144066131D01*
X103950000Y-138040000D01*
X103915746Y-137867792D01*
X103818198Y-137721802D01*
X103341784Y-137245388D01*
X103434778Y-137152557D01*
X103610300Y-136729853D01*
X103610700Y-136272155D01*
X103435915Y-135849145D01*
X103112557Y-135525222D01*
X102689853Y-135349700D01*
X102232155Y-135349300D01*
X101809145Y-135524085D01*
X101485222Y-135847443D01*
X101309700Y-136270147D01*
X101309300Y-136727845D01*
X101484085Y-137150855D01*
X101807443Y-137474778D01*
X102230147Y-137650300D01*
X102474117Y-137650513D01*
X103050000Y-138226396D01*
X103050000Y-142694450D01*
X103030158Y-142646429D01*
X102941944Y-142558061D01*
X102941942Y-142558058D01*
X102941940Y-142558056D01*
X102854496Y-142470460D01*
X102739178Y-142422576D01*
X102739177Y-142422575D01*
X102739176Y-142422575D01*
X102624866Y-142375109D01*
X102500000Y-142375000D01*
X102499973Y-142375000D01*
X102376225Y-142374892D01*
X102375964Y-142375000D01*
X101413056Y-142375000D01*
X101380526Y-142324447D01*
X101271920Y-142250240D01*
X101143000Y-142224133D01*
X100381000Y-142224133D01*
X100260562Y-142246795D01*
X100149947Y-142317974D01*
X100075740Y-142426580D01*
X100049633Y-142555500D01*
X100049633Y-143444500D01*
X100072295Y-143564938D01*
X100143474Y-143675553D01*
X100252080Y-143749760D01*
X100381000Y-143775867D01*
X101143000Y-143775867D01*
X101263438Y-143753205D01*
X101374053Y-143682026D01*
X101413017Y-143625000D01*
X102500000Y-143625000D01*
X102623775Y-143625108D01*
X102739176Y-143577425D01*
X102739177Y-143577425D01*
X102739178Y-143577424D01*
X102853571Y-143530158D01*
X102941939Y-143441944D01*
X102941942Y-143441942D01*
X102941944Y-143441940D01*
X103029540Y-143354496D01*
X103050000Y-143305223D01*
X103050000Y-144066103D01*
X102970460Y-144145504D01*
X102875109Y-144375134D01*
X102874892Y-144623775D01*
X102969842Y-144853571D01*
X103066103Y-144950000D01*
X102681367Y-144950000D01*
X102681367Y-144500000D01*
X102658705Y-144379562D01*
X102587526Y-144268947D01*
X102478920Y-144194740D01*
X102350000Y-144168633D01*
X100950000Y-144168633D01*
X100829562Y-144191295D01*
X100718947Y-144262474D01*
X100644740Y-144371080D01*
X100618633Y-144500000D01*
X100618633Y-146275000D01*
X99381367Y-146275000D01*
X99381367Y-144500000D01*
X99358705Y-144379562D01*
X99287526Y-144268947D01*
X99178920Y-144194740D01*
X99050000Y-144168633D01*
X97650000Y-144168633D01*
X97529562Y-144191295D01*
X97418947Y-144262474D01*
X97344740Y-144371080D01*
X97318633Y-144500000D01*
X97318633Y-146275000D01*
X96761995Y-146275000D01*
X96775867Y-146206500D01*
X96775867Y-145317500D01*
X96753205Y-145197062D01*
X96682026Y-145086447D01*
X96573420Y-145012240D01*
X96515491Y-145000509D01*
X96564938Y-144991205D01*
X96675553Y-144920026D01*
X96749760Y-144811420D01*
X96775867Y-144682500D01*
X96775867Y-144346017D01*
X97496883Y-143625000D01*
X98586944Y-143625000D01*
X98619474Y-143675553D01*
X98728080Y-143749760D01*
X98857000Y-143775867D01*
X99619000Y-143775867D01*
X99739438Y-143753205D01*
X99850053Y-143682026D01*
X99924260Y-143573420D01*
X99950367Y-143444500D01*
X99950367Y-142555500D01*
X99927705Y-142435062D01*
X99856526Y-142324447D01*
X99747920Y-142250240D01*
X99619000Y-142224133D01*
X98857000Y-142224133D01*
X98736562Y-142246795D01*
X98625947Y-142317974D01*
X98586983Y-142375000D01*
X97238000Y-142375000D01*
X96998822Y-142422575D01*
X96917606Y-142476842D01*
X96796058Y-142558058D01*
X96796056Y-142558061D01*
X95891983Y-143462133D01*
X95555500Y-143462133D01*
X95435062Y-143484795D01*
X95324447Y-143555974D01*
X95250240Y-143664580D01*
X95224133Y-143793500D01*
X95224133Y-144682500D01*
X95246795Y-144802938D01*
X95317974Y-144913553D01*
X95426580Y-144987760D01*
X95484509Y-144999491D01*
X95435062Y-145008795D01*
X95324447Y-145079974D01*
X95250240Y-145188580D01*
X95224133Y-145317500D01*
X95224133Y-146206500D01*
X95237022Y-146275000D01*
X92361396Y-146275000D01*
X97318633Y-141317763D01*
X97318633Y-141500000D01*
X97341295Y-141620438D01*
X97412474Y-141731053D01*
X97521080Y-141805260D01*
X97650000Y-141831367D01*
X99050000Y-141831367D01*
X99170438Y-141808705D01*
X99281053Y-141737526D01*
X99355260Y-141628920D01*
X99381367Y-141500000D01*
X99381367Y-139700000D01*
X99358705Y-139579562D01*
X99287526Y-139468947D01*
X99178920Y-139394740D01*
X99050000Y-139368633D01*
X97650000Y-139368633D01*
X97529562Y-139391295D01*
X97418947Y-139462474D01*
X97344740Y-139571080D01*
X97318633Y-139700000D01*
X97318633Y-140166185D01*
X97227792Y-140184254D01*
X97081802Y-140281802D01*
X91813604Y-145550000D01*
X82681367Y-145550000D01*
X82681367Y-144500000D01*
X82658705Y-144379562D01*
X82587526Y-144268947D01*
X82478920Y-144194740D01*
X82350000Y-144168633D01*
X80950000Y-144168633D01*
X80829562Y-144191295D01*
X80718947Y-144262474D01*
X80644740Y-144371080D01*
X80618633Y-144500000D01*
X80618633Y-146275000D01*
X79381367Y-146275000D01*
X79381367Y-144500000D01*
X79358705Y-144379562D01*
X79287526Y-144268947D01*
X79178920Y-144194740D01*
X79050000Y-144168633D01*
X77650000Y-144168633D01*
X77529562Y-144191295D01*
X77418947Y-144262474D01*
X77344740Y-144371080D01*
X77318633Y-144500000D01*
X77318633Y-146275000D01*
X76725000Y-146275000D01*
X76725000Y-145609658D01*
X76749760Y-145573420D01*
X76775867Y-145444500D01*
X76775867Y-144555500D01*
X76753205Y-144435062D01*
X76682026Y-144324447D01*
X76573420Y-144250240D01*
X76515491Y-144238509D01*
X76564938Y-144229205D01*
X76675553Y-144158026D01*
X76749760Y-144049420D01*
X76775867Y-143920500D01*
X76775867Y-143625000D01*
X78348944Y-143625000D01*
X78381474Y-143675553D01*
X78490080Y-143749760D01*
X78619000Y-143775867D01*
X79381000Y-143775867D01*
X79501438Y-143753205D01*
X79612053Y-143682026D01*
X79686260Y-143573420D01*
X79712367Y-143444500D01*
X79712367Y-142555500D01*
X79811633Y-142555500D01*
X79811633Y-143444500D01*
X79834295Y-143564938D01*
X79905474Y-143675553D01*
X80014080Y-143749760D01*
X80143000Y-143775867D01*
X80905000Y-143775867D01*
X81025438Y-143753205D01*
X81136053Y-143682026D01*
X81175017Y-143625000D01*
X82000000Y-143625000D01*
X82123775Y-143625108D01*
X82239176Y-143577425D01*
X82239177Y-143577425D01*
X82239178Y-143577424D01*
X82353571Y-143530158D01*
X82441939Y-143441944D01*
X82441942Y-143441942D01*
X82441944Y-143441940D01*
X82502763Y-143381226D01*
X88074667Y-143381226D01*
X88367113Y-144089000D01*
X88908151Y-144630984D01*
X89615414Y-144924665D01*
X90381226Y-144925333D01*
X91089000Y-144632887D01*
X91630984Y-144091849D01*
X91924665Y-143384586D01*
X91925333Y-142618774D01*
X91632887Y-141911000D01*
X91091849Y-141369016D01*
X90384586Y-141075335D01*
X89618774Y-141074667D01*
X88911000Y-141367113D01*
X88369016Y-141908151D01*
X88075335Y-142615414D01*
X88074667Y-143381226D01*
X82502763Y-143381226D01*
X82529540Y-143354496D01*
X82624891Y-143124866D01*
X82625108Y-142876225D01*
X82530158Y-142646429D01*
X82441944Y-142558061D01*
X82441942Y-142558058D01*
X82441940Y-142558056D01*
X82354496Y-142470460D01*
X82239178Y-142422576D01*
X82239177Y-142422575D01*
X82239176Y-142422575D01*
X82124866Y-142375109D01*
X82000000Y-142375000D01*
X81999973Y-142375000D01*
X81876225Y-142374892D01*
X81875964Y-142375000D01*
X81175056Y-142375000D01*
X81142526Y-142324447D01*
X81033920Y-142250240D01*
X80905000Y-142224133D01*
X80143000Y-142224133D01*
X80022562Y-142246795D01*
X79911947Y-142317974D01*
X79837740Y-142426580D01*
X79811633Y-142555500D01*
X79712367Y-142555500D01*
X79689705Y-142435062D01*
X79618526Y-142324447D01*
X79509920Y-142250240D01*
X79381000Y-142224133D01*
X78619000Y-142224133D01*
X78498562Y-142246795D01*
X78387947Y-142317974D01*
X78348983Y-142375000D01*
X76500005Y-142375000D01*
X76500000Y-142374999D01*
X76278811Y-142418997D01*
X76260823Y-142422575D01*
X76163307Y-142487733D01*
X77318633Y-141332407D01*
X77318633Y-141500000D01*
X77341295Y-141620438D01*
X77412474Y-141731053D01*
X77521080Y-141805260D01*
X77650000Y-141831367D01*
X79050000Y-141831367D01*
X79170438Y-141808705D01*
X79281053Y-141737526D01*
X79355260Y-141628920D01*
X79381367Y-141500000D01*
X79381367Y-139700000D01*
X79358705Y-139579562D01*
X79287526Y-139468947D01*
X79178920Y-139394740D01*
X79050000Y-139368633D01*
X77650000Y-139368633D01*
X77529562Y-139391295D01*
X77418947Y-139462474D01*
X77344740Y-139571080D01*
X77318633Y-139700000D01*
X77318633Y-140201130D01*
X77314343Y-140201984D01*
X77287359Y-140207351D01*
X77149480Y-140299480D01*
X72473960Y-144975000D01*
X62681367Y-144975000D01*
X62681367Y-144500000D01*
X62658705Y-144379562D01*
X62587526Y-144268947D01*
X62478920Y-144194740D01*
X62350000Y-144168633D01*
X60950000Y-144168633D01*
X60829562Y-144191295D01*
X60718947Y-144262474D01*
X60644740Y-144371080D01*
X60618633Y-144500000D01*
X60618633Y-146275000D01*
X59800305Y-146275000D01*
X59381367Y-145856063D01*
X59381367Y-144500000D01*
X59358705Y-144379562D01*
X59287526Y-144268947D01*
X59178920Y-144194740D01*
X59050000Y-144168633D01*
X57650000Y-144168633D01*
X57529562Y-144191295D01*
X57418947Y-144262474D01*
X57344740Y-144371080D01*
X57318633Y-144500000D01*
X57318633Y-145037000D01*
X56609658Y-145037000D01*
X56573420Y-145012240D01*
X56515491Y-145000509D01*
X56564938Y-144991205D01*
X56675553Y-144920026D01*
X56749760Y-144811420D01*
X56775867Y-144682500D01*
X56775867Y-144346017D01*
X57496883Y-143625000D01*
X58586944Y-143625000D01*
X58619474Y-143675553D01*
X58728080Y-143749760D01*
X58857000Y-143775867D01*
X59619000Y-143775867D01*
X59739438Y-143753205D01*
X59850053Y-143682026D01*
X59924260Y-143573420D01*
X59950367Y-143444500D01*
X59950367Y-142555500D01*
X60049633Y-142555500D01*
X60049633Y-143444500D01*
X60072295Y-143564938D01*
X60143474Y-143675553D01*
X60252080Y-143749760D01*
X60381000Y-143775867D01*
X61143000Y-143775867D01*
X61263438Y-143753205D01*
X61374053Y-143682026D01*
X61413017Y-143625000D01*
X72500000Y-143625000D01*
X72623775Y-143625108D01*
X72739176Y-143577425D01*
X72739177Y-143577425D01*
X72739178Y-143577424D01*
X72853571Y-143530158D01*
X72941939Y-143441944D01*
X72941942Y-143441942D01*
X72941944Y-143441940D01*
X73029540Y-143354496D01*
X73124891Y-143124866D01*
X73125108Y-142876225D01*
X73030158Y-142646429D01*
X72941944Y-142558061D01*
X72941942Y-142558058D01*
X72941940Y-142558056D01*
X72854496Y-142470460D01*
X72739178Y-142422576D01*
X72739177Y-142422575D01*
X72739176Y-142422575D01*
X72624866Y-142375109D01*
X72500000Y-142375000D01*
X72499973Y-142375000D01*
X72376225Y-142374892D01*
X72375964Y-142375000D01*
X61413056Y-142375000D01*
X61380526Y-142324447D01*
X61271920Y-142250240D01*
X61143000Y-142224133D01*
X60381000Y-142224133D01*
X60260562Y-142246795D01*
X60149947Y-142317974D01*
X60075740Y-142426580D01*
X60049633Y-142555500D01*
X59950367Y-142555500D01*
X59927705Y-142435062D01*
X59856526Y-142324447D01*
X59747920Y-142250240D01*
X59619000Y-142224133D01*
X58857000Y-142224133D01*
X58736562Y-142246795D01*
X58625947Y-142317974D01*
X58586983Y-142375000D01*
X57238000Y-142375000D01*
X56998822Y-142422575D01*
X56917606Y-142476842D01*
X56796058Y-142558058D01*
X56796056Y-142558061D01*
X55891983Y-143462133D01*
X55555500Y-143462133D01*
X55435062Y-143484795D01*
X55324447Y-143555974D01*
X55250240Y-143664580D01*
X55225000Y-143789219D01*
X55225000Y-141334500D01*
X55187408Y-141145510D01*
X55169813Y-141057054D01*
X55012653Y-140821848D01*
X54138152Y-139947348D01*
X53902946Y-139790187D01*
X53856915Y-139781031D01*
X53625500Y-139735000D01*
X53156867Y-139735000D01*
X53156867Y-139634500D01*
X53134205Y-139514062D01*
X53063026Y-139403447D01*
X52954420Y-139329240D01*
X52825500Y-139303133D01*
X51174500Y-139303133D01*
X51054062Y-139325795D01*
X50943447Y-139396974D01*
X50869240Y-139505580D01*
X50843133Y-139634500D01*
X50300000Y-139634500D01*
X50300000Y-135300000D01*
X64406307Y-135300000D01*
X64375109Y-135375134D01*
M02*
