G04 #@! TF.GenerationSoftware,KiCad,Pcbnew,5.0.0-rc2-unknown-81af2db~65~ubuntu18.04.1*
G04 #@! TF.CreationDate,2018-05-29T11:57:16+02:00*
G04 #@! TF.ProjectId,universal_lights,756E6976657273616C5F6C6967687473,rev?*
G04 #@! TF.SameCoordinates,Original*
G04 #@! TF.FileFunction,Copper,L1,Top,Signal*
G04 #@! TF.FilePolarity,Positive*
%FSLAX46Y46*%
G04 Gerber Fmt 4.6, Leading zero omitted, Abs format (unit mm)*
G04 Created by KiCad (PCBNEW 5.0.0-rc2-unknown-81af2db~65~ubuntu18.04.1) date Tue May 29 11:57:16 2018*
%MOMM*%
%LPD*%
G01*
G04 APERTURE LIST*
G04 #@! TA.AperFunction,SMDPad,CuDef*
%ADD10R,1.016000X1.143000*%
G04 #@! TD*
G04 #@! TA.AperFunction,SMDPad,CuDef*
%ADD11R,0.889000X0.889000*%
G04 #@! TD*
G04 #@! TA.AperFunction,SMDPad,CuDef*
%ADD12R,0.762000X0.889000*%
G04 #@! TD*
G04 #@! TA.AperFunction,ComponentPad*
%ADD13R,1.651000X1.651000*%
G04 #@! TD*
G04 #@! TA.AperFunction,ComponentPad*
%ADD14C,1.651000*%
G04 #@! TD*
G04 #@! TA.AperFunction,SMDPad,CuDef*
%ADD15R,1.400000X1.800000*%
G04 #@! TD*
G04 #@! TA.AperFunction,ViaPad*
%ADD16C,0.600000*%
G04 #@! TD*
G04 #@! TA.AperFunction,Conductor*
%ADD17C,0.600000*%
G04 #@! TD*
G04 #@! TA.AperFunction,Conductor*
%ADD18C,0.800000*%
G04 #@! TD*
G04 #@! TA.AperFunction,Conductor*
%ADD19C,0.250000*%
G04 #@! TD*
G04 #@! TA.AperFunction,Conductor*
%ADD20C,0.200000*%
G04 #@! TD*
G04 #@! TA.AperFunction,Conductor*
%ADD21C,0.150000*%
G04 #@! TD*
G04 APERTURE END LIST*
D10*
G04 #@! TO.P,Q1,1*
G04 #@! TO.N,Net-(Q1-Pad1)*
X94389000Y-136484000D03*
G04 #@! TO.P,Q1,2*
G04 #@! TO.N,GND*
X92611000Y-136484000D03*
G04 #@! TO.P,Q1,3*
G04 #@! TO.N,Net-(D1-Pad-)*
X93500000Y-138516000D03*
G04 #@! TD*
D11*
G04 #@! TO.P,R5,1*
G04 #@! TO.N,+5V*
X68000000Y-137738000D03*
G04 #@! TO.P,R5,2*
G04 #@! TO.N,/reset*
X68000000Y-139262000D03*
G04 #@! TD*
D12*
G04 #@! TO.P,D1,+*
G04 #@! TO.N,Net-(D1-Pad+)*
X59238000Y-143000000D03*
G04 #@! TO.P,D1,-*
G04 #@! TO.N,Net-(D1-Pad-)*
X60762000Y-143000000D03*
G04 #@! TD*
G04 #@! TO.P,D2,+*
G04 #@! TO.N,Net-(D2-Pad+)*
X79000000Y-143000000D03*
G04 #@! TO.P,D2,-*
G04 #@! TO.N,Net-(D1-Pad-)*
X80524000Y-143000000D03*
G04 #@! TD*
G04 #@! TO.P,D3,+*
G04 #@! TO.N,Net-(D3-Pad+)*
X99238000Y-143000000D03*
G04 #@! TO.P,D3,-*
G04 #@! TO.N,Net-(D1-Pad-)*
X100762000Y-143000000D03*
G04 #@! TD*
G04 #@! TO.P,D4,+*
G04 #@! TO.N,Net-(D4-Pad+)*
X119238000Y-143000000D03*
G04 #@! TO.P,D4,-*
G04 #@! TO.N,Net-(D1-Pad-)*
X120762000Y-143000000D03*
G04 #@! TD*
G04 #@! TO.P,D5,+*
G04 #@! TO.N,Net-(D5-Pad+)*
X139238000Y-143000000D03*
G04 #@! TO.P,D5,-*
G04 #@! TO.N,Net-(D1-Pad-)*
X140762000Y-143000000D03*
G04 #@! TD*
D13*
G04 #@! TO.P,J1,1*
G04 #@! TO.N,+5V*
X52000000Y-139960000D03*
D14*
G04 #@! TO.P,J1,2*
G04 #@! TO.N,GND*
X52000000Y-142500000D03*
G04 #@! TO.P,J1,3*
G04 #@! TO.N,/datos_led_in*
X52000000Y-145040000D03*
G04 #@! TD*
D13*
G04 #@! TO.P,J2,1*
G04 #@! TO.N,+5V*
X148000000Y-139960000D03*
D14*
G04 #@! TO.P,J2,2*
G04 #@! TO.N,GND*
X148000000Y-142500000D03*
G04 #@! TO.P,J2,3*
G04 #@! TO.N,/datos_led_out*
X148000000Y-145040000D03*
G04 #@! TD*
D13*
G04 #@! TO.P,J3,1*
G04 #@! TO.N,/miso*
X70460000Y-139270000D03*
D14*
G04 #@! TO.P,J3,2*
G04 #@! TO.N,/clk*
X73000000Y-139270000D03*
G04 #@! TO.P,J3,3*
G04 #@! TO.N,/reset*
X75540000Y-139270000D03*
G04 #@! TO.P,J3,4*
G04 #@! TO.N,GND*
X75540000Y-136730000D03*
G04 #@! TO.P,J3,5*
G04 #@! TO.N,/mosi*
X73000000Y-136730000D03*
G04 #@! TO.P,J3,6*
G04 #@! TO.N,+5V*
X70460000Y-136730000D03*
G04 #@! TD*
D11*
G04 #@! TO.P,R1,1*
G04 #@! TO.N,+5V*
X56000000Y-145762000D03*
G04 #@! TO.P,R1,2*
G04 #@! TO.N,Net-(D1-Pad+)*
X56000000Y-144238000D03*
G04 #@! TD*
G04 #@! TO.P,R2,1*
G04 #@! TO.N,+5V*
X76000000Y-145000000D03*
G04 #@! TO.P,R2,2*
G04 #@! TO.N,Net-(D2-Pad+)*
X76000000Y-143476000D03*
G04 #@! TD*
G04 #@! TO.P,R3,1*
G04 #@! TO.N,+5V*
X96000000Y-145762000D03*
G04 #@! TO.P,R3,2*
G04 #@! TO.N,Net-(D3-Pad+)*
X96000000Y-144238000D03*
G04 #@! TD*
G04 #@! TO.P,R4,1*
G04 #@! TO.N,+5V*
X116000000Y-145762000D03*
G04 #@! TO.P,R4,2*
G04 #@! TO.N,Net-(D4-Pad+)*
X116000000Y-144238000D03*
G04 #@! TD*
G04 #@! TO.P,R6,1*
G04 #@! TO.N,+5V*
X136000000Y-145762000D03*
G04 #@! TO.P,R6,2*
G04 #@! TO.N,Net-(D5-Pad+)*
X136000000Y-144238000D03*
G04 #@! TD*
G04 #@! TO.P,R9,1*
G04 #@! TO.N,/pwm1*
X89000000Y-136238000D03*
G04 #@! TO.P,R9,2*
G04 #@! TO.N,Net-(Q1-Pad1)*
X89000000Y-137762000D03*
G04 #@! TD*
D15*
G04 #@! TO.P,LED1,1*
G04 #@! TO.N,+5V*
X58350000Y-145400000D03*
G04 #@! TO.P,LED1,2*
G04 #@! TO.N,Net-(LED1-Pad2)*
X61650000Y-145400000D03*
G04 #@! TO.P,LED1,3*
G04 #@! TO.N,GND*
X61650000Y-140600000D03*
G04 #@! TO.P,LED1,4*
G04 #@! TO.N,/datos_led_in*
X58350000Y-140600000D03*
G04 #@! TD*
G04 #@! TO.P,LED2,1*
G04 #@! TO.N,+5V*
X78350000Y-145400000D03*
G04 #@! TO.P,LED2,2*
G04 #@! TO.N,Net-(LED2-Pad2)*
X81650000Y-145400000D03*
G04 #@! TO.P,LED2,3*
G04 #@! TO.N,GND*
X81650000Y-140600000D03*
G04 #@! TO.P,LED2,4*
G04 #@! TO.N,Net-(LED1-Pad2)*
X78350000Y-140600000D03*
G04 #@! TD*
G04 #@! TO.P,LED3,1*
G04 #@! TO.N,+5V*
X98350000Y-145400000D03*
G04 #@! TO.P,LED3,2*
G04 #@! TO.N,Net-(LED3-Pad2)*
X101650000Y-145400000D03*
G04 #@! TO.P,LED3,3*
G04 #@! TO.N,GND*
X101650000Y-140600000D03*
G04 #@! TO.P,LED3,4*
G04 #@! TO.N,Net-(LED2-Pad2)*
X98350000Y-140600000D03*
G04 #@! TD*
G04 #@! TO.P,LED4,1*
G04 #@! TO.N,+5V*
X118350000Y-145400000D03*
G04 #@! TO.P,LED4,2*
G04 #@! TO.N,Net-(LED4-Pad2)*
X121650000Y-145400000D03*
G04 #@! TO.P,LED4,3*
G04 #@! TO.N,GND*
X121650000Y-140600000D03*
G04 #@! TO.P,LED4,4*
G04 #@! TO.N,Net-(LED3-Pad2)*
X118350000Y-140600000D03*
G04 #@! TD*
G04 #@! TO.P,LED5,1*
G04 #@! TO.N,+5V*
X138350000Y-145400000D03*
G04 #@! TO.P,LED5,2*
G04 #@! TO.N,/datos_led_out*
X141650000Y-145400000D03*
G04 #@! TO.P,LED5,3*
G04 #@! TO.N,GND*
X141650000Y-140600000D03*
G04 #@! TO.P,LED5,4*
G04 #@! TO.N,Net-(LED4-Pad2)*
X138350000Y-140600000D03*
G04 #@! TD*
D13*
G04 #@! TO.P,J4,1*
G04 #@! TO.N,/pwm2*
X99920000Y-136500000D03*
D14*
G04 #@! TO.P,J4,2*
G04 #@! TO.N,/a0*
X102460000Y-136500000D03*
G04 #@! TO.P,J4,3*
G04 #@! TO.N,/a1*
X105000000Y-136500000D03*
G04 #@! TO.P,J4,4*
G04 #@! TO.N,/a2*
X107540000Y-136500000D03*
G04 #@! TO.P,J4,5*
G04 #@! TO.N,/sda*
X110080000Y-136500000D03*
G04 #@! TO.P,J4,6*
G04 #@! TO.N,/scl*
X112620000Y-136500000D03*
G04 #@! TO.P,J4,7*
G04 #@! TO.N,/int0*
X115160000Y-136500000D03*
G04 #@! TO.P,J4,8*
G04 #@! TO.N,/int1*
X117700000Y-136500000D03*
G04 #@! TD*
D13*
G04 #@! TO.P,J5,1*
G04 #@! TO.N,+5V*
X122770000Y-136500000D03*
D14*
G04 #@! TO.P,J5,2*
G04 #@! TO.N,GND*
X120230000Y-136500000D03*
G04 #@! TD*
D11*
G04 #@! TO.P,C1,1*
G04 #@! TO.N,+5V*
X143024000Y-138000000D03*
G04 #@! TO.P,C1,2*
G04 #@! TO.N,GND*
X141500000Y-138000000D03*
G04 #@! TD*
G04 #@! TO.P,R7,1*
G04 #@! TO.N,Net-(R7-Pad1)*
X59762000Y-137000000D03*
G04 #@! TO.P,R7,2*
G04 #@! TO.N,/datos_led_in*
X58238000Y-137000000D03*
G04 #@! TD*
G04 #@! TO.P,C2,1*
G04 #@! TO.N,+5V*
X54738000Y-138500000D03*
G04 #@! TO.P,C2,2*
G04 #@! TO.N,GND*
X56262000Y-138500000D03*
G04 #@! TD*
D16*
G04 #@! TO.N,Net-(D1-Pad-)*
X72500000Y-143000000D03*
X90500000Y-139000016D03*
X82000000Y-143000000D03*
X102500000Y-143000000D03*
X122500000Y-143000000D03*
X142500000Y-143000000D03*
G04 #@! TO.N,+5V*
X54500000Y-145500000D03*
X72576927Y-146184625D03*
X61000000Y-136000016D03*
G04 #@! TO.N,/datos_led_out*
X143499998Y-145500000D03*
G04 #@! TO.N,/reset*
X60000000Y-141000000D03*
G04 #@! TO.N,/pwm1*
X65000000Y-135500000D03*
G04 #@! TO.N,/pwm2*
X74500000Y-141500006D03*
X64500000Y-141000000D03*
G04 #@! TO.N,/a0*
X103500000Y-144500000D03*
G04 #@! TO.N,/a1*
X104500000Y-144500000D03*
G04 #@! TO.N,/a2*
X105500000Y-144500000D03*
G04 #@! TO.N,/sda*
X106500000Y-144500000D03*
G04 #@! TO.N,/scl*
X107500000Y-144500000D03*
G04 #@! TO.N,/int0*
X108500000Y-148000000D03*
X57500000Y-147999988D03*
X108500000Y-144500000D03*
G04 #@! TO.N,/int1*
X109500000Y-148000000D03*
X109500000Y-144500000D03*
X56500000Y-147000000D03*
G04 #@! TO.N,Net-(R7-Pad1)*
X60922176Y-137124274D03*
G04 #@! TD*
D17*
G04 #@! TO.N,Net-(D1-Pad+)*
X56000000Y-144238000D02*
X57238000Y-143000000D01*
X57238000Y-143000000D02*
X59238000Y-143000000D01*
G04 #@! TO.N,Net-(D1-Pad-)*
X60762000Y-143000000D02*
X72500000Y-143000000D01*
X93500000Y-138516000D02*
X90984016Y-138516000D01*
X90799999Y-138700017D02*
X90500000Y-139000016D01*
X90984016Y-138516000D02*
X90799999Y-138700017D01*
X80524000Y-143000000D02*
X82000000Y-143000000D01*
X100762000Y-143000000D02*
X102500000Y-143000000D01*
X120762000Y-143000000D02*
X122500000Y-143000000D01*
X142500000Y-143000000D02*
X140762000Y-143000000D01*
G04 #@! TO.N,Net-(D2-Pad+)*
X76500000Y-143000000D02*
X79000000Y-143000000D01*
X76000000Y-143476000D02*
X76024000Y-143476000D01*
X76024000Y-143476000D02*
X76500000Y-143000000D01*
G04 #@! TO.N,Net-(D3-Pad+)*
X96000000Y-144238000D02*
X97238000Y-143000000D01*
X97238000Y-143000000D02*
X99238000Y-143000000D01*
G04 #@! TO.N,Net-(D4-Pad+)*
X116000000Y-144238000D02*
X117238000Y-143000000D01*
X117238000Y-143000000D02*
X119238000Y-143000000D01*
G04 #@! TO.N,Net-(D5-Pad+)*
X136000000Y-144238000D02*
X137238000Y-143000000D01*
X137238000Y-143000000D02*
X139238000Y-143000000D01*
D18*
G04 #@! TO.N,+5V*
X144500000Y-136500000D02*
X143279500Y-136500000D01*
X143279500Y-136500000D02*
X143024000Y-136755500D01*
X143024000Y-136755500D02*
X143024000Y-138000000D01*
X96000000Y-147000000D02*
X98500000Y-147000000D01*
X79000000Y-147000000D02*
X96000000Y-147000000D01*
X96000000Y-147000000D02*
X96000000Y-145762000D01*
X98500000Y-147000000D02*
X98500000Y-145550000D01*
X98500000Y-145550000D02*
X98350000Y-145400000D01*
X116000000Y-147000000D02*
X118500000Y-147000000D01*
X98500000Y-147000000D02*
X116000000Y-147000000D01*
X116000000Y-147000000D02*
X116000000Y-145762000D01*
X118500000Y-147000000D02*
X118500000Y-145550000D01*
X118500000Y-145550000D02*
X118350000Y-145400000D01*
X144500000Y-136500000D02*
X145665500Y-136500000D01*
X122770000Y-136500000D02*
X144500000Y-136500000D01*
X145665500Y-136500000D02*
X148000000Y-138834500D01*
X148000000Y-138834500D02*
X148000000Y-140460000D01*
X148000000Y-140460000D02*
X147133996Y-140460000D01*
X147133996Y-140460000D02*
X144449999Y-143143997D01*
X144449999Y-143143997D02*
X144449999Y-145956005D01*
X144449999Y-145956005D02*
X143406004Y-147000000D01*
X143406004Y-147000000D02*
X138250000Y-147000000D01*
X73500000Y-147000000D02*
X59500000Y-147000000D01*
X59500000Y-147000000D02*
X58350000Y-145850000D01*
X58350000Y-145850000D02*
X58350000Y-145400000D01*
X76000000Y-147000000D02*
X73500000Y-147000000D01*
D19*
X73392302Y-147000000D02*
X73500000Y-147000000D01*
X72576927Y-146184625D02*
X73392302Y-147000000D01*
D18*
X54500000Y-145506500D02*
X54500000Y-145500000D01*
X56000000Y-145762000D02*
X54755500Y-145762000D01*
X54500000Y-144797002D02*
X54500000Y-145500000D01*
X54755500Y-145762000D02*
X54500000Y-145506500D01*
X78500000Y-147000000D02*
X76000000Y-147000000D01*
X79000000Y-147000000D02*
X78500000Y-147000000D01*
X78500000Y-147000000D02*
X78500000Y-145550000D01*
X78500000Y-145550000D02*
X78350000Y-145400000D01*
X76000000Y-147000000D02*
X76000000Y-145000000D01*
X118500000Y-147000000D02*
X135993500Y-147000000D01*
X138250000Y-147000000D02*
X138250000Y-145500000D01*
X138250000Y-145500000D02*
X138350000Y-145400000D01*
X135993500Y-147000000D02*
X138250000Y-147000000D01*
X135993500Y-147000000D02*
X136000000Y-147006500D01*
X58350000Y-145400000D02*
X58350000Y-145471027D01*
X56000000Y-145762000D02*
X57988000Y-145762000D01*
X57988000Y-145762000D02*
X58350000Y-145400000D01*
D17*
X68500000Y-136730000D02*
X70460000Y-136730000D01*
D19*
X68000000Y-137738000D02*
X68000000Y-137043500D01*
X68000000Y-137043500D02*
X68313500Y-136730000D01*
X68313500Y-136730000D02*
X68500000Y-136730000D01*
D18*
X136000000Y-145762000D02*
X136000000Y-147006500D01*
D19*
X77950000Y-145000000D02*
X78350000Y-145400000D01*
X117988000Y-145762000D02*
X118350000Y-145400000D01*
X137988000Y-145762000D02*
X138350000Y-145400000D01*
D17*
X61299999Y-136300015D02*
X61000000Y-136000016D01*
X61729984Y-136730000D02*
X61299999Y-136300015D01*
X68500000Y-136730000D02*
X61729984Y-136730000D01*
D18*
X54500000Y-141334500D02*
X54500000Y-145075736D01*
X53165500Y-140000000D02*
X54500000Y-141334500D01*
X54500000Y-145075736D02*
X54500000Y-145500000D01*
X52000000Y-140460000D02*
X52000000Y-140000000D01*
X52000000Y-140000000D02*
X53165500Y-140000000D01*
X54738000Y-139744500D02*
X54738000Y-138500000D01*
X54482500Y-140000000D02*
X54738000Y-139744500D01*
X53165500Y-140000000D02*
X54482500Y-140000000D01*
D19*
G04 #@! TO.N,/datos_led_in*
X52000000Y-145540000D02*
X50633998Y-144173998D01*
X50633998Y-139000000D02*
X50633998Y-144173998D01*
X58350000Y-137112000D02*
X58238000Y-137000000D01*
X58350000Y-140600000D02*
X58350000Y-137112000D01*
X52633998Y-137000000D02*
X58238000Y-137000000D01*
X50633998Y-139000000D02*
X52633998Y-137000000D01*
G04 #@! TO.N,/datos_led_out*
X143399998Y-145400000D02*
X143499998Y-145500000D01*
X141650000Y-145400000D02*
X143399998Y-145400000D01*
X147860000Y-145400000D02*
X148000000Y-145540000D01*
G04 #@! TO.N,/reset*
X60000000Y-140075736D02*
X60000000Y-141000000D01*
X68000000Y-139262000D02*
X65500000Y-139262000D01*
X65500000Y-139262000D02*
X65263002Y-139262000D01*
X60000000Y-140075736D02*
X60813736Y-139262000D01*
X60813736Y-139262000D02*
X65500000Y-139262000D01*
X60750737Y-139324999D02*
X60000000Y-140075736D01*
X68000000Y-139262000D02*
X69262000Y-138000000D01*
X69262000Y-138000000D02*
X74270000Y-138000000D01*
X74714501Y-138444501D02*
X75540000Y-139270000D01*
X74270000Y-138000000D02*
X74714501Y-138444501D01*
D20*
G04 #@! TO.N,Net-(LED1-Pad2)*
X77450000Y-140600000D02*
X72650000Y-145400000D01*
X78350000Y-140600000D02*
X77450000Y-140600000D01*
X72650000Y-145400000D02*
X62550000Y-145400000D01*
X62550000Y-145400000D02*
X61650000Y-145400000D01*
D19*
X61650000Y-145400000D02*
X61650000Y-145200000D01*
G04 #@! TO.N,Net-(LED2-Pad2)*
X81650000Y-145400000D02*
X82250000Y-146000000D01*
X92000000Y-146000000D02*
X97400000Y-140600000D01*
X82250000Y-146000000D02*
X92000000Y-146000000D01*
X97400000Y-140600000D02*
X97500000Y-140600000D01*
X97500000Y-140600000D02*
X98350000Y-140600000D01*
G04 #@! TO.N,Net-(LED3-Pad2)*
X118350000Y-140600000D02*
X117400000Y-140600000D01*
X117400000Y-140600000D02*
X112600000Y-145400000D01*
X112600000Y-145400000D02*
X111424999Y-145400000D01*
X101650000Y-145400000D02*
X111424999Y-145400000D01*
G04 #@! TO.N,Net-(LED4-Pad2)*
X138350000Y-140600000D02*
X137750000Y-140000000D01*
X137750000Y-140000000D02*
X126850000Y-140000000D01*
X126850000Y-140000000D02*
X121650000Y-145200000D01*
X121650000Y-145200000D02*
X121650000Y-145400000D01*
G04 #@! TO.N,Net-(Q1-Pad1)*
X93367001Y-137569499D02*
X94389000Y-136547500D01*
X94389000Y-136547500D02*
X94389000Y-136484000D01*
X93367001Y-137569499D02*
X89887001Y-137569499D01*
X89887001Y-137569499D02*
X89694500Y-137762000D01*
X89694500Y-137762000D02*
X89000000Y-137762000D01*
X89254000Y-138016000D02*
X89000000Y-137762000D01*
G04 #@! TO.N,/pwm1*
X89000000Y-136238000D02*
X89000000Y-136000000D01*
X89000000Y-136000000D02*
X88529499Y-135529499D01*
X88529499Y-135529499D02*
X65029499Y-135529499D01*
X65029499Y-135529499D02*
X65000000Y-135500000D01*
G04 #@! TO.N,/pwm2*
X74500006Y-141500000D02*
X74500000Y-141500006D01*
X74575732Y-141500000D02*
X74500006Y-141500000D01*
X65000000Y-141500000D02*
X74575732Y-141500000D01*
X64500000Y-141000000D02*
X65000000Y-141500000D01*
X70954608Y-141500000D02*
X74575732Y-141500000D01*
G04 #@! TO.N,/a0*
X102460000Y-136500000D02*
X102460000Y-137000000D01*
X102460000Y-137000000D02*
X103500000Y-138040000D01*
X103500000Y-138040000D02*
X103500000Y-144500000D01*
G04 #@! TO.N,/a1*
X105000000Y-136500000D02*
X105000000Y-137000000D01*
X105000000Y-137000000D02*
X104500000Y-137500000D01*
X104500000Y-144500000D02*
X104500000Y-137500000D01*
G04 #@! TO.N,/a2*
X107540000Y-136500000D02*
X107540000Y-137000000D01*
X107540000Y-137000000D02*
X105500000Y-139040000D01*
X105500000Y-139040000D02*
X105500000Y-144500000D01*
G04 #@! TO.N,/sda*
X106500000Y-140500000D02*
X109500000Y-137500000D01*
X109500000Y-137500000D02*
X110000000Y-137000000D01*
X110080000Y-136500000D02*
X110080000Y-136920000D01*
X110080000Y-136920000D02*
X109500000Y-137500000D01*
X106500000Y-144500000D02*
X106500000Y-140500000D01*
X110000000Y-137000000D02*
X110080000Y-137000000D01*
G04 #@! TO.N,/scl*
X107500000Y-142000000D02*
X112000000Y-137500000D01*
X112000000Y-137500000D02*
X112500000Y-137000000D01*
X112620000Y-136500000D02*
X112620000Y-136880000D01*
X112620000Y-136880000D02*
X112000000Y-137500000D01*
X107500000Y-144500000D02*
X107500000Y-142000000D01*
X112500000Y-137000000D02*
X112620000Y-137000000D01*
G04 #@! TO.N,/int0*
X108500000Y-144500000D02*
X108500000Y-143160000D01*
X108500000Y-143160000D02*
X115160000Y-136500000D01*
X57500000Y-147999988D02*
X108499988Y-147999988D01*
X108499988Y-147999988D02*
X108500000Y-148000000D01*
X115160000Y-137000000D02*
X115000000Y-137000000D01*
G04 #@! TO.N,/int1*
X117700000Y-136500000D02*
X109700000Y-144500000D01*
X109700000Y-144500000D02*
X109500000Y-144500000D01*
X109200001Y-148299999D02*
X109500000Y-148000000D01*
X108700001Y-148799999D02*
X109200001Y-148299999D01*
X56799999Y-148799999D02*
X108700001Y-148799999D01*
X56500000Y-148500000D02*
X56799999Y-148799999D01*
X56500000Y-147000000D02*
X56500000Y-148500000D01*
X117500000Y-137000000D02*
X117700000Y-137000000D01*
G04 #@! TO.N,Net-(R7-Pad1)*
X59886274Y-137124274D02*
X59762000Y-137000000D01*
X60922176Y-137124274D02*
X59886274Y-137124274D01*
G04 #@! TD*
D21*
G04 #@! TO.N,GND*
G36*
X149700000Y-149700000D02*
X50300000Y-149700000D01*
X50300000Y-144484112D01*
X50309567Y-144498430D01*
X50347141Y-144523536D01*
X50849500Y-145025896D01*
X50849500Y-145268849D01*
X51024653Y-145691706D01*
X51348294Y-146015347D01*
X51771151Y-146190500D01*
X52228849Y-146190500D01*
X52651706Y-146015347D01*
X52975347Y-145691706D01*
X53150500Y-145268849D01*
X53150500Y-144811151D01*
X52975347Y-144388294D01*
X52651706Y-144064653D01*
X52228849Y-143889500D01*
X51771151Y-143889500D01*
X51348294Y-144064653D01*
X51254671Y-144158276D01*
X51083998Y-143987603D01*
X51083998Y-141098865D01*
X51174500Y-141116867D01*
X51678106Y-141116867D01*
X51717119Y-141142935D01*
X52000000Y-141199203D01*
X52282880Y-141142935D01*
X52321893Y-141116867D01*
X52825500Y-141116867D01*
X52952309Y-141091643D01*
X53059812Y-141019812D01*
X53099945Y-140959749D01*
X53775000Y-141634805D01*
X53775001Y-144725595D01*
X53775000Y-144725599D01*
X53775000Y-145435100D01*
X53760798Y-145506500D01*
X53775000Y-145577900D01*
X53775000Y-145577903D01*
X53802386Y-145715581D01*
X53817065Y-145789380D01*
X53933671Y-145963891D01*
X53977305Y-146029194D01*
X54037837Y-146069641D01*
X54192356Y-146224159D01*
X54232805Y-146284695D01*
X54472619Y-146444935D01*
X54684096Y-146487000D01*
X54684100Y-146487000D01*
X54755500Y-146501202D01*
X54826900Y-146487000D01*
X55390313Y-146487000D01*
X55428691Y-146512643D01*
X55555500Y-146537867D01*
X56078250Y-146537867D01*
X55970151Y-146645966D01*
X55875000Y-146875680D01*
X55875000Y-147124320D01*
X55970151Y-147354034D01*
X56050000Y-147433883D01*
X56050001Y-148455675D01*
X56041184Y-148500000D01*
X56066049Y-148625000D01*
X56076110Y-148675581D01*
X56175569Y-148824432D01*
X56213143Y-148849538D01*
X56450460Y-149086856D01*
X56475567Y-149124431D01*
X56624418Y-149223890D01*
X56755678Y-149249999D01*
X56755679Y-149249999D01*
X56799999Y-149258815D01*
X56844319Y-149249999D01*
X108655681Y-149249999D01*
X108700001Y-149258815D01*
X108744321Y-149249999D01*
X108744322Y-149249999D01*
X108875582Y-149223890D01*
X109024433Y-149124431D01*
X109049541Y-149086854D01*
X109511396Y-148625000D01*
X109624320Y-148625000D01*
X109854034Y-148529849D01*
X110029849Y-148354034D01*
X110125000Y-148124320D01*
X110125000Y-147875680D01*
X110062586Y-147725000D01*
X115928596Y-147725000D01*
X116000000Y-147739203D01*
X116071404Y-147725000D01*
X118428596Y-147725000D01*
X118500000Y-147739203D01*
X118571404Y-147725000D01*
X135895918Y-147725000D01*
X136000000Y-147745703D01*
X136104082Y-147725000D01*
X138178596Y-147725000D01*
X138250000Y-147739203D01*
X138321404Y-147725000D01*
X143334604Y-147725000D01*
X143406004Y-147739202D01*
X143477404Y-147725000D01*
X143477408Y-147725000D01*
X143688885Y-147682935D01*
X143928699Y-147522695D01*
X143969146Y-147462162D01*
X144912163Y-146519146D01*
X144972694Y-146478700D01*
X145075774Y-146324432D01*
X145132934Y-146238886D01*
X145149826Y-146153962D01*
X145174999Y-146027409D01*
X145174999Y-146027405D01*
X145189201Y-145956005D01*
X145174999Y-145884605D01*
X145174999Y-144811151D01*
X146849500Y-144811151D01*
X146849500Y-145268849D01*
X147024653Y-145691706D01*
X147348294Y-146015347D01*
X147771151Y-146190500D01*
X148228849Y-146190500D01*
X148651706Y-146015347D01*
X148975347Y-145691706D01*
X149150500Y-145268849D01*
X149150500Y-144811151D01*
X148975347Y-144388294D01*
X148651706Y-144064653D01*
X148228849Y-143889500D01*
X147771151Y-143889500D01*
X147348294Y-144064653D01*
X147024653Y-144388294D01*
X146849500Y-144811151D01*
X145174999Y-144811151D01*
X145174999Y-143444301D01*
X147434301Y-141185000D01*
X147928596Y-141185000D01*
X148000000Y-141199203D01*
X148282881Y-141142935D01*
X148321894Y-141116867D01*
X148825500Y-141116867D01*
X148952309Y-141091643D01*
X149059812Y-141019812D01*
X149131643Y-140912309D01*
X149156867Y-140785500D01*
X149156867Y-139134500D01*
X149131643Y-139007691D01*
X149059812Y-138900188D01*
X148952309Y-138828357D01*
X148825500Y-138803133D01*
X148732963Y-138803133D01*
X148725000Y-138763100D01*
X148725000Y-138763096D01*
X148682935Y-138551619D01*
X148663608Y-138522695D01*
X148563142Y-138372338D01*
X148563140Y-138372336D01*
X148522694Y-138311805D01*
X148462163Y-138271359D01*
X146228643Y-136037839D01*
X146188195Y-135977305D01*
X145948381Y-135817065D01*
X145736904Y-135775000D01*
X145736900Y-135775000D01*
X145665500Y-135760798D01*
X145594100Y-135775000D01*
X143350900Y-135775000D01*
X143279500Y-135760798D01*
X143208100Y-135775000D01*
X123926867Y-135775000D01*
X123926867Y-135674500D01*
X123901643Y-135547691D01*
X123829812Y-135440188D01*
X123722309Y-135368357D01*
X123595500Y-135343133D01*
X121944500Y-135343133D01*
X121817691Y-135368357D01*
X121710188Y-135440188D01*
X121638357Y-135547691D01*
X121613133Y-135674500D01*
X121613133Y-137325500D01*
X121638357Y-137452309D01*
X121710188Y-137559812D01*
X121817691Y-137631643D01*
X121944500Y-137656867D01*
X123595500Y-137656867D01*
X123722309Y-137631643D01*
X123829812Y-137559812D01*
X123901643Y-137452309D01*
X123926867Y-137325500D01*
X123926867Y-137225000D01*
X142299000Y-137225000D01*
X142299001Y-137390313D01*
X142273357Y-137428691D01*
X142248133Y-137555500D01*
X142248133Y-138444500D01*
X142273357Y-138571309D01*
X142345188Y-138678812D01*
X142452691Y-138750643D01*
X142579500Y-138775867D01*
X143468500Y-138775867D01*
X143595309Y-138750643D01*
X143702812Y-138678812D01*
X143774643Y-138571309D01*
X143799867Y-138444500D01*
X143799867Y-137555500D01*
X143774643Y-137428691D01*
X143749000Y-137390313D01*
X143749000Y-137225000D01*
X145365196Y-137225000D01*
X147000251Y-138860055D01*
X146940188Y-138900188D01*
X146868357Y-139007691D01*
X146843133Y-139134500D01*
X146843133Y-139782398D01*
X146671833Y-139896858D01*
X146671832Y-139896859D01*
X146611301Y-139937305D01*
X146570855Y-139997836D01*
X143987835Y-142580857D01*
X143927304Y-142621303D01*
X143886858Y-142681834D01*
X143886857Y-142681835D01*
X143850592Y-142736109D01*
X143767064Y-142861117D01*
X143724999Y-143072594D01*
X143724999Y-143072597D01*
X143710797Y-143143997D01*
X143724999Y-143215397D01*
X143725000Y-144916704D01*
X143624318Y-144875000D01*
X143375678Y-144875000D01*
X143194613Y-144950000D01*
X142681367Y-144950000D01*
X142681367Y-144500000D01*
X142656143Y-144373191D01*
X142584312Y-144265688D01*
X142476809Y-144193857D01*
X142350000Y-144168633D01*
X140950000Y-144168633D01*
X140823191Y-144193857D01*
X140715688Y-144265688D01*
X140643857Y-144373191D01*
X140618633Y-144500000D01*
X140618633Y-146275000D01*
X139381367Y-146275000D01*
X139381367Y-144500000D01*
X139356143Y-144373191D01*
X139284312Y-144265688D01*
X139176809Y-144193857D01*
X139050000Y-144168633D01*
X137650000Y-144168633D01*
X137523191Y-144193857D01*
X137415688Y-144265688D01*
X137343857Y-144373191D01*
X137318633Y-144500000D01*
X137318633Y-146275000D01*
X136762241Y-146275000D01*
X136775867Y-146206500D01*
X136775867Y-145317500D01*
X136750643Y-145190691D01*
X136678812Y-145083188D01*
X136571309Y-145011357D01*
X136514214Y-145000000D01*
X136571309Y-144988643D01*
X136678812Y-144916812D01*
X136750643Y-144809309D01*
X136775867Y-144682500D01*
X136775867Y-144346016D01*
X137496884Y-143625000D01*
X138586732Y-143625000D01*
X138622688Y-143678812D01*
X138730191Y-143750643D01*
X138857000Y-143775867D01*
X139619000Y-143775867D01*
X139745809Y-143750643D01*
X139853312Y-143678812D01*
X139925143Y-143571309D01*
X139950367Y-143444500D01*
X139950367Y-142555500D01*
X140049633Y-142555500D01*
X140049633Y-143444500D01*
X140074857Y-143571309D01*
X140146688Y-143678812D01*
X140254191Y-143750643D01*
X140381000Y-143775867D01*
X141143000Y-143775867D01*
X141269809Y-143750643D01*
X141377312Y-143678812D01*
X141413268Y-143625000D01*
X142624320Y-143625000D01*
X142682306Y-143600981D01*
X142743863Y-143588737D01*
X142796050Y-143553867D01*
X142854034Y-143529849D01*
X142898412Y-143485471D01*
X142950600Y-143450600D01*
X142985471Y-143398412D01*
X143029849Y-143354034D01*
X143053867Y-143296050D01*
X143088737Y-143243863D01*
X143100981Y-143182306D01*
X143125000Y-143124320D01*
X143125000Y-143061555D01*
X143137244Y-143000000D01*
X143125000Y-142938445D01*
X143125000Y-142875680D01*
X143100981Y-142817694D01*
X143088737Y-142756137D01*
X143053867Y-142703950D01*
X143029849Y-142645966D01*
X142985471Y-142601588D01*
X142950600Y-142549400D01*
X142898412Y-142514529D01*
X142854034Y-142470151D01*
X142796050Y-142446133D01*
X142743863Y-142411263D01*
X142682306Y-142399019D01*
X142624320Y-142375000D01*
X141413268Y-142375000D01*
X141377312Y-142321188D01*
X141269809Y-142249357D01*
X141143000Y-142224133D01*
X140381000Y-142224133D01*
X140254191Y-142249357D01*
X140146688Y-142321188D01*
X140074857Y-142428691D01*
X140049633Y-142555500D01*
X139950367Y-142555500D01*
X139925143Y-142428691D01*
X139853312Y-142321188D01*
X139745809Y-142249357D01*
X139619000Y-142224133D01*
X138857000Y-142224133D01*
X138730191Y-142249357D01*
X138622688Y-142321188D01*
X138586732Y-142375000D01*
X137299553Y-142375000D01*
X137237999Y-142362756D01*
X137176445Y-142375000D01*
X136994137Y-142411263D01*
X136787400Y-142549400D01*
X136752531Y-142601585D01*
X135891984Y-143462133D01*
X135555500Y-143462133D01*
X135428691Y-143487357D01*
X135321188Y-143559188D01*
X135249357Y-143666691D01*
X135224133Y-143793500D01*
X135224133Y-144682500D01*
X135249357Y-144809309D01*
X135321188Y-144916812D01*
X135428691Y-144988643D01*
X135485786Y-145000000D01*
X135428691Y-145011357D01*
X135321188Y-145083188D01*
X135249357Y-145190691D01*
X135224133Y-145317500D01*
X135224133Y-146206500D01*
X135237759Y-146275000D01*
X122681367Y-146275000D01*
X122681367Y-144805028D01*
X125369302Y-142117094D01*
X128075000Y-142117094D01*
X128075000Y-142882906D01*
X128368064Y-143590425D01*
X128909575Y-144131936D01*
X129617094Y-144425000D01*
X130382906Y-144425000D01*
X131090425Y-144131936D01*
X131631936Y-143590425D01*
X131925000Y-142882906D01*
X131925000Y-142117094D01*
X131631936Y-141409575D01*
X131090425Y-140868064D01*
X130382906Y-140575000D01*
X129617094Y-140575000D01*
X128909575Y-140868064D01*
X128368064Y-141409575D01*
X128075000Y-142117094D01*
X125369302Y-142117094D01*
X127036397Y-140450000D01*
X137318633Y-140450000D01*
X137318633Y-141500000D01*
X137343857Y-141626809D01*
X137415688Y-141734312D01*
X137523191Y-141806143D01*
X137650000Y-141831367D01*
X139050000Y-141831367D01*
X139176809Y-141806143D01*
X139284312Y-141734312D01*
X139356143Y-141626809D01*
X139381367Y-141500000D01*
X139381367Y-139700000D01*
X139356143Y-139573191D01*
X139284312Y-139465688D01*
X139176809Y-139393857D01*
X139050000Y-139368633D01*
X137650000Y-139368633D01*
X137523191Y-139393857D01*
X137415688Y-139465688D01*
X137359353Y-139550000D01*
X126894322Y-139550000D01*
X126850000Y-139541184D01*
X126674418Y-139576109D01*
X126563141Y-139650462D01*
X126563140Y-139650463D01*
X126525568Y-139675568D01*
X126500464Y-139713139D01*
X123125000Y-143088604D01*
X123125000Y-143061555D01*
X123137244Y-143000000D01*
X123125000Y-142938445D01*
X123125000Y-142875680D01*
X123100981Y-142817694D01*
X123088737Y-142756137D01*
X123053867Y-142703950D01*
X123029849Y-142645966D01*
X122985471Y-142601588D01*
X122950600Y-142549400D01*
X122898412Y-142514529D01*
X122854034Y-142470151D01*
X122796050Y-142446133D01*
X122743863Y-142411263D01*
X122682306Y-142399019D01*
X122624320Y-142375000D01*
X121413268Y-142375000D01*
X121377312Y-142321188D01*
X121269809Y-142249357D01*
X121143000Y-142224133D01*
X120381000Y-142224133D01*
X120254191Y-142249357D01*
X120146688Y-142321188D01*
X120074857Y-142428691D01*
X120049633Y-142555500D01*
X120049633Y-143444500D01*
X120074857Y-143571309D01*
X120146688Y-143678812D01*
X120254191Y-143750643D01*
X120381000Y-143775867D01*
X121143000Y-143775867D01*
X121269809Y-143750643D01*
X121377312Y-143678812D01*
X121413268Y-143625000D01*
X122588605Y-143625000D01*
X122044972Y-144168633D01*
X120950000Y-144168633D01*
X120823191Y-144193857D01*
X120715688Y-144265688D01*
X120643857Y-144373191D01*
X120618633Y-144500000D01*
X120618633Y-146275000D01*
X119381367Y-146275000D01*
X119381367Y-144500000D01*
X119356143Y-144373191D01*
X119284312Y-144265688D01*
X119176809Y-144193857D01*
X119050000Y-144168633D01*
X117650000Y-144168633D01*
X117523191Y-144193857D01*
X117415688Y-144265688D01*
X117343857Y-144373191D01*
X117318633Y-144500000D01*
X117318633Y-146275000D01*
X116762241Y-146275000D01*
X116775867Y-146206500D01*
X116775867Y-145317500D01*
X116750643Y-145190691D01*
X116678812Y-145083188D01*
X116571309Y-145011357D01*
X116514214Y-145000000D01*
X116571309Y-144988643D01*
X116678812Y-144916812D01*
X116750643Y-144809309D01*
X116775867Y-144682500D01*
X116775867Y-144346016D01*
X117496884Y-143625000D01*
X118586732Y-143625000D01*
X118622688Y-143678812D01*
X118730191Y-143750643D01*
X118857000Y-143775867D01*
X119619000Y-143775867D01*
X119745809Y-143750643D01*
X119853312Y-143678812D01*
X119925143Y-143571309D01*
X119950367Y-143444500D01*
X119950367Y-142555500D01*
X119925143Y-142428691D01*
X119853312Y-142321188D01*
X119745809Y-142249357D01*
X119619000Y-142224133D01*
X118857000Y-142224133D01*
X118730191Y-142249357D01*
X118622688Y-142321188D01*
X118586732Y-142375000D01*
X117299553Y-142375000D01*
X117237999Y-142362756D01*
X117176445Y-142375000D01*
X116994137Y-142411263D01*
X116787400Y-142549400D01*
X116752531Y-142601585D01*
X115891984Y-143462133D01*
X115555500Y-143462133D01*
X115428691Y-143487357D01*
X115321188Y-143559188D01*
X115249357Y-143666691D01*
X115224133Y-143793500D01*
X115224133Y-144682500D01*
X115249357Y-144809309D01*
X115321188Y-144916812D01*
X115428691Y-144988643D01*
X115485786Y-145000000D01*
X115428691Y-145011357D01*
X115321188Y-145083188D01*
X115249357Y-145190691D01*
X115224133Y-145317500D01*
X115224133Y-146206500D01*
X115237759Y-146275000D01*
X102681367Y-146275000D01*
X102681367Y-145850000D01*
X112555680Y-145850000D01*
X112600000Y-145858816D01*
X112644320Y-145850000D01*
X112644321Y-145850000D01*
X112775581Y-145823891D01*
X112924432Y-145724432D01*
X112949540Y-145686855D01*
X117318633Y-141317763D01*
X117318633Y-141500000D01*
X117343857Y-141626809D01*
X117415688Y-141734312D01*
X117523191Y-141806143D01*
X117650000Y-141831367D01*
X119050000Y-141831367D01*
X119176809Y-141806143D01*
X119284312Y-141734312D01*
X119356143Y-141626809D01*
X119381367Y-141500000D01*
X119381367Y-139700000D01*
X119356143Y-139573191D01*
X119284312Y-139465688D01*
X119176809Y-139393857D01*
X119050000Y-139368633D01*
X117650000Y-139368633D01*
X117523191Y-139393857D01*
X117415688Y-139465688D01*
X117343857Y-139573191D01*
X117318633Y-139700000D01*
X117318633Y-140157369D01*
X117224419Y-140176109D01*
X117075568Y-140275568D01*
X117050463Y-140313141D01*
X112413605Y-144950000D01*
X109933883Y-144950000D01*
X110029849Y-144854034D01*
X110063428Y-144772967D01*
X117269445Y-137566951D01*
X117471151Y-137650500D01*
X117928849Y-137650500D01*
X118351706Y-137475347D01*
X118675347Y-137151706D01*
X118850500Y-136728849D01*
X118850500Y-136271151D01*
X118675347Y-135848294D01*
X118351706Y-135524653D01*
X117928849Y-135349500D01*
X117471151Y-135349500D01*
X117048294Y-135524653D01*
X116724653Y-135848294D01*
X116549500Y-136271151D01*
X116549500Y-136728849D01*
X116633049Y-136930555D01*
X109669776Y-143893829D01*
X109624320Y-143875000D01*
X109375680Y-143875000D01*
X109145966Y-143970151D01*
X109000000Y-144116117D01*
X108950000Y-144066117D01*
X108950000Y-143346395D01*
X114729445Y-137566951D01*
X114931151Y-137650500D01*
X115388849Y-137650500D01*
X115811706Y-137475347D01*
X116135347Y-137151706D01*
X116310500Y-136728849D01*
X116310500Y-136271151D01*
X116135347Y-135848294D01*
X115811706Y-135524653D01*
X115388849Y-135349500D01*
X114931151Y-135349500D01*
X114508294Y-135524653D01*
X114184653Y-135848294D01*
X114009500Y-136271151D01*
X114009500Y-136728849D01*
X114093049Y-136930555D01*
X108213143Y-142810462D01*
X108175569Y-142835568D01*
X108150463Y-142873142D01*
X108076110Y-142984419D01*
X108041184Y-143160000D01*
X108050001Y-143204325D01*
X108050000Y-144066117D01*
X108000000Y-144116117D01*
X107950000Y-144066117D01*
X107950000Y-142186395D01*
X112349537Y-137786859D01*
X112349539Y-137786856D01*
X112485895Y-137650500D01*
X112848849Y-137650500D01*
X113271706Y-137475347D01*
X113595347Y-137151706D01*
X113770500Y-136728849D01*
X113770500Y-136271151D01*
X113595347Y-135848294D01*
X113271706Y-135524653D01*
X112848849Y-135349500D01*
X112391151Y-135349500D01*
X111968294Y-135524653D01*
X111644653Y-135848294D01*
X111469500Y-136271151D01*
X111469500Y-136728849D01*
X111644653Y-137151706D01*
X111678276Y-137185329D01*
X107213143Y-141650462D01*
X107175569Y-141675568D01*
X107150463Y-141713142D01*
X107076110Y-141824419D01*
X107041184Y-142000000D01*
X107050001Y-142044325D01*
X107050000Y-144066117D01*
X107000000Y-144116117D01*
X106950000Y-144066117D01*
X106950000Y-140686395D01*
X109849537Y-137786859D01*
X109849539Y-137786856D01*
X109985895Y-137650500D01*
X110308849Y-137650500D01*
X110731706Y-137475347D01*
X111055347Y-137151706D01*
X111230500Y-136728849D01*
X111230500Y-136271151D01*
X111055347Y-135848294D01*
X110731706Y-135524653D01*
X110308849Y-135349500D01*
X109851151Y-135349500D01*
X109428294Y-135524653D01*
X109104653Y-135848294D01*
X108929500Y-136271151D01*
X108929500Y-136728849D01*
X109104653Y-137151706D01*
X109158276Y-137205329D01*
X106213143Y-140150462D01*
X106175569Y-140175568D01*
X106103865Y-140282881D01*
X106076110Y-140324419D01*
X106041184Y-140500000D01*
X106050001Y-140544325D01*
X106050000Y-144066117D01*
X106000000Y-144116117D01*
X105950000Y-144066117D01*
X105950000Y-139226395D01*
X107525896Y-137650500D01*
X107768849Y-137650500D01*
X108191706Y-137475347D01*
X108515347Y-137151706D01*
X108690500Y-136728849D01*
X108690500Y-136271151D01*
X108515347Y-135848294D01*
X108191706Y-135524653D01*
X107768849Y-135349500D01*
X107311151Y-135349500D01*
X106888294Y-135524653D01*
X106564653Y-135848294D01*
X106389500Y-136271151D01*
X106389500Y-136728849D01*
X106564653Y-137151706D01*
X106658276Y-137245329D01*
X105213145Y-138690460D01*
X105175568Y-138715568D01*
X105076109Y-138864420D01*
X105055784Y-138966600D01*
X105041184Y-139040000D01*
X105050000Y-139084320D01*
X105050001Y-144066116D01*
X105000000Y-144116117D01*
X104950000Y-144066117D01*
X104950000Y-137686395D01*
X104985895Y-137650500D01*
X105228849Y-137650500D01*
X105651706Y-137475347D01*
X105975347Y-137151706D01*
X106150500Y-136728849D01*
X106150500Y-136271151D01*
X105975347Y-135848294D01*
X105651706Y-135524653D01*
X105228849Y-135349500D01*
X104771151Y-135349500D01*
X104348294Y-135524653D01*
X104024653Y-135848294D01*
X103849500Y-136271151D01*
X103849500Y-136728849D01*
X104024653Y-137151706D01*
X104124678Y-137251731D01*
X104076110Y-137324419D01*
X104041184Y-137500000D01*
X104050001Y-137544325D01*
X104050000Y-144066117D01*
X104000000Y-144116117D01*
X103950000Y-144066117D01*
X103950000Y-138084319D01*
X103958816Y-138039999D01*
X103946345Y-137977305D01*
X103923891Y-137864419D01*
X103824432Y-137715568D01*
X103786858Y-137690462D01*
X103341724Y-137245329D01*
X103435347Y-137151706D01*
X103610500Y-136728849D01*
X103610500Y-136271151D01*
X103435347Y-135848294D01*
X103111706Y-135524653D01*
X102688849Y-135349500D01*
X102231151Y-135349500D01*
X101808294Y-135524653D01*
X101484653Y-135848294D01*
X101309500Y-136271151D01*
X101309500Y-136728849D01*
X101484653Y-137151706D01*
X101808294Y-137475347D01*
X102231151Y-137650500D01*
X102474105Y-137650500D01*
X103050000Y-138226396D01*
X103050001Y-142694616D01*
X103029849Y-142645966D01*
X102985471Y-142601588D01*
X102950600Y-142549400D01*
X102898412Y-142514529D01*
X102854034Y-142470151D01*
X102796050Y-142446133D01*
X102743863Y-142411263D01*
X102682306Y-142399019D01*
X102624320Y-142375000D01*
X101413268Y-142375000D01*
X101377312Y-142321188D01*
X101269809Y-142249357D01*
X101143000Y-142224133D01*
X100381000Y-142224133D01*
X100254191Y-142249357D01*
X100146688Y-142321188D01*
X100074857Y-142428691D01*
X100049633Y-142555500D01*
X100049633Y-143444500D01*
X100074857Y-143571309D01*
X100146688Y-143678812D01*
X100254191Y-143750643D01*
X100381000Y-143775867D01*
X101143000Y-143775867D01*
X101269809Y-143750643D01*
X101377312Y-143678812D01*
X101413268Y-143625000D01*
X102624320Y-143625000D01*
X102682306Y-143600981D01*
X102743863Y-143588737D01*
X102796050Y-143553867D01*
X102854034Y-143529849D01*
X102898412Y-143485471D01*
X102950600Y-143450600D01*
X102985471Y-143398412D01*
X103029849Y-143354034D01*
X103050001Y-143305383D01*
X103050001Y-144066116D01*
X102970151Y-144145966D01*
X102875000Y-144375680D01*
X102875000Y-144624320D01*
X102970151Y-144854034D01*
X103066117Y-144950000D01*
X102681367Y-144950000D01*
X102681367Y-144500000D01*
X102656143Y-144373191D01*
X102584312Y-144265688D01*
X102476809Y-144193857D01*
X102350000Y-144168633D01*
X100950000Y-144168633D01*
X100823191Y-144193857D01*
X100715688Y-144265688D01*
X100643857Y-144373191D01*
X100618633Y-144500000D01*
X100618633Y-146275000D01*
X99381367Y-146275000D01*
X99381367Y-144500000D01*
X99356143Y-144373191D01*
X99284312Y-144265688D01*
X99176809Y-144193857D01*
X99050000Y-144168633D01*
X97650000Y-144168633D01*
X97523191Y-144193857D01*
X97415688Y-144265688D01*
X97343857Y-144373191D01*
X97318633Y-144500000D01*
X97318633Y-146275000D01*
X96762241Y-146275000D01*
X96775867Y-146206500D01*
X96775867Y-145317500D01*
X96750643Y-145190691D01*
X96678812Y-145083188D01*
X96571309Y-145011357D01*
X96514214Y-145000000D01*
X96571309Y-144988643D01*
X96678812Y-144916812D01*
X96750643Y-144809309D01*
X96775867Y-144682500D01*
X96775867Y-144346016D01*
X97496884Y-143625000D01*
X98586732Y-143625000D01*
X98622688Y-143678812D01*
X98730191Y-143750643D01*
X98857000Y-143775867D01*
X99619000Y-143775867D01*
X99745809Y-143750643D01*
X99853312Y-143678812D01*
X99925143Y-143571309D01*
X99950367Y-143444500D01*
X99950367Y-142555500D01*
X99925143Y-142428691D01*
X99853312Y-142321188D01*
X99745809Y-142249357D01*
X99619000Y-142224133D01*
X98857000Y-142224133D01*
X98730191Y-142249357D01*
X98622688Y-142321188D01*
X98586732Y-142375000D01*
X97299553Y-142375000D01*
X97237999Y-142362756D01*
X97176445Y-142375000D01*
X96994137Y-142411263D01*
X96787400Y-142549400D01*
X96752531Y-142601585D01*
X95891984Y-143462133D01*
X95555500Y-143462133D01*
X95428691Y-143487357D01*
X95321188Y-143559188D01*
X95249357Y-143666691D01*
X95224133Y-143793500D01*
X95224133Y-144682500D01*
X95249357Y-144809309D01*
X95321188Y-144916812D01*
X95428691Y-144988643D01*
X95485786Y-145000000D01*
X95428691Y-145011357D01*
X95321188Y-145083188D01*
X95249357Y-145190691D01*
X95224133Y-145317500D01*
X95224133Y-146206500D01*
X95237759Y-146275000D01*
X92361395Y-146275000D01*
X97318633Y-141317763D01*
X97318633Y-141500000D01*
X97343857Y-141626809D01*
X97415688Y-141734312D01*
X97523191Y-141806143D01*
X97650000Y-141831367D01*
X99050000Y-141831367D01*
X99176809Y-141806143D01*
X99284312Y-141734312D01*
X99356143Y-141626809D01*
X99381367Y-141500000D01*
X99381367Y-139700000D01*
X99356143Y-139573191D01*
X99284312Y-139465688D01*
X99176809Y-139393857D01*
X99050000Y-139368633D01*
X97650000Y-139368633D01*
X97523191Y-139393857D01*
X97415688Y-139465688D01*
X97343857Y-139573191D01*
X97318633Y-139700000D01*
X97318633Y-140157369D01*
X97224419Y-140176109D01*
X97075568Y-140275568D01*
X97050463Y-140313141D01*
X91813605Y-145550000D01*
X82681367Y-145550000D01*
X82681367Y-144500000D01*
X82656143Y-144373191D01*
X82584312Y-144265688D01*
X82476809Y-144193857D01*
X82350000Y-144168633D01*
X80950000Y-144168633D01*
X80823191Y-144193857D01*
X80715688Y-144265688D01*
X80643857Y-144373191D01*
X80618633Y-144500000D01*
X80618633Y-146275000D01*
X79381367Y-146275000D01*
X79381367Y-144500000D01*
X79356143Y-144373191D01*
X79284312Y-144265688D01*
X79176809Y-144193857D01*
X79050000Y-144168633D01*
X77650000Y-144168633D01*
X77523191Y-144193857D01*
X77415688Y-144265688D01*
X77343857Y-144373191D01*
X77318633Y-144500000D01*
X77318633Y-146275000D01*
X76725000Y-146275000D01*
X76725000Y-145609687D01*
X76750643Y-145571309D01*
X76775867Y-145444500D01*
X76775867Y-144555500D01*
X76750643Y-144428691D01*
X76678812Y-144321188D01*
X76571309Y-144249357D01*
X76514214Y-144238000D01*
X76571309Y-144226643D01*
X76678812Y-144154812D01*
X76750643Y-144047309D01*
X76775867Y-143920500D01*
X76775867Y-143625000D01*
X78348732Y-143625000D01*
X78384688Y-143678812D01*
X78492191Y-143750643D01*
X78619000Y-143775867D01*
X79381000Y-143775867D01*
X79507809Y-143750643D01*
X79615312Y-143678812D01*
X79687143Y-143571309D01*
X79712367Y-143444500D01*
X79712367Y-142555500D01*
X79811633Y-142555500D01*
X79811633Y-143444500D01*
X79836857Y-143571309D01*
X79908688Y-143678812D01*
X80016191Y-143750643D01*
X80143000Y-143775867D01*
X80905000Y-143775867D01*
X81031809Y-143750643D01*
X81139312Y-143678812D01*
X81175268Y-143625000D01*
X82124320Y-143625000D01*
X82182306Y-143600981D01*
X82243863Y-143588737D01*
X82296050Y-143553867D01*
X82354034Y-143529849D01*
X82398412Y-143485471D01*
X82450600Y-143450600D01*
X82485471Y-143398412D01*
X82529849Y-143354034D01*
X82553867Y-143296050D01*
X82588737Y-143243863D01*
X82600981Y-143182306D01*
X82625000Y-143124320D01*
X82625000Y-143061555D01*
X82637244Y-143000000D01*
X82625000Y-142938445D01*
X82625000Y-142875680D01*
X82600981Y-142817694D01*
X82588737Y-142756137D01*
X82553867Y-142703950D01*
X82529849Y-142645966D01*
X82485471Y-142601588D01*
X82450600Y-142549400D01*
X82398412Y-142514529D01*
X82354034Y-142470151D01*
X82296050Y-142446133D01*
X82243863Y-142411263D01*
X82182306Y-142399019D01*
X82124320Y-142375000D01*
X81175268Y-142375000D01*
X81139312Y-142321188D01*
X81031809Y-142249357D01*
X80905000Y-142224133D01*
X80143000Y-142224133D01*
X80016191Y-142249357D01*
X79908688Y-142321188D01*
X79836857Y-142428691D01*
X79811633Y-142555500D01*
X79712367Y-142555500D01*
X79687143Y-142428691D01*
X79615312Y-142321188D01*
X79507809Y-142249357D01*
X79381000Y-142224133D01*
X78619000Y-142224133D01*
X78492191Y-142249357D01*
X78384688Y-142321188D01*
X78348732Y-142375000D01*
X76561555Y-142375000D01*
X76500000Y-142362756D01*
X76438445Y-142375000D01*
X76256137Y-142411263D01*
X76206836Y-142444205D01*
X76533947Y-142117094D01*
X87575000Y-142117094D01*
X87575000Y-142882906D01*
X87868064Y-143590425D01*
X88409575Y-144131936D01*
X89117094Y-144425000D01*
X89882906Y-144425000D01*
X90590425Y-144131936D01*
X91131936Y-143590425D01*
X91425000Y-142882906D01*
X91425000Y-142117094D01*
X91131936Y-141409575D01*
X90590425Y-140868064D01*
X89882906Y-140575000D01*
X89117094Y-140575000D01*
X88409575Y-140868064D01*
X87868064Y-141409575D01*
X87575000Y-142117094D01*
X76533947Y-142117094D01*
X77318633Y-141332408D01*
X77318633Y-141500000D01*
X77343857Y-141626809D01*
X77415688Y-141734312D01*
X77523191Y-141806143D01*
X77650000Y-141831367D01*
X79050000Y-141831367D01*
X79176809Y-141806143D01*
X79284312Y-141734312D01*
X79356143Y-141626809D01*
X79381367Y-141500000D01*
X79381367Y-139700000D01*
X79356143Y-139573191D01*
X79284312Y-139465688D01*
X79176809Y-139393857D01*
X79050000Y-139368633D01*
X77650000Y-139368633D01*
X77523191Y-139393857D01*
X77415688Y-139465688D01*
X77343857Y-139573191D01*
X77318633Y-139700000D01*
X77318633Y-140192804D01*
X77284173Y-140199659D01*
X77143592Y-140293592D01*
X77119881Y-140329078D01*
X72473960Y-144975000D01*
X62681367Y-144975000D01*
X62681367Y-144500000D01*
X62656143Y-144373191D01*
X62584312Y-144265688D01*
X62476809Y-144193857D01*
X62350000Y-144168633D01*
X60950000Y-144168633D01*
X60823191Y-144193857D01*
X60715688Y-144265688D01*
X60643857Y-144373191D01*
X60618633Y-144500000D01*
X60618633Y-146275000D01*
X59800304Y-146275000D01*
X59381367Y-145856063D01*
X59381367Y-144500000D01*
X59356143Y-144373191D01*
X59284312Y-144265688D01*
X59176809Y-144193857D01*
X59050000Y-144168633D01*
X57650000Y-144168633D01*
X57523191Y-144193857D01*
X57415688Y-144265688D01*
X57343857Y-144373191D01*
X57318633Y-144500000D01*
X57318633Y-145037000D01*
X56609687Y-145037000D01*
X56571309Y-145011357D01*
X56514214Y-145000000D01*
X56571309Y-144988643D01*
X56678812Y-144916812D01*
X56750643Y-144809309D01*
X56775867Y-144682500D01*
X56775867Y-144346016D01*
X57496884Y-143625000D01*
X58586732Y-143625000D01*
X58622688Y-143678812D01*
X58730191Y-143750643D01*
X58857000Y-143775867D01*
X59619000Y-143775867D01*
X59745809Y-143750643D01*
X59853312Y-143678812D01*
X59925143Y-143571309D01*
X59950367Y-143444500D01*
X59950367Y-142555500D01*
X60049633Y-142555500D01*
X60049633Y-143444500D01*
X60074857Y-143571309D01*
X60146688Y-143678812D01*
X60254191Y-143750643D01*
X60381000Y-143775867D01*
X61143000Y-143775867D01*
X61269809Y-143750643D01*
X61377312Y-143678812D01*
X61413268Y-143625000D01*
X72624320Y-143625000D01*
X72682306Y-143600981D01*
X72743863Y-143588737D01*
X72796050Y-143553867D01*
X72854034Y-143529849D01*
X72898412Y-143485471D01*
X72950600Y-143450600D01*
X72985471Y-143398412D01*
X73029849Y-143354034D01*
X73053867Y-143296050D01*
X73088737Y-143243863D01*
X73100981Y-143182306D01*
X73125000Y-143124320D01*
X73125000Y-143061555D01*
X73137244Y-143000000D01*
X73125000Y-142938445D01*
X73125000Y-142875680D01*
X73100981Y-142817694D01*
X73088737Y-142756137D01*
X73053867Y-142703950D01*
X73029849Y-142645966D01*
X72985471Y-142601588D01*
X72950600Y-142549400D01*
X72898412Y-142514529D01*
X72854034Y-142470151D01*
X72796050Y-142446133D01*
X72743863Y-142411263D01*
X72682306Y-142399019D01*
X72624320Y-142375000D01*
X61413268Y-142375000D01*
X61377312Y-142321188D01*
X61269809Y-142249357D01*
X61143000Y-142224133D01*
X60381000Y-142224133D01*
X60254191Y-142249357D01*
X60146688Y-142321188D01*
X60074857Y-142428691D01*
X60049633Y-142555500D01*
X59950367Y-142555500D01*
X59925143Y-142428691D01*
X59853312Y-142321188D01*
X59745809Y-142249357D01*
X59619000Y-142224133D01*
X58857000Y-142224133D01*
X58730191Y-142249357D01*
X58622688Y-142321188D01*
X58586732Y-142375000D01*
X57299553Y-142375000D01*
X57237999Y-142362756D01*
X57176445Y-142375000D01*
X56994137Y-142411263D01*
X56787400Y-142549400D01*
X56752531Y-142601585D01*
X55891984Y-143462133D01*
X55555500Y-143462133D01*
X55428691Y-143487357D01*
X55321188Y-143559188D01*
X55249357Y-143666691D01*
X55225000Y-143789141D01*
X55225000Y-141405900D01*
X55239202Y-141334500D01*
X55225000Y-141263100D01*
X55225000Y-141263096D01*
X55182935Y-141051619D01*
X55175963Y-141041185D01*
X55063142Y-140872337D01*
X55063138Y-140872333D01*
X55022694Y-140811805D01*
X54962166Y-140771361D01*
X54830337Y-140639532D01*
X55005195Y-140522695D01*
X55045643Y-140462161D01*
X55200161Y-140307642D01*
X55260694Y-140267195D01*
X55420935Y-140027381D01*
X55463000Y-139815904D01*
X55463000Y-139815900D01*
X55477202Y-139744500D01*
X55463000Y-139673100D01*
X55463000Y-139109687D01*
X55488643Y-139071309D01*
X55513867Y-138944500D01*
X55513867Y-138055500D01*
X55488643Y-137928691D01*
X55416812Y-137821188D01*
X55309309Y-137749357D01*
X55182500Y-137724133D01*
X54293500Y-137724133D01*
X54166691Y-137749357D01*
X54059188Y-137821188D01*
X53987357Y-137928691D01*
X53962133Y-138055500D01*
X53962133Y-138944500D01*
X53987357Y-139071309D01*
X54013001Y-139109687D01*
X54013000Y-139275000D01*
X53236900Y-139275000D01*
X53165500Y-139260798D01*
X53156867Y-139262515D01*
X53156867Y-139134500D01*
X53131643Y-139007691D01*
X53059812Y-138900188D01*
X52952309Y-138828357D01*
X52825500Y-138803133D01*
X51467260Y-138803133D01*
X52820394Y-137450000D01*
X57463227Y-137450000D01*
X57487357Y-137571309D01*
X57559188Y-137678812D01*
X57666691Y-137750643D01*
X57793500Y-137775867D01*
X57900001Y-137775867D01*
X57900000Y-139368633D01*
X57650000Y-139368633D01*
X57523191Y-139393857D01*
X57415688Y-139465688D01*
X57343857Y-139573191D01*
X57318633Y-139700000D01*
X57318633Y-141500000D01*
X57343857Y-141626809D01*
X57415688Y-141734312D01*
X57523191Y-141806143D01*
X57650000Y-141831367D01*
X59050000Y-141831367D01*
X59176809Y-141806143D01*
X59284312Y-141734312D01*
X59356143Y-141626809D01*
X59381367Y-141500000D01*
X59381367Y-141139691D01*
X59470151Y-141354034D01*
X59645966Y-141529849D01*
X59875680Y-141625000D01*
X60124320Y-141625000D01*
X60354034Y-141529849D01*
X60529849Y-141354034D01*
X60625000Y-141124320D01*
X60625000Y-140875680D01*
X63875000Y-140875680D01*
X63875000Y-141124320D01*
X63970151Y-141354034D01*
X64145966Y-141529849D01*
X64375680Y-141625000D01*
X64488604Y-141625000D01*
X64650461Y-141786857D01*
X64675568Y-141824432D01*
X64824419Y-141923891D01*
X64955679Y-141950000D01*
X64955680Y-141950000D01*
X65000000Y-141958816D01*
X65044320Y-141950000D01*
X74066111Y-141950000D01*
X74145966Y-142029855D01*
X74375680Y-142125006D01*
X74624320Y-142125006D01*
X74854034Y-142029855D01*
X75029849Y-141854040D01*
X75125000Y-141624326D01*
X75125000Y-141375686D01*
X75029849Y-141145972D01*
X74854034Y-140970157D01*
X74624320Y-140875006D01*
X74375680Y-140875006D01*
X74145966Y-140970157D01*
X74066123Y-141050000D01*
X65186396Y-141050000D01*
X65125000Y-140988604D01*
X65125000Y-140875680D01*
X65029849Y-140645966D01*
X64854034Y-140470151D01*
X64624320Y-140375000D01*
X64375680Y-140375000D01*
X64145966Y-140470151D01*
X63970151Y-140645966D01*
X63875000Y-140875680D01*
X60625000Y-140875680D01*
X60529849Y-140645966D01*
X60450000Y-140566117D01*
X60450000Y-140262131D01*
X61000132Y-139712000D01*
X67225227Y-139712000D01*
X67249357Y-139833309D01*
X67321188Y-139940812D01*
X67428691Y-140012643D01*
X67555500Y-140037867D01*
X68444500Y-140037867D01*
X68571309Y-140012643D01*
X68678812Y-139940812D01*
X68750643Y-139833309D01*
X68775867Y-139706500D01*
X68775867Y-139122529D01*
X69303133Y-138595264D01*
X69303133Y-140095500D01*
X69328357Y-140222309D01*
X69400188Y-140329812D01*
X69507691Y-140401643D01*
X69634500Y-140426867D01*
X71285500Y-140426867D01*
X71412309Y-140401643D01*
X71519812Y-140329812D01*
X71591643Y-140222309D01*
X71616867Y-140095500D01*
X71616867Y-138450000D01*
X72192947Y-138450000D01*
X72024653Y-138618294D01*
X71849500Y-139041151D01*
X71849500Y-139498849D01*
X72024653Y-139921706D01*
X72348294Y-140245347D01*
X72771151Y-140420500D01*
X73228849Y-140420500D01*
X73651706Y-140245347D01*
X73975347Y-139921706D01*
X74150500Y-139498849D01*
X74150500Y-139041151D01*
X73975347Y-138618294D01*
X73807053Y-138450000D01*
X74083605Y-138450000D01*
X74427642Y-138794038D01*
X74427645Y-138794040D01*
X74473049Y-138839445D01*
X74389500Y-139041151D01*
X74389500Y-139498849D01*
X74564653Y-139921706D01*
X74888294Y-140245347D01*
X75311151Y-140420500D01*
X75768849Y-140420500D01*
X76191706Y-140245347D01*
X76515347Y-139921706D01*
X76690500Y-139498849D01*
X76690500Y-139041151D01*
X76515347Y-138618294D01*
X76191706Y-138294653D01*
X75768849Y-138119500D01*
X75311151Y-138119500D01*
X75109445Y-138203049D01*
X75064040Y-138157645D01*
X75064038Y-138157642D01*
X74619540Y-137713145D01*
X74594432Y-137675568D01*
X74445581Y-137576109D01*
X74314321Y-137550000D01*
X74314320Y-137550000D01*
X74270000Y-137541184D01*
X74225680Y-137550000D01*
X73807053Y-137550000D01*
X73975347Y-137381706D01*
X74150500Y-136958849D01*
X74150500Y-136501151D01*
X73975347Y-136078294D01*
X73876552Y-135979499D01*
X88224133Y-135979499D01*
X88224133Y-136682500D01*
X88249357Y-136809309D01*
X88321188Y-136916812D01*
X88428691Y-136988643D01*
X88485786Y-137000000D01*
X88428691Y-137011357D01*
X88321188Y-137083188D01*
X88249357Y-137190691D01*
X88224133Y-137317500D01*
X88224133Y-138206500D01*
X88249357Y-138333309D01*
X88321188Y-138440812D01*
X88428691Y-138512643D01*
X88555500Y-138537867D01*
X89444500Y-138537867D01*
X89571309Y-138512643D01*
X89678812Y-138440812D01*
X89750643Y-138333309D01*
X89775867Y-138206500D01*
X89775867Y-138204631D01*
X89870081Y-138185891D01*
X90018932Y-138086432D01*
X90044040Y-138048855D01*
X90073396Y-138019499D01*
X90602112Y-138019499D01*
X90533416Y-138065400D01*
X90498545Y-138117588D01*
X90401584Y-138214550D01*
X90145968Y-138470166D01*
X90145966Y-138470167D01*
X89970151Y-138645982D01*
X89946131Y-138703970D01*
X89911263Y-138756154D01*
X89899019Y-138817709D01*
X89875000Y-138875696D01*
X89875000Y-138938461D01*
X89862756Y-139000016D01*
X89875000Y-139061571D01*
X89875000Y-139124336D01*
X89899019Y-139182323D01*
X89911263Y-139243878D01*
X89946132Y-139296062D01*
X89970151Y-139354050D01*
X90014534Y-139398433D01*
X90049401Y-139450615D01*
X90101583Y-139485482D01*
X90145966Y-139529865D01*
X90203954Y-139553884D01*
X90256138Y-139588753D01*
X90317693Y-139600997D01*
X90375680Y-139625016D01*
X90438445Y-139625016D01*
X90500000Y-139637260D01*
X90561555Y-139625016D01*
X90624320Y-139625016D01*
X90682307Y-139600997D01*
X90743862Y-139588753D01*
X90796046Y-139553885D01*
X90854034Y-139529865D01*
X91029849Y-139354050D01*
X91029850Y-139354048D01*
X91242898Y-139141000D01*
X92671275Y-139141000D01*
X92685857Y-139214309D01*
X92757688Y-139321812D01*
X92865191Y-139393643D01*
X92992000Y-139418867D01*
X94008000Y-139418867D01*
X94134809Y-139393643D01*
X94242312Y-139321812D01*
X94314143Y-139214309D01*
X94339367Y-139087500D01*
X94339367Y-137944500D01*
X94314143Y-137817691D01*
X94242312Y-137710188D01*
X94134809Y-137638357D01*
X94008000Y-137613133D01*
X93959762Y-137613133D01*
X94186028Y-137386867D01*
X94897000Y-137386867D01*
X95023809Y-137361643D01*
X95131312Y-137289812D01*
X95203143Y-137182309D01*
X95228367Y-137055500D01*
X95228367Y-135912500D01*
X95203143Y-135785691D01*
X95131312Y-135678188D01*
X95125793Y-135674500D01*
X98763133Y-135674500D01*
X98763133Y-137325500D01*
X98788357Y-137452309D01*
X98860188Y-137559812D01*
X98967691Y-137631643D01*
X99094500Y-137656867D01*
X100745500Y-137656867D01*
X100872309Y-137631643D01*
X100979812Y-137559812D01*
X101051643Y-137452309D01*
X101076867Y-137325500D01*
X101076867Y-135674500D01*
X101051643Y-135547691D01*
X100979812Y-135440188D01*
X100872309Y-135368357D01*
X100745500Y-135343133D01*
X99094500Y-135343133D01*
X98967691Y-135368357D01*
X98860188Y-135440188D01*
X98788357Y-135547691D01*
X98763133Y-135674500D01*
X95125793Y-135674500D01*
X95023809Y-135606357D01*
X94897000Y-135581133D01*
X93881000Y-135581133D01*
X93754191Y-135606357D01*
X93646688Y-135678188D01*
X93574857Y-135785691D01*
X93549633Y-135912500D01*
X93549633Y-136750472D01*
X93180606Y-137119499D01*
X89931323Y-137119499D01*
X89887001Y-137110683D01*
X89719452Y-137144010D01*
X89678812Y-137083188D01*
X89571309Y-137011357D01*
X89514214Y-137000000D01*
X89571309Y-136988643D01*
X89678812Y-136916812D01*
X89750643Y-136809309D01*
X89775867Y-136682500D01*
X89775867Y-135793500D01*
X89750643Y-135666691D01*
X89678812Y-135559188D01*
X89571309Y-135487357D01*
X89444500Y-135462133D01*
X89098529Y-135462133D01*
X88936395Y-135300000D01*
X149700001Y-135300000D01*
X149700000Y-149700000D01*
X149700000Y-149700000D01*
G37*
X149700000Y-149700000D02*
X50300000Y-149700000D01*
X50300000Y-144484112D01*
X50309567Y-144498430D01*
X50347141Y-144523536D01*
X50849500Y-145025896D01*
X50849500Y-145268849D01*
X51024653Y-145691706D01*
X51348294Y-146015347D01*
X51771151Y-146190500D01*
X52228849Y-146190500D01*
X52651706Y-146015347D01*
X52975347Y-145691706D01*
X53150500Y-145268849D01*
X53150500Y-144811151D01*
X52975347Y-144388294D01*
X52651706Y-144064653D01*
X52228849Y-143889500D01*
X51771151Y-143889500D01*
X51348294Y-144064653D01*
X51254671Y-144158276D01*
X51083998Y-143987603D01*
X51083998Y-141098865D01*
X51174500Y-141116867D01*
X51678106Y-141116867D01*
X51717119Y-141142935D01*
X52000000Y-141199203D01*
X52282880Y-141142935D01*
X52321893Y-141116867D01*
X52825500Y-141116867D01*
X52952309Y-141091643D01*
X53059812Y-141019812D01*
X53099945Y-140959749D01*
X53775000Y-141634805D01*
X53775001Y-144725595D01*
X53775000Y-144725599D01*
X53775000Y-145435100D01*
X53760798Y-145506500D01*
X53775000Y-145577900D01*
X53775000Y-145577903D01*
X53802386Y-145715581D01*
X53817065Y-145789380D01*
X53933671Y-145963891D01*
X53977305Y-146029194D01*
X54037837Y-146069641D01*
X54192356Y-146224159D01*
X54232805Y-146284695D01*
X54472619Y-146444935D01*
X54684096Y-146487000D01*
X54684100Y-146487000D01*
X54755500Y-146501202D01*
X54826900Y-146487000D01*
X55390313Y-146487000D01*
X55428691Y-146512643D01*
X55555500Y-146537867D01*
X56078250Y-146537867D01*
X55970151Y-146645966D01*
X55875000Y-146875680D01*
X55875000Y-147124320D01*
X55970151Y-147354034D01*
X56050000Y-147433883D01*
X56050001Y-148455675D01*
X56041184Y-148500000D01*
X56066049Y-148625000D01*
X56076110Y-148675581D01*
X56175569Y-148824432D01*
X56213143Y-148849538D01*
X56450460Y-149086856D01*
X56475567Y-149124431D01*
X56624418Y-149223890D01*
X56755678Y-149249999D01*
X56755679Y-149249999D01*
X56799999Y-149258815D01*
X56844319Y-149249999D01*
X108655681Y-149249999D01*
X108700001Y-149258815D01*
X108744321Y-149249999D01*
X108744322Y-149249999D01*
X108875582Y-149223890D01*
X109024433Y-149124431D01*
X109049541Y-149086854D01*
X109511396Y-148625000D01*
X109624320Y-148625000D01*
X109854034Y-148529849D01*
X110029849Y-148354034D01*
X110125000Y-148124320D01*
X110125000Y-147875680D01*
X110062586Y-147725000D01*
X115928596Y-147725000D01*
X116000000Y-147739203D01*
X116071404Y-147725000D01*
X118428596Y-147725000D01*
X118500000Y-147739203D01*
X118571404Y-147725000D01*
X135895918Y-147725000D01*
X136000000Y-147745703D01*
X136104082Y-147725000D01*
X138178596Y-147725000D01*
X138250000Y-147739203D01*
X138321404Y-147725000D01*
X143334604Y-147725000D01*
X143406004Y-147739202D01*
X143477404Y-147725000D01*
X143477408Y-147725000D01*
X143688885Y-147682935D01*
X143928699Y-147522695D01*
X143969146Y-147462162D01*
X144912163Y-146519146D01*
X144972694Y-146478700D01*
X145075774Y-146324432D01*
X145132934Y-146238886D01*
X145149826Y-146153962D01*
X145174999Y-146027409D01*
X145174999Y-146027405D01*
X145189201Y-145956005D01*
X145174999Y-145884605D01*
X145174999Y-144811151D01*
X146849500Y-144811151D01*
X146849500Y-145268849D01*
X147024653Y-145691706D01*
X147348294Y-146015347D01*
X147771151Y-146190500D01*
X148228849Y-146190500D01*
X148651706Y-146015347D01*
X148975347Y-145691706D01*
X149150500Y-145268849D01*
X149150500Y-144811151D01*
X148975347Y-144388294D01*
X148651706Y-144064653D01*
X148228849Y-143889500D01*
X147771151Y-143889500D01*
X147348294Y-144064653D01*
X147024653Y-144388294D01*
X146849500Y-144811151D01*
X145174999Y-144811151D01*
X145174999Y-143444301D01*
X147434301Y-141185000D01*
X147928596Y-141185000D01*
X148000000Y-141199203D01*
X148282881Y-141142935D01*
X148321894Y-141116867D01*
X148825500Y-141116867D01*
X148952309Y-141091643D01*
X149059812Y-141019812D01*
X149131643Y-140912309D01*
X149156867Y-140785500D01*
X149156867Y-139134500D01*
X149131643Y-139007691D01*
X149059812Y-138900188D01*
X148952309Y-138828357D01*
X148825500Y-138803133D01*
X148732963Y-138803133D01*
X148725000Y-138763100D01*
X148725000Y-138763096D01*
X148682935Y-138551619D01*
X148663608Y-138522695D01*
X148563142Y-138372338D01*
X148563140Y-138372336D01*
X148522694Y-138311805D01*
X148462163Y-138271359D01*
X146228643Y-136037839D01*
X146188195Y-135977305D01*
X145948381Y-135817065D01*
X145736904Y-135775000D01*
X145736900Y-135775000D01*
X145665500Y-135760798D01*
X145594100Y-135775000D01*
X143350900Y-135775000D01*
X143279500Y-135760798D01*
X143208100Y-135775000D01*
X123926867Y-135775000D01*
X123926867Y-135674500D01*
X123901643Y-135547691D01*
X123829812Y-135440188D01*
X123722309Y-135368357D01*
X123595500Y-135343133D01*
X121944500Y-135343133D01*
X121817691Y-135368357D01*
X121710188Y-135440188D01*
X121638357Y-135547691D01*
X121613133Y-135674500D01*
X121613133Y-137325500D01*
X121638357Y-137452309D01*
X121710188Y-137559812D01*
X121817691Y-137631643D01*
X121944500Y-137656867D01*
X123595500Y-137656867D01*
X123722309Y-137631643D01*
X123829812Y-137559812D01*
X123901643Y-137452309D01*
X123926867Y-137325500D01*
X123926867Y-137225000D01*
X142299000Y-137225000D01*
X142299001Y-137390313D01*
X142273357Y-137428691D01*
X142248133Y-137555500D01*
X142248133Y-138444500D01*
X142273357Y-138571309D01*
X142345188Y-138678812D01*
X142452691Y-138750643D01*
X142579500Y-138775867D01*
X143468500Y-138775867D01*
X143595309Y-138750643D01*
X143702812Y-138678812D01*
X143774643Y-138571309D01*
X143799867Y-138444500D01*
X143799867Y-137555500D01*
X143774643Y-137428691D01*
X143749000Y-137390313D01*
X143749000Y-137225000D01*
X145365196Y-137225000D01*
X147000251Y-138860055D01*
X146940188Y-138900188D01*
X146868357Y-139007691D01*
X146843133Y-139134500D01*
X146843133Y-139782398D01*
X146671833Y-139896858D01*
X146671832Y-139896859D01*
X146611301Y-139937305D01*
X146570855Y-139997836D01*
X143987835Y-142580857D01*
X143927304Y-142621303D01*
X143886858Y-142681834D01*
X143886857Y-142681835D01*
X143850592Y-142736109D01*
X143767064Y-142861117D01*
X143724999Y-143072594D01*
X143724999Y-143072597D01*
X143710797Y-143143997D01*
X143724999Y-143215397D01*
X143725000Y-144916704D01*
X143624318Y-144875000D01*
X143375678Y-144875000D01*
X143194613Y-144950000D01*
X142681367Y-144950000D01*
X142681367Y-144500000D01*
X142656143Y-144373191D01*
X142584312Y-144265688D01*
X142476809Y-144193857D01*
X142350000Y-144168633D01*
X140950000Y-144168633D01*
X140823191Y-144193857D01*
X140715688Y-144265688D01*
X140643857Y-144373191D01*
X140618633Y-144500000D01*
X140618633Y-146275000D01*
X139381367Y-146275000D01*
X139381367Y-144500000D01*
X139356143Y-144373191D01*
X139284312Y-144265688D01*
X139176809Y-144193857D01*
X139050000Y-144168633D01*
X137650000Y-144168633D01*
X137523191Y-144193857D01*
X137415688Y-144265688D01*
X137343857Y-144373191D01*
X137318633Y-144500000D01*
X137318633Y-146275000D01*
X136762241Y-146275000D01*
X136775867Y-146206500D01*
X136775867Y-145317500D01*
X136750643Y-145190691D01*
X136678812Y-145083188D01*
X136571309Y-145011357D01*
X136514214Y-145000000D01*
X136571309Y-144988643D01*
X136678812Y-144916812D01*
X136750643Y-144809309D01*
X136775867Y-144682500D01*
X136775867Y-144346016D01*
X137496884Y-143625000D01*
X138586732Y-143625000D01*
X138622688Y-143678812D01*
X138730191Y-143750643D01*
X138857000Y-143775867D01*
X139619000Y-143775867D01*
X139745809Y-143750643D01*
X139853312Y-143678812D01*
X139925143Y-143571309D01*
X139950367Y-143444500D01*
X139950367Y-142555500D01*
X140049633Y-142555500D01*
X140049633Y-143444500D01*
X140074857Y-143571309D01*
X140146688Y-143678812D01*
X140254191Y-143750643D01*
X140381000Y-143775867D01*
X141143000Y-143775867D01*
X141269809Y-143750643D01*
X141377312Y-143678812D01*
X141413268Y-143625000D01*
X142624320Y-143625000D01*
X142682306Y-143600981D01*
X142743863Y-143588737D01*
X142796050Y-143553867D01*
X142854034Y-143529849D01*
X142898412Y-143485471D01*
X142950600Y-143450600D01*
X142985471Y-143398412D01*
X143029849Y-143354034D01*
X143053867Y-143296050D01*
X143088737Y-143243863D01*
X143100981Y-143182306D01*
X143125000Y-143124320D01*
X143125000Y-143061555D01*
X143137244Y-143000000D01*
X143125000Y-142938445D01*
X143125000Y-142875680D01*
X143100981Y-142817694D01*
X143088737Y-142756137D01*
X143053867Y-142703950D01*
X143029849Y-142645966D01*
X142985471Y-142601588D01*
X142950600Y-142549400D01*
X142898412Y-142514529D01*
X142854034Y-142470151D01*
X142796050Y-142446133D01*
X142743863Y-142411263D01*
X142682306Y-142399019D01*
X142624320Y-142375000D01*
X141413268Y-142375000D01*
X141377312Y-142321188D01*
X141269809Y-142249357D01*
X141143000Y-142224133D01*
X140381000Y-142224133D01*
X140254191Y-142249357D01*
X140146688Y-142321188D01*
X140074857Y-142428691D01*
X140049633Y-142555500D01*
X139950367Y-142555500D01*
X139925143Y-142428691D01*
X139853312Y-142321188D01*
X139745809Y-142249357D01*
X139619000Y-142224133D01*
X138857000Y-142224133D01*
X138730191Y-142249357D01*
X138622688Y-142321188D01*
X138586732Y-142375000D01*
X137299553Y-142375000D01*
X137237999Y-142362756D01*
X137176445Y-142375000D01*
X136994137Y-142411263D01*
X136787400Y-142549400D01*
X136752531Y-142601585D01*
X135891984Y-143462133D01*
X135555500Y-143462133D01*
X135428691Y-143487357D01*
X135321188Y-143559188D01*
X135249357Y-143666691D01*
X135224133Y-143793500D01*
X135224133Y-144682500D01*
X135249357Y-144809309D01*
X135321188Y-144916812D01*
X135428691Y-144988643D01*
X135485786Y-145000000D01*
X135428691Y-145011357D01*
X135321188Y-145083188D01*
X135249357Y-145190691D01*
X135224133Y-145317500D01*
X135224133Y-146206500D01*
X135237759Y-146275000D01*
X122681367Y-146275000D01*
X122681367Y-144805028D01*
X125369302Y-142117094D01*
X128075000Y-142117094D01*
X128075000Y-142882906D01*
X128368064Y-143590425D01*
X128909575Y-144131936D01*
X129617094Y-144425000D01*
X130382906Y-144425000D01*
X131090425Y-144131936D01*
X131631936Y-143590425D01*
X131925000Y-142882906D01*
X131925000Y-142117094D01*
X131631936Y-141409575D01*
X131090425Y-140868064D01*
X130382906Y-140575000D01*
X129617094Y-140575000D01*
X128909575Y-140868064D01*
X128368064Y-141409575D01*
X128075000Y-142117094D01*
X125369302Y-142117094D01*
X127036397Y-140450000D01*
X137318633Y-140450000D01*
X137318633Y-141500000D01*
X137343857Y-141626809D01*
X137415688Y-141734312D01*
X137523191Y-141806143D01*
X137650000Y-141831367D01*
X139050000Y-141831367D01*
X139176809Y-141806143D01*
X139284312Y-141734312D01*
X139356143Y-141626809D01*
X139381367Y-141500000D01*
X139381367Y-139700000D01*
X139356143Y-139573191D01*
X139284312Y-139465688D01*
X139176809Y-139393857D01*
X139050000Y-139368633D01*
X137650000Y-139368633D01*
X137523191Y-139393857D01*
X137415688Y-139465688D01*
X137359353Y-139550000D01*
X126894322Y-139550000D01*
X126850000Y-139541184D01*
X126674418Y-139576109D01*
X126563141Y-139650462D01*
X126563140Y-139650463D01*
X126525568Y-139675568D01*
X126500464Y-139713139D01*
X123125000Y-143088604D01*
X123125000Y-143061555D01*
X123137244Y-143000000D01*
X123125000Y-142938445D01*
X123125000Y-142875680D01*
X123100981Y-142817694D01*
X123088737Y-142756137D01*
X123053867Y-142703950D01*
X123029849Y-142645966D01*
X122985471Y-142601588D01*
X122950600Y-142549400D01*
X122898412Y-142514529D01*
X122854034Y-142470151D01*
X122796050Y-142446133D01*
X122743863Y-142411263D01*
X122682306Y-142399019D01*
X122624320Y-142375000D01*
X121413268Y-142375000D01*
X121377312Y-142321188D01*
X121269809Y-142249357D01*
X121143000Y-142224133D01*
X120381000Y-142224133D01*
X120254191Y-142249357D01*
X120146688Y-142321188D01*
X120074857Y-142428691D01*
X120049633Y-142555500D01*
X120049633Y-143444500D01*
X120074857Y-143571309D01*
X120146688Y-143678812D01*
X120254191Y-143750643D01*
X120381000Y-143775867D01*
X121143000Y-143775867D01*
X121269809Y-143750643D01*
X121377312Y-143678812D01*
X121413268Y-143625000D01*
X122588605Y-143625000D01*
X122044972Y-144168633D01*
X120950000Y-144168633D01*
X120823191Y-144193857D01*
X120715688Y-144265688D01*
X120643857Y-144373191D01*
X120618633Y-144500000D01*
X120618633Y-146275000D01*
X119381367Y-146275000D01*
X119381367Y-144500000D01*
X119356143Y-144373191D01*
X119284312Y-144265688D01*
X119176809Y-144193857D01*
X119050000Y-144168633D01*
X117650000Y-144168633D01*
X117523191Y-144193857D01*
X117415688Y-144265688D01*
X117343857Y-144373191D01*
X117318633Y-144500000D01*
X117318633Y-146275000D01*
X116762241Y-146275000D01*
X116775867Y-146206500D01*
X116775867Y-145317500D01*
X116750643Y-145190691D01*
X116678812Y-145083188D01*
X116571309Y-145011357D01*
X116514214Y-145000000D01*
X116571309Y-144988643D01*
X116678812Y-144916812D01*
X116750643Y-144809309D01*
X116775867Y-144682500D01*
X116775867Y-144346016D01*
X117496884Y-143625000D01*
X118586732Y-143625000D01*
X118622688Y-143678812D01*
X118730191Y-143750643D01*
X118857000Y-143775867D01*
X119619000Y-143775867D01*
X119745809Y-143750643D01*
X119853312Y-143678812D01*
X119925143Y-143571309D01*
X119950367Y-143444500D01*
X119950367Y-142555500D01*
X119925143Y-142428691D01*
X119853312Y-142321188D01*
X119745809Y-142249357D01*
X119619000Y-142224133D01*
X118857000Y-142224133D01*
X118730191Y-142249357D01*
X118622688Y-142321188D01*
X118586732Y-142375000D01*
X117299553Y-142375000D01*
X117237999Y-142362756D01*
X117176445Y-142375000D01*
X116994137Y-142411263D01*
X116787400Y-142549400D01*
X116752531Y-142601585D01*
X115891984Y-143462133D01*
X115555500Y-143462133D01*
X115428691Y-143487357D01*
X115321188Y-143559188D01*
X115249357Y-143666691D01*
X115224133Y-143793500D01*
X115224133Y-144682500D01*
X115249357Y-144809309D01*
X115321188Y-144916812D01*
X115428691Y-144988643D01*
X115485786Y-145000000D01*
X115428691Y-145011357D01*
X115321188Y-145083188D01*
X115249357Y-145190691D01*
X115224133Y-145317500D01*
X115224133Y-146206500D01*
X115237759Y-146275000D01*
X102681367Y-146275000D01*
X102681367Y-145850000D01*
X112555680Y-145850000D01*
X112600000Y-145858816D01*
X112644320Y-145850000D01*
X112644321Y-145850000D01*
X112775581Y-145823891D01*
X112924432Y-145724432D01*
X112949540Y-145686855D01*
X117318633Y-141317763D01*
X117318633Y-141500000D01*
X117343857Y-141626809D01*
X117415688Y-141734312D01*
X117523191Y-141806143D01*
X117650000Y-141831367D01*
X119050000Y-141831367D01*
X119176809Y-141806143D01*
X119284312Y-141734312D01*
X119356143Y-141626809D01*
X119381367Y-141500000D01*
X119381367Y-139700000D01*
X119356143Y-139573191D01*
X119284312Y-139465688D01*
X119176809Y-139393857D01*
X119050000Y-139368633D01*
X117650000Y-139368633D01*
X117523191Y-139393857D01*
X117415688Y-139465688D01*
X117343857Y-139573191D01*
X117318633Y-139700000D01*
X117318633Y-140157369D01*
X117224419Y-140176109D01*
X117075568Y-140275568D01*
X117050463Y-140313141D01*
X112413605Y-144950000D01*
X109933883Y-144950000D01*
X110029849Y-144854034D01*
X110063428Y-144772967D01*
X117269445Y-137566951D01*
X117471151Y-137650500D01*
X117928849Y-137650500D01*
X118351706Y-137475347D01*
X118675347Y-137151706D01*
X118850500Y-136728849D01*
X118850500Y-136271151D01*
X118675347Y-135848294D01*
X118351706Y-135524653D01*
X117928849Y-135349500D01*
X117471151Y-135349500D01*
X117048294Y-135524653D01*
X116724653Y-135848294D01*
X116549500Y-136271151D01*
X116549500Y-136728849D01*
X116633049Y-136930555D01*
X109669776Y-143893829D01*
X109624320Y-143875000D01*
X109375680Y-143875000D01*
X109145966Y-143970151D01*
X109000000Y-144116117D01*
X108950000Y-144066117D01*
X108950000Y-143346395D01*
X114729445Y-137566951D01*
X114931151Y-137650500D01*
X115388849Y-137650500D01*
X115811706Y-137475347D01*
X116135347Y-137151706D01*
X116310500Y-136728849D01*
X116310500Y-136271151D01*
X116135347Y-135848294D01*
X115811706Y-135524653D01*
X115388849Y-135349500D01*
X114931151Y-135349500D01*
X114508294Y-135524653D01*
X114184653Y-135848294D01*
X114009500Y-136271151D01*
X114009500Y-136728849D01*
X114093049Y-136930555D01*
X108213143Y-142810462D01*
X108175569Y-142835568D01*
X108150463Y-142873142D01*
X108076110Y-142984419D01*
X108041184Y-143160000D01*
X108050001Y-143204325D01*
X108050000Y-144066117D01*
X108000000Y-144116117D01*
X107950000Y-144066117D01*
X107950000Y-142186395D01*
X112349537Y-137786859D01*
X112349539Y-137786856D01*
X112485895Y-137650500D01*
X112848849Y-137650500D01*
X113271706Y-137475347D01*
X113595347Y-137151706D01*
X113770500Y-136728849D01*
X113770500Y-136271151D01*
X113595347Y-135848294D01*
X113271706Y-135524653D01*
X112848849Y-135349500D01*
X112391151Y-135349500D01*
X111968294Y-135524653D01*
X111644653Y-135848294D01*
X111469500Y-136271151D01*
X111469500Y-136728849D01*
X111644653Y-137151706D01*
X111678276Y-137185329D01*
X107213143Y-141650462D01*
X107175569Y-141675568D01*
X107150463Y-141713142D01*
X107076110Y-141824419D01*
X107041184Y-142000000D01*
X107050001Y-142044325D01*
X107050000Y-144066117D01*
X107000000Y-144116117D01*
X106950000Y-144066117D01*
X106950000Y-140686395D01*
X109849537Y-137786859D01*
X109849539Y-137786856D01*
X109985895Y-137650500D01*
X110308849Y-137650500D01*
X110731706Y-137475347D01*
X111055347Y-137151706D01*
X111230500Y-136728849D01*
X111230500Y-136271151D01*
X111055347Y-135848294D01*
X110731706Y-135524653D01*
X110308849Y-135349500D01*
X109851151Y-135349500D01*
X109428294Y-135524653D01*
X109104653Y-135848294D01*
X108929500Y-136271151D01*
X108929500Y-136728849D01*
X109104653Y-137151706D01*
X109158276Y-137205329D01*
X106213143Y-140150462D01*
X106175569Y-140175568D01*
X106103865Y-140282881D01*
X106076110Y-140324419D01*
X106041184Y-140500000D01*
X106050001Y-140544325D01*
X106050000Y-144066117D01*
X106000000Y-144116117D01*
X105950000Y-144066117D01*
X105950000Y-139226395D01*
X107525896Y-137650500D01*
X107768849Y-137650500D01*
X108191706Y-137475347D01*
X108515347Y-137151706D01*
X108690500Y-136728849D01*
X108690500Y-136271151D01*
X108515347Y-135848294D01*
X108191706Y-135524653D01*
X107768849Y-135349500D01*
X107311151Y-135349500D01*
X106888294Y-135524653D01*
X106564653Y-135848294D01*
X106389500Y-136271151D01*
X106389500Y-136728849D01*
X106564653Y-137151706D01*
X106658276Y-137245329D01*
X105213145Y-138690460D01*
X105175568Y-138715568D01*
X105076109Y-138864420D01*
X105055784Y-138966600D01*
X105041184Y-139040000D01*
X105050000Y-139084320D01*
X105050001Y-144066116D01*
X105000000Y-144116117D01*
X104950000Y-144066117D01*
X104950000Y-137686395D01*
X104985895Y-137650500D01*
X105228849Y-137650500D01*
X105651706Y-137475347D01*
X105975347Y-137151706D01*
X106150500Y-136728849D01*
X106150500Y-136271151D01*
X105975347Y-135848294D01*
X105651706Y-135524653D01*
X105228849Y-135349500D01*
X104771151Y-135349500D01*
X104348294Y-135524653D01*
X104024653Y-135848294D01*
X103849500Y-136271151D01*
X103849500Y-136728849D01*
X104024653Y-137151706D01*
X104124678Y-137251731D01*
X104076110Y-137324419D01*
X104041184Y-137500000D01*
X104050001Y-137544325D01*
X104050000Y-144066117D01*
X104000000Y-144116117D01*
X103950000Y-144066117D01*
X103950000Y-138084319D01*
X103958816Y-138039999D01*
X103946345Y-137977305D01*
X103923891Y-137864419D01*
X103824432Y-137715568D01*
X103786858Y-137690462D01*
X103341724Y-137245329D01*
X103435347Y-137151706D01*
X103610500Y-136728849D01*
X103610500Y-136271151D01*
X103435347Y-135848294D01*
X103111706Y-135524653D01*
X102688849Y-135349500D01*
X102231151Y-135349500D01*
X101808294Y-135524653D01*
X101484653Y-135848294D01*
X101309500Y-136271151D01*
X101309500Y-136728849D01*
X101484653Y-137151706D01*
X101808294Y-137475347D01*
X102231151Y-137650500D01*
X102474105Y-137650500D01*
X103050000Y-138226396D01*
X103050001Y-142694616D01*
X103029849Y-142645966D01*
X102985471Y-142601588D01*
X102950600Y-142549400D01*
X102898412Y-142514529D01*
X102854034Y-142470151D01*
X102796050Y-142446133D01*
X102743863Y-142411263D01*
X102682306Y-142399019D01*
X102624320Y-142375000D01*
X101413268Y-142375000D01*
X101377312Y-142321188D01*
X101269809Y-142249357D01*
X101143000Y-142224133D01*
X100381000Y-142224133D01*
X100254191Y-142249357D01*
X100146688Y-142321188D01*
X100074857Y-142428691D01*
X100049633Y-142555500D01*
X100049633Y-143444500D01*
X100074857Y-143571309D01*
X100146688Y-143678812D01*
X100254191Y-143750643D01*
X100381000Y-143775867D01*
X101143000Y-143775867D01*
X101269809Y-143750643D01*
X101377312Y-143678812D01*
X101413268Y-143625000D01*
X102624320Y-143625000D01*
X102682306Y-143600981D01*
X102743863Y-143588737D01*
X102796050Y-143553867D01*
X102854034Y-143529849D01*
X102898412Y-143485471D01*
X102950600Y-143450600D01*
X102985471Y-143398412D01*
X103029849Y-143354034D01*
X103050001Y-143305383D01*
X103050001Y-144066116D01*
X102970151Y-144145966D01*
X102875000Y-144375680D01*
X102875000Y-144624320D01*
X102970151Y-144854034D01*
X103066117Y-144950000D01*
X102681367Y-144950000D01*
X102681367Y-144500000D01*
X102656143Y-144373191D01*
X102584312Y-144265688D01*
X102476809Y-144193857D01*
X102350000Y-144168633D01*
X100950000Y-144168633D01*
X100823191Y-144193857D01*
X100715688Y-144265688D01*
X100643857Y-144373191D01*
X100618633Y-144500000D01*
X100618633Y-146275000D01*
X99381367Y-146275000D01*
X99381367Y-144500000D01*
X99356143Y-144373191D01*
X99284312Y-144265688D01*
X99176809Y-144193857D01*
X99050000Y-144168633D01*
X97650000Y-144168633D01*
X97523191Y-144193857D01*
X97415688Y-144265688D01*
X97343857Y-144373191D01*
X97318633Y-144500000D01*
X97318633Y-146275000D01*
X96762241Y-146275000D01*
X96775867Y-146206500D01*
X96775867Y-145317500D01*
X96750643Y-145190691D01*
X96678812Y-145083188D01*
X96571309Y-145011357D01*
X96514214Y-145000000D01*
X96571309Y-144988643D01*
X96678812Y-144916812D01*
X96750643Y-144809309D01*
X96775867Y-144682500D01*
X96775867Y-144346016D01*
X97496884Y-143625000D01*
X98586732Y-143625000D01*
X98622688Y-143678812D01*
X98730191Y-143750643D01*
X98857000Y-143775867D01*
X99619000Y-143775867D01*
X99745809Y-143750643D01*
X99853312Y-143678812D01*
X99925143Y-143571309D01*
X99950367Y-143444500D01*
X99950367Y-142555500D01*
X99925143Y-142428691D01*
X99853312Y-142321188D01*
X99745809Y-142249357D01*
X99619000Y-142224133D01*
X98857000Y-142224133D01*
X98730191Y-142249357D01*
X98622688Y-142321188D01*
X98586732Y-142375000D01*
X97299553Y-142375000D01*
X97237999Y-142362756D01*
X97176445Y-142375000D01*
X96994137Y-142411263D01*
X96787400Y-142549400D01*
X96752531Y-142601585D01*
X95891984Y-143462133D01*
X95555500Y-143462133D01*
X95428691Y-143487357D01*
X95321188Y-143559188D01*
X95249357Y-143666691D01*
X95224133Y-143793500D01*
X95224133Y-144682500D01*
X95249357Y-144809309D01*
X95321188Y-144916812D01*
X95428691Y-144988643D01*
X95485786Y-145000000D01*
X95428691Y-145011357D01*
X95321188Y-145083188D01*
X95249357Y-145190691D01*
X95224133Y-145317500D01*
X95224133Y-146206500D01*
X95237759Y-146275000D01*
X92361395Y-146275000D01*
X97318633Y-141317763D01*
X97318633Y-141500000D01*
X97343857Y-141626809D01*
X97415688Y-141734312D01*
X97523191Y-141806143D01*
X97650000Y-141831367D01*
X99050000Y-141831367D01*
X99176809Y-141806143D01*
X99284312Y-141734312D01*
X99356143Y-141626809D01*
X99381367Y-141500000D01*
X99381367Y-139700000D01*
X99356143Y-139573191D01*
X99284312Y-139465688D01*
X99176809Y-139393857D01*
X99050000Y-139368633D01*
X97650000Y-139368633D01*
X97523191Y-139393857D01*
X97415688Y-139465688D01*
X97343857Y-139573191D01*
X97318633Y-139700000D01*
X97318633Y-140157369D01*
X97224419Y-140176109D01*
X97075568Y-140275568D01*
X97050463Y-140313141D01*
X91813605Y-145550000D01*
X82681367Y-145550000D01*
X82681367Y-144500000D01*
X82656143Y-144373191D01*
X82584312Y-144265688D01*
X82476809Y-144193857D01*
X82350000Y-144168633D01*
X80950000Y-144168633D01*
X80823191Y-144193857D01*
X80715688Y-144265688D01*
X80643857Y-144373191D01*
X80618633Y-144500000D01*
X80618633Y-146275000D01*
X79381367Y-146275000D01*
X79381367Y-144500000D01*
X79356143Y-144373191D01*
X79284312Y-144265688D01*
X79176809Y-144193857D01*
X79050000Y-144168633D01*
X77650000Y-144168633D01*
X77523191Y-144193857D01*
X77415688Y-144265688D01*
X77343857Y-144373191D01*
X77318633Y-144500000D01*
X77318633Y-146275000D01*
X76725000Y-146275000D01*
X76725000Y-145609687D01*
X76750643Y-145571309D01*
X76775867Y-145444500D01*
X76775867Y-144555500D01*
X76750643Y-144428691D01*
X76678812Y-144321188D01*
X76571309Y-144249357D01*
X76514214Y-144238000D01*
X76571309Y-144226643D01*
X76678812Y-144154812D01*
X76750643Y-144047309D01*
X76775867Y-143920500D01*
X76775867Y-143625000D01*
X78348732Y-143625000D01*
X78384688Y-143678812D01*
X78492191Y-143750643D01*
X78619000Y-143775867D01*
X79381000Y-143775867D01*
X79507809Y-143750643D01*
X79615312Y-143678812D01*
X79687143Y-143571309D01*
X79712367Y-143444500D01*
X79712367Y-142555500D01*
X79811633Y-142555500D01*
X79811633Y-143444500D01*
X79836857Y-143571309D01*
X79908688Y-143678812D01*
X80016191Y-143750643D01*
X80143000Y-143775867D01*
X80905000Y-143775867D01*
X81031809Y-143750643D01*
X81139312Y-143678812D01*
X81175268Y-143625000D01*
X82124320Y-143625000D01*
X82182306Y-143600981D01*
X82243863Y-143588737D01*
X82296050Y-143553867D01*
X82354034Y-143529849D01*
X82398412Y-143485471D01*
X82450600Y-143450600D01*
X82485471Y-143398412D01*
X82529849Y-143354034D01*
X82553867Y-143296050D01*
X82588737Y-143243863D01*
X82600981Y-143182306D01*
X82625000Y-143124320D01*
X82625000Y-143061555D01*
X82637244Y-143000000D01*
X82625000Y-142938445D01*
X82625000Y-142875680D01*
X82600981Y-142817694D01*
X82588737Y-142756137D01*
X82553867Y-142703950D01*
X82529849Y-142645966D01*
X82485471Y-142601588D01*
X82450600Y-142549400D01*
X82398412Y-142514529D01*
X82354034Y-142470151D01*
X82296050Y-142446133D01*
X82243863Y-142411263D01*
X82182306Y-142399019D01*
X82124320Y-142375000D01*
X81175268Y-142375000D01*
X81139312Y-142321188D01*
X81031809Y-142249357D01*
X80905000Y-142224133D01*
X80143000Y-142224133D01*
X80016191Y-142249357D01*
X79908688Y-142321188D01*
X79836857Y-142428691D01*
X79811633Y-142555500D01*
X79712367Y-142555500D01*
X79687143Y-142428691D01*
X79615312Y-142321188D01*
X79507809Y-142249357D01*
X79381000Y-142224133D01*
X78619000Y-142224133D01*
X78492191Y-142249357D01*
X78384688Y-142321188D01*
X78348732Y-142375000D01*
X76561555Y-142375000D01*
X76500000Y-142362756D01*
X76438445Y-142375000D01*
X76256137Y-142411263D01*
X76206836Y-142444205D01*
X76533947Y-142117094D01*
X87575000Y-142117094D01*
X87575000Y-142882906D01*
X87868064Y-143590425D01*
X88409575Y-144131936D01*
X89117094Y-144425000D01*
X89882906Y-144425000D01*
X90590425Y-144131936D01*
X91131936Y-143590425D01*
X91425000Y-142882906D01*
X91425000Y-142117094D01*
X91131936Y-141409575D01*
X90590425Y-140868064D01*
X89882906Y-140575000D01*
X89117094Y-140575000D01*
X88409575Y-140868064D01*
X87868064Y-141409575D01*
X87575000Y-142117094D01*
X76533947Y-142117094D01*
X77318633Y-141332408D01*
X77318633Y-141500000D01*
X77343857Y-141626809D01*
X77415688Y-141734312D01*
X77523191Y-141806143D01*
X77650000Y-141831367D01*
X79050000Y-141831367D01*
X79176809Y-141806143D01*
X79284312Y-141734312D01*
X79356143Y-141626809D01*
X79381367Y-141500000D01*
X79381367Y-139700000D01*
X79356143Y-139573191D01*
X79284312Y-139465688D01*
X79176809Y-139393857D01*
X79050000Y-139368633D01*
X77650000Y-139368633D01*
X77523191Y-139393857D01*
X77415688Y-139465688D01*
X77343857Y-139573191D01*
X77318633Y-139700000D01*
X77318633Y-140192804D01*
X77284173Y-140199659D01*
X77143592Y-140293592D01*
X77119881Y-140329078D01*
X72473960Y-144975000D01*
X62681367Y-144975000D01*
X62681367Y-144500000D01*
X62656143Y-144373191D01*
X62584312Y-144265688D01*
X62476809Y-144193857D01*
X62350000Y-144168633D01*
X60950000Y-144168633D01*
X60823191Y-144193857D01*
X60715688Y-144265688D01*
X60643857Y-144373191D01*
X60618633Y-144500000D01*
X60618633Y-146275000D01*
X59800304Y-146275000D01*
X59381367Y-145856063D01*
X59381367Y-144500000D01*
X59356143Y-144373191D01*
X59284312Y-144265688D01*
X59176809Y-144193857D01*
X59050000Y-144168633D01*
X57650000Y-144168633D01*
X57523191Y-144193857D01*
X57415688Y-144265688D01*
X57343857Y-144373191D01*
X57318633Y-144500000D01*
X57318633Y-145037000D01*
X56609687Y-145037000D01*
X56571309Y-145011357D01*
X56514214Y-145000000D01*
X56571309Y-144988643D01*
X56678812Y-144916812D01*
X56750643Y-144809309D01*
X56775867Y-144682500D01*
X56775867Y-144346016D01*
X57496884Y-143625000D01*
X58586732Y-143625000D01*
X58622688Y-143678812D01*
X58730191Y-143750643D01*
X58857000Y-143775867D01*
X59619000Y-143775867D01*
X59745809Y-143750643D01*
X59853312Y-143678812D01*
X59925143Y-143571309D01*
X59950367Y-143444500D01*
X59950367Y-142555500D01*
X60049633Y-142555500D01*
X60049633Y-143444500D01*
X60074857Y-143571309D01*
X60146688Y-143678812D01*
X60254191Y-143750643D01*
X60381000Y-143775867D01*
X61143000Y-143775867D01*
X61269809Y-143750643D01*
X61377312Y-143678812D01*
X61413268Y-143625000D01*
X72624320Y-143625000D01*
X72682306Y-143600981D01*
X72743863Y-143588737D01*
X72796050Y-143553867D01*
X72854034Y-143529849D01*
X72898412Y-143485471D01*
X72950600Y-143450600D01*
X72985471Y-143398412D01*
X73029849Y-143354034D01*
X73053867Y-143296050D01*
X73088737Y-143243863D01*
X73100981Y-143182306D01*
X73125000Y-143124320D01*
X73125000Y-143061555D01*
X73137244Y-143000000D01*
X73125000Y-142938445D01*
X73125000Y-142875680D01*
X73100981Y-142817694D01*
X73088737Y-142756137D01*
X73053867Y-142703950D01*
X73029849Y-142645966D01*
X72985471Y-142601588D01*
X72950600Y-142549400D01*
X72898412Y-142514529D01*
X72854034Y-142470151D01*
X72796050Y-142446133D01*
X72743863Y-142411263D01*
X72682306Y-142399019D01*
X72624320Y-142375000D01*
X61413268Y-142375000D01*
X61377312Y-142321188D01*
X61269809Y-142249357D01*
X61143000Y-142224133D01*
X60381000Y-142224133D01*
X60254191Y-142249357D01*
X60146688Y-142321188D01*
X60074857Y-142428691D01*
X60049633Y-142555500D01*
X59950367Y-142555500D01*
X59925143Y-142428691D01*
X59853312Y-142321188D01*
X59745809Y-142249357D01*
X59619000Y-142224133D01*
X58857000Y-142224133D01*
X58730191Y-142249357D01*
X58622688Y-142321188D01*
X58586732Y-142375000D01*
X57299553Y-142375000D01*
X57237999Y-142362756D01*
X57176445Y-142375000D01*
X56994137Y-142411263D01*
X56787400Y-142549400D01*
X56752531Y-142601585D01*
X55891984Y-143462133D01*
X55555500Y-143462133D01*
X55428691Y-143487357D01*
X55321188Y-143559188D01*
X55249357Y-143666691D01*
X55225000Y-143789141D01*
X55225000Y-141405900D01*
X55239202Y-141334500D01*
X55225000Y-141263100D01*
X55225000Y-141263096D01*
X55182935Y-141051619D01*
X55175963Y-141041185D01*
X55063142Y-140872337D01*
X55063138Y-140872333D01*
X55022694Y-140811805D01*
X54962166Y-140771361D01*
X54830337Y-140639532D01*
X55005195Y-140522695D01*
X55045643Y-140462161D01*
X55200161Y-140307642D01*
X55260694Y-140267195D01*
X55420935Y-140027381D01*
X55463000Y-139815904D01*
X55463000Y-139815900D01*
X55477202Y-139744500D01*
X55463000Y-139673100D01*
X55463000Y-139109687D01*
X55488643Y-139071309D01*
X55513867Y-138944500D01*
X55513867Y-138055500D01*
X55488643Y-137928691D01*
X55416812Y-137821188D01*
X55309309Y-137749357D01*
X55182500Y-137724133D01*
X54293500Y-137724133D01*
X54166691Y-137749357D01*
X54059188Y-137821188D01*
X53987357Y-137928691D01*
X53962133Y-138055500D01*
X53962133Y-138944500D01*
X53987357Y-139071309D01*
X54013001Y-139109687D01*
X54013000Y-139275000D01*
X53236900Y-139275000D01*
X53165500Y-139260798D01*
X53156867Y-139262515D01*
X53156867Y-139134500D01*
X53131643Y-139007691D01*
X53059812Y-138900188D01*
X52952309Y-138828357D01*
X52825500Y-138803133D01*
X51467260Y-138803133D01*
X52820394Y-137450000D01*
X57463227Y-137450000D01*
X57487357Y-137571309D01*
X57559188Y-137678812D01*
X57666691Y-137750643D01*
X57793500Y-137775867D01*
X57900001Y-137775867D01*
X57900000Y-139368633D01*
X57650000Y-139368633D01*
X57523191Y-139393857D01*
X57415688Y-139465688D01*
X57343857Y-139573191D01*
X57318633Y-139700000D01*
X57318633Y-141500000D01*
X57343857Y-141626809D01*
X57415688Y-141734312D01*
X57523191Y-141806143D01*
X57650000Y-141831367D01*
X59050000Y-141831367D01*
X59176809Y-141806143D01*
X59284312Y-141734312D01*
X59356143Y-141626809D01*
X59381367Y-141500000D01*
X59381367Y-141139691D01*
X59470151Y-141354034D01*
X59645966Y-141529849D01*
X59875680Y-141625000D01*
X60124320Y-141625000D01*
X60354034Y-141529849D01*
X60529849Y-141354034D01*
X60625000Y-141124320D01*
X60625000Y-140875680D01*
X63875000Y-140875680D01*
X63875000Y-141124320D01*
X63970151Y-141354034D01*
X64145966Y-141529849D01*
X64375680Y-141625000D01*
X64488604Y-141625000D01*
X64650461Y-141786857D01*
X64675568Y-141824432D01*
X64824419Y-141923891D01*
X64955679Y-141950000D01*
X64955680Y-141950000D01*
X65000000Y-141958816D01*
X65044320Y-141950000D01*
X74066111Y-141950000D01*
X74145966Y-142029855D01*
X74375680Y-142125006D01*
X74624320Y-142125006D01*
X74854034Y-142029855D01*
X75029849Y-141854040D01*
X75125000Y-141624326D01*
X75125000Y-141375686D01*
X75029849Y-141145972D01*
X74854034Y-140970157D01*
X74624320Y-140875006D01*
X74375680Y-140875006D01*
X74145966Y-140970157D01*
X74066123Y-141050000D01*
X65186396Y-141050000D01*
X65125000Y-140988604D01*
X65125000Y-140875680D01*
X65029849Y-140645966D01*
X64854034Y-140470151D01*
X64624320Y-140375000D01*
X64375680Y-140375000D01*
X64145966Y-140470151D01*
X63970151Y-140645966D01*
X63875000Y-140875680D01*
X60625000Y-140875680D01*
X60529849Y-140645966D01*
X60450000Y-140566117D01*
X60450000Y-140262131D01*
X61000132Y-139712000D01*
X67225227Y-139712000D01*
X67249357Y-139833309D01*
X67321188Y-139940812D01*
X67428691Y-140012643D01*
X67555500Y-140037867D01*
X68444500Y-140037867D01*
X68571309Y-140012643D01*
X68678812Y-139940812D01*
X68750643Y-139833309D01*
X68775867Y-139706500D01*
X68775867Y-139122529D01*
X69303133Y-138595264D01*
X69303133Y-140095500D01*
X69328357Y-140222309D01*
X69400188Y-140329812D01*
X69507691Y-140401643D01*
X69634500Y-140426867D01*
X71285500Y-140426867D01*
X71412309Y-140401643D01*
X71519812Y-140329812D01*
X71591643Y-140222309D01*
X71616867Y-140095500D01*
X71616867Y-138450000D01*
X72192947Y-138450000D01*
X72024653Y-138618294D01*
X71849500Y-139041151D01*
X71849500Y-139498849D01*
X72024653Y-139921706D01*
X72348294Y-140245347D01*
X72771151Y-140420500D01*
X73228849Y-140420500D01*
X73651706Y-140245347D01*
X73975347Y-139921706D01*
X74150500Y-139498849D01*
X74150500Y-139041151D01*
X73975347Y-138618294D01*
X73807053Y-138450000D01*
X74083605Y-138450000D01*
X74427642Y-138794038D01*
X74427645Y-138794040D01*
X74473049Y-138839445D01*
X74389500Y-139041151D01*
X74389500Y-139498849D01*
X74564653Y-139921706D01*
X74888294Y-140245347D01*
X75311151Y-140420500D01*
X75768849Y-140420500D01*
X76191706Y-140245347D01*
X76515347Y-139921706D01*
X76690500Y-139498849D01*
X76690500Y-139041151D01*
X76515347Y-138618294D01*
X76191706Y-138294653D01*
X75768849Y-138119500D01*
X75311151Y-138119500D01*
X75109445Y-138203049D01*
X75064040Y-138157645D01*
X75064038Y-138157642D01*
X74619540Y-137713145D01*
X74594432Y-137675568D01*
X74445581Y-137576109D01*
X74314321Y-137550000D01*
X74314320Y-137550000D01*
X74270000Y-137541184D01*
X74225680Y-137550000D01*
X73807053Y-137550000D01*
X73975347Y-137381706D01*
X74150500Y-136958849D01*
X74150500Y-136501151D01*
X73975347Y-136078294D01*
X73876552Y-135979499D01*
X88224133Y-135979499D01*
X88224133Y-136682500D01*
X88249357Y-136809309D01*
X88321188Y-136916812D01*
X88428691Y-136988643D01*
X88485786Y-137000000D01*
X88428691Y-137011357D01*
X88321188Y-137083188D01*
X88249357Y-137190691D01*
X88224133Y-137317500D01*
X88224133Y-138206500D01*
X88249357Y-138333309D01*
X88321188Y-138440812D01*
X88428691Y-138512643D01*
X88555500Y-138537867D01*
X89444500Y-138537867D01*
X89571309Y-138512643D01*
X89678812Y-138440812D01*
X89750643Y-138333309D01*
X89775867Y-138206500D01*
X89775867Y-138204631D01*
X89870081Y-138185891D01*
X90018932Y-138086432D01*
X90044040Y-138048855D01*
X90073396Y-138019499D01*
X90602112Y-138019499D01*
X90533416Y-138065400D01*
X90498545Y-138117588D01*
X90401584Y-138214550D01*
X90145968Y-138470166D01*
X90145966Y-138470167D01*
X89970151Y-138645982D01*
X89946131Y-138703970D01*
X89911263Y-138756154D01*
X89899019Y-138817709D01*
X89875000Y-138875696D01*
X89875000Y-138938461D01*
X89862756Y-139000016D01*
X89875000Y-139061571D01*
X89875000Y-139124336D01*
X89899019Y-139182323D01*
X89911263Y-139243878D01*
X89946132Y-139296062D01*
X89970151Y-139354050D01*
X90014534Y-139398433D01*
X90049401Y-139450615D01*
X90101583Y-139485482D01*
X90145966Y-139529865D01*
X90203954Y-139553884D01*
X90256138Y-139588753D01*
X90317693Y-139600997D01*
X90375680Y-139625016D01*
X90438445Y-139625016D01*
X90500000Y-139637260D01*
X90561555Y-139625016D01*
X90624320Y-139625016D01*
X90682307Y-139600997D01*
X90743862Y-139588753D01*
X90796046Y-139553885D01*
X90854034Y-139529865D01*
X91029849Y-139354050D01*
X91029850Y-139354048D01*
X91242898Y-139141000D01*
X92671275Y-139141000D01*
X92685857Y-139214309D01*
X92757688Y-139321812D01*
X92865191Y-139393643D01*
X92992000Y-139418867D01*
X94008000Y-139418867D01*
X94134809Y-139393643D01*
X94242312Y-139321812D01*
X94314143Y-139214309D01*
X94339367Y-139087500D01*
X94339367Y-137944500D01*
X94314143Y-137817691D01*
X94242312Y-137710188D01*
X94134809Y-137638357D01*
X94008000Y-137613133D01*
X93959762Y-137613133D01*
X94186028Y-137386867D01*
X94897000Y-137386867D01*
X95023809Y-137361643D01*
X95131312Y-137289812D01*
X95203143Y-137182309D01*
X95228367Y-137055500D01*
X95228367Y-135912500D01*
X95203143Y-135785691D01*
X95131312Y-135678188D01*
X95125793Y-135674500D01*
X98763133Y-135674500D01*
X98763133Y-137325500D01*
X98788357Y-137452309D01*
X98860188Y-137559812D01*
X98967691Y-137631643D01*
X99094500Y-137656867D01*
X100745500Y-137656867D01*
X100872309Y-137631643D01*
X100979812Y-137559812D01*
X101051643Y-137452309D01*
X101076867Y-137325500D01*
X101076867Y-135674500D01*
X101051643Y-135547691D01*
X100979812Y-135440188D01*
X100872309Y-135368357D01*
X100745500Y-135343133D01*
X99094500Y-135343133D01*
X98967691Y-135368357D01*
X98860188Y-135440188D01*
X98788357Y-135547691D01*
X98763133Y-135674500D01*
X95125793Y-135674500D01*
X95023809Y-135606357D01*
X94897000Y-135581133D01*
X93881000Y-135581133D01*
X93754191Y-135606357D01*
X93646688Y-135678188D01*
X93574857Y-135785691D01*
X93549633Y-135912500D01*
X93549633Y-136750472D01*
X93180606Y-137119499D01*
X89931323Y-137119499D01*
X89887001Y-137110683D01*
X89719452Y-137144010D01*
X89678812Y-137083188D01*
X89571309Y-137011357D01*
X89514214Y-137000000D01*
X89571309Y-136988643D01*
X89678812Y-136916812D01*
X89750643Y-136809309D01*
X89775867Y-136682500D01*
X89775867Y-135793500D01*
X89750643Y-135666691D01*
X89678812Y-135559188D01*
X89571309Y-135487357D01*
X89444500Y-135462133D01*
X89098529Y-135462133D01*
X88936395Y-135300000D01*
X149700001Y-135300000D01*
X149700000Y-149700000D01*
G04 #@! TD*
M02*
