G04 #@! TF.GenerationSoftware,KiCad,Pcbnew,5.0.0-rc2-unknown-81af2db~65~ubuntu18.04.1*
G04 #@! TF.CreationDate,2018-05-29T11:57:16+02:00*
G04 #@! TF.ProjectId,universal_lights,756E6976657273616C5F6C6967687473,rev?*
G04 #@! TF.SameCoordinates,Original*
G04 #@! TF.FileFunction,Legend,Top*
G04 #@! TF.FilePolarity,Positive*
%FSLAX46Y46*%
G04 Gerber Fmt 4.6, Leading zero omitted, Abs format (unit mm)*
G04 Created by KiCad (PCBNEW 5.0.0-rc2-unknown-81af2db~65~ubuntu18.04.1) date Tue May 29 11:57:16 2018*
%MOMM*%
%LPD*%
G01*
G04 APERTURE LIST*
%ADD10C,0.200000*%
%ADD11C,0.066040*%
%ADD12C,0.127000*%
%ADD13C,0.100000*%
%ADD14C,0.101600*%
G04 APERTURE END LIST*
D10*
X77738095Y-136000000D02*
X77642857Y-135952380D01*
X77500000Y-135952380D01*
X77357142Y-136000000D01*
X77261904Y-136095238D01*
X77214285Y-136190476D01*
X77166666Y-136380952D01*
X77166666Y-136523809D01*
X77214285Y-136714285D01*
X77261904Y-136809523D01*
X77357142Y-136904761D01*
X77500000Y-136952380D01*
X77595238Y-136952380D01*
X77738095Y-136904761D01*
X77785714Y-136857142D01*
X77785714Y-136523809D01*
X77595238Y-136523809D01*
X78214285Y-136952380D02*
X78214285Y-135952380D01*
X78785714Y-136952380D01*
X78785714Y-135952380D01*
X79261904Y-136952380D02*
X79261904Y-135952380D01*
X79500000Y-135952380D01*
X79642857Y-136000000D01*
X79738095Y-136095238D01*
X79785714Y-136190476D01*
X79833333Y-136380952D01*
X79833333Y-136523809D01*
X79785714Y-136714285D01*
X79738095Y-136809523D01*
X79642857Y-136904761D01*
X79500000Y-136952380D01*
X79261904Y-136952380D01*
X119575000Y-139647619D02*
X119534523Y-139728571D01*
X119534523Y-139850000D01*
X119575000Y-139971428D01*
X119655952Y-140052380D01*
X119736904Y-140092857D01*
X119898809Y-140133333D01*
X120020238Y-140133333D01*
X120182142Y-140092857D01*
X120263095Y-140052380D01*
X120344047Y-139971428D01*
X120384523Y-139850000D01*
X120384523Y-139769047D01*
X120344047Y-139647619D01*
X120303571Y-139607142D01*
X120020238Y-139607142D01*
X120020238Y-139769047D01*
X120384523Y-139242857D02*
X119534523Y-139242857D01*
X120384523Y-138757142D01*
X119534523Y-138757142D01*
X120384523Y-138352380D02*
X119534523Y-138352380D01*
X119534523Y-138150000D01*
X119575000Y-138028571D01*
X119655952Y-137947619D01*
X119736904Y-137907142D01*
X119898809Y-137866666D01*
X120020238Y-137866666D01*
X120182142Y-137907142D01*
X120263095Y-137947619D01*
X120344047Y-138028571D01*
X120384523Y-138150000D01*
X120384523Y-138352380D01*
X123060714Y-140092857D02*
X123060714Y-139445238D01*
X123384523Y-139769047D02*
X122736904Y-139769047D01*
X122534523Y-138635714D02*
X122534523Y-139040476D01*
X122939285Y-139080952D01*
X122898809Y-139040476D01*
X122858333Y-138959523D01*
X122858333Y-138757142D01*
X122898809Y-138676190D01*
X122939285Y-138635714D01*
X123020238Y-138595238D01*
X123222619Y-138595238D01*
X123303571Y-138635714D01*
X123344047Y-138676190D01*
X123384523Y-138757142D01*
X123384523Y-138959523D01*
X123344047Y-139040476D01*
X123303571Y-139080952D01*
X122534523Y-138352380D02*
X123384523Y-138069047D01*
X122534523Y-137785714D01*
X143714285Y-140571428D02*
X144476190Y-140571428D01*
X144095238Y-140952380D02*
X144095238Y-140190476D01*
X145428571Y-139952380D02*
X144952380Y-139952380D01*
X144904761Y-140428571D01*
X144952380Y-140380952D01*
X145047619Y-140333333D01*
X145285714Y-140333333D01*
X145380952Y-140380952D01*
X145428571Y-140428571D01*
X145476190Y-140523809D01*
X145476190Y-140761904D01*
X145428571Y-140857142D01*
X145380952Y-140904761D01*
X145285714Y-140952380D01*
X145047619Y-140952380D01*
X144952380Y-140904761D01*
X144904761Y-140857142D01*
X145761904Y-139952380D02*
X146095238Y-140952380D01*
X146428571Y-139952380D01*
X117534523Y-138783333D02*
X117534523Y-138257142D01*
X117858333Y-138540476D01*
X117858333Y-138419047D01*
X117898809Y-138338095D01*
X117939285Y-138297619D01*
X118020238Y-138257142D01*
X118222619Y-138257142D01*
X118303571Y-138297619D01*
X118344047Y-138338095D01*
X118384523Y-138419047D01*
X118384523Y-138661904D01*
X118344047Y-138742857D01*
X118303571Y-138783333D01*
X114615476Y-138742857D02*
X114575000Y-138702380D01*
X114534523Y-138621428D01*
X114534523Y-138419047D01*
X114575000Y-138338095D01*
X114615476Y-138297619D01*
X114696428Y-138257142D01*
X114777380Y-138257142D01*
X114898809Y-138297619D01*
X115384523Y-138783333D01*
X115384523Y-138257142D01*
X112844047Y-140011904D02*
X112884523Y-139890476D01*
X112884523Y-139688095D01*
X112844047Y-139607142D01*
X112803571Y-139566666D01*
X112722619Y-139526190D01*
X112641666Y-139526190D01*
X112560714Y-139566666D01*
X112520238Y-139607142D01*
X112479761Y-139688095D01*
X112439285Y-139850000D01*
X112398809Y-139930952D01*
X112358333Y-139971428D01*
X112277380Y-140011904D01*
X112196428Y-140011904D01*
X112115476Y-139971428D01*
X112075000Y-139930952D01*
X112034523Y-139850000D01*
X112034523Y-139647619D01*
X112075000Y-139526190D01*
X112803571Y-138676190D02*
X112844047Y-138716666D01*
X112884523Y-138838095D01*
X112884523Y-138919047D01*
X112844047Y-139040476D01*
X112763095Y-139121428D01*
X112682142Y-139161904D01*
X112520238Y-139202380D01*
X112398809Y-139202380D01*
X112236904Y-139161904D01*
X112155952Y-139121428D01*
X112075000Y-139040476D01*
X112034523Y-138919047D01*
X112034523Y-138838095D01*
X112075000Y-138716666D01*
X112115476Y-138676190D01*
X112884523Y-137907142D02*
X112884523Y-138311904D01*
X112034523Y-138311904D01*
X110344047Y-140032142D02*
X110384523Y-139910714D01*
X110384523Y-139708333D01*
X110344047Y-139627380D01*
X110303571Y-139586904D01*
X110222619Y-139546428D01*
X110141666Y-139546428D01*
X110060714Y-139586904D01*
X110020238Y-139627380D01*
X109979761Y-139708333D01*
X109939285Y-139870238D01*
X109898809Y-139951190D01*
X109858333Y-139991666D01*
X109777380Y-140032142D01*
X109696428Y-140032142D01*
X109615476Y-139991666D01*
X109575000Y-139951190D01*
X109534523Y-139870238D01*
X109534523Y-139667857D01*
X109575000Y-139546428D01*
X110384523Y-139182142D02*
X109534523Y-139182142D01*
X109534523Y-138979761D01*
X109575000Y-138858333D01*
X109655952Y-138777380D01*
X109736904Y-138736904D01*
X109898809Y-138696428D01*
X110020238Y-138696428D01*
X110182142Y-138736904D01*
X110263095Y-138777380D01*
X110344047Y-138858333D01*
X110384523Y-138979761D01*
X110384523Y-139182142D01*
X110141666Y-138372619D02*
X110141666Y-137967857D01*
X110384523Y-138453571D02*
X109534523Y-138170238D01*
X110384523Y-137886904D01*
X107641666Y-139107142D02*
X107641666Y-138702380D01*
X107884523Y-139188095D02*
X107034523Y-138904761D01*
X107884523Y-138621428D01*
X107115476Y-138378571D02*
X107075000Y-138338095D01*
X107034523Y-138257142D01*
X107034523Y-138054761D01*
X107075000Y-137973809D01*
X107115476Y-137933333D01*
X107196428Y-137892857D01*
X107277380Y-137892857D01*
X107398809Y-137933333D01*
X107884523Y-138419047D01*
X107884523Y-137892857D01*
X105141666Y-139107142D02*
X105141666Y-138702380D01*
X105384523Y-139188095D02*
X104534523Y-138904761D01*
X105384523Y-138621428D01*
X105384523Y-137892857D02*
X105384523Y-138378571D01*
X105384523Y-138135714D02*
X104534523Y-138135714D01*
X104655952Y-138216666D01*
X104736904Y-138297619D01*
X104777380Y-138378571D01*
X102641666Y-139107142D02*
X102641666Y-138702380D01*
X102884523Y-139188095D02*
X102034523Y-138904761D01*
X102884523Y-138621428D01*
X102034523Y-138176190D02*
X102034523Y-138095238D01*
X102075000Y-138014285D01*
X102115476Y-137973809D01*
X102196428Y-137933333D01*
X102358333Y-137892857D01*
X102560714Y-137892857D01*
X102722619Y-137933333D01*
X102803571Y-137973809D01*
X102844047Y-138014285D01*
X102884523Y-138095238D01*
X102884523Y-138176190D01*
X102844047Y-138257142D01*
X102803571Y-138297619D01*
X102722619Y-138338095D01*
X102560714Y-138378571D01*
X102358333Y-138378571D01*
X102196428Y-138338095D01*
X102115476Y-138297619D01*
X102075000Y-138257142D01*
X102034523Y-138176190D01*
X100384523Y-138661904D02*
X100384523Y-139147619D01*
X100384523Y-138904761D02*
X99534523Y-138904761D01*
X99655952Y-138985714D01*
X99736904Y-139066666D01*
X99777380Y-139147619D01*
X99534523Y-138135714D02*
X99534523Y-138054761D01*
X99575000Y-137973809D01*
X99615476Y-137933333D01*
X99696428Y-137892857D01*
X99858333Y-137852380D01*
X100060714Y-137852380D01*
X100222619Y-137892857D01*
X100303571Y-137933333D01*
X100344047Y-137973809D01*
X100384523Y-138054761D01*
X100384523Y-138135714D01*
X100344047Y-138216666D01*
X100303571Y-138257142D01*
X100222619Y-138297619D01*
X100060714Y-138338095D01*
X99858333Y-138338095D01*
X99696428Y-138297619D01*
X99615476Y-138257142D01*
X99575000Y-138216666D01*
X99534523Y-138135714D01*
X51000000Y-148452380D02*
X51000000Y-147452380D01*
X51238095Y-147452380D01*
X51380952Y-147500000D01*
X51476190Y-147595238D01*
X51523809Y-147690476D01*
X51571428Y-147880952D01*
X51571428Y-148023809D01*
X51523809Y-148214285D01*
X51476190Y-148309523D01*
X51380952Y-148404761D01*
X51238095Y-148452380D01*
X51000000Y-148452380D01*
X52428571Y-148452380D02*
X52428571Y-147928571D01*
X52380952Y-147833333D01*
X52285714Y-147785714D01*
X52095238Y-147785714D01*
X52000000Y-147833333D01*
X52428571Y-148404761D02*
X52333333Y-148452380D01*
X52095238Y-148452380D01*
X52000000Y-148404761D01*
X51952380Y-148309523D01*
X51952380Y-148214285D01*
X52000000Y-148119047D01*
X52095238Y-148071428D01*
X52333333Y-148071428D01*
X52428571Y-148023809D01*
X52761904Y-147785714D02*
X53142857Y-147785714D01*
X52904761Y-147452380D02*
X52904761Y-148309523D01*
X52952380Y-148404761D01*
X53047619Y-148452380D01*
X53142857Y-148452380D01*
X54238095Y-142500000D02*
X54142857Y-142452380D01*
X54000000Y-142452380D01*
X53857142Y-142500000D01*
X53761904Y-142595238D01*
X53714285Y-142690476D01*
X53666666Y-142880952D01*
X53666666Y-143023809D01*
X53714285Y-143214285D01*
X53761904Y-143309523D01*
X53857142Y-143404761D01*
X54000000Y-143452380D01*
X54095238Y-143452380D01*
X54238095Y-143404761D01*
X54285714Y-143357142D01*
X54285714Y-143023809D01*
X54095238Y-143023809D01*
X54714285Y-143452380D02*
X54714285Y-142452380D01*
X55285714Y-143452380D01*
X55285714Y-142452380D01*
X55761904Y-143452380D02*
X55761904Y-142452380D01*
X56000000Y-142452380D01*
X56142857Y-142500000D01*
X56238095Y-142595238D01*
X56285714Y-142690476D01*
X56333333Y-142880952D01*
X56333333Y-143023809D01*
X56285714Y-143214285D01*
X56238095Y-143309523D01*
X56142857Y-143404761D01*
X56000000Y-143452380D01*
X55761904Y-143452380D01*
X53714285Y-140571428D02*
X54476190Y-140571428D01*
X54095238Y-140952380D02*
X54095238Y-140190476D01*
X55428571Y-139952380D02*
X54952380Y-139952380D01*
X54904761Y-140428571D01*
X54952380Y-140380952D01*
X55047619Y-140333333D01*
X55285714Y-140333333D01*
X55380952Y-140380952D01*
X55428571Y-140428571D01*
X55476190Y-140523809D01*
X55476190Y-140761904D01*
X55428571Y-140857142D01*
X55380952Y-140904761D01*
X55285714Y-140952380D01*
X55047619Y-140952380D01*
X54952380Y-140904761D01*
X54904761Y-140857142D01*
X55761904Y-139952380D02*
X56095238Y-140952380D01*
X56428571Y-139952380D01*
X144000000Y-145952380D02*
X144000000Y-144952380D01*
X144238095Y-144952380D01*
X144380952Y-145000000D01*
X144476190Y-145095238D01*
X144523809Y-145190476D01*
X144571428Y-145380952D01*
X144571428Y-145523809D01*
X144523809Y-145714285D01*
X144476190Y-145809523D01*
X144380952Y-145904761D01*
X144238095Y-145952380D01*
X144000000Y-145952380D01*
X145428571Y-145952380D02*
X145428571Y-145428571D01*
X145380952Y-145333333D01*
X145285714Y-145285714D01*
X145095238Y-145285714D01*
X145000000Y-145333333D01*
X145428571Y-145904761D02*
X145333333Y-145952380D01*
X145095238Y-145952380D01*
X145000000Y-145904761D01*
X144952380Y-145809523D01*
X144952380Y-145714285D01*
X145000000Y-145619047D01*
X145095238Y-145571428D01*
X145333333Y-145571428D01*
X145428571Y-145523809D01*
X145761904Y-145285714D02*
X146142857Y-145285714D01*
X145904761Y-144952380D02*
X145904761Y-145809523D01*
X145952380Y-145904761D01*
X146047619Y-145952380D01*
X146142857Y-145952380D01*
X144238095Y-142500000D02*
X144142857Y-142452380D01*
X144000000Y-142452380D01*
X143857142Y-142500000D01*
X143761904Y-142595238D01*
X143714285Y-142690476D01*
X143666666Y-142880952D01*
X143666666Y-143023809D01*
X143714285Y-143214285D01*
X143761904Y-143309523D01*
X143857142Y-143404761D01*
X144000000Y-143452380D01*
X144095238Y-143452380D01*
X144238095Y-143404761D01*
X144285714Y-143357142D01*
X144285714Y-143023809D01*
X144095238Y-143023809D01*
X144714285Y-143452380D02*
X144714285Y-142452380D01*
X145285714Y-143452380D01*
X145285714Y-142452380D01*
X145761904Y-143452380D02*
X145761904Y-142452380D01*
X146000000Y-142452380D01*
X146142857Y-142500000D01*
X146238095Y-142595238D01*
X146285714Y-142690476D01*
X146333333Y-142880952D01*
X146333333Y-143023809D01*
X146285714Y-143214285D01*
X146238095Y-143309523D01*
X146142857Y-143404761D01*
X146000000Y-143452380D01*
X145761904Y-143452380D01*
D11*
G04 #@! TO.C,Q1*
X95024000Y-135849000D02*
X91976000Y-135849000D01*
X91976000Y-135849000D02*
X91976000Y-139151000D01*
X95024000Y-139151000D02*
X91976000Y-139151000D01*
X95024000Y-135849000D02*
X95024000Y-139151000D01*
D12*
X93690500Y-136865000D02*
X93309500Y-136865000D01*
X92039500Y-137246000D02*
X92039500Y-138135000D01*
X92039500Y-138135000D02*
X92801500Y-138135000D01*
X94198500Y-138135000D02*
X94960500Y-138135000D01*
X94960500Y-138135000D02*
X94960500Y-137246000D01*
G04 #@! TO.C,R5*
X68635000Y-137103000D02*
X68635000Y-139897000D01*
X68635000Y-139897000D02*
X67365000Y-139897000D01*
X67365000Y-139897000D02*
X67365000Y-137103000D01*
X67365000Y-137103000D02*
X68635000Y-137103000D01*
D11*
G04 #@! TO.C,D1*
X58730000Y-143571500D02*
X61270000Y-143571500D01*
X61270000Y-143571500D02*
X61270000Y-142428500D01*
X58730000Y-142428500D02*
X61270000Y-142428500D01*
X58730000Y-143571500D02*
X58730000Y-142428500D01*
D12*
X58666500Y-142365000D02*
X61333500Y-142365000D01*
X61333500Y-142365000D02*
X61333500Y-143635000D01*
X61333500Y-143635000D02*
X58666500Y-143635000D01*
X58666500Y-143635000D02*
X58666500Y-142365000D01*
X59873000Y-142619000D02*
X59873000Y-143381000D01*
X59873000Y-143381000D02*
X60000000Y-143190500D01*
X60000000Y-143190500D02*
X60127000Y-143000000D01*
X60127000Y-143000000D02*
X60000000Y-142809500D01*
X60000000Y-142809500D02*
X59873000Y-142619000D01*
X59936500Y-142746000D02*
X59936500Y-143254000D01*
X60000000Y-142809500D02*
X60000000Y-143190500D01*
D11*
G04 #@! TO.C,D2*
X78492000Y-143571500D02*
X81032000Y-143571500D01*
X81032000Y-143571500D02*
X81032000Y-142428500D01*
X78492000Y-142428500D02*
X81032000Y-142428500D01*
X78492000Y-143571500D02*
X78492000Y-142428500D01*
D12*
X78428500Y-142365000D02*
X81095500Y-142365000D01*
X81095500Y-142365000D02*
X81095500Y-143635000D01*
X81095500Y-143635000D02*
X78428500Y-143635000D01*
X78428500Y-143635000D02*
X78428500Y-142365000D01*
X79635000Y-142619000D02*
X79635000Y-143381000D01*
X79635000Y-143381000D02*
X79762000Y-143190500D01*
X79762000Y-143190500D02*
X79889000Y-143000000D01*
X79889000Y-143000000D02*
X79762000Y-142809500D01*
X79762000Y-142809500D02*
X79635000Y-142619000D01*
X79698500Y-142746000D02*
X79698500Y-143254000D01*
X79762000Y-142809500D02*
X79762000Y-143190500D01*
D11*
G04 #@! TO.C,D3*
X98730000Y-143571500D02*
X101270000Y-143571500D01*
X101270000Y-143571500D02*
X101270000Y-142428500D01*
X98730000Y-142428500D02*
X101270000Y-142428500D01*
X98730000Y-143571500D02*
X98730000Y-142428500D01*
D12*
X98666500Y-142365000D02*
X101333500Y-142365000D01*
X101333500Y-142365000D02*
X101333500Y-143635000D01*
X101333500Y-143635000D02*
X98666500Y-143635000D01*
X98666500Y-143635000D02*
X98666500Y-142365000D01*
X99873000Y-142619000D02*
X99873000Y-143381000D01*
X99873000Y-143381000D02*
X100000000Y-143190500D01*
X100000000Y-143190500D02*
X100127000Y-143000000D01*
X100127000Y-143000000D02*
X100000000Y-142809500D01*
X100000000Y-142809500D02*
X99873000Y-142619000D01*
X99936500Y-142746000D02*
X99936500Y-143254000D01*
X100000000Y-142809500D02*
X100000000Y-143190500D01*
D11*
G04 #@! TO.C,D4*
X118730000Y-143571500D02*
X121270000Y-143571500D01*
X121270000Y-143571500D02*
X121270000Y-142428500D01*
X118730000Y-142428500D02*
X121270000Y-142428500D01*
X118730000Y-143571500D02*
X118730000Y-142428500D01*
D12*
X118666500Y-142365000D02*
X121333500Y-142365000D01*
X121333500Y-142365000D02*
X121333500Y-143635000D01*
X121333500Y-143635000D02*
X118666500Y-143635000D01*
X118666500Y-143635000D02*
X118666500Y-142365000D01*
X119873000Y-142619000D02*
X119873000Y-143381000D01*
X119873000Y-143381000D02*
X120000000Y-143190500D01*
X120000000Y-143190500D02*
X120127000Y-143000000D01*
X120127000Y-143000000D02*
X120000000Y-142809500D01*
X120000000Y-142809500D02*
X119873000Y-142619000D01*
X119936500Y-142746000D02*
X119936500Y-143254000D01*
X120000000Y-142809500D02*
X120000000Y-143190500D01*
D11*
G04 #@! TO.C,D5*
X138730000Y-143571500D02*
X141270000Y-143571500D01*
X141270000Y-143571500D02*
X141270000Y-142428500D01*
X138730000Y-142428500D02*
X141270000Y-142428500D01*
X138730000Y-143571500D02*
X138730000Y-142428500D01*
D12*
X138666500Y-142365000D02*
X141333500Y-142365000D01*
X141333500Y-142365000D02*
X141333500Y-143635000D01*
X141333500Y-143635000D02*
X138666500Y-143635000D01*
X138666500Y-143635000D02*
X138666500Y-142365000D01*
X139873000Y-142619000D02*
X139873000Y-143381000D01*
X139873000Y-143381000D02*
X140000000Y-143190500D01*
X140000000Y-143190500D02*
X140127000Y-143000000D01*
X140127000Y-143000000D02*
X140000000Y-142809500D01*
X140000000Y-142809500D02*
X139873000Y-142619000D01*
X139936500Y-142746000D02*
X139936500Y-143254000D01*
X140000000Y-142809500D02*
X140000000Y-143190500D01*
D11*
G04 #@! TO.C,J1*
X50730000Y-146310000D02*
X53270000Y-146310000D01*
X53270000Y-146310000D02*
X53270000Y-138690000D01*
X50730000Y-138690000D02*
X53270000Y-138690000D01*
X50730000Y-146310000D02*
X50730000Y-138690000D01*
D12*
X50730000Y-138690000D02*
X53270000Y-138690000D01*
X53270000Y-138690000D02*
X53270000Y-146310000D01*
X53270000Y-146310000D02*
X50730000Y-146310000D01*
X50730000Y-146310000D02*
X50730000Y-138690000D01*
D13*
X50730000Y-138690000D02*
X53270000Y-138690000D01*
X53270000Y-138690000D02*
X53270000Y-146310000D01*
X53270000Y-146310000D02*
X50730000Y-146310000D01*
X50730000Y-146310000D02*
X50730000Y-138690000D01*
D11*
G04 #@! TO.C,J2*
X146730000Y-146310000D02*
X149270000Y-146310000D01*
X149270000Y-146310000D02*
X149270000Y-138690000D01*
X146730000Y-138690000D02*
X149270000Y-138690000D01*
X146730000Y-146310000D02*
X146730000Y-138690000D01*
D12*
X146730000Y-138690000D02*
X149270000Y-138690000D01*
X149270000Y-138690000D02*
X149270000Y-146310000D01*
X149270000Y-146310000D02*
X146730000Y-146310000D01*
X146730000Y-146310000D02*
X146730000Y-138690000D01*
D13*
X146730000Y-138690000D02*
X149270000Y-138690000D01*
X149270000Y-138690000D02*
X149270000Y-146310000D01*
X149270000Y-146310000D02*
X146730000Y-146310000D01*
X146730000Y-146310000D02*
X146730000Y-138690000D01*
D11*
G04 #@! TO.C,J3*
X76810000Y-140540000D02*
X76810000Y-135460000D01*
X76810000Y-135460000D02*
X69190000Y-135460000D01*
X69190000Y-140540000D02*
X69190000Y-135460000D01*
X76810000Y-140540000D02*
X69190000Y-140540000D01*
D12*
X69190000Y-140540000D02*
X69190000Y-135460000D01*
X69190000Y-135460000D02*
X76810000Y-135460000D01*
X76810000Y-135460000D02*
X76810000Y-140540000D01*
X76810000Y-140540000D02*
X69190000Y-140540000D01*
D13*
X69190000Y-140540000D02*
X69190000Y-135460000D01*
X69190000Y-135460000D02*
X76810000Y-135460000D01*
X76810000Y-135460000D02*
X76810000Y-140540000D01*
X76810000Y-140540000D02*
X69190000Y-140540000D01*
D12*
G04 #@! TO.C,R1*
X55365000Y-146397000D02*
X55365000Y-143603000D01*
X55365000Y-143603000D02*
X56635000Y-143603000D01*
X56635000Y-143603000D02*
X56635000Y-146397000D01*
X56635000Y-146397000D02*
X55365000Y-146397000D01*
G04 #@! TO.C,R2*
X75365000Y-145635000D02*
X75365000Y-142841000D01*
X75365000Y-142841000D02*
X76635000Y-142841000D01*
X76635000Y-142841000D02*
X76635000Y-145635000D01*
X76635000Y-145635000D02*
X75365000Y-145635000D01*
G04 #@! TO.C,R3*
X95365000Y-146397000D02*
X95365000Y-143603000D01*
X95365000Y-143603000D02*
X96635000Y-143603000D01*
X96635000Y-143603000D02*
X96635000Y-146397000D01*
X96635000Y-146397000D02*
X95365000Y-146397000D01*
G04 #@! TO.C,R4*
X115365000Y-146397000D02*
X115365000Y-143603000D01*
X115365000Y-143603000D02*
X116635000Y-143603000D01*
X116635000Y-143603000D02*
X116635000Y-146397000D01*
X116635000Y-146397000D02*
X115365000Y-146397000D01*
G04 #@! TO.C,R6*
X135365000Y-146397000D02*
X135365000Y-143603000D01*
X135365000Y-143603000D02*
X136635000Y-143603000D01*
X136635000Y-143603000D02*
X136635000Y-146397000D01*
X136635000Y-146397000D02*
X135365000Y-146397000D01*
G04 #@! TO.C,R9*
X89635000Y-135603000D02*
X89635000Y-138397000D01*
X89635000Y-138397000D02*
X88365000Y-138397000D01*
X88365000Y-138397000D02*
X88365000Y-135603000D01*
X88365000Y-135603000D02*
X89635000Y-135603000D01*
D10*
G04 #@! TO.C,LED1*
X61000000Y-144000000D02*
X59000000Y-144000000D01*
X59000000Y-144000000D02*
X59000000Y-142000000D01*
X59000000Y-142000000D02*
X60500000Y-142000000D01*
X60500000Y-142000000D02*
X61000000Y-142500000D01*
X61000000Y-142500000D02*
X61000000Y-144000000D01*
X62500000Y-144000000D02*
X62500000Y-142000000D01*
X60500000Y-140500000D02*
X59500000Y-140500000D01*
X57500000Y-144000000D02*
X57500000Y-142000000D01*
X60500000Y-145500000D02*
X59500000Y-145500000D01*
G04 #@! TO.C,LED2*
X81000000Y-144000000D02*
X79000000Y-144000000D01*
X79000000Y-144000000D02*
X79000000Y-142000000D01*
X79000000Y-142000000D02*
X80500000Y-142000000D01*
X80500000Y-142000000D02*
X81000000Y-142500000D01*
X81000000Y-142500000D02*
X81000000Y-144000000D01*
X82500000Y-144000000D02*
X82500000Y-142000000D01*
X80500000Y-140500000D02*
X79500000Y-140500000D01*
X77500000Y-144000000D02*
X77500000Y-142000000D01*
X80500000Y-145500000D02*
X79500000Y-145500000D01*
G04 #@! TO.C,LED3*
X101000000Y-144000000D02*
X99000000Y-144000000D01*
X99000000Y-144000000D02*
X99000000Y-142000000D01*
X99000000Y-142000000D02*
X100500000Y-142000000D01*
X100500000Y-142000000D02*
X101000000Y-142500000D01*
X101000000Y-142500000D02*
X101000000Y-144000000D01*
X102500000Y-144000000D02*
X102500000Y-142000000D01*
X100500000Y-140500000D02*
X99500000Y-140500000D01*
X97500000Y-144000000D02*
X97500000Y-142000000D01*
X100500000Y-145500000D02*
X99500000Y-145500000D01*
G04 #@! TO.C,LED4*
X121000000Y-144000000D02*
X119000000Y-144000000D01*
X119000000Y-144000000D02*
X119000000Y-142000000D01*
X119000000Y-142000000D02*
X120500000Y-142000000D01*
X120500000Y-142000000D02*
X121000000Y-142500000D01*
X121000000Y-142500000D02*
X121000000Y-144000000D01*
X122500000Y-144000000D02*
X122500000Y-142000000D01*
X120500000Y-140500000D02*
X119500000Y-140500000D01*
X117500000Y-144000000D02*
X117500000Y-142000000D01*
X120500000Y-145500000D02*
X119500000Y-145500000D01*
G04 #@! TO.C,LED5*
X141000000Y-144000000D02*
X139000000Y-144000000D01*
X139000000Y-144000000D02*
X139000000Y-142000000D01*
X139000000Y-142000000D02*
X140500000Y-142000000D01*
X140500000Y-142000000D02*
X141000000Y-142500000D01*
X141000000Y-142500000D02*
X141000000Y-144000000D01*
X142500000Y-144000000D02*
X142500000Y-142000000D01*
X140500000Y-140500000D02*
X139500000Y-140500000D01*
X137500000Y-144000000D02*
X137500000Y-142000000D01*
X140500000Y-145500000D02*
X139500000Y-145500000D01*
D11*
G04 #@! TO.C,J4*
X118970000Y-137770000D02*
X118970000Y-135230000D01*
X118970000Y-135230000D02*
X98650000Y-135230000D01*
X98650000Y-137770000D02*
X98650000Y-135230000D01*
X118970000Y-137770000D02*
X98650000Y-137770000D01*
D12*
X98650000Y-137770000D02*
X98650000Y-135230000D01*
X98650000Y-135230000D02*
X118970000Y-135230000D01*
X118970000Y-135230000D02*
X118970000Y-137770000D01*
X118970000Y-137770000D02*
X98650000Y-137770000D01*
D11*
G04 #@! TO.C,J5*
X118960000Y-135230000D02*
X118960000Y-137770000D01*
X118960000Y-137770000D02*
X124040000Y-137770000D01*
X124040000Y-135230000D02*
X124040000Y-137770000D01*
X118960000Y-135230000D02*
X124040000Y-135230000D01*
D12*
X124040000Y-135230000D02*
X124040000Y-137770000D01*
X124040000Y-137770000D02*
X118960000Y-137770000D01*
X118960000Y-137770000D02*
X118960000Y-135230000D01*
X118960000Y-135230000D02*
X124040000Y-135230000D01*
D13*
X124040000Y-135230000D02*
X124040000Y-137770000D01*
X124040000Y-137770000D02*
X118960000Y-137770000D01*
X118960000Y-135230000D02*
X124040000Y-135230000D01*
D11*
G04 #@! TO.C,C1*
X141754000Y-136730000D02*
X141754000Y-139270000D01*
X141754000Y-139270000D02*
X142770000Y-139270000D01*
X142770000Y-136730000D02*
X142770000Y-139270000D01*
X141754000Y-136730000D02*
X142770000Y-136730000D01*
D12*
X143659000Y-138635000D02*
X140865000Y-138635000D01*
X140865000Y-138635000D02*
X140865000Y-137365000D01*
X140865000Y-137365000D02*
X143659000Y-137365000D01*
X143659000Y-137365000D02*
X143659000Y-138635000D01*
G04 #@! TO.C,R7*
X60397000Y-137635000D02*
X57603000Y-137635000D01*
X57603000Y-137635000D02*
X57603000Y-136365000D01*
X57603000Y-136365000D02*
X60397000Y-136365000D01*
X60397000Y-136365000D02*
X60397000Y-137635000D01*
D11*
G04 #@! TO.C,C2*
X56008000Y-139770000D02*
X56008000Y-137230000D01*
X56008000Y-137230000D02*
X54992000Y-137230000D01*
X54992000Y-139770000D02*
X54992000Y-137230000D01*
X56008000Y-139770000D02*
X54992000Y-139770000D01*
D12*
X54103000Y-137865000D02*
X56897000Y-137865000D01*
X56897000Y-137865000D02*
X56897000Y-139135000D01*
X56897000Y-139135000D02*
X54103000Y-139135000D01*
X54103000Y-139135000D02*
X54103000Y-137865000D01*
G04 #@! TO.C,Q1*
D14*
X95915333Y-137486833D02*
X95830666Y-137444500D01*
X95746000Y-137359833D01*
X95619000Y-137232833D01*
X95534333Y-137190500D01*
X95449666Y-137190500D01*
X95492000Y-137402166D02*
X95407333Y-137359833D01*
X95322666Y-137275166D01*
X95280333Y-137105833D01*
X95280333Y-136809500D01*
X95322666Y-136640166D01*
X95407333Y-136555500D01*
X95492000Y-136513166D01*
X95661333Y-136513166D01*
X95746000Y-136555500D01*
X95830666Y-136640166D01*
X95873000Y-136809500D01*
X95873000Y-137105833D01*
X95830666Y-137275166D01*
X95746000Y-137359833D01*
X95661333Y-137402166D01*
X95492000Y-137402166D01*
X96719666Y-137402166D02*
X96211666Y-137402166D01*
X96465666Y-137402166D02*
X96465666Y-136513166D01*
X96381000Y-136640166D01*
X96296333Y-136724833D01*
X96211666Y-136767166D01*
G04 #@! TO.C,R5*
X66941666Y-138330666D02*
X66518333Y-138627000D01*
X66941666Y-138838666D02*
X66052666Y-138838666D01*
X66052666Y-138500000D01*
X66095000Y-138415333D01*
X66137333Y-138373000D01*
X66222000Y-138330666D01*
X66349000Y-138330666D01*
X66433666Y-138373000D01*
X66476000Y-138415333D01*
X66518333Y-138500000D01*
X66518333Y-138838666D01*
X66052666Y-137526333D02*
X66052666Y-137949666D01*
X66476000Y-137992000D01*
X66433666Y-137949666D01*
X66391333Y-137865000D01*
X66391333Y-137653333D01*
X66433666Y-137568666D01*
X66476000Y-137526333D01*
X66560666Y-137484000D01*
X66772333Y-137484000D01*
X66857000Y-137526333D01*
X66899333Y-137568666D01*
X66941666Y-137653333D01*
X66941666Y-137865000D01*
X66899333Y-137949666D01*
X66857000Y-137992000D01*
G04 #@! TO.C,D1*
X62843833Y-143402166D02*
X62843833Y-142513166D01*
X63055500Y-142513166D01*
X63182500Y-142555500D01*
X63267166Y-142640166D01*
X63309500Y-142724833D01*
X63351833Y-142894166D01*
X63351833Y-143021166D01*
X63309500Y-143190500D01*
X63267166Y-143275166D01*
X63182500Y-143359833D01*
X63055500Y-143402166D01*
X62843833Y-143402166D01*
X64198500Y-143402166D02*
X63690500Y-143402166D01*
X63944500Y-143402166D02*
X63944500Y-142513166D01*
X63859833Y-142640166D01*
X63775166Y-142724833D01*
X63690500Y-142767166D01*
G04 #@! TO.C,D2*
X83343833Y-143402166D02*
X83343833Y-142513166D01*
X83555500Y-142513166D01*
X83682500Y-142555500D01*
X83767166Y-142640166D01*
X83809500Y-142724833D01*
X83851833Y-142894166D01*
X83851833Y-143021166D01*
X83809500Y-143190500D01*
X83767166Y-143275166D01*
X83682500Y-143359833D01*
X83555500Y-143402166D01*
X83343833Y-143402166D01*
X84190500Y-142597833D02*
X84232833Y-142555500D01*
X84317500Y-142513166D01*
X84529166Y-142513166D01*
X84613833Y-142555500D01*
X84656166Y-142597833D01*
X84698500Y-142682500D01*
X84698500Y-142767166D01*
X84656166Y-142894166D01*
X84148166Y-143402166D01*
X84698500Y-143402166D01*
G04 #@! TO.C,D3*
X103343833Y-143402166D02*
X103343833Y-142513166D01*
X103555500Y-142513166D01*
X103682500Y-142555500D01*
X103767166Y-142640166D01*
X103809500Y-142724833D01*
X103851833Y-142894166D01*
X103851833Y-143021166D01*
X103809500Y-143190500D01*
X103767166Y-143275166D01*
X103682500Y-143359833D01*
X103555500Y-143402166D01*
X103343833Y-143402166D01*
X104148166Y-142513166D02*
X104698500Y-142513166D01*
X104402166Y-142851833D01*
X104529166Y-142851833D01*
X104613833Y-142894166D01*
X104656166Y-142936500D01*
X104698500Y-143021166D01*
X104698500Y-143232833D01*
X104656166Y-143317500D01*
X104613833Y-143359833D01*
X104529166Y-143402166D01*
X104275166Y-143402166D01*
X104190500Y-143359833D01*
X104148166Y-143317500D01*
G04 #@! TO.C,D4*
X123343833Y-143402166D02*
X123343833Y-142513166D01*
X123555500Y-142513166D01*
X123682500Y-142555500D01*
X123767166Y-142640166D01*
X123809500Y-142724833D01*
X123851833Y-142894166D01*
X123851833Y-143021166D01*
X123809500Y-143190500D01*
X123767166Y-143275166D01*
X123682500Y-143359833D01*
X123555500Y-143402166D01*
X123343833Y-143402166D01*
X124613833Y-142809500D02*
X124613833Y-143402166D01*
X124402166Y-142470833D02*
X124190500Y-143105833D01*
X124740833Y-143105833D01*
G04 #@! TO.C,D5*
X136843833Y-143402166D02*
X136843833Y-142513166D01*
X137055500Y-142513166D01*
X137182500Y-142555500D01*
X137267166Y-142640166D01*
X137309500Y-142724833D01*
X137351833Y-142894166D01*
X137351833Y-143021166D01*
X137309500Y-143190500D01*
X137267166Y-143275166D01*
X137182500Y-143359833D01*
X137055500Y-143402166D01*
X136843833Y-143402166D01*
X138156166Y-142513166D02*
X137732833Y-142513166D01*
X137690500Y-142936500D01*
X137732833Y-142894166D01*
X137817500Y-142851833D01*
X138029166Y-142851833D01*
X138113833Y-142894166D01*
X138156166Y-142936500D01*
X138198500Y-143021166D01*
X138198500Y-143232833D01*
X138156166Y-143317500D01*
X138113833Y-143359833D01*
X138029166Y-143402166D01*
X137817500Y-143402166D01*
X137732833Y-143359833D01*
X137690500Y-143317500D01*
G04 #@! TO.C,R1*
X55351833Y-147402166D02*
X55055500Y-146978833D01*
X54843833Y-147402166D02*
X54843833Y-146513166D01*
X55182500Y-146513166D01*
X55267166Y-146555500D01*
X55309500Y-146597833D01*
X55351833Y-146682500D01*
X55351833Y-146809500D01*
X55309500Y-146894166D01*
X55267166Y-146936500D01*
X55182500Y-146978833D01*
X54843833Y-146978833D01*
X56198500Y-147402166D02*
X55690500Y-147402166D01*
X55944500Y-147402166D02*
X55944500Y-146513166D01*
X55859833Y-146640166D01*
X55775166Y-146724833D01*
X55690500Y-146767166D01*
G04 #@! TO.C,R2*
X74902166Y-144648166D02*
X74478833Y-144944500D01*
X74902166Y-145156166D02*
X74013166Y-145156166D01*
X74013166Y-144817500D01*
X74055500Y-144732833D01*
X74097833Y-144690500D01*
X74182500Y-144648166D01*
X74309500Y-144648166D01*
X74394166Y-144690500D01*
X74436500Y-144732833D01*
X74478833Y-144817500D01*
X74478833Y-145156166D01*
X74097833Y-144309500D02*
X74055500Y-144267166D01*
X74013166Y-144182500D01*
X74013166Y-143970833D01*
X74055500Y-143886166D01*
X74097833Y-143843833D01*
X74182500Y-143801500D01*
X74267166Y-143801500D01*
X74394166Y-143843833D01*
X74902166Y-144351833D01*
X74902166Y-143801500D01*
G04 #@! TO.C,R3*
X94902166Y-145465666D02*
X94478833Y-145762000D01*
X94902166Y-145973666D02*
X94013166Y-145973666D01*
X94013166Y-145635000D01*
X94055500Y-145550333D01*
X94097833Y-145508000D01*
X94182500Y-145465666D01*
X94309500Y-145465666D01*
X94394166Y-145508000D01*
X94436500Y-145550333D01*
X94478833Y-145635000D01*
X94478833Y-145973666D01*
X94013166Y-145169333D02*
X94013166Y-144619000D01*
X94351833Y-144915333D01*
X94351833Y-144788333D01*
X94394166Y-144703666D01*
X94436500Y-144661333D01*
X94521166Y-144619000D01*
X94732833Y-144619000D01*
X94817500Y-144661333D01*
X94859833Y-144703666D01*
X94902166Y-144788333D01*
X94902166Y-145042333D01*
X94859833Y-145127000D01*
X94817500Y-145169333D01*
G04 #@! TO.C,R4*
X114902166Y-145465666D02*
X114478833Y-145762000D01*
X114902166Y-145973666D02*
X114013166Y-145973666D01*
X114013166Y-145635000D01*
X114055500Y-145550333D01*
X114097833Y-145508000D01*
X114182500Y-145465666D01*
X114309500Y-145465666D01*
X114394166Y-145508000D01*
X114436500Y-145550333D01*
X114478833Y-145635000D01*
X114478833Y-145973666D01*
X114309500Y-144703666D02*
X114902166Y-144703666D01*
X113970833Y-144915333D02*
X114605833Y-145127000D01*
X114605833Y-144576666D01*
G04 #@! TO.C,R6*
X134902166Y-145465666D02*
X134478833Y-145762000D01*
X134902166Y-145973666D02*
X134013166Y-145973666D01*
X134013166Y-145635000D01*
X134055500Y-145550333D01*
X134097833Y-145508000D01*
X134182500Y-145465666D01*
X134309500Y-145465666D01*
X134394166Y-145508000D01*
X134436500Y-145550333D01*
X134478833Y-145635000D01*
X134478833Y-145973666D01*
X134013166Y-144703666D02*
X134013166Y-144873000D01*
X134055500Y-144957666D01*
X134097833Y-145000000D01*
X134224833Y-145084666D01*
X134394166Y-145127000D01*
X134732833Y-145127000D01*
X134817500Y-145084666D01*
X134859833Y-145042333D01*
X134902166Y-144957666D01*
X134902166Y-144788333D01*
X134859833Y-144703666D01*
X134817500Y-144661333D01*
X134732833Y-144619000D01*
X134521166Y-144619000D01*
X134436500Y-144661333D01*
X134394166Y-144703666D01*
X134351833Y-144788333D01*
X134351833Y-144957666D01*
X134394166Y-145042333D01*
X134436500Y-145084666D01*
X134521166Y-145127000D01*
G04 #@! TO.C,R9*
X87941666Y-136830666D02*
X87518333Y-137127000D01*
X87941666Y-137338666D02*
X87052666Y-137338666D01*
X87052666Y-137000000D01*
X87095000Y-136915333D01*
X87137333Y-136873000D01*
X87222000Y-136830666D01*
X87349000Y-136830666D01*
X87433666Y-136873000D01*
X87476000Y-136915333D01*
X87518333Y-137000000D01*
X87518333Y-137338666D01*
X87941666Y-136407333D02*
X87941666Y-136238000D01*
X87899333Y-136153333D01*
X87857000Y-136111000D01*
X87730000Y-136026333D01*
X87560666Y-135984000D01*
X87222000Y-135984000D01*
X87137333Y-136026333D01*
X87095000Y-136068666D01*
X87052666Y-136153333D01*
X87052666Y-136322666D01*
X87095000Y-136407333D01*
X87137333Y-136449666D01*
X87222000Y-136492000D01*
X87433666Y-136492000D01*
X87518333Y-136449666D01*
X87560666Y-136407333D01*
X87603000Y-136322666D01*
X87603000Y-136153333D01*
X87560666Y-136068666D01*
X87518333Y-136026333D01*
X87433666Y-135984000D01*
G04 #@! TO.C,LED1*
D10*
X58880952Y-147952380D02*
X58404761Y-147952380D01*
X58404761Y-146952380D01*
X59214285Y-147428571D02*
X59547619Y-147428571D01*
X59690476Y-147952380D02*
X59214285Y-147952380D01*
X59214285Y-146952380D01*
X59690476Y-146952380D01*
X60119047Y-147952380D02*
X60119047Y-146952380D01*
X60357142Y-146952380D01*
X60500000Y-147000000D01*
X60595238Y-147095238D01*
X60642857Y-147190476D01*
X60690476Y-147380952D01*
X60690476Y-147523809D01*
X60642857Y-147714285D01*
X60595238Y-147809523D01*
X60500000Y-147904761D01*
X60357142Y-147952380D01*
X60119047Y-147952380D01*
X61642857Y-147952380D02*
X61071428Y-147952380D01*
X61357142Y-147952380D02*
X61357142Y-146952380D01*
X61261904Y-147095238D01*
X61166666Y-147190476D01*
X61071428Y-147238095D01*
G04 #@! TO.C,LED2*
X78880952Y-148152380D02*
X78404761Y-148152380D01*
X78404761Y-147152380D01*
X79214285Y-147628571D02*
X79547619Y-147628571D01*
X79690476Y-148152380D02*
X79214285Y-148152380D01*
X79214285Y-147152380D01*
X79690476Y-147152380D01*
X80119047Y-148152380D02*
X80119047Y-147152380D01*
X80357142Y-147152380D01*
X80500000Y-147200000D01*
X80595238Y-147295238D01*
X80642857Y-147390476D01*
X80690476Y-147580952D01*
X80690476Y-147723809D01*
X80642857Y-147914285D01*
X80595238Y-148009523D01*
X80500000Y-148104761D01*
X80357142Y-148152380D01*
X80119047Y-148152380D01*
X81071428Y-147247619D02*
X81119047Y-147200000D01*
X81214285Y-147152380D01*
X81452380Y-147152380D01*
X81547619Y-147200000D01*
X81595238Y-147247619D01*
X81642857Y-147342857D01*
X81642857Y-147438095D01*
X81595238Y-147580952D01*
X81023809Y-148152380D01*
X81642857Y-148152380D01*
G04 #@! TO.C,LED3*
X98880952Y-148152380D02*
X98404761Y-148152380D01*
X98404761Y-147152380D01*
X99214285Y-147628571D02*
X99547619Y-147628571D01*
X99690476Y-148152380D02*
X99214285Y-148152380D01*
X99214285Y-147152380D01*
X99690476Y-147152380D01*
X100119047Y-148152380D02*
X100119047Y-147152380D01*
X100357142Y-147152380D01*
X100500000Y-147200000D01*
X100595238Y-147295238D01*
X100642857Y-147390476D01*
X100690476Y-147580952D01*
X100690476Y-147723809D01*
X100642857Y-147914285D01*
X100595238Y-148009523D01*
X100500000Y-148104761D01*
X100357142Y-148152380D01*
X100119047Y-148152380D01*
X101023809Y-147152380D02*
X101642857Y-147152380D01*
X101309523Y-147533333D01*
X101452380Y-147533333D01*
X101547619Y-147580952D01*
X101595238Y-147628571D01*
X101642857Y-147723809D01*
X101642857Y-147961904D01*
X101595238Y-148057142D01*
X101547619Y-148104761D01*
X101452380Y-148152380D01*
X101166666Y-148152380D01*
X101071428Y-148104761D01*
X101023809Y-148057142D01*
G04 #@! TO.C,LED4*
X118880952Y-148152380D02*
X118404761Y-148152380D01*
X118404761Y-147152380D01*
X119214285Y-147628571D02*
X119547619Y-147628571D01*
X119690476Y-148152380D02*
X119214285Y-148152380D01*
X119214285Y-147152380D01*
X119690476Y-147152380D01*
X120119047Y-148152380D02*
X120119047Y-147152380D01*
X120357142Y-147152380D01*
X120500000Y-147200000D01*
X120595238Y-147295238D01*
X120642857Y-147390476D01*
X120690476Y-147580952D01*
X120690476Y-147723809D01*
X120642857Y-147914285D01*
X120595238Y-148009523D01*
X120500000Y-148104761D01*
X120357142Y-148152380D01*
X120119047Y-148152380D01*
X121547619Y-147485714D02*
X121547619Y-148152380D01*
X121309523Y-147104761D02*
X121071428Y-147819047D01*
X121690476Y-147819047D01*
G04 #@! TO.C,LED5*
X138880952Y-148152380D02*
X138404761Y-148152380D01*
X138404761Y-147152380D01*
X139214285Y-147628571D02*
X139547619Y-147628571D01*
X139690476Y-148152380D02*
X139214285Y-148152380D01*
X139214285Y-147152380D01*
X139690476Y-147152380D01*
X140119047Y-148152380D02*
X140119047Y-147152380D01*
X140357142Y-147152380D01*
X140500000Y-147200000D01*
X140595238Y-147295238D01*
X140642857Y-147390476D01*
X140690476Y-147580952D01*
X140690476Y-147723809D01*
X140642857Y-147914285D01*
X140595238Y-148009523D01*
X140500000Y-148104761D01*
X140357142Y-148152380D01*
X140119047Y-148152380D01*
X141595238Y-147152380D02*
X141119047Y-147152380D01*
X141071428Y-147628571D01*
X141119047Y-147580952D01*
X141214285Y-147533333D01*
X141452380Y-147533333D01*
X141547619Y-147580952D01*
X141595238Y-147628571D01*
X141642857Y-147723809D01*
X141642857Y-147961904D01*
X141595238Y-148057142D01*
X141547619Y-148104761D01*
X141452380Y-148152380D01*
X141214285Y-148152380D01*
X141119047Y-148104761D01*
X141071428Y-148057142D01*
G04 #@! TO.C,C1*
D14*
X139351833Y-138317500D02*
X139309500Y-138359833D01*
X139182500Y-138402166D01*
X139097833Y-138402166D01*
X138970833Y-138359833D01*
X138886166Y-138275166D01*
X138843833Y-138190500D01*
X138801500Y-138021166D01*
X138801500Y-137894166D01*
X138843833Y-137724833D01*
X138886166Y-137640166D01*
X138970833Y-137555500D01*
X139097833Y-137513166D01*
X139182500Y-137513166D01*
X139309500Y-137555500D01*
X139351833Y-137597833D01*
X140198500Y-138402166D02*
X139690500Y-138402166D01*
X139944500Y-138402166D02*
X139944500Y-137513166D01*
X139859833Y-137640166D01*
X139775166Y-137724833D01*
X139690500Y-137767166D01*
G04 #@! TO.C,R7*
X59169333Y-135941666D02*
X58873000Y-135518333D01*
X58661333Y-135941666D02*
X58661333Y-135052666D01*
X59000000Y-135052666D01*
X59084666Y-135095000D01*
X59127000Y-135137333D01*
X59169333Y-135222000D01*
X59169333Y-135349000D01*
X59127000Y-135433666D01*
X59084666Y-135476000D01*
X59000000Y-135518333D01*
X58661333Y-135518333D01*
X59465666Y-135052666D02*
X60058333Y-135052666D01*
X59677333Y-135941666D01*
G04 #@! TO.C,C2*
X55351833Y-137317500D02*
X55309500Y-137359833D01*
X55182500Y-137402166D01*
X55097833Y-137402166D01*
X54970833Y-137359833D01*
X54886166Y-137275166D01*
X54843833Y-137190500D01*
X54801500Y-137021166D01*
X54801500Y-136894166D01*
X54843833Y-136724833D01*
X54886166Y-136640166D01*
X54970833Y-136555500D01*
X55097833Y-136513166D01*
X55182500Y-136513166D01*
X55309500Y-136555500D01*
X55351833Y-136597833D01*
X55690500Y-136597833D02*
X55732833Y-136555500D01*
X55817500Y-136513166D01*
X56029166Y-136513166D01*
X56113833Y-136555500D01*
X56156166Y-136597833D01*
X56198500Y-136682500D01*
X56198500Y-136767166D01*
X56156166Y-136894166D01*
X55648166Y-137402166D01*
X56198500Y-137402166D01*
G04 #@! TD*
M02*
