M48
;DRILL file {KiCad 5.0.0-rc2-unknown-81af2db~65~ubuntu18.04.1} date Tue May 29 11:57:12 2018
;FORMAT={-:-/ absolute / metric / decimal}
FMAT,2
METRIC,TZ
T1C0.400
T2C0.889
%
G90
G05
M71
T1
X54.5Y-145.5
X56.5Y-147.
X57.5Y-148.
X60.Y-141.
X60.922Y-137.124
X61.Y-136.
X64.5Y-141.
X65.Y-135.5
X72.5Y-143.
X72.577Y-146.185
X74.5Y-141.5
X82.Y-143.
X90.5Y-139.
X102.5Y-143.
X103.5Y-144.5
X104.5Y-144.5
X105.5Y-144.5
X106.5Y-144.5
X107.5Y-144.5
X108.5Y-144.5
X108.5Y-148.
X109.5Y-144.5
X109.5Y-148.
X122.5Y-143.
X142.5Y-143.
X143.5Y-145.5
T2
X99.92Y-136.5
X102.46Y-136.5
X105.Y-136.5
X107.54Y-136.5
X110.08Y-136.5
X112.62Y-136.5
X115.16Y-136.5
X117.7Y-136.5
X120.23Y-136.5
X122.77Y-136.5
X70.46Y-136.73
X70.46Y-139.27
X73.Y-136.73
X73.Y-139.27
X75.54Y-136.73
X75.54Y-139.27
X52.Y-139.96
X52.Y-142.5
X52.Y-145.04
X148.Y-139.96
X148.Y-142.5
X148.Y-145.04
T0
M30
