G04 #@! TF.GenerationSoftware,KiCad,Pcbnew,5.0.0-rc2-unknown-81af2db~65~ubuntu18.04.1*
G04 #@! TF.CreationDate,2018-05-29T11:42:29+02:00*
G04 #@! TF.ProjectId,universal_lights,756E6976657273616C5F6C6967687473,rev?*
G04 #@! TF.SameCoordinates,Original*
G04 #@! TF.FileFunction,Copper,L2,Bot,Signal*
G04 #@! TF.FilePolarity,Positive*
%FSLAX46Y46*%
G04 Gerber Fmt 4.6, Leading zero omitted, Abs format (unit mm)*
G04 Created by KiCad (PCBNEW 5.0.0-rc2-unknown-81af2db~65~ubuntu18.04.1) date Tue May 29 11:42:29 2018*
%MOMM*%
%LPD*%
G01*
G04 APERTURE LIST*
G04 #@! TA.AperFunction,ComponentPad*
%ADD10R,1.651000X1.651000*%
G04 #@! TD*
G04 #@! TA.AperFunction,ComponentPad*
%ADD11C,1.651000*%
G04 #@! TD*
G04 #@! TA.AperFunction,SMDPad,CuDef*
%ADD12R,0.550000X1.600000*%
G04 #@! TD*
G04 #@! TA.AperFunction,SMDPad,CuDef*
%ADD13R,1.600000X0.550000*%
G04 #@! TD*
G04 #@! TA.AperFunction,SMDPad,CuDef*
%ADD14R,1.699260X0.698500*%
G04 #@! TD*
G04 #@! TA.AperFunction,ViaPad*
%ADD15C,0.600000*%
G04 #@! TD*
G04 #@! TA.AperFunction,Conductor*
%ADD16C,0.600000*%
G04 #@! TD*
G04 #@! TA.AperFunction,Conductor*
%ADD17C,0.250000*%
G04 #@! TD*
G04 #@! TA.AperFunction,Conductor*
%ADD18C,0.150000*%
G04 #@! TD*
G04 APERTURE END LIST*
D10*
G04 #@! TO.P,J1,1*
G04 #@! TO.N,+5V*
X52000000Y-139960000D03*
D11*
G04 #@! TO.P,J1,2*
G04 #@! TO.N,GND*
X52000000Y-142500000D03*
G04 #@! TO.P,J1,3*
G04 #@! TO.N,/datos_led_in*
X52000000Y-145040000D03*
G04 #@! TD*
D10*
G04 #@! TO.P,J2,1*
G04 #@! TO.N,+5V*
X148000000Y-139960000D03*
D11*
G04 #@! TO.P,J2,2*
G04 #@! TO.N,GND*
X148000000Y-142500000D03*
G04 #@! TO.P,J2,3*
G04 #@! TO.N,/datos_led_out*
X148000000Y-145040000D03*
G04 #@! TD*
D10*
G04 #@! TO.P,J3,1*
G04 #@! TO.N,/miso*
X70460000Y-139270000D03*
D11*
G04 #@! TO.P,J3,2*
G04 #@! TO.N,/clk*
X73000000Y-139270000D03*
G04 #@! TO.P,J3,3*
G04 #@! TO.N,/reset*
X75540000Y-139270000D03*
G04 #@! TO.P,J3,4*
G04 #@! TO.N,GND*
X75540000Y-136730000D03*
G04 #@! TO.P,J3,5*
G04 #@! TO.N,/mosi*
X73000000Y-136730000D03*
G04 #@! TO.P,J3,6*
G04 #@! TO.N,+5V*
X70460000Y-136730000D03*
G04 #@! TD*
D10*
G04 #@! TO.P,J4,1*
G04 #@! TO.N,/pwm2*
X99920000Y-136500000D03*
D11*
G04 #@! TO.P,J4,2*
G04 #@! TO.N,/a0*
X102460000Y-136500000D03*
G04 #@! TO.P,J4,3*
G04 #@! TO.N,/a1*
X105000000Y-136500000D03*
G04 #@! TO.P,J4,4*
G04 #@! TO.N,/a2*
X107540000Y-136500000D03*
G04 #@! TO.P,J4,5*
G04 #@! TO.N,/sda*
X110080000Y-136500000D03*
G04 #@! TO.P,J4,6*
G04 #@! TO.N,/scl*
X112620000Y-136500000D03*
G04 #@! TO.P,J4,7*
G04 #@! TO.N,/int0*
X115160000Y-136500000D03*
G04 #@! TO.P,J4,8*
G04 #@! TO.N,/int1*
X117700000Y-136500000D03*
G04 #@! TD*
D10*
G04 #@! TO.P,J5,1*
G04 #@! TO.N,+5V*
X122770000Y-136500000D03*
D11*
G04 #@! TO.P,J5,2*
G04 #@! TO.N,GND*
X120230000Y-136500000D03*
G04 #@! TD*
D12*
G04 #@! TO.P,U1,32*
G04 #@! TO.N,/int0*
X59200000Y-147250000D03*
G04 #@! TO.P,U1,31*
G04 #@! TO.N,N/C*
X60000000Y-147250000D03*
G04 #@! TO.P,U1,30*
X60800000Y-147250000D03*
G04 #@! TO.P,U1,29*
G04 #@! TO.N,/reset*
X61600000Y-147250000D03*
G04 #@! TO.P,U1,28*
G04 #@! TO.N,/scl*
X62400000Y-147250000D03*
G04 #@! TO.P,U1,27*
G04 #@! TO.N,/sda*
X63200000Y-147250000D03*
G04 #@! TO.P,U1,26*
G04 #@! TO.N,N/C*
X64000000Y-147250000D03*
G04 #@! TO.P,U1,25*
G04 #@! TO.N,/a2*
X64800000Y-147250000D03*
D13*
G04 #@! TO.P,U1,24*
G04 #@! TO.N,/a1*
X66250000Y-145800000D03*
G04 #@! TO.P,U1,23*
G04 #@! TO.N,/a0*
X66250000Y-145000000D03*
G04 #@! TO.P,U1,22*
G04 #@! TO.N,N/C*
X66250000Y-144200000D03*
G04 #@! TO.P,U1,21*
G04 #@! TO.N,GND*
X66250000Y-143400000D03*
G04 #@! TO.P,U1,20*
G04 #@! TO.N,+5V*
X66250000Y-142600000D03*
G04 #@! TO.P,U1,19*
G04 #@! TO.N,N/C*
X66250000Y-141800000D03*
G04 #@! TO.P,U1,18*
G04 #@! TO.N,+5V*
X66250000Y-141000000D03*
G04 #@! TO.P,U1,17*
G04 #@! TO.N,/clk*
X66250000Y-140200000D03*
D12*
G04 #@! TO.P,U1,16*
G04 #@! TO.N,/miso*
X64800000Y-138750000D03*
G04 #@! TO.P,U1,15*
G04 #@! TO.N,/mosi*
X64000000Y-138750000D03*
G04 #@! TO.P,U1,14*
G04 #@! TO.N,/pwm2*
X63200000Y-138750000D03*
G04 #@! TO.P,U1,13*
G04 #@! TO.N,/pwm1*
X62400000Y-138750000D03*
G04 #@! TO.P,U1,12*
G04 #@! TO.N,/datos_led_in*
X61600000Y-138750000D03*
G04 #@! TO.P,U1,11*
G04 #@! TO.N,N/C*
X60800000Y-138750000D03*
G04 #@! TO.P,U1,10*
X60000000Y-138750000D03*
G04 #@! TO.P,U1,9*
X59200000Y-138750000D03*
D13*
G04 #@! TO.P,U1,8*
G04 #@! TO.N,Net-(U1-Pad8)*
X57750000Y-140200000D03*
G04 #@! TO.P,U1,7*
G04 #@! TO.N,Net-(U1-Pad7)*
X57750000Y-141000000D03*
G04 #@! TO.P,U1,6*
G04 #@! TO.N,+5V*
X57750000Y-141800000D03*
G04 #@! TO.P,U1,5*
G04 #@! TO.N,GND*
X57750000Y-142600000D03*
G04 #@! TO.P,U1,4*
G04 #@! TO.N,+5V*
X57750000Y-143400000D03*
G04 #@! TO.P,U1,3*
G04 #@! TO.N,GND*
X57750000Y-144200000D03*
G04 #@! TO.P,U1,2*
G04 #@! TO.N,N/C*
X57750000Y-145000000D03*
G04 #@! TO.P,U1,1*
G04 #@! TO.N,/int1*
X57750000Y-145800000D03*
G04 #@! TD*
D14*
G04 #@! TO.P,Y1,1*
G04 #@! TO.N,Net-(U1-Pad8)*
X55000000Y-138801120D03*
G04 #@! TO.P,Y1,2*
G04 #@! TO.N,GND*
X55000000Y-140000000D03*
G04 #@! TO.P,Y1,3*
G04 #@! TO.N,Net-(U1-Pad7)*
X55000000Y-141198880D03*
G04 #@! TD*
D15*
G04 #@! TO.N,Net-(D1-Pad-)*
X72500000Y-143000000D03*
X90500000Y-139000016D03*
X82000000Y-143000000D03*
X102500000Y-143000000D03*
X122500000Y-143000000D03*
X142500000Y-143000000D03*
G04 #@! TO.N,+5V*
X54500000Y-145500000D03*
X72576927Y-146184625D03*
X61000000Y-136000016D03*
G04 #@! TO.N,/datos_led_in*
X58500002Y-137000000D03*
G04 #@! TO.N,/datos_led_out*
X143499998Y-145500000D03*
G04 #@! TO.N,/reset*
X60000000Y-141000000D03*
G04 #@! TO.N,/pwm1*
X65000000Y-135500000D03*
G04 #@! TO.N,/pwm2*
X74500000Y-141500006D03*
X64500000Y-141000000D03*
G04 #@! TO.N,/a0*
X103500000Y-144500000D03*
G04 #@! TO.N,/a1*
X104500000Y-144500000D03*
G04 #@! TO.N,/a2*
X105500000Y-144500000D03*
G04 #@! TO.N,/sda*
X106500000Y-144500000D03*
G04 #@! TO.N,/scl*
X107500000Y-144500000D03*
G04 #@! TO.N,/int0*
X108500000Y-148000000D03*
X57500000Y-147999988D03*
X108500000Y-144500000D03*
G04 #@! TO.N,/int1*
X109500000Y-148000000D03*
X109500000Y-144500000D03*
X56500000Y-147000000D03*
G04 #@! TD*
D16*
G04 #@! TO.N,Net-(D1-Pad-)*
X82000000Y-143000000D02*
X72500000Y-143000000D01*
X85999984Y-139000016D02*
X90075736Y-139000016D01*
X82000000Y-143000000D02*
X85999984Y-139000016D01*
X90075736Y-139000016D02*
X90500000Y-139000016D01*
X142500000Y-143000000D02*
X141000000Y-143000000D01*
X138000000Y-140000000D02*
X141000000Y-143000000D01*
X128000000Y-140000000D02*
X138000000Y-140000000D01*
X125000000Y-143000000D02*
X128000000Y-140000000D01*
X122500000Y-143000000D02*
X125000000Y-143000000D01*
X87000000Y-146000000D02*
X94000000Y-146000000D01*
X94000000Y-146000000D02*
X97000000Y-143000000D01*
X84000000Y-143000000D02*
X87000000Y-146000000D01*
X82000000Y-143000000D02*
X84000000Y-143000000D01*
X97000000Y-143000000D02*
X102500000Y-143000000D01*
X102500000Y-143000000D02*
X103000000Y-143000000D01*
X103000000Y-143000000D02*
X122500000Y-143000000D01*
D17*
G04 #@! TO.N,+5V*
X57750000Y-143400000D02*
X56600000Y-143400000D01*
X56600000Y-143400000D02*
X54500000Y-145500000D01*
X72276928Y-145884626D02*
X72576927Y-146184625D01*
X66250000Y-141000000D02*
X67392302Y-141000000D01*
X57750000Y-141800000D02*
X58800000Y-141800000D01*
X58800000Y-141800000D02*
X59500000Y-142500000D01*
X58800000Y-143400000D02*
X57750000Y-143400000D01*
X59500000Y-142700000D02*
X58800000Y-143400000D01*
X59500000Y-142500000D02*
X59500000Y-142700000D01*
X67307698Y-142607698D02*
X69000000Y-142607698D01*
X66250000Y-142600000D02*
X67300000Y-142600000D01*
X67392302Y-141000000D02*
X69000000Y-142607698D01*
X67300000Y-142600000D02*
X67307698Y-142607698D01*
X69000000Y-142607698D02*
X72276928Y-145884626D01*
D16*
X60575736Y-136000016D02*
X61000000Y-136000016D01*
X52000000Y-140460000D02*
X52000000Y-137500000D01*
X53499984Y-136000016D02*
X60575736Y-136000016D01*
X52000000Y-137500000D02*
X53499984Y-136000016D01*
D17*
G04 #@! TO.N,/datos_led_in*
X61600000Y-137700000D02*
X60900000Y-137000000D01*
X60900000Y-137000000D02*
X58924266Y-137000000D01*
X61600000Y-138750000D02*
X61600000Y-137700000D01*
X58924266Y-137000000D02*
X58500002Y-137000000D01*
G04 #@! TO.N,/datos_led_out*
X143999998Y-145000000D02*
X143499998Y-145500000D01*
X148000000Y-145540000D02*
X147460000Y-145000000D01*
X147460000Y-145000000D02*
X143999998Y-145000000D01*
G04 #@! TO.N,/miso*
X68770000Y-139270000D02*
X68250000Y-138750000D01*
X68250000Y-138750000D02*
X64800000Y-138750000D01*
X70460000Y-139270000D02*
X68770000Y-139270000D01*
G04 #@! TO.N,/clk*
X66250000Y-140200000D02*
X68200000Y-140200000D01*
X68200000Y-140200000D02*
X69000000Y-141000000D01*
X69000000Y-141000000D02*
X72500000Y-141000000D01*
X72500000Y-141000000D02*
X73000000Y-140500000D01*
X73000000Y-140500000D02*
X73000000Y-139270000D01*
G04 #@! TO.N,/reset*
X60299999Y-141299999D02*
X60000000Y-141000000D01*
X61600000Y-142600000D02*
X60299999Y-141299999D01*
X61600000Y-147250000D02*
X61600000Y-142600000D01*
X61600000Y-147250000D02*
X61600000Y-146200000D01*
G04 #@! TO.N,/mosi*
X65200000Y-136500000D02*
X64000000Y-137700000D01*
X67200000Y-136500000D02*
X65200000Y-136500000D01*
X64000000Y-137700000D02*
X64000000Y-138750000D01*
X68170501Y-135529499D02*
X67200000Y-136500000D01*
X73000000Y-136730000D02*
X71799499Y-135529499D01*
X71799499Y-135529499D02*
X68170501Y-135529499D01*
G04 #@! TO.N,/pwm1*
X63000000Y-135500000D02*
X62400000Y-136100000D01*
X62400000Y-136100000D02*
X62400000Y-138750000D01*
X65000000Y-135500000D02*
X63000000Y-135500000D01*
X62500000Y-138650000D02*
X62400000Y-138750000D01*
G04 #@! TO.N,/pwm2*
X74500000Y-141500006D02*
X75499994Y-141500006D01*
X75499994Y-141500006D02*
X80500000Y-136500000D01*
X80500000Y-136500000D02*
X99920000Y-136500000D01*
X64400000Y-141000000D02*
X64500000Y-141000000D01*
X63200000Y-139800000D02*
X64400000Y-141000000D01*
X63200000Y-138750000D02*
X63200000Y-139800000D01*
G04 #@! TO.N,/a0*
X102999970Y-147499970D02*
X102999970Y-145000030D01*
X102999970Y-145000030D02*
X103500000Y-144500000D01*
X69799970Y-147499970D02*
X102999970Y-147499970D01*
X66250000Y-145000000D02*
X67300000Y-145000000D01*
X67300000Y-145000000D02*
X69799970Y-147499970D01*
X102999970Y-147499970D02*
X103000000Y-147500000D01*
G04 #@! TO.N,/a1*
X102999990Y-148000010D02*
X103207110Y-148000010D01*
X103207110Y-148000010D02*
X104500000Y-146707120D01*
X104500000Y-146707120D02*
X104500000Y-144500000D01*
X66250000Y-145800000D02*
X67300000Y-145800000D01*
X67300000Y-145800000D02*
X69500010Y-148000010D01*
X69500010Y-148000010D02*
X102999990Y-148000010D01*
X102999990Y-148000010D02*
X103000000Y-148000000D01*
G04 #@! TO.N,/a2*
X103414224Y-148500020D02*
X105500000Y-146414244D01*
X105500000Y-146414244D02*
X105500000Y-144500000D01*
X64800000Y-147250000D02*
X65325000Y-147250000D01*
X65325000Y-147250000D02*
X66575020Y-148500020D01*
X66575020Y-148500020D02*
X103414224Y-148500020D01*
X103414224Y-148500020D02*
X103414254Y-148499990D01*
X103414254Y-148499990D02*
X103499990Y-148499990D01*
X103499990Y-148499990D02*
X103500000Y-148500000D01*
G04 #@! TO.N,/sda*
X103499970Y-149000030D02*
X103707090Y-149000030D01*
X103707090Y-149000030D02*
X106500000Y-146207120D01*
X106500000Y-146207120D02*
X106500000Y-144500000D01*
X63200000Y-147250000D02*
X63200000Y-148300000D01*
X63200000Y-148300000D02*
X63900030Y-149000030D01*
X103499970Y-149000030D02*
X103500000Y-149000000D01*
X63900030Y-149000030D02*
X103499970Y-149000030D01*
G04 #@! TO.N,/scl*
X103999960Y-149500040D02*
X107500000Y-146000000D01*
X107500000Y-146000000D02*
X107500000Y-144500000D01*
X62400000Y-147250000D02*
X62400000Y-148300000D01*
X62400000Y-148300000D02*
X63600040Y-149500040D01*
X63600040Y-149500040D02*
X103999960Y-149500040D01*
X103999960Y-149500040D02*
X104000000Y-149500000D01*
G04 #@! TO.N,/int0*
X108500000Y-144500000D02*
X108500000Y-148000000D01*
X59200000Y-147250000D02*
X58249988Y-147250000D01*
X57799999Y-147699989D02*
X57500000Y-147999988D01*
X58249988Y-147250000D02*
X57799999Y-147699989D01*
G04 #@! TO.N,/int1*
X109500000Y-144500000D02*
X109500000Y-148000000D01*
X57750000Y-145800000D02*
X57700000Y-145800000D01*
X57700000Y-145800000D02*
X56500000Y-147000000D01*
G04 #@! TO.N,Net-(U1-Pad8)*
X57750000Y-140200000D02*
X57750000Y-139675000D01*
X56876120Y-138801120D02*
X55000000Y-138801120D01*
X57750000Y-139675000D02*
X56876120Y-138801120D01*
G04 #@! TO.N,Net-(U1-Pad7)*
X55198880Y-141000000D02*
X55000000Y-141198880D01*
X57750000Y-141000000D02*
X55198880Y-141000000D01*
G04 #@! TD*
D18*
G04 #@! TO.N,GND*
G36*
X62113145Y-135750460D02*
X62075568Y-135775568D01*
X61976109Y-135924420D01*
X61961072Y-136000016D01*
X61941184Y-136100000D01*
X61950000Y-136144320D01*
X61950000Y-137413834D01*
X61924432Y-137375568D01*
X61886857Y-137350461D01*
X61249540Y-136713145D01*
X61224432Y-136675568D01*
X61139417Y-136618763D01*
X61182306Y-136600997D01*
X61243863Y-136588753D01*
X61296050Y-136553883D01*
X61354034Y-136529865D01*
X61398412Y-136485487D01*
X61450600Y-136450616D01*
X61485471Y-136398428D01*
X61529849Y-136354050D01*
X61553867Y-136296066D01*
X61588737Y-136243879D01*
X61600981Y-136182322D01*
X61625000Y-136124336D01*
X61625000Y-136061571D01*
X61637244Y-136000016D01*
X61625000Y-135938461D01*
X61625000Y-135875696D01*
X61600981Y-135817710D01*
X61588737Y-135756153D01*
X61553867Y-135703966D01*
X61529849Y-135645982D01*
X61485471Y-135601604D01*
X61450600Y-135549416D01*
X61398412Y-135514545D01*
X61354034Y-135470167D01*
X61296050Y-135446149D01*
X61243863Y-135411279D01*
X61182306Y-135399035D01*
X61124320Y-135375016D01*
X53561539Y-135375016D01*
X53499984Y-135362772D01*
X53438429Y-135375016D01*
X53256121Y-135411279D01*
X53049384Y-135549416D01*
X53014513Y-135601604D01*
X51601588Y-137014530D01*
X51549401Y-137049400D01*
X51440509Y-137212368D01*
X51411263Y-137256138D01*
X51362756Y-137500000D01*
X51375001Y-137561560D01*
X51375001Y-138803133D01*
X51174500Y-138803133D01*
X51047691Y-138828357D01*
X50940188Y-138900188D01*
X50868357Y-139007691D01*
X50843133Y-139134500D01*
X50843133Y-140785500D01*
X50868357Y-140912309D01*
X50940188Y-141019812D01*
X51047691Y-141091643D01*
X51174500Y-141116867D01*
X52825500Y-141116867D01*
X52952309Y-141091643D01*
X53059812Y-141019812D01*
X53131643Y-140912309D01*
X53156867Y-140785500D01*
X53156867Y-139134500D01*
X53131643Y-139007691D01*
X53059812Y-138900188D01*
X52952309Y-138828357D01*
X52825500Y-138803133D01*
X52625000Y-138803133D01*
X52625000Y-137758882D01*
X53758867Y-136625016D01*
X57991103Y-136625016D01*
X57970153Y-136645966D01*
X57875002Y-136875680D01*
X57875002Y-137124320D01*
X57970153Y-137354034D01*
X58145968Y-137529849D01*
X58375682Y-137625000D01*
X58624322Y-137625000D01*
X58854036Y-137529849D01*
X58933885Y-137450000D01*
X60713605Y-137450000D01*
X60882238Y-137618633D01*
X60525000Y-137618633D01*
X60400000Y-137643497D01*
X60275000Y-137618633D01*
X59725000Y-137618633D01*
X59600000Y-137643497D01*
X59475000Y-137618633D01*
X58925000Y-137618633D01*
X58798191Y-137643857D01*
X58690688Y-137715688D01*
X58618857Y-137823191D01*
X58593633Y-137950000D01*
X58593633Y-139550000D01*
X58604467Y-139604467D01*
X58550000Y-139593633D01*
X58192631Y-139593633D01*
X58173891Y-139499419D01*
X58074432Y-139350568D01*
X58036857Y-139325461D01*
X57225660Y-138514265D01*
X57200552Y-138476688D01*
X57051701Y-138377229D01*
X56920441Y-138351120D01*
X56920440Y-138351120D01*
X56876120Y-138342304D01*
X56831800Y-138351120D01*
X56160956Y-138351120D01*
X56155773Y-138325061D01*
X56083942Y-138217558D01*
X55976439Y-138145727D01*
X55849630Y-138120503D01*
X54150370Y-138120503D01*
X54023561Y-138145727D01*
X53916058Y-138217558D01*
X53844227Y-138325061D01*
X53819003Y-138451870D01*
X53819003Y-139150370D01*
X53844227Y-139277179D01*
X53916058Y-139384682D01*
X54023561Y-139456513D01*
X54150370Y-139481737D01*
X55849630Y-139481737D01*
X55976439Y-139456513D01*
X56083942Y-139384682D01*
X56155773Y-139277179D01*
X56160956Y-139251120D01*
X56689725Y-139251120D01*
X57032237Y-139593633D01*
X56950000Y-139593633D01*
X56823191Y-139618857D01*
X56715688Y-139690688D01*
X56643857Y-139798191D01*
X56618633Y-139925000D01*
X56618633Y-140475000D01*
X56633551Y-140550000D01*
X55986186Y-140550000D01*
X55976439Y-140543487D01*
X55849630Y-140518263D01*
X54150370Y-140518263D01*
X54023561Y-140543487D01*
X53916058Y-140615318D01*
X53844227Y-140722821D01*
X53819003Y-140849630D01*
X53819003Y-141548130D01*
X53844227Y-141674939D01*
X53916058Y-141782442D01*
X54023561Y-141854273D01*
X54150370Y-141879497D01*
X55849630Y-141879497D01*
X55976439Y-141854273D01*
X56083942Y-141782442D01*
X56155773Y-141674939D01*
X56180997Y-141548130D01*
X56180997Y-141450000D01*
X56633551Y-141450000D01*
X56618633Y-141525000D01*
X56618633Y-142075000D01*
X56643857Y-142201809D01*
X56715688Y-142309312D01*
X56823191Y-142381143D01*
X56950000Y-142406367D01*
X58550000Y-142406367D01*
X58676809Y-142381143D01*
X58717535Y-142353931D01*
X58963604Y-142600000D01*
X58717535Y-142846069D01*
X58676809Y-142818857D01*
X58550000Y-142793633D01*
X56950000Y-142793633D01*
X56823191Y-142818857D01*
X56715688Y-142890688D01*
X56676057Y-142950000D01*
X56644316Y-142950000D01*
X56599999Y-142941185D01*
X56555682Y-142950000D01*
X56555679Y-142950000D01*
X56424419Y-142976109D01*
X56424418Y-142976110D01*
X56424417Y-142976110D01*
X56385956Y-143001809D01*
X56275568Y-143075568D01*
X56250462Y-143113142D01*
X54488605Y-144875000D01*
X54375680Y-144875000D01*
X54145966Y-144970151D01*
X53970151Y-145145966D01*
X53875000Y-145375680D01*
X53875000Y-145624320D01*
X53970151Y-145854034D01*
X54145966Y-146029849D01*
X54375680Y-146125000D01*
X54624320Y-146125000D01*
X54854034Y-146029849D01*
X55029849Y-145854034D01*
X55125000Y-145624320D01*
X55125000Y-145511395D01*
X56722519Y-143913877D01*
X56823191Y-143981143D01*
X56950000Y-144006367D01*
X58550000Y-144006367D01*
X58676809Y-143981143D01*
X58784312Y-143909312D01*
X58820819Y-143854675D01*
X58844320Y-143850000D01*
X58844321Y-143850000D01*
X58975581Y-143823891D01*
X59124432Y-143724432D01*
X59149540Y-143686855D01*
X59786857Y-143049539D01*
X59824432Y-143024432D01*
X59892533Y-142922511D01*
X59923890Y-142875583D01*
X59923890Y-142875582D01*
X59923891Y-142875581D01*
X59950000Y-142744320D01*
X59950000Y-142744318D01*
X59958815Y-142700001D01*
X59950000Y-142655684D01*
X59950000Y-142544316D01*
X59958815Y-142499999D01*
X59950000Y-142455680D01*
X59950000Y-142455679D01*
X59923891Y-142324419D01*
X59916356Y-142313141D01*
X59849537Y-142213141D01*
X59824432Y-142175568D01*
X59786858Y-142150462D01*
X59149540Y-141513145D01*
X59124432Y-141475568D01*
X58975581Y-141376109D01*
X58865606Y-141354234D01*
X58881367Y-141275000D01*
X58881367Y-140725000D01*
X58856503Y-140600000D01*
X58881367Y-140475000D01*
X58881367Y-139925000D01*
X58870533Y-139870533D01*
X58925000Y-139881367D01*
X59475000Y-139881367D01*
X59600000Y-139856503D01*
X59725000Y-139881367D01*
X60275000Y-139881367D01*
X60400000Y-139856503D01*
X60525000Y-139881367D01*
X61075000Y-139881367D01*
X61200000Y-139856503D01*
X61325000Y-139881367D01*
X61875000Y-139881367D01*
X62000000Y-139856503D01*
X62125000Y-139881367D01*
X62675000Y-139881367D01*
X62754234Y-139865606D01*
X62766049Y-139925000D01*
X62776110Y-139975581D01*
X62875569Y-140124432D01*
X62913143Y-140149538D01*
X63875000Y-141111396D01*
X63875000Y-141124320D01*
X63970151Y-141354034D01*
X64145966Y-141529849D01*
X64375680Y-141625000D01*
X64624320Y-141625000D01*
X64854034Y-141529849D01*
X65029849Y-141354034D01*
X65118633Y-141139691D01*
X65118633Y-141275000D01*
X65143497Y-141400000D01*
X65118633Y-141525000D01*
X65118633Y-142075000D01*
X65143497Y-142200000D01*
X65118633Y-142325000D01*
X65118633Y-142875000D01*
X65143857Y-143001809D01*
X65215688Y-143109312D01*
X65323191Y-143181143D01*
X65450000Y-143206367D01*
X67050000Y-143206367D01*
X67176809Y-143181143D01*
X67284312Y-143109312D01*
X67313707Y-143065319D01*
X67352018Y-143057698D01*
X68813605Y-143057698D01*
X71951927Y-146196021D01*
X71951927Y-146308945D01*
X72047078Y-146538659D01*
X72222893Y-146714474D01*
X72452607Y-146809625D01*
X72701247Y-146809625D01*
X72930961Y-146714474D01*
X73106776Y-146538659D01*
X73201927Y-146308945D01*
X73201927Y-146060305D01*
X73106776Y-145830591D01*
X72930961Y-145654776D01*
X72701247Y-145559625D01*
X72588323Y-145559625D01*
X70028698Y-143000000D01*
X71862756Y-143000000D01*
X71875000Y-143061555D01*
X71875000Y-143124320D01*
X71899019Y-143182306D01*
X71911263Y-143243863D01*
X71946133Y-143296050D01*
X71970151Y-143354034D01*
X72014529Y-143398412D01*
X72049400Y-143450600D01*
X72101588Y-143485471D01*
X72145966Y-143529849D01*
X72203950Y-143553867D01*
X72256137Y-143588737D01*
X72317694Y-143600981D01*
X72375680Y-143625000D01*
X81938445Y-143625000D01*
X82000000Y-143637244D01*
X82061555Y-143625000D01*
X83741118Y-143625000D01*
X86514529Y-146398412D01*
X86549400Y-146450600D01*
X86756137Y-146588737D01*
X87000000Y-146637244D01*
X87061555Y-146625000D01*
X93938445Y-146625000D01*
X94000000Y-146637244D01*
X94061555Y-146625000D01*
X94243863Y-146588737D01*
X94450600Y-146450600D01*
X94485472Y-146398410D01*
X97258883Y-143625000D01*
X124938445Y-143625000D01*
X125000000Y-143637244D01*
X125061555Y-143625000D01*
X125243863Y-143588737D01*
X125450600Y-143450600D01*
X125485472Y-143398410D01*
X128258883Y-140625000D01*
X129496383Y-140625000D01*
X128909575Y-140868064D01*
X128368064Y-141409575D01*
X128075000Y-142117094D01*
X128075000Y-142882906D01*
X128368064Y-143590425D01*
X128909575Y-144131936D01*
X129617094Y-144425000D01*
X130382906Y-144425000D01*
X131090425Y-144131936D01*
X131631936Y-143590425D01*
X131925000Y-142882906D01*
X131925000Y-142117094D01*
X131631936Y-141409575D01*
X131090425Y-140868064D01*
X130503617Y-140625000D01*
X137741118Y-140625000D01*
X140514529Y-143398412D01*
X140549400Y-143450600D01*
X140736448Y-143575581D01*
X140756137Y-143588737D01*
X141000000Y-143637244D01*
X141061555Y-143625000D01*
X142624320Y-143625000D01*
X142682306Y-143600981D01*
X142743863Y-143588737D01*
X142796050Y-143553867D01*
X142854034Y-143529849D01*
X142898412Y-143485471D01*
X142950600Y-143450600D01*
X142985471Y-143398412D01*
X143029849Y-143354034D01*
X143053867Y-143296050D01*
X143088737Y-143243863D01*
X143100981Y-143182306D01*
X143125000Y-143124320D01*
X143125000Y-143061555D01*
X143137244Y-143000000D01*
X143125000Y-142938445D01*
X143125000Y-142875680D01*
X143100981Y-142817694D01*
X143088737Y-142756137D01*
X143053867Y-142703950D01*
X143029849Y-142645966D01*
X142985471Y-142601588D01*
X142950600Y-142549400D01*
X142898412Y-142514529D01*
X142854034Y-142470151D01*
X142796050Y-142446133D01*
X142743863Y-142411263D01*
X142682306Y-142399019D01*
X142624320Y-142375000D01*
X141258883Y-142375000D01*
X138485472Y-139601590D01*
X138450600Y-139549400D01*
X138243863Y-139411263D01*
X138061555Y-139375000D01*
X138000000Y-139362756D01*
X137938445Y-139375000D01*
X128061555Y-139375000D01*
X128000000Y-139362756D01*
X127889770Y-139384682D01*
X127756137Y-139411263D01*
X127549400Y-139549400D01*
X127514529Y-139601588D01*
X124741118Y-142375000D01*
X97061555Y-142375000D01*
X97000000Y-142362756D01*
X96938445Y-142375000D01*
X96756137Y-142411263D01*
X96549400Y-142549400D01*
X96514529Y-142601588D01*
X93741118Y-145375000D01*
X87258883Y-145375000D01*
X84485472Y-142601590D01*
X84450600Y-142549400D01*
X84243863Y-142411263D01*
X84061555Y-142375000D01*
X84000000Y-142362756D01*
X83938445Y-142375000D01*
X83508882Y-142375000D01*
X83766788Y-142117094D01*
X87575000Y-142117094D01*
X87575000Y-142882906D01*
X87868064Y-143590425D01*
X88409575Y-144131936D01*
X89117094Y-144425000D01*
X89882906Y-144425000D01*
X90590425Y-144131936D01*
X91131936Y-143590425D01*
X91425000Y-142882906D01*
X91425000Y-142117094D01*
X91131936Y-141409575D01*
X90590425Y-140868064D01*
X89882906Y-140575000D01*
X89117094Y-140575000D01*
X88409575Y-140868064D01*
X87868064Y-141409575D01*
X87575000Y-142117094D01*
X83766788Y-142117094D01*
X86258867Y-139625016D01*
X90624320Y-139625016D01*
X90682306Y-139600997D01*
X90743863Y-139588753D01*
X90796050Y-139553883D01*
X90854034Y-139529865D01*
X90898412Y-139485487D01*
X90950600Y-139450616D01*
X90985471Y-139398428D01*
X91029849Y-139354050D01*
X91053867Y-139296066D01*
X91088737Y-139243879D01*
X91100981Y-139182322D01*
X91120789Y-139134500D01*
X146843133Y-139134500D01*
X146843133Y-140785500D01*
X146868357Y-140912309D01*
X146940188Y-141019812D01*
X147047691Y-141091643D01*
X147174500Y-141116867D01*
X148825500Y-141116867D01*
X148952309Y-141091643D01*
X149059812Y-141019812D01*
X149131643Y-140912309D01*
X149156867Y-140785500D01*
X149156867Y-139134500D01*
X149131643Y-139007691D01*
X149059812Y-138900188D01*
X148952309Y-138828357D01*
X148825500Y-138803133D01*
X147174500Y-138803133D01*
X147047691Y-138828357D01*
X146940188Y-138900188D01*
X146868357Y-139007691D01*
X146843133Y-139134500D01*
X91120789Y-139134500D01*
X91125000Y-139124336D01*
X91125000Y-139061571D01*
X91137244Y-139000016D01*
X91125000Y-138938461D01*
X91125000Y-138875696D01*
X91100981Y-138817710D01*
X91088737Y-138756153D01*
X91053867Y-138703966D01*
X91029849Y-138645982D01*
X90985471Y-138601604D01*
X90950600Y-138549416D01*
X90898412Y-138514545D01*
X90854034Y-138470167D01*
X90796050Y-138446149D01*
X90743863Y-138411279D01*
X90682306Y-138399035D01*
X90624320Y-138375016D01*
X86061539Y-138375016D01*
X85999984Y-138362772D01*
X85938429Y-138375016D01*
X85756121Y-138411279D01*
X85549384Y-138549416D01*
X85514513Y-138601604D01*
X81741118Y-142375000D01*
X72375680Y-142375000D01*
X72317694Y-142399019D01*
X72256137Y-142411263D01*
X72203950Y-142446133D01*
X72145966Y-142470151D01*
X72101588Y-142514529D01*
X72049400Y-142549400D01*
X72014529Y-142601588D01*
X71970151Y-142645966D01*
X71946133Y-142703950D01*
X71911263Y-142756137D01*
X71899019Y-142817694D01*
X71875000Y-142875680D01*
X71875000Y-142938445D01*
X71862756Y-143000000D01*
X70028698Y-143000000D01*
X69349540Y-142320843D01*
X69324432Y-142283266D01*
X69286857Y-142258160D01*
X67741842Y-140713145D01*
X67716734Y-140675568D01*
X67678469Y-140650000D01*
X68013605Y-140650000D01*
X68650461Y-141286857D01*
X68675568Y-141324432D01*
X68824419Y-141423891D01*
X68955679Y-141450000D01*
X68955680Y-141450000D01*
X69000000Y-141458816D01*
X69044320Y-141450000D01*
X72455680Y-141450000D01*
X72500000Y-141458816D01*
X72544320Y-141450000D01*
X72544321Y-141450000D01*
X72675581Y-141423891D01*
X72747724Y-141375686D01*
X73875000Y-141375686D01*
X73875000Y-141624326D01*
X73970151Y-141854040D01*
X74145966Y-142029855D01*
X74375680Y-142125006D01*
X74624320Y-142125006D01*
X74854034Y-142029855D01*
X74933883Y-141950006D01*
X75455674Y-141950006D01*
X75499994Y-141958822D01*
X75544314Y-141950006D01*
X75544315Y-141950006D01*
X75675575Y-141923897D01*
X75824426Y-141824438D01*
X75849534Y-141786861D01*
X80686396Y-136950000D01*
X98763133Y-136950000D01*
X98763133Y-137325500D01*
X98788357Y-137452309D01*
X98860188Y-137559812D01*
X98967691Y-137631643D01*
X99094500Y-137656867D01*
X100745500Y-137656867D01*
X100872309Y-137631643D01*
X100979812Y-137559812D01*
X101051643Y-137452309D01*
X101076867Y-137325500D01*
X101076867Y-136271151D01*
X101309500Y-136271151D01*
X101309500Y-136728849D01*
X101484653Y-137151706D01*
X101808294Y-137475347D01*
X102231151Y-137650500D01*
X102688849Y-137650500D01*
X103111706Y-137475347D01*
X103435347Y-137151706D01*
X103610500Y-136728849D01*
X103610500Y-136271151D01*
X103849500Y-136271151D01*
X103849500Y-136728849D01*
X104024653Y-137151706D01*
X104348294Y-137475347D01*
X104771151Y-137650500D01*
X105228849Y-137650500D01*
X105651706Y-137475347D01*
X105975347Y-137151706D01*
X106150500Y-136728849D01*
X106150500Y-136271151D01*
X106389500Y-136271151D01*
X106389500Y-136728849D01*
X106564653Y-137151706D01*
X106888294Y-137475347D01*
X107311151Y-137650500D01*
X107768849Y-137650500D01*
X108191706Y-137475347D01*
X108515347Y-137151706D01*
X108690500Y-136728849D01*
X108690500Y-136271151D01*
X108929500Y-136271151D01*
X108929500Y-136728849D01*
X109104653Y-137151706D01*
X109428294Y-137475347D01*
X109851151Y-137650500D01*
X110308849Y-137650500D01*
X110731706Y-137475347D01*
X111055347Y-137151706D01*
X111230500Y-136728849D01*
X111230500Y-136271151D01*
X111469500Y-136271151D01*
X111469500Y-136728849D01*
X111644653Y-137151706D01*
X111968294Y-137475347D01*
X112391151Y-137650500D01*
X112848849Y-137650500D01*
X113271706Y-137475347D01*
X113595347Y-137151706D01*
X113770500Y-136728849D01*
X113770500Y-136271151D01*
X114009500Y-136271151D01*
X114009500Y-136728849D01*
X114184653Y-137151706D01*
X114508294Y-137475347D01*
X114931151Y-137650500D01*
X115388849Y-137650500D01*
X115811706Y-137475347D01*
X116135347Y-137151706D01*
X116310500Y-136728849D01*
X116310500Y-136271151D01*
X116549500Y-136271151D01*
X116549500Y-136728849D01*
X116724653Y-137151706D01*
X117048294Y-137475347D01*
X117471151Y-137650500D01*
X117928849Y-137650500D01*
X118351706Y-137475347D01*
X118675347Y-137151706D01*
X118850500Y-136728849D01*
X118850500Y-136271151D01*
X118675347Y-135848294D01*
X118501553Y-135674500D01*
X121613133Y-135674500D01*
X121613133Y-137325500D01*
X121638357Y-137452309D01*
X121710188Y-137559812D01*
X121817691Y-137631643D01*
X121944500Y-137656867D01*
X123595500Y-137656867D01*
X123722309Y-137631643D01*
X123829812Y-137559812D01*
X123901643Y-137452309D01*
X123926867Y-137325500D01*
X123926867Y-135674500D01*
X123901643Y-135547691D01*
X123829812Y-135440188D01*
X123722309Y-135368357D01*
X123595500Y-135343133D01*
X121944500Y-135343133D01*
X121817691Y-135368357D01*
X121710188Y-135440188D01*
X121638357Y-135547691D01*
X121613133Y-135674500D01*
X118501553Y-135674500D01*
X118351706Y-135524653D01*
X117928849Y-135349500D01*
X117471151Y-135349500D01*
X117048294Y-135524653D01*
X116724653Y-135848294D01*
X116549500Y-136271151D01*
X116310500Y-136271151D01*
X116135347Y-135848294D01*
X115811706Y-135524653D01*
X115388849Y-135349500D01*
X114931151Y-135349500D01*
X114508294Y-135524653D01*
X114184653Y-135848294D01*
X114009500Y-136271151D01*
X113770500Y-136271151D01*
X113595347Y-135848294D01*
X113271706Y-135524653D01*
X112848849Y-135349500D01*
X112391151Y-135349500D01*
X111968294Y-135524653D01*
X111644653Y-135848294D01*
X111469500Y-136271151D01*
X111230500Y-136271151D01*
X111055347Y-135848294D01*
X110731706Y-135524653D01*
X110308849Y-135349500D01*
X109851151Y-135349500D01*
X109428294Y-135524653D01*
X109104653Y-135848294D01*
X108929500Y-136271151D01*
X108690500Y-136271151D01*
X108515347Y-135848294D01*
X108191706Y-135524653D01*
X107768849Y-135349500D01*
X107311151Y-135349500D01*
X106888294Y-135524653D01*
X106564653Y-135848294D01*
X106389500Y-136271151D01*
X106150500Y-136271151D01*
X105975347Y-135848294D01*
X105651706Y-135524653D01*
X105228849Y-135349500D01*
X104771151Y-135349500D01*
X104348294Y-135524653D01*
X104024653Y-135848294D01*
X103849500Y-136271151D01*
X103610500Y-136271151D01*
X103435347Y-135848294D01*
X103111706Y-135524653D01*
X102688849Y-135349500D01*
X102231151Y-135349500D01*
X101808294Y-135524653D01*
X101484653Y-135848294D01*
X101309500Y-136271151D01*
X101076867Y-136271151D01*
X101076867Y-135674500D01*
X101051643Y-135547691D01*
X100979812Y-135440188D01*
X100872309Y-135368357D01*
X100745500Y-135343133D01*
X99094500Y-135343133D01*
X98967691Y-135368357D01*
X98860188Y-135440188D01*
X98788357Y-135547691D01*
X98763133Y-135674500D01*
X98763133Y-136050000D01*
X80544316Y-136050000D01*
X80499999Y-136041185D01*
X80455683Y-136050000D01*
X80455679Y-136050000D01*
X80324419Y-136076109D01*
X80175568Y-136175568D01*
X80150462Y-136213142D01*
X76567283Y-139796322D01*
X76690500Y-139498849D01*
X76690500Y-139041151D01*
X76515347Y-138618294D01*
X76191706Y-138294653D01*
X75768849Y-138119500D01*
X75311151Y-138119500D01*
X74888294Y-138294653D01*
X74564653Y-138618294D01*
X74389500Y-139041151D01*
X74389500Y-139498849D01*
X74564653Y-139921706D01*
X74888294Y-140245347D01*
X75311151Y-140420500D01*
X75768849Y-140420500D01*
X76066322Y-140297283D01*
X75313599Y-141050006D01*
X74933883Y-141050006D01*
X74854034Y-140970157D01*
X74624320Y-140875006D01*
X74375680Y-140875006D01*
X74145966Y-140970157D01*
X73970151Y-141145972D01*
X73875000Y-141375686D01*
X72747724Y-141375686D01*
X72824432Y-141324432D01*
X72849540Y-141286855D01*
X73286858Y-140849538D01*
X73324432Y-140824432D01*
X73423891Y-140675581D01*
X73450000Y-140544321D01*
X73450000Y-140544320D01*
X73458816Y-140500000D01*
X73450000Y-140455680D01*
X73450000Y-140328896D01*
X73651706Y-140245347D01*
X73975347Y-139921706D01*
X74150500Y-139498849D01*
X74150500Y-139041151D01*
X73975347Y-138618294D01*
X73651706Y-138294653D01*
X73228849Y-138119500D01*
X72771151Y-138119500D01*
X72348294Y-138294653D01*
X72024653Y-138618294D01*
X71849500Y-139041151D01*
X71849500Y-139498849D01*
X72024653Y-139921706D01*
X72348294Y-140245347D01*
X72539187Y-140324417D01*
X72313605Y-140550000D01*
X69186396Y-140550000D01*
X68549540Y-139913145D01*
X68524432Y-139875568D01*
X68375581Y-139776109D01*
X68244321Y-139750000D01*
X68244320Y-139750000D01*
X68200000Y-139741184D01*
X68155680Y-139750000D01*
X67323943Y-139750000D01*
X67284312Y-139690688D01*
X67176809Y-139618857D01*
X67050000Y-139593633D01*
X65450000Y-139593633D01*
X65395533Y-139604467D01*
X65406367Y-139550000D01*
X65406367Y-139200000D01*
X68063605Y-139200000D01*
X68420461Y-139556857D01*
X68445568Y-139594432D01*
X68594419Y-139693891D01*
X68725679Y-139720000D01*
X68769999Y-139728816D01*
X68814319Y-139720000D01*
X69303133Y-139720000D01*
X69303133Y-140095500D01*
X69328357Y-140222309D01*
X69400188Y-140329812D01*
X69507691Y-140401643D01*
X69634500Y-140426867D01*
X71285500Y-140426867D01*
X71412309Y-140401643D01*
X71519812Y-140329812D01*
X71591643Y-140222309D01*
X71616867Y-140095500D01*
X71616867Y-138444500D01*
X71591643Y-138317691D01*
X71519812Y-138210188D01*
X71412309Y-138138357D01*
X71285500Y-138113133D01*
X69634500Y-138113133D01*
X69507691Y-138138357D01*
X69400188Y-138210188D01*
X69328357Y-138317691D01*
X69303133Y-138444500D01*
X69303133Y-138820000D01*
X68956396Y-138820000D01*
X68599540Y-138463145D01*
X68574432Y-138425568D01*
X68425581Y-138326109D01*
X68294321Y-138300000D01*
X68294320Y-138300000D01*
X68250000Y-138291184D01*
X68205680Y-138300000D01*
X65406367Y-138300000D01*
X65406367Y-137950000D01*
X65381143Y-137823191D01*
X65309312Y-137715688D01*
X65201809Y-137643857D01*
X65075000Y-137618633D01*
X64717762Y-137618633D01*
X65386396Y-136950000D01*
X67155680Y-136950000D01*
X67200000Y-136958816D01*
X67244320Y-136950000D01*
X67244321Y-136950000D01*
X67375581Y-136923891D01*
X67524432Y-136824432D01*
X67549540Y-136786855D01*
X68356897Y-135979499D01*
X69583448Y-135979499D01*
X69484653Y-136078294D01*
X69309500Y-136501151D01*
X69309500Y-136958849D01*
X69484653Y-137381706D01*
X69808294Y-137705347D01*
X70231151Y-137880500D01*
X70688849Y-137880500D01*
X71111706Y-137705347D01*
X71435347Y-137381706D01*
X71610500Y-136958849D01*
X71610500Y-136501151D01*
X71435347Y-136078294D01*
X71336552Y-135979499D01*
X71613104Y-135979499D01*
X71933049Y-136299445D01*
X71849500Y-136501151D01*
X71849500Y-136958849D01*
X72024653Y-137381706D01*
X72348294Y-137705347D01*
X72771151Y-137880500D01*
X73228849Y-137880500D01*
X73651706Y-137705347D01*
X73975347Y-137381706D01*
X74150500Y-136958849D01*
X74150500Y-136501151D01*
X73975347Y-136078294D01*
X73651706Y-135754653D01*
X73228849Y-135579500D01*
X72771151Y-135579500D01*
X72569445Y-135663049D01*
X72206395Y-135300000D01*
X149700001Y-135300000D01*
X149700000Y-149700000D01*
X104436395Y-149700000D01*
X107786858Y-146349538D01*
X107824432Y-146324432D01*
X107923891Y-146175581D01*
X107950000Y-146044321D01*
X107950000Y-146044320D01*
X107958816Y-146000001D01*
X107950000Y-145955681D01*
X107950000Y-144933883D01*
X108000000Y-144883883D01*
X108050000Y-144933883D01*
X108050001Y-147566116D01*
X107970151Y-147645966D01*
X107875000Y-147875680D01*
X107875000Y-148124320D01*
X107970151Y-148354034D01*
X108145966Y-148529849D01*
X108375680Y-148625000D01*
X108624320Y-148625000D01*
X108854034Y-148529849D01*
X109000000Y-148383883D01*
X109145966Y-148529849D01*
X109375680Y-148625000D01*
X109624320Y-148625000D01*
X109854034Y-148529849D01*
X110029849Y-148354034D01*
X110125000Y-148124320D01*
X110125000Y-147875680D01*
X110029849Y-147645966D01*
X109950000Y-147566117D01*
X109950000Y-145375680D01*
X142874998Y-145375680D01*
X142874998Y-145624320D01*
X142970149Y-145854034D01*
X143145964Y-146029849D01*
X143375678Y-146125000D01*
X143624318Y-146125000D01*
X143854032Y-146029849D01*
X144029847Y-145854034D01*
X144124998Y-145624320D01*
X144124998Y-145511396D01*
X144186394Y-145450000D01*
X146924535Y-145450000D01*
X147024653Y-145691706D01*
X147348294Y-146015347D01*
X147771151Y-146190500D01*
X148228849Y-146190500D01*
X148651706Y-146015347D01*
X148975347Y-145691706D01*
X149150500Y-145268849D01*
X149150500Y-144811151D01*
X148975347Y-144388294D01*
X148651706Y-144064653D01*
X148228849Y-143889500D01*
X147771151Y-143889500D01*
X147348294Y-144064653D01*
X147024653Y-144388294D01*
X146957672Y-144550000D01*
X144044318Y-144550000D01*
X143999998Y-144541184D01*
X143955678Y-144550000D01*
X143955677Y-144550000D01*
X143824417Y-144576109D01*
X143675566Y-144675568D01*
X143650459Y-144713143D01*
X143488602Y-144875000D01*
X143375678Y-144875000D01*
X143145964Y-144970151D01*
X142970149Y-145145966D01*
X142874998Y-145375680D01*
X109950000Y-145375680D01*
X109950000Y-144933883D01*
X110029849Y-144854034D01*
X110125000Y-144624320D01*
X110125000Y-144375680D01*
X110029849Y-144145966D01*
X109854034Y-143970151D01*
X109624320Y-143875000D01*
X109375680Y-143875000D01*
X109145966Y-143970151D01*
X109000000Y-144116117D01*
X108854034Y-143970151D01*
X108624320Y-143875000D01*
X108375680Y-143875000D01*
X108145966Y-143970151D01*
X108000000Y-144116117D01*
X107854034Y-143970151D01*
X107624320Y-143875000D01*
X107375680Y-143875000D01*
X107145966Y-143970151D01*
X107000000Y-144116117D01*
X106854034Y-143970151D01*
X106624320Y-143875000D01*
X106375680Y-143875000D01*
X106145966Y-143970151D01*
X106000000Y-144116117D01*
X105854034Y-143970151D01*
X105624320Y-143875000D01*
X105375680Y-143875000D01*
X105145966Y-143970151D01*
X105000000Y-144116117D01*
X104854034Y-143970151D01*
X104624320Y-143875000D01*
X104375680Y-143875000D01*
X104145966Y-143970151D01*
X104000000Y-144116117D01*
X103854034Y-143970151D01*
X103624320Y-143875000D01*
X103375680Y-143875000D01*
X103145966Y-143970151D01*
X102970151Y-144145966D01*
X102875000Y-144375680D01*
X102875000Y-144488605D01*
X102713113Y-144650492D01*
X102675539Y-144675598D01*
X102650433Y-144713172D01*
X102576080Y-144824449D01*
X102541154Y-145000030D01*
X102549971Y-145044355D01*
X102549970Y-147049970D01*
X69986366Y-147049970D01*
X67649540Y-144713145D01*
X67624432Y-144675568D01*
X67475581Y-144576109D01*
X67365606Y-144554234D01*
X67381367Y-144475000D01*
X67381367Y-143925000D01*
X67356143Y-143798191D01*
X67284312Y-143690688D01*
X67176809Y-143618857D01*
X67050000Y-143593633D01*
X65450000Y-143593633D01*
X65323191Y-143618857D01*
X65215688Y-143690688D01*
X65143857Y-143798191D01*
X65118633Y-143925000D01*
X65118633Y-144475000D01*
X65143497Y-144600000D01*
X65118633Y-144725000D01*
X65118633Y-145275000D01*
X65143497Y-145400000D01*
X65118633Y-145525000D01*
X65118633Y-146075000D01*
X65129467Y-146129467D01*
X65075000Y-146118633D01*
X64525000Y-146118633D01*
X64400000Y-146143497D01*
X64275000Y-146118633D01*
X63725000Y-146118633D01*
X63600000Y-146143497D01*
X63475000Y-146118633D01*
X62925000Y-146118633D01*
X62800000Y-146143497D01*
X62675000Y-146118633D01*
X62125000Y-146118633D01*
X62050000Y-146133551D01*
X62050000Y-142644319D01*
X62058816Y-142599999D01*
X62043782Y-142524419D01*
X62023891Y-142424419D01*
X61924432Y-142275568D01*
X61886857Y-142250462D01*
X60649538Y-141013143D01*
X60649536Y-141013140D01*
X60625000Y-140988604D01*
X60625000Y-140875680D01*
X60529849Y-140645966D01*
X60354034Y-140470151D01*
X60124320Y-140375000D01*
X59875680Y-140375000D01*
X59645966Y-140470151D01*
X59470151Y-140645966D01*
X59375000Y-140875680D01*
X59375000Y-141124320D01*
X59470151Y-141354034D01*
X59645966Y-141529849D01*
X59875680Y-141625000D01*
X59988604Y-141625000D01*
X60013140Y-141649536D01*
X60013143Y-141649538D01*
X61150001Y-142786397D01*
X61150000Y-146133552D01*
X61075000Y-146118633D01*
X60525000Y-146118633D01*
X60400000Y-146143497D01*
X60275000Y-146118633D01*
X59725000Y-146118633D01*
X59600000Y-146143497D01*
X59475000Y-146118633D01*
X58925000Y-146118633D01*
X58870533Y-146129467D01*
X58881367Y-146075000D01*
X58881367Y-145525000D01*
X58856503Y-145400000D01*
X58881367Y-145275000D01*
X58881367Y-144725000D01*
X58856143Y-144598191D01*
X58784312Y-144490688D01*
X58676809Y-144418857D01*
X58550000Y-144393633D01*
X56950000Y-144393633D01*
X56823191Y-144418857D01*
X56715688Y-144490688D01*
X56643857Y-144598191D01*
X56618633Y-144725000D01*
X56618633Y-145275000D01*
X56643497Y-145400000D01*
X56618633Y-145525000D01*
X56618633Y-146075000D01*
X56643857Y-146201809D01*
X56651042Y-146212562D01*
X56488605Y-146375000D01*
X56375680Y-146375000D01*
X56145966Y-146470151D01*
X55970151Y-146645966D01*
X55875000Y-146875680D01*
X55875000Y-147124320D01*
X55970151Y-147354034D01*
X56145966Y-147529849D01*
X56375680Y-147625000D01*
X56624320Y-147625000D01*
X56854034Y-147529849D01*
X57029849Y-147354034D01*
X57125000Y-147124320D01*
X57125000Y-147011395D01*
X57730029Y-146406367D01*
X58550000Y-146406367D01*
X58604467Y-146395533D01*
X58593633Y-146450000D01*
X58593633Y-146800000D01*
X58294310Y-146800000D01*
X58249988Y-146791184D01*
X58074406Y-146826109D01*
X57963129Y-146900462D01*
X57963128Y-146900463D01*
X57925556Y-146925568D01*
X57900451Y-146963140D01*
X57513142Y-147350450D01*
X57488604Y-147374988D01*
X57375680Y-147374988D01*
X57145966Y-147470139D01*
X56970151Y-147645954D01*
X56875000Y-147875668D01*
X56875000Y-148124308D01*
X56970151Y-148354022D01*
X57145966Y-148529837D01*
X57375680Y-148624988D01*
X57624320Y-148624988D01*
X57854034Y-148529837D01*
X58029849Y-148354022D01*
X58125000Y-148124308D01*
X58125000Y-148011384D01*
X58436384Y-147700000D01*
X58593633Y-147700000D01*
X58593633Y-148050000D01*
X58618857Y-148176809D01*
X58690688Y-148284312D01*
X58798191Y-148356143D01*
X58925000Y-148381367D01*
X59475000Y-148381367D01*
X59600000Y-148356503D01*
X59725000Y-148381367D01*
X60275000Y-148381367D01*
X60400000Y-148356503D01*
X60525000Y-148381367D01*
X61075000Y-148381367D01*
X61200000Y-148356503D01*
X61325000Y-148381367D01*
X61875000Y-148381367D01*
X61954234Y-148365606D01*
X61965828Y-148423891D01*
X61976110Y-148475581D01*
X62075569Y-148624432D01*
X62113143Y-148649538D01*
X63163604Y-149700000D01*
X50300000Y-149700000D01*
X50300000Y-144811151D01*
X50849500Y-144811151D01*
X50849500Y-145268849D01*
X51024653Y-145691706D01*
X51348294Y-146015347D01*
X51771151Y-146190500D01*
X52228849Y-146190500D01*
X52651706Y-146015347D01*
X52975347Y-145691706D01*
X53150500Y-145268849D01*
X53150500Y-144811151D01*
X52975347Y-144388294D01*
X52651706Y-144064653D01*
X52228849Y-143889500D01*
X51771151Y-143889500D01*
X51348294Y-144064653D01*
X51024653Y-144388294D01*
X50849500Y-144811151D01*
X50300000Y-144811151D01*
X50300000Y-135300000D01*
X62563604Y-135300000D01*
X62113145Y-135750460D01*
X62113145Y-135750460D01*
G37*
X62113145Y-135750460D02*
X62075568Y-135775568D01*
X61976109Y-135924420D01*
X61961072Y-136000016D01*
X61941184Y-136100000D01*
X61950000Y-136144320D01*
X61950000Y-137413834D01*
X61924432Y-137375568D01*
X61886857Y-137350461D01*
X61249540Y-136713145D01*
X61224432Y-136675568D01*
X61139417Y-136618763D01*
X61182306Y-136600997D01*
X61243863Y-136588753D01*
X61296050Y-136553883D01*
X61354034Y-136529865D01*
X61398412Y-136485487D01*
X61450600Y-136450616D01*
X61485471Y-136398428D01*
X61529849Y-136354050D01*
X61553867Y-136296066D01*
X61588737Y-136243879D01*
X61600981Y-136182322D01*
X61625000Y-136124336D01*
X61625000Y-136061571D01*
X61637244Y-136000016D01*
X61625000Y-135938461D01*
X61625000Y-135875696D01*
X61600981Y-135817710D01*
X61588737Y-135756153D01*
X61553867Y-135703966D01*
X61529849Y-135645982D01*
X61485471Y-135601604D01*
X61450600Y-135549416D01*
X61398412Y-135514545D01*
X61354034Y-135470167D01*
X61296050Y-135446149D01*
X61243863Y-135411279D01*
X61182306Y-135399035D01*
X61124320Y-135375016D01*
X53561539Y-135375016D01*
X53499984Y-135362772D01*
X53438429Y-135375016D01*
X53256121Y-135411279D01*
X53049384Y-135549416D01*
X53014513Y-135601604D01*
X51601588Y-137014530D01*
X51549401Y-137049400D01*
X51440509Y-137212368D01*
X51411263Y-137256138D01*
X51362756Y-137500000D01*
X51375001Y-137561560D01*
X51375001Y-138803133D01*
X51174500Y-138803133D01*
X51047691Y-138828357D01*
X50940188Y-138900188D01*
X50868357Y-139007691D01*
X50843133Y-139134500D01*
X50843133Y-140785500D01*
X50868357Y-140912309D01*
X50940188Y-141019812D01*
X51047691Y-141091643D01*
X51174500Y-141116867D01*
X52825500Y-141116867D01*
X52952309Y-141091643D01*
X53059812Y-141019812D01*
X53131643Y-140912309D01*
X53156867Y-140785500D01*
X53156867Y-139134500D01*
X53131643Y-139007691D01*
X53059812Y-138900188D01*
X52952309Y-138828357D01*
X52825500Y-138803133D01*
X52625000Y-138803133D01*
X52625000Y-137758882D01*
X53758867Y-136625016D01*
X57991103Y-136625016D01*
X57970153Y-136645966D01*
X57875002Y-136875680D01*
X57875002Y-137124320D01*
X57970153Y-137354034D01*
X58145968Y-137529849D01*
X58375682Y-137625000D01*
X58624322Y-137625000D01*
X58854036Y-137529849D01*
X58933885Y-137450000D01*
X60713605Y-137450000D01*
X60882238Y-137618633D01*
X60525000Y-137618633D01*
X60400000Y-137643497D01*
X60275000Y-137618633D01*
X59725000Y-137618633D01*
X59600000Y-137643497D01*
X59475000Y-137618633D01*
X58925000Y-137618633D01*
X58798191Y-137643857D01*
X58690688Y-137715688D01*
X58618857Y-137823191D01*
X58593633Y-137950000D01*
X58593633Y-139550000D01*
X58604467Y-139604467D01*
X58550000Y-139593633D01*
X58192631Y-139593633D01*
X58173891Y-139499419D01*
X58074432Y-139350568D01*
X58036857Y-139325461D01*
X57225660Y-138514265D01*
X57200552Y-138476688D01*
X57051701Y-138377229D01*
X56920441Y-138351120D01*
X56920440Y-138351120D01*
X56876120Y-138342304D01*
X56831800Y-138351120D01*
X56160956Y-138351120D01*
X56155773Y-138325061D01*
X56083942Y-138217558D01*
X55976439Y-138145727D01*
X55849630Y-138120503D01*
X54150370Y-138120503D01*
X54023561Y-138145727D01*
X53916058Y-138217558D01*
X53844227Y-138325061D01*
X53819003Y-138451870D01*
X53819003Y-139150370D01*
X53844227Y-139277179D01*
X53916058Y-139384682D01*
X54023561Y-139456513D01*
X54150370Y-139481737D01*
X55849630Y-139481737D01*
X55976439Y-139456513D01*
X56083942Y-139384682D01*
X56155773Y-139277179D01*
X56160956Y-139251120D01*
X56689725Y-139251120D01*
X57032237Y-139593633D01*
X56950000Y-139593633D01*
X56823191Y-139618857D01*
X56715688Y-139690688D01*
X56643857Y-139798191D01*
X56618633Y-139925000D01*
X56618633Y-140475000D01*
X56633551Y-140550000D01*
X55986186Y-140550000D01*
X55976439Y-140543487D01*
X55849630Y-140518263D01*
X54150370Y-140518263D01*
X54023561Y-140543487D01*
X53916058Y-140615318D01*
X53844227Y-140722821D01*
X53819003Y-140849630D01*
X53819003Y-141548130D01*
X53844227Y-141674939D01*
X53916058Y-141782442D01*
X54023561Y-141854273D01*
X54150370Y-141879497D01*
X55849630Y-141879497D01*
X55976439Y-141854273D01*
X56083942Y-141782442D01*
X56155773Y-141674939D01*
X56180997Y-141548130D01*
X56180997Y-141450000D01*
X56633551Y-141450000D01*
X56618633Y-141525000D01*
X56618633Y-142075000D01*
X56643857Y-142201809D01*
X56715688Y-142309312D01*
X56823191Y-142381143D01*
X56950000Y-142406367D01*
X58550000Y-142406367D01*
X58676809Y-142381143D01*
X58717535Y-142353931D01*
X58963604Y-142600000D01*
X58717535Y-142846069D01*
X58676809Y-142818857D01*
X58550000Y-142793633D01*
X56950000Y-142793633D01*
X56823191Y-142818857D01*
X56715688Y-142890688D01*
X56676057Y-142950000D01*
X56644316Y-142950000D01*
X56599999Y-142941185D01*
X56555682Y-142950000D01*
X56555679Y-142950000D01*
X56424419Y-142976109D01*
X56424418Y-142976110D01*
X56424417Y-142976110D01*
X56385956Y-143001809D01*
X56275568Y-143075568D01*
X56250462Y-143113142D01*
X54488605Y-144875000D01*
X54375680Y-144875000D01*
X54145966Y-144970151D01*
X53970151Y-145145966D01*
X53875000Y-145375680D01*
X53875000Y-145624320D01*
X53970151Y-145854034D01*
X54145966Y-146029849D01*
X54375680Y-146125000D01*
X54624320Y-146125000D01*
X54854034Y-146029849D01*
X55029849Y-145854034D01*
X55125000Y-145624320D01*
X55125000Y-145511395D01*
X56722519Y-143913877D01*
X56823191Y-143981143D01*
X56950000Y-144006367D01*
X58550000Y-144006367D01*
X58676809Y-143981143D01*
X58784312Y-143909312D01*
X58820819Y-143854675D01*
X58844320Y-143850000D01*
X58844321Y-143850000D01*
X58975581Y-143823891D01*
X59124432Y-143724432D01*
X59149540Y-143686855D01*
X59786857Y-143049539D01*
X59824432Y-143024432D01*
X59892533Y-142922511D01*
X59923890Y-142875583D01*
X59923890Y-142875582D01*
X59923891Y-142875581D01*
X59950000Y-142744320D01*
X59950000Y-142744318D01*
X59958815Y-142700001D01*
X59950000Y-142655684D01*
X59950000Y-142544316D01*
X59958815Y-142499999D01*
X59950000Y-142455680D01*
X59950000Y-142455679D01*
X59923891Y-142324419D01*
X59916356Y-142313141D01*
X59849537Y-142213141D01*
X59824432Y-142175568D01*
X59786858Y-142150462D01*
X59149540Y-141513145D01*
X59124432Y-141475568D01*
X58975581Y-141376109D01*
X58865606Y-141354234D01*
X58881367Y-141275000D01*
X58881367Y-140725000D01*
X58856503Y-140600000D01*
X58881367Y-140475000D01*
X58881367Y-139925000D01*
X58870533Y-139870533D01*
X58925000Y-139881367D01*
X59475000Y-139881367D01*
X59600000Y-139856503D01*
X59725000Y-139881367D01*
X60275000Y-139881367D01*
X60400000Y-139856503D01*
X60525000Y-139881367D01*
X61075000Y-139881367D01*
X61200000Y-139856503D01*
X61325000Y-139881367D01*
X61875000Y-139881367D01*
X62000000Y-139856503D01*
X62125000Y-139881367D01*
X62675000Y-139881367D01*
X62754234Y-139865606D01*
X62766049Y-139925000D01*
X62776110Y-139975581D01*
X62875569Y-140124432D01*
X62913143Y-140149538D01*
X63875000Y-141111396D01*
X63875000Y-141124320D01*
X63970151Y-141354034D01*
X64145966Y-141529849D01*
X64375680Y-141625000D01*
X64624320Y-141625000D01*
X64854034Y-141529849D01*
X65029849Y-141354034D01*
X65118633Y-141139691D01*
X65118633Y-141275000D01*
X65143497Y-141400000D01*
X65118633Y-141525000D01*
X65118633Y-142075000D01*
X65143497Y-142200000D01*
X65118633Y-142325000D01*
X65118633Y-142875000D01*
X65143857Y-143001809D01*
X65215688Y-143109312D01*
X65323191Y-143181143D01*
X65450000Y-143206367D01*
X67050000Y-143206367D01*
X67176809Y-143181143D01*
X67284312Y-143109312D01*
X67313707Y-143065319D01*
X67352018Y-143057698D01*
X68813605Y-143057698D01*
X71951927Y-146196021D01*
X71951927Y-146308945D01*
X72047078Y-146538659D01*
X72222893Y-146714474D01*
X72452607Y-146809625D01*
X72701247Y-146809625D01*
X72930961Y-146714474D01*
X73106776Y-146538659D01*
X73201927Y-146308945D01*
X73201927Y-146060305D01*
X73106776Y-145830591D01*
X72930961Y-145654776D01*
X72701247Y-145559625D01*
X72588323Y-145559625D01*
X70028698Y-143000000D01*
X71862756Y-143000000D01*
X71875000Y-143061555D01*
X71875000Y-143124320D01*
X71899019Y-143182306D01*
X71911263Y-143243863D01*
X71946133Y-143296050D01*
X71970151Y-143354034D01*
X72014529Y-143398412D01*
X72049400Y-143450600D01*
X72101588Y-143485471D01*
X72145966Y-143529849D01*
X72203950Y-143553867D01*
X72256137Y-143588737D01*
X72317694Y-143600981D01*
X72375680Y-143625000D01*
X81938445Y-143625000D01*
X82000000Y-143637244D01*
X82061555Y-143625000D01*
X83741118Y-143625000D01*
X86514529Y-146398412D01*
X86549400Y-146450600D01*
X86756137Y-146588737D01*
X87000000Y-146637244D01*
X87061555Y-146625000D01*
X93938445Y-146625000D01*
X94000000Y-146637244D01*
X94061555Y-146625000D01*
X94243863Y-146588737D01*
X94450600Y-146450600D01*
X94485472Y-146398410D01*
X97258883Y-143625000D01*
X124938445Y-143625000D01*
X125000000Y-143637244D01*
X125061555Y-143625000D01*
X125243863Y-143588737D01*
X125450600Y-143450600D01*
X125485472Y-143398410D01*
X128258883Y-140625000D01*
X129496383Y-140625000D01*
X128909575Y-140868064D01*
X128368064Y-141409575D01*
X128075000Y-142117094D01*
X128075000Y-142882906D01*
X128368064Y-143590425D01*
X128909575Y-144131936D01*
X129617094Y-144425000D01*
X130382906Y-144425000D01*
X131090425Y-144131936D01*
X131631936Y-143590425D01*
X131925000Y-142882906D01*
X131925000Y-142117094D01*
X131631936Y-141409575D01*
X131090425Y-140868064D01*
X130503617Y-140625000D01*
X137741118Y-140625000D01*
X140514529Y-143398412D01*
X140549400Y-143450600D01*
X140736448Y-143575581D01*
X140756137Y-143588737D01*
X141000000Y-143637244D01*
X141061555Y-143625000D01*
X142624320Y-143625000D01*
X142682306Y-143600981D01*
X142743863Y-143588737D01*
X142796050Y-143553867D01*
X142854034Y-143529849D01*
X142898412Y-143485471D01*
X142950600Y-143450600D01*
X142985471Y-143398412D01*
X143029849Y-143354034D01*
X143053867Y-143296050D01*
X143088737Y-143243863D01*
X143100981Y-143182306D01*
X143125000Y-143124320D01*
X143125000Y-143061555D01*
X143137244Y-143000000D01*
X143125000Y-142938445D01*
X143125000Y-142875680D01*
X143100981Y-142817694D01*
X143088737Y-142756137D01*
X143053867Y-142703950D01*
X143029849Y-142645966D01*
X142985471Y-142601588D01*
X142950600Y-142549400D01*
X142898412Y-142514529D01*
X142854034Y-142470151D01*
X142796050Y-142446133D01*
X142743863Y-142411263D01*
X142682306Y-142399019D01*
X142624320Y-142375000D01*
X141258883Y-142375000D01*
X138485472Y-139601590D01*
X138450600Y-139549400D01*
X138243863Y-139411263D01*
X138061555Y-139375000D01*
X138000000Y-139362756D01*
X137938445Y-139375000D01*
X128061555Y-139375000D01*
X128000000Y-139362756D01*
X127889770Y-139384682D01*
X127756137Y-139411263D01*
X127549400Y-139549400D01*
X127514529Y-139601588D01*
X124741118Y-142375000D01*
X97061555Y-142375000D01*
X97000000Y-142362756D01*
X96938445Y-142375000D01*
X96756137Y-142411263D01*
X96549400Y-142549400D01*
X96514529Y-142601588D01*
X93741118Y-145375000D01*
X87258883Y-145375000D01*
X84485472Y-142601590D01*
X84450600Y-142549400D01*
X84243863Y-142411263D01*
X84061555Y-142375000D01*
X84000000Y-142362756D01*
X83938445Y-142375000D01*
X83508882Y-142375000D01*
X83766788Y-142117094D01*
X87575000Y-142117094D01*
X87575000Y-142882906D01*
X87868064Y-143590425D01*
X88409575Y-144131936D01*
X89117094Y-144425000D01*
X89882906Y-144425000D01*
X90590425Y-144131936D01*
X91131936Y-143590425D01*
X91425000Y-142882906D01*
X91425000Y-142117094D01*
X91131936Y-141409575D01*
X90590425Y-140868064D01*
X89882906Y-140575000D01*
X89117094Y-140575000D01*
X88409575Y-140868064D01*
X87868064Y-141409575D01*
X87575000Y-142117094D01*
X83766788Y-142117094D01*
X86258867Y-139625016D01*
X90624320Y-139625016D01*
X90682306Y-139600997D01*
X90743863Y-139588753D01*
X90796050Y-139553883D01*
X90854034Y-139529865D01*
X90898412Y-139485487D01*
X90950600Y-139450616D01*
X90985471Y-139398428D01*
X91029849Y-139354050D01*
X91053867Y-139296066D01*
X91088737Y-139243879D01*
X91100981Y-139182322D01*
X91120789Y-139134500D01*
X146843133Y-139134500D01*
X146843133Y-140785500D01*
X146868357Y-140912309D01*
X146940188Y-141019812D01*
X147047691Y-141091643D01*
X147174500Y-141116867D01*
X148825500Y-141116867D01*
X148952309Y-141091643D01*
X149059812Y-141019812D01*
X149131643Y-140912309D01*
X149156867Y-140785500D01*
X149156867Y-139134500D01*
X149131643Y-139007691D01*
X149059812Y-138900188D01*
X148952309Y-138828357D01*
X148825500Y-138803133D01*
X147174500Y-138803133D01*
X147047691Y-138828357D01*
X146940188Y-138900188D01*
X146868357Y-139007691D01*
X146843133Y-139134500D01*
X91120789Y-139134500D01*
X91125000Y-139124336D01*
X91125000Y-139061571D01*
X91137244Y-139000016D01*
X91125000Y-138938461D01*
X91125000Y-138875696D01*
X91100981Y-138817710D01*
X91088737Y-138756153D01*
X91053867Y-138703966D01*
X91029849Y-138645982D01*
X90985471Y-138601604D01*
X90950600Y-138549416D01*
X90898412Y-138514545D01*
X90854034Y-138470167D01*
X90796050Y-138446149D01*
X90743863Y-138411279D01*
X90682306Y-138399035D01*
X90624320Y-138375016D01*
X86061539Y-138375016D01*
X85999984Y-138362772D01*
X85938429Y-138375016D01*
X85756121Y-138411279D01*
X85549384Y-138549416D01*
X85514513Y-138601604D01*
X81741118Y-142375000D01*
X72375680Y-142375000D01*
X72317694Y-142399019D01*
X72256137Y-142411263D01*
X72203950Y-142446133D01*
X72145966Y-142470151D01*
X72101588Y-142514529D01*
X72049400Y-142549400D01*
X72014529Y-142601588D01*
X71970151Y-142645966D01*
X71946133Y-142703950D01*
X71911263Y-142756137D01*
X71899019Y-142817694D01*
X71875000Y-142875680D01*
X71875000Y-142938445D01*
X71862756Y-143000000D01*
X70028698Y-143000000D01*
X69349540Y-142320843D01*
X69324432Y-142283266D01*
X69286857Y-142258160D01*
X67741842Y-140713145D01*
X67716734Y-140675568D01*
X67678469Y-140650000D01*
X68013605Y-140650000D01*
X68650461Y-141286857D01*
X68675568Y-141324432D01*
X68824419Y-141423891D01*
X68955679Y-141450000D01*
X68955680Y-141450000D01*
X69000000Y-141458816D01*
X69044320Y-141450000D01*
X72455680Y-141450000D01*
X72500000Y-141458816D01*
X72544320Y-141450000D01*
X72544321Y-141450000D01*
X72675581Y-141423891D01*
X72747724Y-141375686D01*
X73875000Y-141375686D01*
X73875000Y-141624326D01*
X73970151Y-141854040D01*
X74145966Y-142029855D01*
X74375680Y-142125006D01*
X74624320Y-142125006D01*
X74854034Y-142029855D01*
X74933883Y-141950006D01*
X75455674Y-141950006D01*
X75499994Y-141958822D01*
X75544314Y-141950006D01*
X75544315Y-141950006D01*
X75675575Y-141923897D01*
X75824426Y-141824438D01*
X75849534Y-141786861D01*
X80686396Y-136950000D01*
X98763133Y-136950000D01*
X98763133Y-137325500D01*
X98788357Y-137452309D01*
X98860188Y-137559812D01*
X98967691Y-137631643D01*
X99094500Y-137656867D01*
X100745500Y-137656867D01*
X100872309Y-137631643D01*
X100979812Y-137559812D01*
X101051643Y-137452309D01*
X101076867Y-137325500D01*
X101076867Y-136271151D01*
X101309500Y-136271151D01*
X101309500Y-136728849D01*
X101484653Y-137151706D01*
X101808294Y-137475347D01*
X102231151Y-137650500D01*
X102688849Y-137650500D01*
X103111706Y-137475347D01*
X103435347Y-137151706D01*
X103610500Y-136728849D01*
X103610500Y-136271151D01*
X103849500Y-136271151D01*
X103849500Y-136728849D01*
X104024653Y-137151706D01*
X104348294Y-137475347D01*
X104771151Y-137650500D01*
X105228849Y-137650500D01*
X105651706Y-137475347D01*
X105975347Y-137151706D01*
X106150500Y-136728849D01*
X106150500Y-136271151D01*
X106389500Y-136271151D01*
X106389500Y-136728849D01*
X106564653Y-137151706D01*
X106888294Y-137475347D01*
X107311151Y-137650500D01*
X107768849Y-137650500D01*
X108191706Y-137475347D01*
X108515347Y-137151706D01*
X108690500Y-136728849D01*
X108690500Y-136271151D01*
X108929500Y-136271151D01*
X108929500Y-136728849D01*
X109104653Y-137151706D01*
X109428294Y-137475347D01*
X109851151Y-137650500D01*
X110308849Y-137650500D01*
X110731706Y-137475347D01*
X111055347Y-137151706D01*
X111230500Y-136728849D01*
X111230500Y-136271151D01*
X111469500Y-136271151D01*
X111469500Y-136728849D01*
X111644653Y-137151706D01*
X111968294Y-137475347D01*
X112391151Y-137650500D01*
X112848849Y-137650500D01*
X113271706Y-137475347D01*
X113595347Y-137151706D01*
X113770500Y-136728849D01*
X113770500Y-136271151D01*
X114009500Y-136271151D01*
X114009500Y-136728849D01*
X114184653Y-137151706D01*
X114508294Y-137475347D01*
X114931151Y-137650500D01*
X115388849Y-137650500D01*
X115811706Y-137475347D01*
X116135347Y-137151706D01*
X116310500Y-136728849D01*
X116310500Y-136271151D01*
X116549500Y-136271151D01*
X116549500Y-136728849D01*
X116724653Y-137151706D01*
X117048294Y-137475347D01*
X117471151Y-137650500D01*
X117928849Y-137650500D01*
X118351706Y-137475347D01*
X118675347Y-137151706D01*
X118850500Y-136728849D01*
X118850500Y-136271151D01*
X118675347Y-135848294D01*
X118501553Y-135674500D01*
X121613133Y-135674500D01*
X121613133Y-137325500D01*
X121638357Y-137452309D01*
X121710188Y-137559812D01*
X121817691Y-137631643D01*
X121944500Y-137656867D01*
X123595500Y-137656867D01*
X123722309Y-137631643D01*
X123829812Y-137559812D01*
X123901643Y-137452309D01*
X123926867Y-137325500D01*
X123926867Y-135674500D01*
X123901643Y-135547691D01*
X123829812Y-135440188D01*
X123722309Y-135368357D01*
X123595500Y-135343133D01*
X121944500Y-135343133D01*
X121817691Y-135368357D01*
X121710188Y-135440188D01*
X121638357Y-135547691D01*
X121613133Y-135674500D01*
X118501553Y-135674500D01*
X118351706Y-135524653D01*
X117928849Y-135349500D01*
X117471151Y-135349500D01*
X117048294Y-135524653D01*
X116724653Y-135848294D01*
X116549500Y-136271151D01*
X116310500Y-136271151D01*
X116135347Y-135848294D01*
X115811706Y-135524653D01*
X115388849Y-135349500D01*
X114931151Y-135349500D01*
X114508294Y-135524653D01*
X114184653Y-135848294D01*
X114009500Y-136271151D01*
X113770500Y-136271151D01*
X113595347Y-135848294D01*
X113271706Y-135524653D01*
X112848849Y-135349500D01*
X112391151Y-135349500D01*
X111968294Y-135524653D01*
X111644653Y-135848294D01*
X111469500Y-136271151D01*
X111230500Y-136271151D01*
X111055347Y-135848294D01*
X110731706Y-135524653D01*
X110308849Y-135349500D01*
X109851151Y-135349500D01*
X109428294Y-135524653D01*
X109104653Y-135848294D01*
X108929500Y-136271151D01*
X108690500Y-136271151D01*
X108515347Y-135848294D01*
X108191706Y-135524653D01*
X107768849Y-135349500D01*
X107311151Y-135349500D01*
X106888294Y-135524653D01*
X106564653Y-135848294D01*
X106389500Y-136271151D01*
X106150500Y-136271151D01*
X105975347Y-135848294D01*
X105651706Y-135524653D01*
X105228849Y-135349500D01*
X104771151Y-135349500D01*
X104348294Y-135524653D01*
X104024653Y-135848294D01*
X103849500Y-136271151D01*
X103610500Y-136271151D01*
X103435347Y-135848294D01*
X103111706Y-135524653D01*
X102688849Y-135349500D01*
X102231151Y-135349500D01*
X101808294Y-135524653D01*
X101484653Y-135848294D01*
X101309500Y-136271151D01*
X101076867Y-136271151D01*
X101076867Y-135674500D01*
X101051643Y-135547691D01*
X100979812Y-135440188D01*
X100872309Y-135368357D01*
X100745500Y-135343133D01*
X99094500Y-135343133D01*
X98967691Y-135368357D01*
X98860188Y-135440188D01*
X98788357Y-135547691D01*
X98763133Y-135674500D01*
X98763133Y-136050000D01*
X80544316Y-136050000D01*
X80499999Y-136041185D01*
X80455683Y-136050000D01*
X80455679Y-136050000D01*
X80324419Y-136076109D01*
X80175568Y-136175568D01*
X80150462Y-136213142D01*
X76567283Y-139796322D01*
X76690500Y-139498849D01*
X76690500Y-139041151D01*
X76515347Y-138618294D01*
X76191706Y-138294653D01*
X75768849Y-138119500D01*
X75311151Y-138119500D01*
X74888294Y-138294653D01*
X74564653Y-138618294D01*
X74389500Y-139041151D01*
X74389500Y-139498849D01*
X74564653Y-139921706D01*
X74888294Y-140245347D01*
X75311151Y-140420500D01*
X75768849Y-140420500D01*
X76066322Y-140297283D01*
X75313599Y-141050006D01*
X74933883Y-141050006D01*
X74854034Y-140970157D01*
X74624320Y-140875006D01*
X74375680Y-140875006D01*
X74145966Y-140970157D01*
X73970151Y-141145972D01*
X73875000Y-141375686D01*
X72747724Y-141375686D01*
X72824432Y-141324432D01*
X72849540Y-141286855D01*
X73286858Y-140849538D01*
X73324432Y-140824432D01*
X73423891Y-140675581D01*
X73450000Y-140544321D01*
X73450000Y-140544320D01*
X73458816Y-140500000D01*
X73450000Y-140455680D01*
X73450000Y-140328896D01*
X73651706Y-140245347D01*
X73975347Y-139921706D01*
X74150500Y-139498849D01*
X74150500Y-139041151D01*
X73975347Y-138618294D01*
X73651706Y-138294653D01*
X73228849Y-138119500D01*
X72771151Y-138119500D01*
X72348294Y-138294653D01*
X72024653Y-138618294D01*
X71849500Y-139041151D01*
X71849500Y-139498849D01*
X72024653Y-139921706D01*
X72348294Y-140245347D01*
X72539187Y-140324417D01*
X72313605Y-140550000D01*
X69186396Y-140550000D01*
X68549540Y-139913145D01*
X68524432Y-139875568D01*
X68375581Y-139776109D01*
X68244321Y-139750000D01*
X68244320Y-139750000D01*
X68200000Y-139741184D01*
X68155680Y-139750000D01*
X67323943Y-139750000D01*
X67284312Y-139690688D01*
X67176809Y-139618857D01*
X67050000Y-139593633D01*
X65450000Y-139593633D01*
X65395533Y-139604467D01*
X65406367Y-139550000D01*
X65406367Y-139200000D01*
X68063605Y-139200000D01*
X68420461Y-139556857D01*
X68445568Y-139594432D01*
X68594419Y-139693891D01*
X68725679Y-139720000D01*
X68769999Y-139728816D01*
X68814319Y-139720000D01*
X69303133Y-139720000D01*
X69303133Y-140095500D01*
X69328357Y-140222309D01*
X69400188Y-140329812D01*
X69507691Y-140401643D01*
X69634500Y-140426867D01*
X71285500Y-140426867D01*
X71412309Y-140401643D01*
X71519812Y-140329812D01*
X71591643Y-140222309D01*
X71616867Y-140095500D01*
X71616867Y-138444500D01*
X71591643Y-138317691D01*
X71519812Y-138210188D01*
X71412309Y-138138357D01*
X71285500Y-138113133D01*
X69634500Y-138113133D01*
X69507691Y-138138357D01*
X69400188Y-138210188D01*
X69328357Y-138317691D01*
X69303133Y-138444500D01*
X69303133Y-138820000D01*
X68956396Y-138820000D01*
X68599540Y-138463145D01*
X68574432Y-138425568D01*
X68425581Y-138326109D01*
X68294321Y-138300000D01*
X68294320Y-138300000D01*
X68250000Y-138291184D01*
X68205680Y-138300000D01*
X65406367Y-138300000D01*
X65406367Y-137950000D01*
X65381143Y-137823191D01*
X65309312Y-137715688D01*
X65201809Y-137643857D01*
X65075000Y-137618633D01*
X64717762Y-137618633D01*
X65386396Y-136950000D01*
X67155680Y-136950000D01*
X67200000Y-136958816D01*
X67244320Y-136950000D01*
X67244321Y-136950000D01*
X67375581Y-136923891D01*
X67524432Y-136824432D01*
X67549540Y-136786855D01*
X68356897Y-135979499D01*
X69583448Y-135979499D01*
X69484653Y-136078294D01*
X69309500Y-136501151D01*
X69309500Y-136958849D01*
X69484653Y-137381706D01*
X69808294Y-137705347D01*
X70231151Y-137880500D01*
X70688849Y-137880500D01*
X71111706Y-137705347D01*
X71435347Y-137381706D01*
X71610500Y-136958849D01*
X71610500Y-136501151D01*
X71435347Y-136078294D01*
X71336552Y-135979499D01*
X71613104Y-135979499D01*
X71933049Y-136299445D01*
X71849500Y-136501151D01*
X71849500Y-136958849D01*
X72024653Y-137381706D01*
X72348294Y-137705347D01*
X72771151Y-137880500D01*
X73228849Y-137880500D01*
X73651706Y-137705347D01*
X73975347Y-137381706D01*
X74150500Y-136958849D01*
X74150500Y-136501151D01*
X73975347Y-136078294D01*
X73651706Y-135754653D01*
X73228849Y-135579500D01*
X72771151Y-135579500D01*
X72569445Y-135663049D01*
X72206395Y-135300000D01*
X149700001Y-135300000D01*
X149700000Y-149700000D01*
X104436395Y-149700000D01*
X107786858Y-146349538D01*
X107824432Y-146324432D01*
X107923891Y-146175581D01*
X107950000Y-146044321D01*
X107950000Y-146044320D01*
X107958816Y-146000001D01*
X107950000Y-145955681D01*
X107950000Y-144933883D01*
X108000000Y-144883883D01*
X108050000Y-144933883D01*
X108050001Y-147566116D01*
X107970151Y-147645966D01*
X107875000Y-147875680D01*
X107875000Y-148124320D01*
X107970151Y-148354034D01*
X108145966Y-148529849D01*
X108375680Y-148625000D01*
X108624320Y-148625000D01*
X108854034Y-148529849D01*
X109000000Y-148383883D01*
X109145966Y-148529849D01*
X109375680Y-148625000D01*
X109624320Y-148625000D01*
X109854034Y-148529849D01*
X110029849Y-148354034D01*
X110125000Y-148124320D01*
X110125000Y-147875680D01*
X110029849Y-147645966D01*
X109950000Y-147566117D01*
X109950000Y-145375680D01*
X142874998Y-145375680D01*
X142874998Y-145624320D01*
X142970149Y-145854034D01*
X143145964Y-146029849D01*
X143375678Y-146125000D01*
X143624318Y-146125000D01*
X143854032Y-146029849D01*
X144029847Y-145854034D01*
X144124998Y-145624320D01*
X144124998Y-145511396D01*
X144186394Y-145450000D01*
X146924535Y-145450000D01*
X147024653Y-145691706D01*
X147348294Y-146015347D01*
X147771151Y-146190500D01*
X148228849Y-146190500D01*
X148651706Y-146015347D01*
X148975347Y-145691706D01*
X149150500Y-145268849D01*
X149150500Y-144811151D01*
X148975347Y-144388294D01*
X148651706Y-144064653D01*
X148228849Y-143889500D01*
X147771151Y-143889500D01*
X147348294Y-144064653D01*
X147024653Y-144388294D01*
X146957672Y-144550000D01*
X144044318Y-144550000D01*
X143999998Y-144541184D01*
X143955678Y-144550000D01*
X143955677Y-144550000D01*
X143824417Y-144576109D01*
X143675566Y-144675568D01*
X143650459Y-144713143D01*
X143488602Y-144875000D01*
X143375678Y-144875000D01*
X143145964Y-144970151D01*
X142970149Y-145145966D01*
X142874998Y-145375680D01*
X109950000Y-145375680D01*
X109950000Y-144933883D01*
X110029849Y-144854034D01*
X110125000Y-144624320D01*
X110125000Y-144375680D01*
X110029849Y-144145966D01*
X109854034Y-143970151D01*
X109624320Y-143875000D01*
X109375680Y-143875000D01*
X109145966Y-143970151D01*
X109000000Y-144116117D01*
X108854034Y-143970151D01*
X108624320Y-143875000D01*
X108375680Y-143875000D01*
X108145966Y-143970151D01*
X108000000Y-144116117D01*
X107854034Y-143970151D01*
X107624320Y-143875000D01*
X107375680Y-143875000D01*
X107145966Y-143970151D01*
X107000000Y-144116117D01*
X106854034Y-143970151D01*
X106624320Y-143875000D01*
X106375680Y-143875000D01*
X106145966Y-143970151D01*
X106000000Y-144116117D01*
X105854034Y-143970151D01*
X105624320Y-143875000D01*
X105375680Y-143875000D01*
X105145966Y-143970151D01*
X105000000Y-144116117D01*
X104854034Y-143970151D01*
X104624320Y-143875000D01*
X104375680Y-143875000D01*
X104145966Y-143970151D01*
X104000000Y-144116117D01*
X103854034Y-143970151D01*
X103624320Y-143875000D01*
X103375680Y-143875000D01*
X103145966Y-143970151D01*
X102970151Y-144145966D01*
X102875000Y-144375680D01*
X102875000Y-144488605D01*
X102713113Y-144650492D01*
X102675539Y-144675598D01*
X102650433Y-144713172D01*
X102576080Y-144824449D01*
X102541154Y-145000030D01*
X102549971Y-145044355D01*
X102549970Y-147049970D01*
X69986366Y-147049970D01*
X67649540Y-144713145D01*
X67624432Y-144675568D01*
X67475581Y-144576109D01*
X67365606Y-144554234D01*
X67381367Y-144475000D01*
X67381367Y-143925000D01*
X67356143Y-143798191D01*
X67284312Y-143690688D01*
X67176809Y-143618857D01*
X67050000Y-143593633D01*
X65450000Y-143593633D01*
X65323191Y-143618857D01*
X65215688Y-143690688D01*
X65143857Y-143798191D01*
X65118633Y-143925000D01*
X65118633Y-144475000D01*
X65143497Y-144600000D01*
X65118633Y-144725000D01*
X65118633Y-145275000D01*
X65143497Y-145400000D01*
X65118633Y-145525000D01*
X65118633Y-146075000D01*
X65129467Y-146129467D01*
X65075000Y-146118633D01*
X64525000Y-146118633D01*
X64400000Y-146143497D01*
X64275000Y-146118633D01*
X63725000Y-146118633D01*
X63600000Y-146143497D01*
X63475000Y-146118633D01*
X62925000Y-146118633D01*
X62800000Y-146143497D01*
X62675000Y-146118633D01*
X62125000Y-146118633D01*
X62050000Y-146133551D01*
X62050000Y-142644319D01*
X62058816Y-142599999D01*
X62043782Y-142524419D01*
X62023891Y-142424419D01*
X61924432Y-142275568D01*
X61886857Y-142250462D01*
X60649538Y-141013143D01*
X60649536Y-141013140D01*
X60625000Y-140988604D01*
X60625000Y-140875680D01*
X60529849Y-140645966D01*
X60354034Y-140470151D01*
X60124320Y-140375000D01*
X59875680Y-140375000D01*
X59645966Y-140470151D01*
X59470151Y-140645966D01*
X59375000Y-140875680D01*
X59375000Y-141124320D01*
X59470151Y-141354034D01*
X59645966Y-141529849D01*
X59875680Y-141625000D01*
X59988604Y-141625000D01*
X60013140Y-141649536D01*
X60013143Y-141649538D01*
X61150001Y-142786397D01*
X61150000Y-146133552D01*
X61075000Y-146118633D01*
X60525000Y-146118633D01*
X60400000Y-146143497D01*
X60275000Y-146118633D01*
X59725000Y-146118633D01*
X59600000Y-146143497D01*
X59475000Y-146118633D01*
X58925000Y-146118633D01*
X58870533Y-146129467D01*
X58881367Y-146075000D01*
X58881367Y-145525000D01*
X58856503Y-145400000D01*
X58881367Y-145275000D01*
X58881367Y-144725000D01*
X58856143Y-144598191D01*
X58784312Y-144490688D01*
X58676809Y-144418857D01*
X58550000Y-144393633D01*
X56950000Y-144393633D01*
X56823191Y-144418857D01*
X56715688Y-144490688D01*
X56643857Y-144598191D01*
X56618633Y-144725000D01*
X56618633Y-145275000D01*
X56643497Y-145400000D01*
X56618633Y-145525000D01*
X56618633Y-146075000D01*
X56643857Y-146201809D01*
X56651042Y-146212562D01*
X56488605Y-146375000D01*
X56375680Y-146375000D01*
X56145966Y-146470151D01*
X55970151Y-146645966D01*
X55875000Y-146875680D01*
X55875000Y-147124320D01*
X55970151Y-147354034D01*
X56145966Y-147529849D01*
X56375680Y-147625000D01*
X56624320Y-147625000D01*
X56854034Y-147529849D01*
X57029849Y-147354034D01*
X57125000Y-147124320D01*
X57125000Y-147011395D01*
X57730029Y-146406367D01*
X58550000Y-146406367D01*
X58604467Y-146395533D01*
X58593633Y-146450000D01*
X58593633Y-146800000D01*
X58294310Y-146800000D01*
X58249988Y-146791184D01*
X58074406Y-146826109D01*
X57963129Y-146900462D01*
X57963128Y-146900463D01*
X57925556Y-146925568D01*
X57900451Y-146963140D01*
X57513142Y-147350450D01*
X57488604Y-147374988D01*
X57375680Y-147374988D01*
X57145966Y-147470139D01*
X56970151Y-147645954D01*
X56875000Y-147875668D01*
X56875000Y-148124308D01*
X56970151Y-148354022D01*
X57145966Y-148529837D01*
X57375680Y-148624988D01*
X57624320Y-148624988D01*
X57854034Y-148529837D01*
X58029849Y-148354022D01*
X58125000Y-148124308D01*
X58125000Y-148011384D01*
X58436384Y-147700000D01*
X58593633Y-147700000D01*
X58593633Y-148050000D01*
X58618857Y-148176809D01*
X58690688Y-148284312D01*
X58798191Y-148356143D01*
X58925000Y-148381367D01*
X59475000Y-148381367D01*
X59600000Y-148356503D01*
X59725000Y-148381367D01*
X60275000Y-148381367D01*
X60400000Y-148356503D01*
X60525000Y-148381367D01*
X61075000Y-148381367D01*
X61200000Y-148356503D01*
X61325000Y-148381367D01*
X61875000Y-148381367D01*
X61954234Y-148365606D01*
X61965828Y-148423891D01*
X61976110Y-148475581D01*
X62075569Y-148624432D01*
X62113143Y-148649538D01*
X63163604Y-149700000D01*
X50300000Y-149700000D01*
X50300000Y-144811151D01*
X50849500Y-144811151D01*
X50849500Y-145268849D01*
X51024653Y-145691706D01*
X51348294Y-146015347D01*
X51771151Y-146190500D01*
X52228849Y-146190500D01*
X52651706Y-146015347D01*
X52975347Y-145691706D01*
X53150500Y-145268849D01*
X53150500Y-144811151D01*
X52975347Y-144388294D01*
X52651706Y-144064653D01*
X52228849Y-143889500D01*
X51771151Y-143889500D01*
X51348294Y-144064653D01*
X51024653Y-144388294D01*
X50849500Y-144811151D01*
X50300000Y-144811151D01*
X50300000Y-135300000D01*
X62563604Y-135300000D01*
X62113145Y-135750460D01*
G04 #@! TD*
M02*
